<svg width="402" height="378" viewBox="0 0 402 378" fill="none" xmlns="http://www.w3.org/2000/svg">
<g clip-path="url(#clip0_12480_1433)">
<path d="M358.033 178.553C361.048 160.01 351.778 143.383 336.828 138.285C338.962 120.986 328.652 106.155 313.548 104.295C307.443 103.772 301.261 105.315 296.207 108.369C294.032 105.073 290.814 102.677 286.717 102.42C279.648 101.625 272.991 106.615 270.837 114.064C269.946 109.936 266.967 106.712 262.709 106.111C261.504 105.772 260.38 106.053 259.256 106.334C259.055 86.29 245.688 69.4061 226.97 67.4251C212.027 65.909 197.746 73.8267 189.179 87.2288C187.555 78.4194 181.196 71.5603 172.841 70.7029C162.477 69.5792 152.694 77.2698 149.664 88.6491C148.053 86.1078 145.479 84.1909 142.185 83.8615C138.65 83.4643 135.039 85.134 132.474 87.6943C129.251 82.6118 124.264 79.1216 118.238 78.3225C106.59 77.1358 95.5243 86.5542 93.5427 99.7197C92.6706 105.441 93.6457 111.085 96.0638 115.344C94.6155 114.042 92.7665 113.224 90.4371 113.166C83.6084 112.439 77.0334 118.049 75.8441 125.769C75.4488 128.939 75.8566 132.037 76.9859 134.443C64.2258 139.805 54.2118 152.8 51.7533 168.517C48.1037 191.058 61.3962 210.904 81.3201 213.224C84.6139 213.553 87.5052 213.471 90.7972 212.905C90.6377 213.457 90.4782 214.008 90.3186 214.56C89.287 220.833 91.1468 227.024 94.9299 231.071C91.8046 234.667 89.7253 239.154 88.7716 244.255C86.7084 256.801 94.3616 268.201 105.448 269.528C110.51 270.056 115.647 268.517 119.737 265.192C121.993 269.108 130.772 281.122 149.638 276.283C171.634 270.534 170.868 248.84 170.868 248.84C170.868 248.84 175.082 267.625 197.645 264.423C207.442 263 212.971 256.5 216.33 249.39C217.385 254.758 221.168 258.805 226.47 259.401C230.487 259.933 234.66 258.123 237.465 254.735C239.571 263.68 246.251 270.331 255.088 271.324C264.969 272.312 274.675 265.793 278.832 255.924C282.774 259.419 287.598 261.67 293.142 262.334C309.531 264.257 325.246 250.477 327.94 232.143C328.89 225.25 328.234 218.503 325.974 212.796C341.471 210.59 355.178 196.544 358.033 178.553Z" fill="white"/>
<path d="M333.908 163.717C336.169 169.423 337.146 175.963 335.875 183.063C332.86 201.606 317.224 215.11 300.997 213.53C295.453 212.867 290.629 210.616 286.687 207.121C282.53 216.99 272.824 223.509 262.943 222.521C254.106 221.528 247.426 214.877 245.32 205.932C242.595 209.044 238.583 211.198 234.325 210.597C229.023 210.002 225.24 205.955 224.185 200.587C221.146 207.489 215.297 214.197 205.5 215.62C182.937 218.822 178.723 200.037 178.723 200.037C178.723 200.037 179.569 221.455 157.493 227.48C138.868 232.386 129.848 220.304 127.592 216.388C123.502 219.713 118.365 221.252 113.303 220.724C102.217 219.397 94.4836 208.274 96.6266 195.452C97.3391 190.283 99.4185 185.796 102.785 182.267C99.0017 178.221 97.3033 172.373 98.1736 165.757C98.3331 165.205 98.4927 164.653 98.6522 164.102C95.6013 164.735 92.4689 164.75 89.1751 164.42C77.5263 163.234 67.9533 155.769 62.9522 145.115C57.182 151.548 53.2626 159.694 51.9155 168.861C48.2659 191.402 61.5584 211.248 81.4824 213.568C84.7761 213.897 87.6675 213.815 90.9595 213.249C90.7999 213.801 90.6404 214.353 90.4809 214.905C89.4493 221.178 91.309 227.368 95.0921 231.415C91.9669 235.011 89.8875 239.498 88.9339 244.6C86.8707 257.146 94.5238 268.545 105.611 269.872C110.672 270.4 115.809 268.861 119.899 265.536C122.156 269.452 130.935 281.466 149.8 276.627C171.796 270.879 171.03 249.184 171.03 249.184C171.03 249.184 175.244 267.97 197.808 264.767C207.604 263.345 213.133 256.845 216.492 249.735C217.547 255.103 221.33 259.149 226.632 259.745C230.65 260.278 234.823 258.468 237.627 255.08C239.733 264.025 246.413 270.676 255.25 271.669C265.132 272.657 274.837 266.138 278.994 256.269C282.937 259.764 287.76 262.015 293.304 262.678C309.693 264.601 325.408 250.822 328.102 232.487C329.052 225.594 328.396 218.847 326.136 213.14C341.633 210.934 355.34 196.889 358.195 178.897C359.622 169.454 357.998 160.645 354.048 153.568C348.517 159.173 341.377 163.131 333.829 163.992L333.908 163.717Z" fill="white"/>
<path d="M75.9886 118.052C78.7115 114.045 82.803 111.615 86.4158 110.841C90.19 110.411 93.2444 111.568 95.3363 113.349C97.508 114.854 98.4759 116.916 99.1212 118.291C99.7666 119.666 99.7683 120.561 99.7683 120.561C99.7683 120.561 99.4457 119.874 98.3998 118.983C97.3538 118.093 96.1465 116.858 93.9767 116.248C92.0479 115.706 89.5572 115.304 86.9087 116.349C84.34 117.119 81.9345 119.127 80.4135 121.683C78.6514 124.171 77.9353 127.549 77.9407 130.236C78.1872 132.99 78.9956 135.603 80.2844 137.457C81.5732 139.311 83.1014 140.338 84.2271 140.952C85.3528 141.567 86.0761 141.77 86.0761 141.77C86.0761 141.77 85.273 141.843 83.9878 141.78C82.7823 141.441 80.5327 141.107 78.6021 139.669C76.4305 138.164 74.4166 135.211 73.6861 131.426C72.9557 127.641 73.6682 122.471 76.15 118.396L75.9886 118.052Z" fill="#2D2D2D"/>
<path d="M140.248 80.6317C144.264 80.269 147.641 82.1134 149.814 84.5143C151.908 87.1911 152.798 90.4245 152.883 92.835C152.888 95.5213 152.33 97.4526 151.69 98.7642C151.291 100.144 150.65 100.56 150.65 100.56C150.65 100.56 150.889 99.7322 150.726 98.4931C150.804 97.3218 150.559 95.4631 150.073 93.5366C149.587 91.6101 148.299 89.7562 146.609 88.3863C144.92 87.0164 142.509 86.3386 140.1 86.5562C137.69 86.7738 135.524 87.9547 133.76 89.5471C131.996 91.1394 130.876 93.211 130.238 95.4181C129.041 99.5564 129.77 102.446 129.77 102.446C129.77 102.446 129.368 102.035 128.722 100.66C128.238 99.629 127.512 97.6347 127.506 94.9484C127.501 92.262 128.458 88.9513 130.621 85.9795C132.783 83.0078 136.313 80.7185 140.328 80.3558L140.248 80.6317Z" fill="#2D2D2D"/>
<path d="M287.034 99.5264C291.855 99.9866 295.877 103.206 298.134 107.122C300.149 110.97 300.479 115.239 300.004 118.685C299.288 122.064 298.329 124.479 297.127 125.931C296.166 127.451 295.445 128.143 295.445 128.143C295.445 128.143 295.684 127.315 296.404 125.728C296.883 124.072 297.521 121.865 297.274 119.111C297.028 116.357 296.379 113.191 294.447 110.858C292.594 108.249 289.699 106.54 286.405 106.211C283.111 105.881 279.66 106.999 277.254 109.008C274.608 110.949 273.007 113.78 271.968 116.471C271.171 119.23 270.773 121.505 270.777 123.296C270.781 125.087 271.024 126.05 271.024 126.05C271.024 126.05 270.46 125.295 269.894 123.644C269.329 121.994 268.761 119.448 269.236 116.002C269.711 112.555 271.39 108.552 274.436 105.232C277.481 101.912 282.537 99.7536 287.357 100.214L287.034 99.5264Z" fill="#2D2D2D"/>
<path d="M360.047 182.4C358.613 188.261 356.295 193.576 353.171 198.067C350.048 202.559 346.361 206.295 342.269 208.725C334.409 214.271 325.978 215.481 319.47 214.546C312.962 213.612 308.218 211.085 305.483 208.824C302.747 206.563 301.379 204.985 301.379 204.985C301.379 204.985 302.827 206.287 306.043 207.788C309.018 209.221 313.921 211.196 319.945 211.1C325.969 211.004 333.274 209.179 340.01 203.913C346.667 198.924 352.434 190.7 354.743 180.909C357.053 171.117 355.748 161.204 351.798 154.127C347.928 146.774 342.296 141.91 336.669 139.731C331.122 137.277 325.981 137.025 322.528 137.247C319.075 137.469 317.068 138.098 317.068 138.098C317.068 138.098 318.913 137.126 322.526 136.351C326.139 135.577 331.519 135.002 337.788 136.764C344.056 138.526 351.053 143.178 355.808 151.078C358.306 155.062 360.003 160.013 360.816 165.314C361.63 170.614 361.481 176.538 360.127 182.124L360.047 182.4Z" fill="#2D2D2D"/>
<path d="M195.072 261.611C198.043 261.253 200.532 260.76 203.18 259.714C205.588 258.601 207.834 257.145 209.677 255.276C213.364 251.54 215.765 246.845 217.443 242.842C218.881 238.772 219.677 235.117 220.395 232.634C221.113 230.151 221.029 228.636 221.029 228.636C221.029 228.636 221.192 229.875 221.198 232.562C221.203 235.248 221.21 238.83 220.095 243.588C219.06 248.07 217.144 253.796 212.817 258.844C210.814 261.264 208.087 263.48 205.038 265.01C201.989 266.539 198.617 267.381 195.405 267.671C192.193 267.961 188.899 267.632 185.765 266.751C182.872 265.938 179.897 264.505 177.805 262.723C173.139 259.025 170.64 254.146 168.945 250.089C167.33 245.757 166.76 242.316 166.514 239.562C166.188 237.083 166.346 235.636 166.346 235.636C166.346 235.636 166.75 236.943 167.397 239.213C168.044 241.483 169.416 244.852 171.27 248.357C173.366 251.929 176.185 255.705 180.126 258.304C184.066 260.904 189.45 262.119 195.151 261.335L195.072 261.611Z" fill="#2D2D2D"/>
<path d="M258.065 274.547C254.371 274.701 250.996 273.752 248.021 272.319C245.046 270.887 242.552 268.694 240.699 266.085C236.914 261.142 235.537 255.087 235.446 249.99C235.597 244.961 236.955 241.167 237.914 238.751C239.114 236.404 239.995 235.16 239.995 235.16C239.995 235.16 239.596 236.539 238.878 239.022C238.16 241.505 237.605 245.228 238.417 249.632C238.988 253.969 240.765 258.645 244.387 262.348C247.767 265.984 252.832 268.302 258.615 268.138C264.156 267.906 269.451 264.92 273.139 261.184C276.906 257.171 279.065 252.409 279.859 247.859C280.894 243.377 280.405 239.659 280.079 237.181C279.752 234.703 279.107 233.328 279.107 233.328C279.107 233.328 279.832 234.427 280.961 236.833C281.85 239.171 282.821 243.024 282.671 248.053C282.279 253.014 280.524 259.084 276.358 264.475C272.192 269.867 265.534 273.962 258.145 274.271L258.065 274.547Z" fill="#2D2D2D"/>
<path d="M220.91 67.2072C226.163 67.4902 231.269 68.8914 235.962 70.7325C240.655 72.5737 244.811 75.201 248.163 77.9364C255.093 83.4864 258.849 90.0672 260.239 95.428C261.628 100.789 261.104 105.088 260.172 107.685C259.239 110.282 258.68 111.84 258.68 111.84C258.68 111.84 259.239 110.282 259.43 107.62C259.683 104.785 259.63 100.673 257.828 95.7519C256.025 90.8311 251.959 85.1159 245.521 80.3235C239.309 75.6106 230.376 72.0871 221.416 71.4783C212.23 70.7901 204.211 73.2406 198.723 77.1635C193.235 81.0865 190.34 86.3089 189.402 91.0485C188.465 95.7881 189.198 100.139 189.975 102.945C190.978 105.831 191.675 107.44 191.675 107.44C191.675 107.44 190.627 106.098 189.171 103.053C187.879 100.261 186.405 95.8452 186.787 90.521C187.107 85.37 189.572 79.2168 195.371 74.4282C198.239 72.1205 202.013 70.1304 206.342 68.725C210.609 67.4926 215.658 66.9242 220.91 67.2072Z" fill="#2D2D2D"/>
<path d="M271.88 113.164C271.876 111.373 271.229 109.103 269.699 107.181C268.169 105.26 265.998 103.754 263.186 103.56C262.222 103.289 261.098 103.57 260.295 103.642C260.46 105.777 260.383 107.844 260.146 109.567C260.869 109.77 261.511 109.354 262.234 109.557C265.287 109.819 267.861 111.736 269.231 114.209C270.682 116.407 270.767 118.818 270.767 118.818C270.767 118.818 270.926 118.266 271.165 117.438C271.405 116.61 271.883 114.955 271.639 113.096L271.88 113.164Z" fill="#2D2D2D"/>
<path d="M186.584 75.4604C184.892 73.195 182.639 71.07 179.905 69.7048C177.172 68.3397 174.038 67.4585 170.664 67.405C163.837 67.574 157.579 71.1844 153.814 76.0922C151.811 78.5122 150.21 81.3436 149.413 84.1025C149.654 84.1703 149.815 84.514 149.976 84.8576C150.781 85.6805 151.265 86.7116 151.749 87.7426C152.788 85.0515 154.63 82.2878 156.954 79.6597C160.32 76.1313 165.215 73.6293 170.436 73.6054C175.415 73.5138 180.239 75.7649 183.137 79.2646C185.149 81.3219 186.52 83.7954 187.328 86.4092C188.209 85.1653 189.17 83.6455 190.051 82.4016C189.404 80.1315 188.275 77.7258 186.745 75.8041L186.584 75.4604Z" fill="#2D2D2D"/>
<path d="M130.065 87.0178C130.065 87.0178 130.145 86.7419 130.225 86.466C130.705 85.7061 131.106 85.2221 131.827 84.53C129.652 81.2336 125.71 77.7386 120.647 76.3152C115.584 74.8918 108.838 75.6803 103.304 79.4941C97.5283 83.24 93.6054 89.5951 92.1713 95.4566C90.4164 101.526 91.1505 107.102 92.6042 111.091C94.0579 115.079 96.1516 117.756 97.6 119.058C99.2097 120.704 100.094 121.251 100.094 121.251C100.094 121.251 99.2894 120.428 98.2417 118.642C97.194 116.856 95.9033 114.106 95.2527 110.045C94.7633 106.328 94.8341 101.575 96.6724 97.0203C98.2695 92.3979 101.634 87.9741 105.885 84.9928C110.136 82.0115 115.114 81.0244 119.613 81.6927C123.871 82.2932 127.41 84.4813 130.065 87.0178Z" fill="#2D2D2D"/>
<path d="M124.628 218.539C124.628 218.539 124.309 219.642 123.831 221.298C123.111 222.885 121.911 225.233 119.667 227.585C117.743 229.729 114.776 231.878 111.404 232.72C108.032 233.562 104.418 233.441 100.961 231.872C97.5037 230.304 95.0077 227.215 93.6355 223.847C92.2633 220.478 91.9353 217.104 92.3305 213.934C91.4477 214.282 90.3238 214.563 89.2796 214.567C88.3224 217.878 88.2498 221.736 89.3827 225.932C90.6769 230.473 93.8183 234.936 98.5622 237.463C103.145 239.646 108.607 239.69 112.859 237.604C117.032 235.794 120.078 232.474 122 229.434C123.921 226.395 124.478 223.568 124.795 221.569C125.112 219.57 125.111 218.674 125.111 218.674L124.628 218.539Z" fill="#2D2D2D"/>
<path d="M129.664 248.891C129.664 248.891 129.266 250.27 128.627 252.477C127.748 254.616 126.147 257.448 123.503 260.284C120.858 263.12 117.248 265.685 112.832 266.532C108.658 267.447 103.596 266.919 99.4145 264.251C95.2325 261.584 92.5733 257.257 91.3589 252.441C90.0647 247.9 90.6177 243.283 91.7344 239.42C92.2928 237.489 93.0923 235.626 93.7322 234.314C93.3298 233.902 92.9274 233.491 92.5249 233.079C91.3231 234.531 90.0414 236.259 89.0824 238.675C87.1626 242.61 85.8083 248.195 86.6239 254.391C87.5193 260.311 90.6643 266.564 96.213 269.914C101.682 273.54 108.108 273.855 113.405 271.765C118.863 270.018 122.872 266.073 125.274 262.274C127.676 258.474 128.633 255.163 129.11 252.613C129.507 250.338 129.423 248.823 129.423 248.823L129.664 248.891Z" fill="#2D2D2D"/>
<path d="M168.946 250.985C168.471 254.431 167.355 258.294 165.353 261.609C162.792 265.961 158.943 269.353 154.128 271.58C149.314 273.806 144.015 275.001 139.597 274.952C135.18 274.903 131.081 273.751 128.186 272.042C125.05 270.266 123.038 268.208 121.348 266.839C119.98 265.261 119.255 264.162 119.255 264.162C119.255 264.162 119.659 265.469 120.707 267.255C121.675 269.317 123.527 271.926 126.424 274.53C129.321 277.134 133.582 279.526 138.885 280.122C144.187 280.717 149.968 279.658 155.907 277.151C158.876 275.897 161.523 273.957 164.008 271.672C166.252 269.32 168.335 266.624 169.374 263.933C170.654 261.31 171.131 258.759 171.528 256.484C170.48 254.698 169.432 252.912 168.946 250.985Z" fill="#2D2D2D"/>
<path d="M334.801 129.958C335.207 132.16 335.372 134.295 335.376 136.086C336.34 136.357 337.063 136.56 338.028 136.831C338.269 136.899 338.751 137.035 339.233 137.17C339.71 134.62 339.784 131.657 339.538 128.903C338.963 122.775 336.701 116.173 332.434 111.095C328.167 106.018 322.539 102.944 316.995 102.28C311.532 101.341 306.554 102.328 302.622 104.205C300.856 104.902 299.332 105.667 298.048 106.499C298.048 106.499 298.289 106.567 298.451 106.911C298.612 107.255 299.014 107.666 299.096 108.286C300.3 107.729 301.744 107.24 303.109 107.027C306.722 106.253 311.22 106.026 315.8 107.314C320.381 108.602 324.804 111.337 328.267 115.592C331.729 119.846 333.908 124.934 334.801 129.958Z" fill="#2D2D2D"/>
<path d="M328.789 216.57C328.789 216.57 328.144 215.195 328.063 214.576C327.26 214.648 326.457 214.721 325.653 214.793C325.896 215.756 326.139 216.72 326.382 217.683C327.355 222.431 327.368 228.7 325.613 234.769C323.778 241.115 320.176 247.262 314.885 252.039C309.593 256.815 303.413 259.255 297.551 259.695C291.689 260.135 286.626 258.711 282.766 256.731C282.284 256.596 281.641 256.117 281.238 255.705C280.999 256.533 280.68 257.636 280.44 258.464C280.923 258.6 281.084 258.943 281.486 259.355C285.268 262.506 290.815 264.96 297.562 265.067C304.309 265.174 311.854 262.522 318.188 256.845C324.521 251.168 328.682 243.09 330.274 235.781C331.865 228.472 330.968 221.657 329.351 216.43L328.789 216.57Z" fill="#2D2D2D"/>
<path d="M235.538 254.193C233.212 255.926 230.081 256.836 227.028 256.574C222.69 256.25 219.391 253.234 217.939 250.141C217.541 251.52 216.901 252.832 215.94 254.352C216.344 255.659 216.989 257.033 218.197 258.268C219.888 260.533 222.783 262.242 226.077 262.571C229.37 262.901 232.581 261.715 235.148 260.05C235.789 259.634 236.19 259.15 236.591 258.666C236.025 257.015 235.701 255.433 235.617 253.918L235.538 254.193Z" fill="#2D2D2D"/>
<path d="M99.1486 210.183C95.9381 211.368 90.8805 212.631 85.2573 212.244C79.3931 211.788 72.6424 209.89 67.0103 205.025C61.1371 200.093 56.5437 192.537 54.8381 183.108C53.0528 173.955 54.8005 164.303 58.3193 156.641C61.838 148.979 67.2075 143.031 72.18 139.358C73.4635 138.525 74.7469 137.693 76.0304 136.86C75.7077 136.173 75.144 135.418 74.8213 134.73C73.6176 135.287 72.414 135.844 71.1305 136.676C65.5145 139.87 58.8597 145.755 54.5397 154.385C49.9786 162.948 47.832 173.978 49.621 184.922C51.4099 195.866 57.5314 204.449 64.4487 209.377C71.3661 214.305 79.2407 215.922 85.424 215.274C91.7687 214.969 96.5834 212.743 99.9534 211.006C103.082 209.2 104.766 207.884 104.766 207.884C104.766 207.884 102.921 208.857 99.7105 210.042L99.1486 210.183Z" fill="#2D2D2D"/>
<path d="M200.321 223.389C187.639 300.646 259.055 335.581 259.055 335.581C259.055 335.581 223.801 296.236 259.526 235.267C295.251 174.299 213.002 146.132 200.321 223.389Z" fill="white"/>
<path d="M250.685 326.534C253.557 328.122 256.635 329.768 259.559 331.175L256.716 334.863C255.386 333.319 254.209 332.012 253.084 330.525C251.959 329.038 251.04 327.609 250.173 326C248.386 322.961 247.01 320.038 245.686 316.934C243.245 310.784 241.882 304.743 241.289 299.113C239.949 287.615 241.328 277.467 243.471 269.289C245.613 261.111 248.313 254.846 250.181 250.689C252.255 246.589 253.396 244.178 253.396 244.178C253.396 244.178 252.307 246.408 250.797 250.862C249.288 255.315 247.256 261.573 245.782 269.744C244.308 277.914 243.65 287.875 245.403 298.709C246.254 304.216 247.927 309.954 250.32 315.505C251.49 318.37 252.918 321.113 254.551 323.914C255.471 325.343 256.237 326.534 257.156 327.963C258.128 329.212 259.253 330.699 260.277 331.767L268.313 340.075L257.433 335.455C253.84 334.055 250.763 332.409 247.737 330.583C233.685 322.34 222.626 311.426 215.371 300.412C207.912 289.339 204.052 278.108 202.549 268.71C200.841 259.255 201.027 251.698 201.408 246.537C201.79 241.376 202.367 238.612 202.367 238.612C202.367 238.612 202.201 241.492 202.282 246.588C202.363 251.684 203.051 259.291 205.327 268.321C207.602 277.35 211.876 287.917 219.339 298.21C226.802 308.503 237.454 318.522 250.737 326.353L250.685 326.534Z" fill="black"/>
<path d="M134.04 129.563L134.041 130.599L129.799 130.607L129.806 133.897L133.25 133.891L133.252 134.927L129.808 134.933L129.816 139.329L128.542 139.331L128.524 129.573L134.04 129.563ZM136.238 130.399C135.995 130.399 135.79 130.316 135.621 130.148C135.453 129.98 135.369 129.775 135.368 129.533C135.368 129.29 135.451 129.084 135.619 128.916C135.787 128.748 135.992 128.663 136.235 128.663C136.468 128.663 136.664 128.746 136.823 128.914C136.991 129.082 137.076 129.287 137.076 129.529C137.077 129.772 136.993 129.978 136.825 130.146C136.667 130.314 136.471 130.399 136.238 130.399ZM136.856 131.644L136.87 139.316L135.596 139.318L135.582 131.646L136.856 131.644ZM138.559 135.449C138.557 134.665 138.714 133.978 139.031 133.39C139.347 132.792 139.78 132.329 140.33 132.001C140.889 131.674 141.51 131.509 142.191 131.508C142.863 131.507 143.447 131.65 143.942 131.939C144.437 132.227 144.807 132.59 145.05 133.029L145.047 131.629L146.335 131.626L146.35 139.298L145.062 139.301L145.059 137.873C144.808 138.321 144.431 138.695 143.927 138.995C143.433 139.285 142.855 139.431 142.192 139.432C141.511 139.433 140.894 139.266 140.343 138.931C139.792 138.596 139.357 138.126 139.038 137.52C138.72 136.914 138.56 136.223 138.559 135.449ZM145.055 135.451C145.053 134.872 144.936 134.368 144.702 133.939C144.468 133.51 144.15 133.184 143.748 132.961C143.355 132.728 142.921 132.613 142.445 132.613C141.969 132.614 141.535 132.727 141.144 132.952C140.752 133.177 140.44 133.504 140.208 133.934C139.975 134.363 139.859 134.868 139.861 135.446C139.862 136.034 139.979 136.547 140.213 136.986C140.448 137.414 140.761 137.745 141.153 137.978C141.546 138.201 141.98 138.312 142.456 138.311C142.932 138.31 143.366 138.198 143.757 137.973C144.158 137.739 144.475 137.407 144.707 136.977C144.94 136.538 145.056 136.029 145.055 135.451ZM150.044 132.669L150.053 137.191C150.053 137.564 150.133 137.83 150.292 137.989C150.451 138.138 150.727 138.212 151.119 138.211L152.057 138.209L152.059 139.287L150.911 139.29C150.201 139.291 149.669 139.129 149.314 138.803C148.959 138.477 148.78 137.94 148.779 137.194L148.77 132.672L147.776 132.673L147.774 131.623L148.768 131.622L148.765 129.69L150.039 129.687L150.042 131.619L152.044 131.615L152.046 132.665L150.044 132.669ZM166.546 131.448C167.143 131.447 167.676 131.572 168.143 131.823C168.61 132.065 168.979 132.433 169.251 132.927C169.522 133.421 169.659 134.023 169.66 134.732L169.669 139.254L168.409 139.257L168.401 134.917C168.399 134.151 168.207 133.568 167.823 133.168C167.449 132.758 166.94 132.554 166.296 132.555C165.633 132.556 165.107 132.772 164.715 133.202C164.324 133.622 164.129 134.234 164.131 135.037L164.139 139.265L162.879 139.267L162.871 134.927C162.869 134.162 162.677 133.579 162.293 133.178C161.919 132.768 161.41 132.564 160.766 132.565C160.103 132.566 159.577 132.782 159.185 133.212C158.794 133.633 158.599 134.244 158.601 135.047L158.609 139.275L157.335 139.278L157.32 131.606L158.594 131.603L158.596 132.709C158.848 132.307 159.183 131.999 159.603 131.783C160.032 131.568 160.503 131.46 161.016 131.459C161.66 131.457 162.23 131.601 162.725 131.889C163.22 132.178 163.59 132.602 163.833 133.161C164.047 132.62 164.401 132.199 164.895 131.899C165.389 131.6 165.939 131.449 166.546 131.448ZM175.105 139.37C174.386 139.372 173.732 139.209 173.144 138.884C172.565 138.558 172.106 138.097 171.769 137.5C171.441 136.894 171.277 136.195 171.275 135.401C171.274 134.617 171.441 133.926 171.775 133.328C172.12 132.721 172.585 132.258 173.173 131.94C173.76 131.612 174.418 131.448 175.146 131.446C175.874 131.445 176.532 131.607 177.121 131.932C177.709 132.249 178.172 132.705 178.509 133.302C178.856 133.899 179.03 134.594 179.031 135.387C179.033 136.18 178.857 136.881 178.503 137.488C178.159 138.086 177.689 138.549 177.092 138.877C176.495 139.204 175.833 139.369 175.105 139.37ZM175.103 138.25C175.56 138.249 175.989 138.141 176.39 137.926C176.791 137.71 177.112 137.388 177.354 136.958C177.605 136.528 177.73 136.005 177.729 135.389C177.728 134.773 177.606 134.251 177.362 133.822C177.119 133.393 176.801 133.076 176.409 132.872C176.016 132.658 175.591 132.551 175.134 132.552C174.667 132.553 174.238 132.661 173.847 132.877C173.464 133.083 173.157 133.401 172.924 133.83C172.692 134.26 172.576 134.783 172.577 135.399C172.578 136.024 172.691 136.551 172.916 136.98C173.15 137.409 173.459 137.731 173.842 137.945C174.225 138.149 174.645 138.251 175.103 138.25ZM184.437 131.415C185.37 131.413 186.127 131.696 186.707 132.264C187.286 132.823 187.577 133.635 187.579 134.699L187.588 139.221L186.328 139.223L186.319 134.883C186.318 134.118 186.126 133.535 185.742 133.134C185.359 132.724 184.836 132.52 184.173 132.521C183.501 132.522 182.965 132.733 182.564 133.154C182.173 133.575 181.978 134.187 181.98 134.989L181.988 139.231L180.714 139.234L180.699 131.562L181.973 131.559L181.975 132.651C182.227 132.259 182.567 131.955 182.996 131.739C183.434 131.524 183.914 131.416 184.437 131.415ZM196.661 135.074C196.661 135.317 196.648 135.573 196.62 135.844L190.488 135.855C190.536 136.611 190.794 137.204 191.262 137.632C191.738 138.051 192.313 138.26 192.985 138.259C193.536 138.258 193.993 138.131 194.356 137.878C194.729 137.616 194.99 137.27 195.138 136.841L196.51 136.838C196.306 137.576 195.897 138.179 195.282 138.646C194.666 139.105 193.902 139.335 192.987 139.337C192.259 139.338 191.605 139.176 191.026 138.85C190.456 138.525 190.007 138.064 189.679 137.467C189.352 136.861 189.187 136.161 189.185 135.368C189.184 134.575 189.341 133.879 189.658 133.281C189.974 132.683 190.416 132.225 190.985 131.906C191.563 131.579 192.225 131.414 192.972 131.413C193.7 131.411 194.344 131.569 194.905 131.885C195.466 132.201 195.896 132.639 196.195 133.199C196.504 133.749 196.66 134.374 196.661 135.074ZM195.344 134.81C195.343 134.325 195.235 133.91 195.02 133.565C194.805 133.211 194.51 132.945 194.137 132.769C193.772 132.583 193.366 132.49 192.918 132.491C192.274 132.492 191.724 132.698 191.267 133.11C190.82 133.521 190.564 134.091 190.5 134.819L195.344 134.81ZM204.944 131.516L200.345 142.809L199.029 142.811L200.534 139.113L197.426 131.53L198.84 131.528L201.26 137.739L203.628 131.519L204.944 131.516ZM210.613 130.26C210.37 130.26 210.164 130.177 209.996 130.009C209.828 129.841 209.743 129.636 209.743 129.393C209.743 129.151 209.826 128.945 209.994 128.777C210.162 128.609 210.367 128.524 210.609 128.524C210.843 128.523 211.039 128.607 211.198 128.775C211.366 128.942 211.451 129.147 211.451 129.39C211.451 129.633 211.368 129.838 211.2 130.007C211.042 130.175 210.846 130.259 210.613 130.26ZM211.231 131.505L211.245 139.177L209.971 139.179L209.957 131.507L211.231 131.505ZM216.133 139.293C215.545 139.294 215.017 139.197 214.55 139.002C214.083 138.798 213.714 138.519 213.443 138.164C213.171 137.801 213.021 137.386 212.992 136.919L214.308 136.917C214.346 137.299 214.524 137.612 214.842 137.854C215.169 138.096 215.594 138.216 216.117 138.215C216.602 138.215 216.985 138.106 217.264 137.891C217.544 137.676 217.683 137.405 217.683 137.078C217.682 136.742 217.532 136.495 217.233 136.337C216.934 136.17 216.472 136.007 215.846 135.85C215.277 135.702 214.81 135.553 214.446 135.405C214.091 135.247 213.782 135.018 213.52 134.72C213.268 134.413 213.141 134.012 213.14 133.517C213.139 133.125 213.255 132.765 213.488 132.438C213.721 132.111 214.052 131.854 214.481 131.666C214.91 131.47 215.399 131.371 215.95 131.37C216.799 131.368 217.486 131.581 218.009 132.01C218.533 132.438 218.814 133.026 218.853 133.772L217.579 133.775C217.55 133.373 217.386 133.052 217.087 132.81C216.797 132.567 216.405 132.447 215.91 132.448C215.453 132.449 215.089 132.547 214.819 132.744C214.548 132.94 214.413 133.197 214.414 133.515C214.415 133.767 214.494 133.976 214.653 134.144C214.822 134.302 215.027 134.433 215.27 134.535C215.522 134.628 215.868 134.735 216.307 134.855C216.858 135.003 217.306 135.152 217.651 135.301C217.997 135.44 218.291 135.654 218.535 135.943C218.787 136.232 218.919 136.609 218.929 137.076C218.93 137.496 218.814 137.874 218.581 138.211C218.348 138.547 218.017 138.814 217.588 139.011C217.169 139.198 216.684 139.292 216.133 139.293ZM131.721 147.528C132.384 147.526 132.963 147.67 133.458 147.958C133.963 148.247 134.337 148.61 134.58 149.048L134.577 147.648L135.865 147.646L135.88 155.486C135.881 156.186 135.733 156.807 135.436 157.349C135.138 157.9 134.709 158.33 134.15 158.639C133.6 158.948 132.956 159.103 132.219 159.105C131.211 159.106 130.37 158.87 129.698 158.395C129.025 157.921 128.627 157.273 128.504 156.452L129.764 156.449C129.905 156.916 130.195 157.288 130.634 157.568C131.073 157.856 131.601 158 132.217 157.999C132.917 157.997 133.486 157.777 133.924 157.337C134.371 156.898 134.594 156.281 134.592 155.488L134.589 153.878C134.338 154.327 133.965 154.701 133.471 155C132.977 155.3 132.399 155.45 131.736 155.452C131.055 155.453 130.434 155.286 129.873 154.951C129.322 154.616 128.887 154.146 128.568 153.539C128.25 152.933 128.09 152.243 128.089 151.468C128.087 150.684 128.244 149.998 128.561 149.409C128.877 148.812 129.31 148.349 129.86 148.021C130.419 147.693 131.04 147.529 131.721 147.528ZM134.585 151.47C134.583 150.891 134.466 150.388 134.232 149.959C133.998 149.53 133.68 149.204 133.278 148.981C132.885 148.748 132.451 148.632 131.975 148.633C131.499 148.634 131.065 148.747 130.674 148.971C130.282 149.196 129.97 149.523 129.738 149.953C129.505 150.383 129.389 150.887 129.391 151.466C129.392 152.054 129.509 152.567 129.743 153.005C129.978 153.434 130.291 153.765 130.683 153.997C131.076 154.221 131.51 154.332 131.986 154.331C132.462 154.33 132.896 154.217 133.287 153.993C133.688 153.759 134.005 153.427 134.237 152.997C134.47 152.558 134.586 152.049 134.585 151.47ZM141.379 155.433C140.66 155.435 140.007 155.273 139.418 154.947C138.839 154.622 138.381 154.16 138.043 153.564C137.716 152.958 137.551 152.258 137.549 151.465C137.548 150.681 137.715 149.99 138.05 149.392C138.394 148.784 138.86 148.321 139.447 148.003C140.034 147.675 140.692 147.511 141.42 147.509C142.148 147.508 142.806 147.67 143.395 147.996C143.984 148.312 144.446 148.768 144.784 149.365C145.13 149.962 145.304 150.657 145.305 151.45C145.307 152.243 145.131 152.944 144.777 153.551C144.433 154.149 143.963 154.612 143.366 154.94C142.769 155.268 142.107 155.432 141.379 155.433ZM141.377 154.313C141.834 154.313 142.263 154.204 142.664 153.989C143.065 153.774 143.387 153.451 143.628 153.021C143.88 152.591 144.005 152.069 144.003 151.453C144.002 150.837 143.88 150.314 143.637 149.885C143.393 149.456 143.075 149.14 142.683 148.935C142.29 148.721 141.865 148.615 141.408 148.615C140.941 148.616 140.512 148.724 140.121 148.94C139.738 149.146 139.431 149.464 139.199 149.894C138.966 150.323 138.85 150.846 138.851 151.462C138.853 152.087 138.966 152.615 139.19 153.044C139.425 153.472 139.733 153.794 140.116 154.008C140.499 154.212 140.919 154.314 141.377 154.313ZM149.842 154.116L152.209 147.615L153.567 147.613L150.572 155.29L149.088 155.293L146.063 147.627L147.435 147.624L149.842 154.116ZM161.828 151.139C161.828 151.382 161.815 151.638 161.787 151.909L155.655 151.921C155.703 152.677 155.961 153.269 156.428 153.697C156.905 154.116 157.48 154.325 158.152 154.324C158.702 154.323 159.159 154.196 159.523 153.943C159.896 153.681 160.156 153.336 160.305 152.906L161.677 152.903C161.473 153.641 161.063 154.244 160.448 154.712C159.833 155.17 159.068 155.4 158.154 155.402C157.426 155.403 156.772 155.241 156.193 154.916C155.623 154.59 155.174 154.129 154.846 153.532C154.518 152.926 154.354 152.226 154.352 151.433C154.351 150.64 154.508 149.944 154.824 149.346C155.14 148.748 155.583 148.29 156.152 147.972C156.73 147.644 157.392 147.479 158.139 147.478C158.867 147.477 159.511 147.634 160.072 147.95C160.632 148.267 161.062 148.705 161.362 149.264C161.671 149.814 161.826 150.439 161.828 151.139ZM160.511 150.876C160.51 150.39 160.402 149.975 160.187 149.63C159.971 149.276 159.677 149.01 159.303 148.834C158.939 148.648 158.533 148.555 158.085 148.556C157.441 148.557 156.891 148.764 156.434 149.175C155.987 149.587 155.731 150.157 155.667 150.885L160.511 150.876ZM164.779 148.838C165.002 148.399 165.319 148.057 165.729 147.814C166.149 147.57 166.657 147.448 167.254 147.447L167.257 148.763L166.921 148.764C165.493 148.766 164.78 149.542 164.783 151.092L164.791 155.264L163.517 155.266L163.503 147.594L164.777 147.592L164.779 148.838ZM172.463 147.437C173.396 147.435 174.153 147.719 174.733 148.287C175.312 148.846 175.603 149.657 175.605 150.721L175.614 155.243L174.354 155.246L174.346 150.906C174.344 150.14 174.152 149.557 173.768 149.157C173.385 148.747 172.862 148.542 172.199 148.544C171.527 148.545 170.991 148.756 170.59 149.177C170.199 149.597 170.004 150.209 170.006 151.012L170.014 155.254L168.74 155.256L168.725 147.584L169.999 147.582L170.001 148.674C170.253 148.281 170.593 147.977 171.022 147.762C171.46 147.546 171.94 147.438 172.463 147.437ZM186.906 147.41C187.503 147.409 188.036 147.534 188.503 147.785C188.97 148.027 189.339 148.395 189.611 148.889C189.882 149.383 190.019 149.985 190.02 150.694L190.029 155.216L188.769 155.219L188.761 150.879C188.759 150.113 188.567 149.53 188.183 149.13C187.809 148.72 187.3 148.515 186.656 148.517C185.993 148.518 185.467 148.734 185.075 149.164C184.684 149.584 184.489 150.196 184.491 150.999L184.499 155.227L183.239 155.229L183.231 150.889C183.229 150.124 183.037 149.541 182.653 149.14C182.279 148.73 181.77 148.526 181.126 148.527C180.464 148.528 179.937 148.744 179.545 149.174C179.154 149.595 178.959 150.206 178.961 151.009L178.969 155.237L177.695 155.239L177.68 147.567L178.954 147.565L178.956 148.671C179.208 148.269 179.543 147.961 179.963 147.745C180.392 147.53 180.863 147.421 181.376 147.421C182.02 147.419 182.59 147.563 183.085 147.851C183.58 148.14 183.95 148.564 184.193 149.123C184.407 148.581 184.761 148.161 185.255 147.861C185.749 147.562 186.299 147.411 186.906 147.41ZM199.111 151.069C199.111 151.312 199.098 151.569 199.07 151.839L192.938 151.851C192.986 152.607 193.244 153.199 193.712 153.627C194.188 154.047 194.763 154.255 195.435 154.254C195.985 154.253 196.443 154.126 196.806 153.874C197.179 153.612 197.44 153.266 197.588 152.836L198.96 152.834C198.756 153.571 198.347 154.174 197.731 154.642C197.116 155.1 196.351 155.33 195.437 155.332C194.709 155.334 194.055 155.171 193.476 154.846C192.906 154.52 192.457 154.059 192.129 153.462C191.801 152.856 191.637 152.157 191.635 151.363C191.634 150.57 191.791 149.874 192.107 149.276C192.424 148.678 192.866 148.22 193.435 147.902C194.013 147.574 194.675 147.41 195.422 147.408C196.15 147.407 196.794 147.564 197.355 147.881C197.915 148.197 198.346 148.635 198.645 149.194C198.954 149.744 199.109 150.369 199.111 151.069ZM197.794 150.806C197.793 150.32 197.685 149.905 197.47 149.56C197.255 149.206 196.96 148.941 196.586 148.764C196.222 148.578 195.816 148.485 195.368 148.486C194.724 148.488 194.174 148.694 193.717 149.105C193.27 149.517 193.014 150.087 192.95 150.815L197.794 150.806ZM204.524 147.377C205.457 147.375 206.213 147.659 206.793 148.227C207.373 148.786 207.664 149.597 207.666 150.661L207.674 155.183L206.414 155.186L206.406 150.846C206.405 150.08 206.212 149.497 205.829 149.097C205.445 148.687 204.922 148.482 204.26 148.484C203.588 148.485 203.051 148.696 202.651 149.117C202.26 149.537 202.065 150.149 202.066 150.952L202.074 155.194L200.8 155.196L200.786 147.524L202.06 147.522L202.062 148.614C202.313 148.221 202.653 147.917 203.082 147.702C203.52 147.486 204.001 147.378 204.524 147.377ZM211.297 148.554L211.305 153.076C211.306 153.45 211.386 153.716 211.545 153.874C211.704 154.023 211.979 154.097 212.371 154.096L213.309 154.095L213.311 155.173L212.163 155.175C211.454 155.176 210.922 155.014 210.566 154.688C210.211 154.362 210.033 153.826 210.031 153.079L210.023 148.557L209.029 148.559L209.027 147.509L210.021 147.507L210.017 145.575L211.291 145.572L211.295 147.504L213.297 147.501L213.299 148.551L211.297 148.554ZM220.164 149.49L220.166 150.568L214.58 150.578L214.578 149.5L220.164 149.49ZM223.207 146.236C222.964 146.237 222.759 146.153 222.591 145.985C222.422 145.818 222.338 145.612 222.337 145.37C222.337 145.127 222.421 144.922 222.588 144.753C222.756 144.585 222.961 144.501 223.204 144.5C223.437 144.5 223.633 144.583 223.792 144.751C223.961 144.919 224.045 145.124 224.045 145.367C224.046 145.609 223.962 145.815 223.795 145.983C223.636 146.151 223.44 146.236 223.207 146.236ZM223.825 147.481L223.84 155.153L222.566 155.155L222.551 147.483L223.825 147.481ZM228.727 155.27C228.139 155.271 227.612 155.174 227.145 154.979C226.678 154.774 226.308 154.495 226.037 154.141C225.766 153.777 225.616 153.362 225.587 152.896L226.903 152.893C226.941 153.276 227.119 153.588 227.437 153.83C227.764 154.072 228.189 154.193 228.711 154.192C229.197 154.191 229.579 154.083 229.859 153.868C230.138 153.653 230.278 153.382 230.277 153.055C230.277 152.719 230.127 152.472 229.828 152.314C229.529 152.146 229.066 151.984 228.441 151.826C227.871 151.678 227.404 151.53 227.04 151.381C226.685 151.223 226.377 150.995 226.115 150.697C225.862 150.389 225.735 149.988 225.734 149.493C225.734 149.101 225.85 148.742 226.082 148.415C226.315 148.088 226.646 147.83 227.075 147.643C227.504 147.446 227.994 147.347 228.544 147.346C229.394 147.345 230.08 147.558 230.604 147.986C231.127 148.415 231.408 149.002 231.447 149.749L230.173 149.751C230.144 149.35 229.98 149.028 229.681 148.786C229.391 148.544 228.999 148.423 228.504 148.424C228.047 148.425 227.683 148.524 227.413 148.72C227.143 148.917 227.008 149.174 227.008 149.491C227.009 149.743 227.089 149.953 227.248 150.121C227.416 150.279 227.622 150.409 227.864 150.511C228.117 150.604 228.462 150.711 228.901 150.831C229.452 150.98 229.9 151.128 230.246 151.277C230.591 151.416 230.886 151.63 231.129 151.919C231.382 152.208 231.513 152.586 231.523 153.053C231.524 153.473 231.408 153.851 231.175 154.187C230.943 154.524 230.612 154.79 230.183 154.987C229.763 155.175 229.278 155.269 228.727 155.27ZM236.042 155.256C235.454 155.257 234.926 155.16 234.459 154.965C233.992 154.761 233.623 154.481 233.352 154.127C233.08 153.764 232.93 153.349 232.901 152.882L234.217 152.88C234.255 153.262 234.433 153.574 234.751 153.817C235.078 154.059 235.503 154.179 236.026 154.178C236.511 154.177 236.894 154.069 237.173 153.854C237.453 153.639 237.592 153.368 237.592 153.041C237.591 152.705 237.441 152.458 237.142 152.3C236.843 152.133 236.381 151.97 235.755 151.813C235.186 151.664 234.719 151.516 234.354 151.367C233.999 151.209 233.691 150.981 233.429 150.683C233.177 150.375 233.05 149.974 233.049 149.48C233.048 149.088 233.164 148.728 233.397 148.401C233.63 148.074 233.96 147.817 234.389 147.629C234.818 147.432 235.308 147.333 235.859 147.332C236.708 147.331 237.395 147.544 237.918 147.973C238.442 148.401 238.723 148.988 238.761 149.735L237.487 149.737C237.459 149.336 237.295 149.014 236.996 148.772C236.706 148.53 236.314 148.41 235.819 148.411C235.362 148.411 234.998 148.51 234.727 148.707C234.457 148.903 234.322 149.16 234.323 149.477C234.323 149.729 234.403 149.939 234.562 150.107C234.73 150.265 234.936 150.396 235.179 150.498C235.431 150.591 235.777 150.697 236.215 150.818C236.766 150.966 237.215 151.115 237.56 151.263C237.906 151.403 238.2 151.617 238.443 151.906C238.696 152.194 238.827 152.572 238.838 153.039C238.838 153.459 238.722 153.837 238.49 154.174C238.257 154.51 237.926 154.777 237.497 154.973C237.078 155.161 236.592 155.255 236.042 155.256ZM247.43 147.437L247.444 155.109L246.17 155.111L246.168 153.977C245.926 154.37 245.586 154.678 245.148 154.903C244.719 155.119 244.243 155.227 243.72 155.228C243.123 155.229 242.586 155.109 242.109 154.867C241.633 154.616 241.254 154.243 240.973 153.749C240.702 153.255 240.565 152.653 240.564 151.944L240.556 147.45L241.816 147.447L241.824 151.773C241.825 152.529 242.018 153.112 242.401 153.522C242.784 153.923 243.307 154.123 243.97 154.121C244.651 154.12 245.188 153.909 245.579 153.488C245.97 153.068 246.165 152.456 246.163 151.653L246.156 147.439L247.43 147.437ZM256.587 150.962C256.588 151.204 256.574 151.461 256.547 151.732L250.415 151.743C250.463 152.499 250.721 153.091 251.188 153.52C251.665 153.939 252.239 154.148 252.911 154.147C253.462 154.145 253.919 154.019 254.283 153.766C254.655 153.504 254.916 153.158 255.065 152.728L256.437 152.726C256.233 153.464 255.823 154.066 255.208 154.534C254.593 154.993 253.828 155.223 252.913 155.225C252.185 155.226 251.532 155.064 250.952 154.738C250.382 154.413 249.934 153.951 249.606 153.355C249.278 152.749 249.113 152.049 249.112 151.256C249.11 150.462 249.268 149.767 249.584 149.169C249.9 148.571 250.343 148.113 250.911 147.794C251.489 147.467 252.152 147.302 252.898 147.301C253.626 147.299 254.271 147.457 254.831 147.773C255.392 148.089 255.822 148.527 256.122 149.086C256.431 149.637 256.586 150.262 256.587 150.962ZM255.271 150.698C255.27 150.213 255.162 149.798 254.946 149.453C254.731 149.098 254.437 148.833 254.063 148.656C253.699 148.47 253.292 148.378 252.844 148.379C252.2 148.38 251.65 148.586 251.194 148.998C250.746 149.409 250.491 149.979 250.427 150.707L255.271 150.698ZM257.793 151.225C257.792 150.441 257.949 149.755 258.266 149.166C258.582 148.569 259.015 148.106 259.565 147.778C260.124 147.45 260.749 147.286 261.44 147.285C262.037 147.283 262.593 147.422 263.107 147.701C263.621 147.971 264.013 148.33 264.285 148.777L264.277 144.717L265.565 144.715L265.585 155.075L264.297 155.077L264.294 153.635C264.043 154.093 263.67 154.472 263.176 154.771C262.682 155.062 262.104 155.207 261.441 155.209C260.76 155.21 260.139 155.043 259.578 154.708C259.027 154.373 258.592 153.903 258.273 153.296C257.955 152.69 257.795 152 257.793 151.225ZM264.289 151.227C264.288 150.649 264.171 150.145 263.937 149.716C263.702 149.287 263.384 148.961 262.983 148.738C262.59 148.505 262.156 148.389 261.68 148.39C261.204 148.391 260.77 148.504 260.379 148.729C259.987 148.953 259.675 149.281 259.443 149.71C259.21 150.14 259.094 150.644 259.095 151.223C259.096 151.811 259.214 152.324 259.448 152.762C259.682 153.191 259.996 153.522 260.388 153.755C260.781 153.978 261.215 154.089 261.691 154.088C262.167 154.087 262.601 153.974 262.992 153.75C263.393 153.516 263.71 153.184 263.942 152.754C264.175 152.315 264.29 151.806 264.289 151.227ZM128.119 167.482C128.117 166.689 128.274 165.998 128.591 165.409C128.907 164.811 129.345 164.349 129.904 164.021C130.473 163.693 131.121 163.529 131.849 163.527C132.792 163.526 133.567 163.753 134.174 164.209C134.791 164.665 135.198 165.299 135.396 166.111L134.024 166.113C133.892 165.647 133.635 165.279 133.252 165.009C132.878 164.739 132.411 164.604 131.851 164.605C131.123 164.607 130.536 164.86 130.089 165.365C129.641 165.86 129.419 166.565 129.421 167.48C129.422 168.404 129.648 169.117 130.097 169.621C130.545 170.124 131.134 170.375 131.862 170.373C132.422 170.372 132.888 170.241 133.261 169.979C133.634 169.717 133.89 169.343 134.029 168.857L135.401 168.855C135.197 169.639 134.788 170.27 134.173 170.747C133.558 171.215 132.788 171.45 131.864 171.451C131.136 171.453 130.487 171.291 129.917 170.965C129.356 170.639 128.917 170.178 128.598 169.581C128.28 168.985 128.12 168.285 128.119 167.482ZM143.895 163.631L143.91 171.303L142.636 171.305L142.634 170.171C142.392 170.564 142.051 170.872 141.613 171.097C141.184 171.312 140.709 171.421 140.186 171.422C139.589 171.423 139.052 171.302 138.575 171.061C138.099 170.81 137.72 170.437 137.439 169.943C137.167 169.449 137.031 168.847 137.03 168.138L137.021 163.644L138.281 163.641L138.289 167.967C138.291 168.723 138.483 169.306 138.867 169.716C139.25 170.117 139.773 170.316 140.436 170.315C141.117 170.314 141.653 170.103 142.045 169.682C142.436 169.261 142.631 168.65 142.629 167.847L142.621 163.633L143.895 163.631ZM147.323 164.87C147.546 164.431 147.863 164.09 148.273 163.847C148.692 163.603 149.201 163.481 149.798 163.48L149.801 164.796L149.465 164.796C148.037 164.799 147.324 165.575 147.327 167.124L147.335 171.296L146.061 171.299L146.046 163.627L147.32 163.624L147.323 164.87ZM152.545 164.861C152.768 164.421 153.085 164.08 153.495 163.837C153.915 163.593 154.423 163.471 155.021 163.47L155.023 164.786L154.687 164.787C153.259 164.789 152.547 165.565 152.55 167.115L152.557 171.287L151.283 171.289L151.269 163.617L152.543 163.615L152.545 164.861ZM163.498 167.136C163.499 167.379 163.485 167.635 163.458 167.906L157.326 167.918C157.374 168.674 157.632 169.266 158.099 169.694C158.576 170.113 159.15 170.322 159.822 170.321C160.373 170.32 160.83 170.193 161.193 169.94C161.566 169.678 161.827 169.332 161.976 168.903L163.348 168.9C163.144 169.638 162.734 170.241 162.119 170.709C161.504 171.167 160.739 171.397 159.824 171.399C159.096 171.4 158.443 171.238 157.863 170.913C157.293 170.587 156.844 170.126 156.517 169.529C156.189 168.923 156.024 168.223 156.023 167.43C156.021 166.637 156.179 165.941 156.495 165.343C156.811 164.745 157.254 164.287 157.822 163.969C158.4 163.641 159.063 163.476 159.809 163.475C160.537 163.474 161.182 163.631 161.742 163.947C162.303 164.264 162.733 164.701 163.033 165.261C163.342 165.811 163.497 166.436 163.498 167.136ZM162.182 166.872C162.181 166.387 162.073 165.972 161.857 165.627C161.642 165.273 161.348 165.007 160.974 164.831C160.61 164.645 160.203 164.552 159.755 164.553C159.111 164.554 158.561 164.761 158.105 165.172C157.657 165.584 157.402 166.153 157.338 166.882L162.182 166.872ZM168.911 163.444C169.844 163.442 170.601 163.725 171.181 164.294C171.76 164.853 172.051 165.664 172.053 166.728L172.062 171.25L170.802 171.252L170.793 166.912C170.792 166.147 170.6 165.564 170.216 165.163C169.833 164.753 169.31 164.549 168.647 164.55C167.975 164.552 167.439 164.763 167.038 165.183C166.647 165.604 166.452 166.216 166.454 167.018L166.462 171.26L165.188 171.263L165.173 163.591L166.447 163.588L166.449 164.68C166.701 164.288 167.041 163.984 167.47 163.769C167.908 163.553 168.388 163.445 168.911 163.444ZM173.659 167.397C173.658 166.604 173.815 165.913 174.132 165.324C174.448 164.726 174.886 164.263 175.445 163.936C176.014 163.608 176.662 163.443 177.39 163.442C178.333 163.44 179.108 163.667 179.715 164.124C180.332 164.58 180.739 165.214 180.937 166.025L179.565 166.028C179.433 165.562 179.176 165.193 178.793 164.923C178.419 164.653 177.952 164.519 177.392 164.52C176.664 164.521 176.077 164.774 175.63 165.279C175.182 165.775 174.96 166.48 174.961 167.395C174.963 168.319 175.189 169.032 175.637 169.535C176.086 170.038 176.675 170.289 177.403 170.288C177.963 170.287 178.429 170.155 178.802 169.893C179.175 169.631 179.431 169.258 179.57 168.772L180.942 168.769C180.738 169.554 180.329 170.185 179.714 170.662C179.098 171.129 178.329 171.364 177.405 171.366C176.677 171.367 176.028 171.205 175.458 170.88C174.897 170.554 174.458 170.093 174.139 169.496C173.821 168.899 173.661 168.2 173.659 167.397ZM189.24 163.546L184.641 174.838L183.325 174.841L184.83 171.142L181.722 163.56L183.136 163.557L185.556 169.769L187.924 163.548L189.24 163.546ZM197.549 173.806C196.651 172.931 195.949 171.817 195.442 170.464C194.945 169.112 194.695 167.652 194.692 166.084C194.689 164.478 194.948 162.98 195.468 161.588C195.997 160.187 196.751 159.033 197.729 158.126L199.059 158.123L199.059 158.249C198.016 159.231 197.229 160.413 196.7 161.796C196.18 163.169 195.921 164.597 195.924 166.081C195.927 167.528 196.177 168.909 196.674 170.224C197.18 171.539 197.915 172.69 198.878 173.678L198.879 173.804L197.549 173.806ZM206.92 168.511C206.921 168.959 206.81 169.388 206.586 169.799C206.363 170.201 206.032 170.538 205.594 170.809C205.166 171.081 204.648 171.236 204.041 171.274L204.043 172.408L203.287 172.41L203.285 171.276C202.436 171.202 201.745 170.933 201.212 170.467C200.679 169.992 200.407 169.391 200.396 168.663L201.754 168.66C201.792 169.052 201.938 169.393 202.19 169.682C202.452 169.97 202.816 170.152 203.283 170.226L203.277 166.726C202.651 166.568 202.147 166.406 201.764 166.238C201.381 166.071 201.054 165.81 200.782 165.456C200.511 165.102 200.375 164.626 200.374 164.029C200.372 163.273 200.632 162.647 201.154 162.151C201.685 161.656 202.389 161.379 203.267 161.322L203.264 160.16L204.02 160.158L204.023 161.32C204.816 161.384 205.456 161.639 205.942 162.087C206.428 162.524 206.709 163.098 206.785 163.807L205.427 163.809C205.38 163.483 205.235 163.189 204.992 162.928C204.748 162.658 204.426 162.481 204.025 162.398L204.031 165.814C204.647 165.972 205.147 166.134 205.53 166.301C205.922 166.459 206.249 166.715 206.511 167.069C206.783 167.424 206.919 167.904 206.92 168.511ZM201.675 163.957C201.676 164.414 201.812 164.764 202.083 165.006C202.355 165.248 202.752 165.448 203.275 165.606L203.269 162.372C202.783 162.419 202.396 162.578 202.107 162.85C201.819 163.112 201.675 163.481 201.675 163.957ZM204.039 170.238C204.543 170.181 204.935 169.998 205.214 169.69C205.503 169.381 205.647 169.012 205.646 168.583C205.645 168.126 205.505 167.776 205.224 167.534C204.944 167.282 204.547 167.082 204.033 166.934L204.039 170.238ZM210.647 169.414L209.086 173.183L208.232 173.184L209.247 169.416L210.647 169.414ZM221.118 170.094C221.818 170.093 222.42 169.938 222.923 169.629C223.436 169.32 223.827 168.88 224.096 168.311L225.608 168.308C225.256 169.242 224.683 169.966 223.891 170.481C223.098 170.986 222.175 171.24 221.12 171.242C220.019 171.244 219.047 170.943 218.206 170.338C217.365 169.732 216.785 168.922 216.466 167.905L215.108 167.907L215.106 167.011L216.268 167.009C216.24 166.767 216.225 166.524 216.225 166.281C216.224 166.048 216.238 165.819 216.265 165.595L215.103 165.597L215.102 164.715L216.446 164.713C216.65 164.031 216.975 163.433 217.422 162.919C217.879 162.395 218.419 161.993 219.044 161.712C219.678 161.421 220.364 161.275 221.101 161.274C222.156 161.272 223.08 161.527 223.875 162.039C224.669 162.551 225.244 163.278 225.601 164.22L224.089 164.223C223.817 163.644 223.429 163.202 222.924 162.895C222.42 162.588 221.813 162.435 221.103 162.436C220.319 162.438 219.634 162.64 219.047 163.042C218.469 163.444 218.054 164 217.804 164.71L221.108 164.704L221.109 165.586L217.581 165.593C217.554 165.817 217.54 166.045 217.541 166.279C217.541 166.549 217.56 166.792 217.598 167.007L221.112 167L221.114 167.896L217.824 167.902C218.096 168.592 218.521 169.133 219.101 169.524C219.689 169.905 220.362 170.096 221.118 170.094ZM228.502 169.38L226.941 173.149L226.087 173.151L227.102 169.383L228.502 169.38ZM240.247 170.086L240.249 171.15L234.005 171.162L233.78 170.434C234.171 169.995 234.46 169.574 234.646 169.173C234.841 168.771 234.938 168.276 234.937 167.688C234.936 167.446 234.894 167.156 234.809 166.82L233.227 166.823L233.226 165.927L234.5 165.925C234.378 165.599 234.284 165.291 234.218 165.002C234.152 164.703 234.119 164.376 234.118 164.022C234.117 163.424 234.242 162.906 234.493 162.467C234.754 162.019 235.112 161.673 235.569 161.429C236.035 161.185 236.567 161.063 237.164 161.062C238.116 161.06 238.85 161.334 239.364 161.884C239.878 162.434 240.155 163.128 240.194 163.968L239.018 163.971C238.998 163.42 238.829 162.977 238.511 162.642C238.203 162.306 237.754 162.139 237.166 162.14C236.625 162.141 236.182 162.301 235.837 162.619C235.502 162.936 235.335 163.422 235.336 164.075C235.337 164.383 235.37 164.677 235.436 164.957C235.502 165.228 235.6 165.55 235.732 165.923L238.448 165.918L238.449 166.814L236.013 166.818C236.098 167.154 236.14 167.443 236.141 167.686C236.142 168.573 235.813 169.376 235.151 170.096L240.247 170.086ZM245.71 173.716L245.71 173.59C246.669 172.599 247.395 171.445 247.887 170.128C248.389 168.811 248.638 167.429 248.636 165.983C248.633 164.499 248.364 163.071 247.83 161.7C247.304 160.32 246.518 159.141 245.471 158.162L245.471 158.036L246.801 158.034C247.783 158.937 248.536 160.089 249.061 161.488C249.596 162.877 249.865 164.375 249.868 165.98C249.871 167.548 249.621 169.009 249.12 170.364C248.628 171.718 247.935 172.835 247.04 173.714L245.71 173.716ZM257.743 164.467L257.751 168.989C257.752 169.363 257.832 169.629 257.991 169.787C258.15 169.936 258.425 170.01 258.817 170.009L259.755 170.008L259.757 171.086L258.609 171.088C257.9 171.089 257.367 170.927 257.012 170.601C256.657 170.275 256.479 169.739 256.477 168.992L256.469 164.47L255.475 164.472L255.473 163.422L256.467 163.42L256.463 161.488L257.737 161.485L257.741 163.417L259.743 163.414L259.745 164.464L257.743 164.467ZM265.094 163.264C265.673 163.263 266.196 163.388 266.663 163.639C267.13 163.881 267.495 164.249 267.757 164.743C268.028 165.237 268.165 165.839 268.166 166.548L268.175 171.07L266.915 171.072L266.907 166.732C266.905 165.967 266.713 165.384 266.329 164.983C265.946 164.573 265.423 164.369 264.76 164.37C264.088 164.372 263.552 164.583 263.151 165.003C262.76 165.424 262.565 166.036 262.567 166.838L262.575 171.08L261.301 171.083L261.281 160.723L262.555 160.72L262.562 164.5C262.814 164.108 263.158 163.804 263.597 163.589C264.044 163.373 264.543 163.265 265.094 163.264ZM269.773 167.203C269.771 166.419 269.928 165.733 270.245 165.144C270.561 164.546 270.994 164.083 271.544 163.756C272.103 163.428 272.724 163.263 273.405 163.262C274.077 163.261 274.661 163.404 275.156 163.693C275.651 163.981 276.021 164.345 276.264 164.783L276.261 163.383L277.549 163.38L277.564 171.052L276.276 171.055L276.273 169.627C276.022 170.075 275.645 170.449 275.141 170.749C274.647 171.039 274.069 171.185 273.406 171.186C272.725 171.187 272.108 171.021 271.557 170.686C271.006 170.351 270.571 169.88 270.252 169.274C269.934 168.668 269.774 167.978 269.773 167.203ZM276.269 167.205C276.267 166.626 276.15 166.122 275.916 165.693C275.682 165.265 275.364 164.938 274.962 164.715C274.569 164.483 274.135 164.367 273.659 164.368C273.183 164.369 272.749 164.481 272.358 164.706C271.966 164.931 271.654 165.258 271.422 165.688C271.189 166.118 271.073 166.622 271.075 167.201C271.076 167.789 271.193 168.302 271.427 168.74C271.662 169.169 271.975 169.5 272.367 169.732C272.76 169.955 273.194 170.067 273.67 170.066C274.146 170.065 274.58 169.952 274.971 169.727C275.372 169.493 275.689 169.161 275.921 168.731C276.154 168.292 276.27 167.783 276.269 167.205ZM281.258 164.423L281.267 168.945C281.267 169.319 281.347 169.585 281.506 169.743C281.665 169.892 281.941 169.966 282.333 169.965L283.271 169.964L283.273 171.042L282.125 171.044C281.415 171.045 280.883 170.883 280.528 170.557C280.173 170.231 279.994 169.694 279.993 168.948L279.984 164.426L278.99 164.428L278.988 163.378L279.982 163.376L279.979 161.444L281.253 161.441L281.256 163.373L283.258 163.37L283.26 164.42L281.258 164.423ZM132.425 179.512C133.004 179.511 133.527 179.636 133.994 179.887C134.461 180.129 134.826 180.497 135.088 180.991C135.359 181.485 135.496 182.087 135.497 182.797L135.506 187.318L134.246 187.321L134.238 182.981C134.236 182.216 134.044 181.633 133.66 181.232C133.277 180.822 132.754 180.618 132.091 180.619C131.419 180.62 130.883 180.831 130.482 181.252C130.091 181.673 129.896 182.284 129.898 183.087L129.906 187.329L128.632 187.331L128.612 176.971L129.886 176.969L129.893 180.749C130.145 180.357 130.489 180.053 130.928 179.837C131.375 179.622 131.874 179.513 132.425 179.512ZM140.933 187.434C140.214 187.436 139.561 187.274 138.972 186.948C138.393 186.622 137.935 186.161 137.597 185.565C137.27 184.959 137.105 184.259 137.104 183.465C137.102 182.681 137.269 181.991 137.604 181.393C137.948 180.785 138.414 180.322 139.001 180.004C139.588 179.676 140.246 179.512 140.974 179.51C141.702 179.509 142.36 179.671 142.949 179.997C143.538 180.313 144.001 180.769 144.338 181.366C144.684 181.963 144.858 182.658 144.86 183.451C144.861 184.244 144.685 184.945 144.331 185.552C143.987 186.15 143.517 186.613 142.92 186.941C142.323 187.268 141.661 187.433 140.933 187.434ZM140.931 186.314C141.388 186.313 141.817 186.205 142.218 185.99C142.619 185.775 142.941 185.452 143.182 185.022C143.434 184.592 143.559 184.069 143.558 183.453C143.556 182.837 143.434 182.315 143.191 181.886C142.947 181.457 142.629 181.14 142.237 180.936C141.844 180.722 141.42 180.615 140.962 180.616C140.496 180.617 140.066 180.725 139.675 180.941C139.293 181.147 138.985 181.465 138.753 181.894C138.52 182.324 138.404 182.847 138.406 183.463C138.407 184.088 138.52 184.616 138.745 185.044C138.979 185.473 139.287 185.795 139.67 186.009C140.053 186.213 140.474 186.315 140.931 186.314ZM147.796 176.935L147.816 187.295L146.542 187.298L146.522 176.938L147.796 176.935ZM149.504 183.428C149.502 182.644 149.66 181.958 149.976 181.369C150.292 180.771 150.725 180.309 151.275 179.981C151.835 179.653 152.46 179.489 153.151 179.487C153.748 179.486 154.303 179.625 154.817 179.904C155.331 180.174 155.724 180.533 155.995 180.98L155.988 176.92L157.276 176.918L157.295 187.278L156.007 187.28L156.004 185.838C155.753 186.296 155.381 186.675 154.887 186.974C154.392 187.264 153.814 187.41 153.151 187.411C152.47 187.413 151.849 187.246 151.288 186.911C150.737 186.576 150.302 186.105 149.984 185.499C149.665 184.893 149.505 184.203 149.504 183.428ZM156 183.43C155.999 182.851 155.881 182.348 155.647 181.919C155.413 181.49 155.095 181.164 154.693 180.941C154.301 180.708 153.867 180.592 153.391 180.593C152.915 180.594 152.481 180.707 152.089 180.931C151.698 181.156 151.386 181.483 151.153 181.913C150.921 182.343 150.805 182.847 150.806 183.426C150.807 184.014 150.925 184.527 151.159 184.965C151.393 185.394 151.706 185.725 152.099 185.957C152.491 186.181 152.925 186.292 153.401 186.291C153.877 186.29 154.311 186.177 154.703 185.953C155.104 185.718 155.42 185.387 155.653 184.957C155.885 184.518 156.001 184.009 156 183.43ZM162.164 187.395C161.576 187.396 161.049 187.299 160.582 187.104C160.115 186.899 159.746 186.62 159.474 186.266C159.203 185.902 159.053 185.487 159.024 185.02L160.34 185.018C160.378 185.401 160.556 185.713 160.874 185.955C161.201 186.197 161.626 186.318 162.148 186.317C162.634 186.316 163.016 186.208 163.296 185.992C163.575 185.777 163.715 185.506 163.714 185.18C163.714 184.844 163.564 184.597 163.265 184.438C162.966 184.271 162.503 184.109 161.878 183.951C161.308 183.803 160.841 183.654 160.477 183.506C160.122 183.348 159.814 183.12 159.552 182.821C159.299 182.514 159.172 182.113 159.171 181.618C159.171 181.226 159.287 180.867 159.519 180.54C159.752 180.212 160.083 179.955 160.512 179.768C160.941 179.571 161.431 179.472 161.981 179.471C162.831 179.469 163.517 179.683 164.041 180.111C164.564 180.539 164.845 181.127 164.884 181.873L163.61 181.876C163.581 181.475 163.417 181.153 163.118 180.911C162.828 180.669 162.436 180.548 161.941 180.549C161.484 180.55 161.12 180.649 160.85 180.845C160.58 181.042 160.445 181.298 160.445 181.616C160.446 181.868 160.526 182.078 160.685 182.245C160.853 182.404 161.059 182.534 161.301 182.636C161.554 182.729 161.899 182.836 162.338 182.956C162.889 183.105 163.337 183.253 163.683 183.402C164.028 183.541 164.323 183.755 164.566 184.044C164.819 184.333 164.95 184.711 164.96 185.177C164.961 185.597 164.845 185.976 164.612 186.312C164.38 186.648 164.049 186.915 163.62 187.112C163.2 187.299 162.715 187.394 162.164 187.395ZM173.349 186.072L175.717 179.571L177.075 179.569L174.079 187.246L172.595 187.249L169.571 179.583L170.943 179.58L173.349 186.072ZM177.859 183.375C177.858 182.591 178.015 181.905 178.331 181.316C178.648 180.718 179.081 180.256 179.631 179.928C180.19 179.6 180.811 179.436 181.492 179.434C182.164 179.433 182.748 179.577 183.243 179.865C183.738 180.153 184.107 180.517 184.351 180.955L184.348 179.555L185.636 179.553L185.651 187.225L184.363 187.227L184.36 185.799C184.109 186.247 183.731 186.621 183.228 186.921C182.734 187.211 182.155 187.357 181.493 187.358C180.811 187.36 180.195 187.193 179.644 186.858C179.093 186.523 178.658 186.052 178.339 185.446C178.021 184.84 177.861 184.15 177.859 183.375ZM184.355 183.377C184.354 182.798 184.237 182.295 184.003 181.866C183.768 181.437 183.45 181.111 183.049 180.887C182.656 180.655 182.222 180.539 181.746 180.54C181.27 180.541 180.836 180.654 180.445 180.878C180.053 181.103 179.741 181.43 179.508 181.86C179.276 182.29 179.16 182.794 179.161 183.373C179.162 183.961 179.28 184.474 179.514 184.912C179.748 185.341 180.062 185.672 180.454 185.904C180.846 186.128 181.281 186.239 181.757 186.238C182.233 186.237 182.666 186.124 183.058 185.899C183.459 185.665 183.776 185.333 184.008 184.904C184.241 184.465 184.356 183.956 184.355 183.377ZM189.058 176.858L189.077 187.218L187.803 187.221L187.784 176.861L189.058 176.858ZM198.038 179.529L198.053 187.201L196.779 187.204L196.777 186.07C196.535 186.462 196.195 186.771 195.756 186.996C195.327 187.211 194.852 187.319 194.329 187.32C193.732 187.321 193.195 187.201 192.718 186.959C192.242 186.708 191.863 186.336 191.582 185.841C191.311 185.347 191.174 184.746 191.173 184.036L191.164 179.542L192.424 179.54L192.433 183.866C192.434 184.622 192.626 185.205 193.01 185.615C193.393 186.015 193.916 186.215 194.579 186.214C195.26 186.213 195.797 186.002 196.188 185.581C196.579 185.16 196.774 184.548 196.772 183.746L196.764 179.532L198.038 179.529ZM207.196 183.054C207.197 183.297 207.183 183.554 207.156 183.824L201.024 183.836C201.072 184.592 201.329 185.184 201.797 185.612C202.274 186.031 202.848 186.24 203.52 186.239C204.071 186.238 204.528 186.111 204.891 185.859C205.264 185.596 205.525 185.251 205.673 184.821L207.045 184.818C206.841 185.556 206.432 186.159 205.817 186.627C205.202 187.085 204.437 187.315 203.522 187.317C202.794 187.318 202.14 187.156 201.561 186.831C200.991 186.505 200.542 186.044 200.215 185.447C199.887 184.841 199.722 184.142 199.721 183.348C199.719 182.555 199.877 181.859 200.193 181.261C200.509 180.663 200.951 180.205 201.52 179.887C202.098 179.559 202.761 179.395 203.507 179.393C204.235 179.392 204.88 179.549 205.44 179.865C206.001 180.182 206.431 180.62 206.731 181.179C207.04 181.729 207.195 182.354 207.196 183.054ZM205.88 182.791C205.879 182.305 205.771 181.89 205.555 181.545C205.34 181.191 205.045 180.926 204.672 180.749C204.307 180.563 203.901 180.47 203.453 180.471C202.809 180.472 202.259 180.679 201.802 181.09C201.355 181.502 201.1 182.072 201.036 182.8L205.88 182.791ZM213.88 180.928C214.141 180.47 214.523 180.096 215.026 179.806C215.53 179.515 216.103 179.37 216.747 179.368C217.438 179.367 218.059 179.529 218.61 179.855C219.161 180.18 219.596 180.642 219.915 181.238C220.233 181.826 220.393 182.511 220.395 183.295C220.396 184.07 220.239 184.761 219.923 185.368C219.606 185.976 219.169 186.448 218.609 186.785C218.059 187.122 217.443 187.291 216.762 187.292C216.099 187.294 215.516 187.15 215.011 186.862C214.516 186.573 214.142 186.205 213.889 185.758L213.892 187.172L212.618 187.174L212.598 176.814L213.872 176.812L213.88 180.928ZM219.093 183.298C219.092 182.719 218.974 182.215 218.74 181.787C218.506 181.358 218.188 181.032 217.786 180.808C217.394 180.585 216.959 180.474 216.483 180.475C216.017 180.476 215.583 180.593 215.182 180.827C214.79 181.052 214.474 181.384 214.232 181.823C213.999 182.253 213.884 182.752 213.885 183.322C213.886 183.9 214.003 184.409 214.238 184.847C214.481 185.276 214.799 185.607 215.191 185.839C215.593 186.062 216.027 186.174 216.494 186.173C216.97 186.172 217.404 186.059 217.795 185.834C218.196 185.6 218.513 185.268 218.746 184.839C218.978 184.399 219.094 183.886 219.093 183.298ZM229.071 183.013C229.072 183.256 229.058 183.513 229.031 183.783L222.899 183.795C222.947 184.551 223.204 185.143 223.672 185.571C224.149 185.99 224.723 186.199 225.395 186.198C225.946 186.197 226.403 186.07 226.766 185.818C227.139 185.556 227.4 185.21 227.548 184.78L228.92 184.778C228.716 185.515 228.307 186.118 227.692 186.586C227.077 187.044 226.312 187.274 225.397 187.276C224.669 187.277 224.015 187.115 223.436 186.79C222.866 186.464 222.417 186.003 222.09 185.406C221.762 184.8 221.597 184.101 221.596 183.307C221.594 182.514 221.751 181.818 222.068 181.22C222.384 180.622 222.826 180.164 223.395 179.846C223.973 179.518 224.636 179.354 225.382 179.352C226.11 179.351 226.754 179.508 227.315 179.825C227.876 180.141 228.306 180.579 228.606 181.138C228.915 181.688 229.07 182.313 229.071 183.013ZM227.755 182.75C227.754 182.264 227.646 181.849 227.43 181.504C227.215 181.15 226.92 180.885 226.547 180.708C226.182 180.522 225.776 180.429 225.328 180.43C224.684 180.431 224.134 180.638 223.677 181.049C223.23 181.461 222.975 182.031 222.911 182.759L227.755 182.75ZM230.277 183.291C230.276 182.498 230.433 181.807 230.749 181.218C231.066 180.62 231.503 180.157 232.063 179.83C232.631 179.502 233.28 179.337 234.008 179.336C234.95 179.334 235.726 179.561 236.333 180.018C236.95 180.474 237.357 181.108 237.555 181.919L236.183 181.922C236.051 181.455 235.794 181.087 235.411 180.817C235.037 180.547 234.57 180.413 234.01 180.414C233.282 180.415 232.694 180.668 232.247 181.173C231.8 181.669 231.578 182.374 231.579 183.289C231.581 184.213 231.806 184.926 232.255 185.429C232.704 185.932 233.293 186.183 234.021 186.182C234.581 186.181 235.047 186.049 235.42 185.787C235.793 185.525 236.049 185.151 236.188 184.666L237.56 184.663C237.356 185.448 236.946 186.078 236.331 186.556C235.716 187.023 234.947 187.258 234.023 187.26C233.295 187.261 232.646 187.099 232.076 186.774C231.515 186.448 231.076 185.987 230.757 185.39C230.439 184.793 230.279 184.094 230.277 183.291ZM238.781 183.261C238.78 182.477 238.937 181.791 239.253 181.202C239.569 180.604 240.003 180.141 240.553 179.814C241.112 179.486 241.732 179.322 242.414 179.32C243.086 179.319 243.669 179.463 244.165 179.751C244.66 180.039 245.029 180.403 245.273 180.841L245.27 179.441L246.558 179.438L246.572 187.11L245.284 187.113L245.282 185.685C245.03 186.133 244.653 186.507 244.15 186.807C243.656 187.097 243.077 187.243 242.415 187.244C241.733 187.246 241.117 187.079 240.566 186.744C240.014 186.409 239.579 185.938 239.261 185.332C238.943 184.726 238.783 184.036 238.781 183.261ZM245.277 183.263C245.276 182.684 245.158 182.18 244.924 181.752C244.69 181.323 244.372 180.997 243.97 180.773C243.578 180.541 243.144 180.425 242.668 180.426C242.192 180.427 241.758 180.539 241.366 180.764C240.975 180.989 240.663 181.316 240.43 181.746C240.198 182.176 240.082 182.68 240.083 183.259C240.084 183.847 240.202 184.36 240.436 184.798C240.67 185.227 240.983 185.558 241.376 185.79C241.768 186.013 242.202 186.125 242.678 186.124C243.154 186.123 243.588 186.01 243.98 185.785C244.381 185.551 244.697 185.219 244.93 184.79C245.162 184.35 245.278 183.842 245.277 183.263ZM255.515 179.422L255.529 187.094L254.255 187.096L254.253 185.962C254.011 186.355 253.671 186.663 253.233 186.888C252.804 187.103 252.328 187.212 251.805 187.213C251.208 187.214 250.671 187.093 250.195 186.852C249.718 186.601 249.34 186.228 249.059 185.734C248.787 185.24 248.651 184.638 248.649 183.929L248.641 179.435L249.901 179.432L249.909 183.758C249.91 184.514 250.103 185.097 250.486 185.507C250.87 185.908 251.393 186.107 252.055 186.106C252.737 186.105 253.273 185.894 253.664 185.473C254.055 185.052 254.25 184.441 254.249 183.638L254.241 179.424L255.515 179.422ZM260.397 187.211C259.809 187.212 259.281 187.115 258.814 186.92C258.347 186.715 257.978 186.436 257.706 186.082C257.435 185.718 257.285 185.303 257.256 184.836L258.572 184.834C258.61 185.217 258.788 185.529 259.106 185.771C259.433 186.013 259.858 186.134 260.381 186.133C260.866 186.132 261.248 186.024 261.528 185.808C261.808 185.593 261.947 185.322 261.946 184.996C261.946 184.66 261.796 184.413 261.497 184.254C261.198 184.087 260.736 183.925 260.11 183.767C259.54 183.619 259.074 183.47 258.709 183.322C258.354 183.164 258.046 182.936 257.784 182.637C257.531 182.33 257.405 181.929 257.404 181.434C257.403 181.042 257.519 180.683 257.752 180.355C257.984 180.028 258.315 179.771 258.744 179.584C259.173 179.387 259.663 179.288 260.214 179.287C261.063 179.285 261.749 179.499 262.273 179.927C262.796 180.355 263.077 180.943 263.116 181.689L261.842 181.692C261.813 181.291 261.65 180.969 261.35 180.727C261.061 180.485 260.668 180.364 260.174 180.365C259.716 180.366 259.353 180.464 259.082 180.661C258.812 180.858 258.677 181.114 258.678 181.432C258.678 181.684 258.758 181.894 258.917 182.061C259.085 182.22 259.291 182.35 259.534 182.452C259.786 182.545 260.131 182.652 260.57 182.772C261.121 182.921 261.569 183.069 261.915 183.218C262.261 183.357 262.555 183.571 262.798 183.86C263.051 184.149 263.182 184.527 263.192 184.993C263.193 185.413 263.077 185.792 262.845 186.128C262.612 186.464 262.281 186.731 261.852 186.928C261.432 187.115 260.947 187.21 260.397 187.211ZM271.987 182.933C271.987 183.176 271.974 183.432 271.946 183.703L265.814 183.714C265.863 184.47 266.12 185.062 266.588 185.491C267.065 185.91 267.639 186.119 268.311 186.118C268.862 186.117 269.319 185.99 269.682 185.737C270.055 185.475 270.316 185.129 270.464 184.7L271.836 184.697C271.632 185.435 271.223 186.038 270.608 186.505C269.993 186.964 269.228 187.194 268.313 187.196C267.585 187.197 266.931 187.035 266.352 186.709C265.782 186.384 265.333 185.923 265.005 185.326C264.678 184.72 264.513 184.02 264.512 183.227C264.51 182.434 264.667 181.738 264.984 181.14C265.3 180.542 265.742 180.084 266.311 179.765C266.889 179.438 267.551 179.273 268.298 179.272C269.026 179.27 269.67 179.428 270.231 179.744C270.792 180.06 271.222 180.498 271.521 181.058C271.831 181.608 271.986 182.233 271.987 182.933ZM270.671 182.669C270.67 182.184 270.561 181.769 270.346 181.424C270.131 181.07 269.836 180.804 269.463 180.628C269.098 180.442 268.692 180.349 268.244 180.35C267.6 180.351 267.05 180.557 266.593 180.969C266.146 181.38 265.89 181.95 265.827 182.678L270.671 182.669ZM278.95 180.428L278.959 184.95C278.96 185.323 279.039 185.589 279.198 185.747C279.357 185.896 279.633 185.971 280.025 185.97L280.963 185.968L280.965 187.046L279.817 187.048C279.107 187.05 278.575 186.887 278.22 186.561C277.865 186.235 277.686 185.699 277.685 184.952L277.676 180.43L276.682 180.432L276.68 179.382L277.674 179.38L277.671 177.448L278.945 177.446L278.948 179.378L280.95 179.374L280.952 180.424L278.95 180.428ZM286.302 179.224C286.88 179.223 287.403 179.348 287.87 179.599C288.338 179.841 288.702 180.209 288.965 180.703C289.236 181.197 289.373 181.799 289.374 182.508L289.382 187.03L288.122 187.033L288.114 182.693C288.113 181.927 287.92 181.344 287.537 180.944C287.154 180.534 286.63 180.329 285.968 180.331C285.296 180.332 284.76 180.543 284.359 180.964C283.968 181.384 283.773 181.996 283.774 182.799L283.782 187.041L282.508 187.043L282.489 176.683L283.763 176.681L283.77 180.461C284.021 180.068 284.366 179.764 284.804 179.549C285.252 179.333 285.751 179.225 286.302 179.224ZM298.456 182.883C298.456 183.126 298.443 183.383 298.415 183.653L292.283 183.665C292.331 184.421 292.589 185.013 293.056 185.441C293.533 185.86 294.108 186.069 294.78 186.068C295.33 186.067 295.787 185.94 296.151 185.688C296.524 185.426 296.784 185.08 296.933 184.65L298.305 184.648C298.101 185.385 297.692 185.988 297.076 186.456C296.461 186.914 295.696 187.144 294.782 187.146C294.054 187.148 293.4 186.985 292.821 186.66C292.251 186.334 291.802 185.873 291.474 185.276C291.146 184.67 290.982 183.971 290.98 183.177C290.979 182.384 291.136 181.688 291.452 181.09C291.769 180.492 292.211 180.034 292.78 179.716C293.358 179.388 294.02 179.224 294.767 179.222C295.495 179.221 296.139 179.378 296.7 179.695C297.26 180.011 297.69 180.449 297.99 181.008C298.299 181.558 298.454 182.183 298.456 182.883ZM297.139 182.62C297.138 182.134 297.03 181.719 296.815 181.374C296.6 181.02 296.305 180.755 295.931 180.578C295.567 180.392 295.161 180.299 294.713 180.3C294.069 180.301 293.519 180.508 293.062 180.919C292.615 181.331 292.359 181.901 292.295 182.629L297.139 182.62ZM131.811 195.527C132.474 195.526 133.053 195.67 133.548 195.958C134.052 196.247 134.426 196.61 134.67 197.048L134.667 195.648L135.955 195.646L135.97 203.486C135.971 204.186 135.823 204.807 135.525 205.348C135.228 205.9 134.799 206.33 134.24 206.639C133.69 206.948 133.046 207.103 132.309 207.105C131.301 207.106 130.46 206.87 129.787 206.395C129.115 205.921 128.717 205.273 128.594 204.451L129.854 204.449C129.995 204.916 130.285 205.288 130.724 205.567C131.163 205.856 131.691 206 132.307 205.999C133.007 205.997 133.576 205.777 134.013 205.337C134.461 204.898 134.683 204.281 134.682 203.488L134.679 201.878C134.428 202.327 134.055 202.701 133.561 203C133.067 203.3 132.489 203.45 131.826 203.451C131.145 203.453 130.524 203.286 129.963 202.951C129.412 202.616 128.977 202.145 128.658 201.539C128.34 200.933 128.18 200.243 128.178 199.468C128.177 198.684 128.334 197.998 128.651 197.409C128.967 196.811 129.4 196.349 129.95 196.021C130.509 195.693 131.13 195.529 131.811 195.527ZM134.674 199.47C134.673 198.891 134.556 198.388 134.322 197.959C134.087 197.53 133.77 197.204 133.368 196.981C132.975 196.748 132.541 196.632 132.065 196.633C131.589 196.634 131.155 196.747 130.764 196.971C130.372 197.196 130.06 197.523 129.828 197.953C129.595 198.383 129.479 198.887 129.48 199.466C129.482 200.054 129.599 200.567 129.833 201.005C130.067 201.434 130.381 201.765 130.773 201.997C131.166 202.221 131.6 202.332 132.076 202.331C132.552 202.33 132.986 202.217 133.377 201.993C133.778 201.758 134.095 201.427 134.327 200.997C134.56 200.558 134.676 200.049 134.674 199.47ZM141.469 203.433C140.75 203.435 140.097 203.273 139.508 202.947C138.929 202.621 138.47 202.16 138.133 201.564C137.806 200.958 137.641 200.258 137.639 199.465C137.638 198.681 137.805 197.99 138.14 197.392C138.484 196.784 138.95 196.321 139.537 196.003C140.124 195.675 140.782 195.511 141.51 195.509C142.238 195.508 142.896 195.67 143.485 195.996C144.074 196.312 144.536 196.768 144.873 197.365C145.22 197.962 145.394 198.657 145.395 199.45C145.397 200.243 145.221 200.944 144.867 201.551C144.523 202.149 144.053 202.612 143.456 202.94C142.859 203.267 142.197 203.432 141.469 203.433ZM141.467 202.313C141.924 202.313 142.353 202.204 142.754 201.989C143.155 201.774 143.476 201.451 143.718 201.021C143.97 200.591 144.095 200.068 144.093 199.452C144.092 198.836 143.97 198.314 143.726 197.885C143.483 197.456 143.165 197.14 142.773 196.935C142.38 196.721 141.955 196.614 141.498 196.615C141.031 196.616 140.602 196.724 140.211 196.94C139.828 197.146 139.521 197.464 139.288 197.893C139.056 198.323 138.94 198.846 138.941 199.462C138.943 200.087 139.056 200.615 139.28 201.043C139.514 201.472 139.823 201.794 140.206 202.008C140.589 202.212 141.009 202.314 141.467 202.313ZM149.931 202.116L152.299 195.615L153.657 195.613L150.662 203.29L149.178 203.293L146.153 195.627L147.525 195.624L149.931 202.116ZM161.918 199.139C161.918 199.382 161.904 199.638 161.877 199.909L155.745 199.921C155.793 200.677 156.051 201.269 156.518 201.697C156.995 202.116 157.57 202.325 158.242 202.324C158.792 202.323 159.249 202.196 159.613 201.943C159.986 201.681 160.246 201.336 160.395 200.906L161.767 200.903C161.563 201.641 161.153 202.244 160.538 202.712C159.923 203.17 159.158 203.4 158.244 203.402C157.516 203.403 156.862 203.241 156.283 202.916C155.713 202.59 155.264 202.129 154.936 201.532C154.608 200.926 154.444 200.226 154.442 199.433C154.441 198.64 154.598 197.944 154.914 197.346C155.23 196.748 155.673 196.29 156.242 195.972C156.82 195.644 157.482 195.479 158.229 195.478C158.957 195.477 159.601 195.634 160.162 195.95C160.722 196.267 161.152 196.704 161.452 197.264C161.761 197.814 161.916 198.439 161.918 199.139ZM160.601 198.876C160.6 198.39 160.492 197.975 160.277 197.63C160.061 197.276 159.767 197.01 159.393 196.834C159.029 196.648 158.623 196.555 158.175 196.556C157.531 196.557 156.98 196.764 156.524 197.175C156.077 197.587 155.821 198.156 155.757 198.885L160.601 198.876ZM164.869 196.838C165.092 196.398 165.409 196.057 165.819 195.814C166.239 195.57 166.747 195.448 167.344 195.447L167.347 196.763L167.011 196.764C165.583 196.766 164.87 197.542 164.873 199.092L164.881 203.264L163.607 203.266L163.593 195.594L164.867 195.592L164.869 196.838ZM172.553 195.437C173.486 195.435 174.243 195.719 174.823 196.287C175.402 196.846 175.693 197.657 175.695 198.721L175.704 203.243L174.444 203.246L174.435 198.906C174.434 198.14 174.242 197.557 173.858 197.157C173.475 196.747 172.952 196.542 172.289 196.544C171.617 196.545 171.081 196.756 170.68 197.177C170.289 197.597 170.094 198.209 170.096 199.012L170.104 203.254L168.83 203.256L168.815 195.584L170.089 195.582L170.091 196.674C170.343 196.281 170.683 195.977 171.112 195.762C171.55 195.546 172.03 195.438 172.553 195.437ZM186.996 195.41C187.593 195.409 188.126 195.534 188.593 195.785C189.06 196.027 189.429 196.395 189.701 196.889C189.972 197.383 190.109 197.985 190.11 198.694L190.119 203.216L188.859 203.219L188.85 198.879C188.849 198.113 188.657 197.53 188.273 197.13C187.899 196.72 187.39 196.515 186.746 196.517C186.083 196.518 185.556 196.733 185.165 197.163C184.774 197.584 184.579 198.196 184.581 198.999L184.589 203.227L183.329 203.229L183.321 198.889C183.319 198.124 183.127 197.541 182.743 197.14C182.369 196.73 181.86 196.526 181.216 196.527C180.553 196.528 180.026 196.744 179.635 197.174C179.244 197.595 179.049 198.206 179.051 199.009L179.059 203.237L177.785 203.239L177.77 195.567L179.044 195.565L179.046 196.671C179.298 196.269 179.633 195.961 180.053 195.745C180.482 195.53 180.953 195.421 181.466 195.42C182.11 195.419 182.68 195.563 183.175 195.851C183.67 196.14 184.039 196.564 184.283 197.123C184.497 196.581 184.851 196.161 185.345 195.861C185.839 195.562 186.389 195.411 186.996 195.41ZM199.201 199.069C199.201 199.312 199.188 199.569 199.16 199.839L193.028 199.851C193.076 200.607 193.334 201.199 193.801 201.627C194.278 202.046 194.853 202.255 195.525 202.254C196.075 202.253 196.532 202.126 196.896 201.874C197.269 201.611 197.529 201.266 197.678 200.836L199.05 200.833C198.846 201.571 198.437 202.174 197.821 202.642C197.206 203.1 196.441 203.33 195.527 203.332C194.799 203.333 194.145 203.171 193.566 202.846C192.996 202.52 192.547 202.059 192.219 201.462C191.891 200.856 191.727 200.157 191.725 199.363C191.724 198.57 191.881 197.874 192.197 197.276C192.514 196.678 192.956 196.22 193.525 195.902C194.103 195.574 194.765 195.41 195.512 195.408C196.24 195.407 196.884 195.564 197.445 195.88C198.005 196.197 198.435 196.635 198.735 197.194C199.044 197.744 199.199 198.369 199.201 199.069ZM197.884 198.806C197.883 198.32 197.775 197.905 197.56 197.56C197.345 197.206 197.05 196.941 196.676 196.764C196.312 196.578 195.906 196.485 195.458 196.486C194.814 196.487 194.264 196.694 193.807 197.105C193.36 197.517 193.104 198.087 193.04 198.815L197.884 198.806ZM204.613 195.377C205.547 195.375 206.303 195.659 206.883 196.227C207.463 196.786 207.754 197.597 207.756 198.661L207.764 203.183L206.504 203.186L206.496 198.846C206.495 198.08 206.302 197.497 205.919 197.097C205.535 196.687 205.012 196.482 204.35 196.484C203.678 196.485 203.141 196.696 202.741 197.117C202.349 197.537 202.155 198.149 202.156 198.952L202.164 203.194L200.89 203.196L200.876 195.524L202.15 195.522L202.152 196.614C202.403 196.221 202.743 195.917 203.172 195.702C203.61 195.486 204.091 195.378 204.613 195.377ZM211.387 196.554L211.395 201.076C211.396 201.45 211.476 201.716 211.635 201.874C211.794 202.023 212.069 202.097 212.461 202.096L213.399 202.095L213.401 203.173L212.253 203.175C211.544 203.176 211.011 203.014 210.656 202.688C210.301 202.362 210.123 201.825 210.121 201.079L210.113 196.557L209.119 196.559L209.117 195.509L210.111 195.507L210.107 193.575L211.381 193.572L211.385 195.504L213.387 195.501L213.389 196.551L211.387 196.554ZM227.889 195.333C228.486 195.332 229.018 195.457 229.485 195.708C229.952 195.95 230.322 196.318 230.593 196.812C230.865 197.307 231.001 197.908 231.003 198.618L231.011 203.14L229.751 203.142L229.743 198.802C229.742 198.037 229.549 197.454 229.166 197.053C228.792 196.643 228.283 196.439 227.639 196.44C226.976 196.441 226.449 196.657 226.058 197.087C225.667 197.508 225.472 198.119 225.473 198.922L225.481 203.15L224.221 203.152L224.213 198.812C224.212 198.047 224.019 197.464 223.636 197.063C223.262 196.653 222.753 196.449 222.109 196.45C221.446 196.452 220.919 196.667 220.528 197.097C220.137 197.518 219.942 198.13 219.943 198.932L219.951 203.16L218.677 203.163L218.663 195.491L219.937 195.488L219.939 196.594C220.19 196.193 220.526 195.884 220.945 195.668C221.374 195.453 221.845 195.345 222.359 195.344C223.003 195.343 223.572 195.486 224.067 195.775C224.563 196.063 224.932 196.487 225.176 197.047C225.389 196.505 225.743 196.084 226.237 195.785C226.731 195.485 227.282 195.335 227.889 195.333ZM232.618 199.273C232.616 198.489 232.774 197.802 233.09 197.214C233.406 196.616 233.839 196.153 234.389 195.825C234.949 195.498 235.569 195.333 236.25 195.332C236.922 195.331 237.506 195.474 238.001 195.763C238.496 196.051 238.866 196.414 239.109 196.852L239.107 195.452L240.395 195.45L240.409 203.122L239.121 203.124L239.118 201.696C238.867 202.145 238.49 202.519 237.986 202.819C237.492 203.109 236.914 203.255 236.251 203.256C235.57 203.257 234.954 203.09 234.402 202.755C233.851 202.42 233.416 201.95 233.098 201.344C232.779 200.738 232.619 200.047 232.618 199.273ZM239.114 199.274C239.113 198.696 238.995 198.192 238.761 197.763C238.527 197.334 238.209 197.008 237.807 196.785C237.415 196.552 236.98 196.436 236.504 196.437C236.028 196.438 235.595 196.551 235.203 196.776C234.811 197 234.499 197.328 234.267 197.758C234.034 198.187 233.919 198.692 233.92 199.27C233.921 199.858 234.038 200.371 234.273 200.81C234.507 201.238 234.82 201.569 235.212 201.802C235.605 202.025 236.039 202.136 236.515 202.135C236.991 202.134 237.425 202.022 237.816 201.797C238.217 201.563 238.534 201.231 238.767 200.801C238.999 200.362 239.115 199.853 239.114 199.274ZM243.203 194.199C242.961 194.199 242.755 194.116 242.587 193.948C242.418 193.78 242.334 193.575 242.334 193.332C242.333 193.09 242.417 192.884 242.584 192.716C242.752 192.548 242.957 192.463 243.2 192.463C243.433 192.462 243.629 192.546 243.788 192.714C243.957 192.881 244.041 193.087 244.042 193.329C244.042 193.572 243.958 193.777 243.791 193.946C243.632 194.114 243.437 194.198 243.203 194.199ZM243.822 195.444L243.836 203.116L242.562 203.118L242.548 195.446L243.822 195.444ZM249.731 195.293C250.664 195.291 251.42 195.574 252 196.142C252.58 196.701 252.871 197.513 252.873 198.577L252.881 203.099L251.621 203.101L251.613 198.761C251.612 197.996 251.419 197.413 251.036 197.012C250.652 196.602 250.129 196.398 249.467 196.399C248.795 196.4 248.258 196.611 247.858 197.032C247.467 197.453 247.272 198.064 247.273 198.867L247.281 203.109L246.007 203.112L245.993 195.44L247.267 195.437L247.269 196.529C247.52 196.137 247.86 195.833 248.289 195.617C248.727 195.402 249.208 195.294 249.731 195.293ZM256.504 196.47L256.512 200.992C256.513 201.365 256.593 201.631 256.752 201.789C256.911 201.938 257.186 202.013 257.578 202.012L258.516 202.01L258.518 203.088L257.37 203.09C256.661 203.092 256.129 202.929 255.773 202.603C255.418 202.277 255.24 201.741 255.238 200.994L255.23 196.472L254.236 196.474L254.234 195.424L255.228 195.422L255.224 193.49L256.498 193.488L256.502 195.42L258.504 195.416L258.506 196.466L256.504 196.47ZM259.579 199.222C259.577 198.438 259.735 197.752 260.051 197.163C260.367 196.565 260.8 196.102 261.35 195.775C261.91 195.447 262.53 195.283 263.211 195.281C263.883 195.28 264.467 195.424 264.962 195.712C265.457 196 265.827 196.364 266.07 196.802L266.067 195.402L267.355 195.4L267.37 203.072L266.082 203.074L266.079 201.646C265.828 202.094 265.451 202.468 264.947 202.768C264.453 203.058 263.875 203.204 263.212 203.205C262.531 203.207 261.914 203.04 261.363 202.705C260.812 202.37 260.377 201.899 260.058 201.293C259.74 200.687 259.58 199.997 259.579 199.222ZM266.075 199.224C266.074 198.645 265.956 198.141 265.722 197.713C265.488 197.284 265.17 196.958 264.768 196.734C264.376 196.502 263.941 196.386 263.465 196.387C262.989 196.388 262.556 196.501 262.164 196.725C261.772 196.95 261.46 197.277 261.228 197.707C260.995 198.137 260.88 198.641 260.881 199.22C260.882 199.808 260.999 200.321 261.233 200.759C261.468 201.188 261.781 201.519 262.173 201.751C262.566 201.975 263 202.086 263.476 202.085C263.952 202.084 264.386 201.971 264.777 201.746C265.178 201.512 265.495 201.18 265.727 200.751C265.96 200.311 266.076 199.803 266.075 199.224ZM270.164 194.148C269.921 194.149 269.716 194.065 269.548 193.897C269.379 193.73 269.295 193.525 269.294 193.282C269.294 193.039 269.378 192.834 269.545 192.665C269.713 192.497 269.918 192.413 270.161 192.412C270.394 192.412 270.59 192.495 270.749 192.663C270.918 192.831 271.002 193.036 271.002 193.279C271.003 193.521 270.919 193.727 270.752 193.895C270.593 194.063 270.397 194.148 270.164 194.148ZM270.782 195.393L270.797 203.065L269.523 203.067L269.508 195.396L270.782 195.393ZM276.691 195.242C277.625 195.24 278.381 195.524 278.961 196.092C279.541 196.651 279.832 197.462 279.834 198.526L279.842 203.048L278.582 203.051L278.574 198.711C278.573 197.945 278.38 197.362 277.997 196.962C277.613 196.552 277.09 196.347 276.428 196.349C275.756 196.35 275.219 196.561 274.819 196.982C274.427 197.402 274.233 198.014 274.234 198.817L274.242 203.059L272.968 203.061L272.954 195.389L274.228 195.387L274.23 196.479C274.481 196.086 274.821 195.782 275.25 195.567C275.688 195.351 276.169 195.243 276.691 195.242ZM284.639 203.165C284.051 203.166 283.524 203.069 283.057 202.874C282.59 202.67 282.221 202.39 281.949 202.036C281.678 201.673 281.528 201.258 281.499 200.791L282.815 200.789C282.853 201.171 283.031 201.484 283.349 201.726C283.676 201.968 284.101 202.088 284.623 202.087C285.109 202.086 285.491 201.978 285.771 201.763C286.05 201.548 286.19 201.277 286.189 200.95C286.189 200.614 286.039 200.367 285.74 200.209C285.441 200.042 284.979 199.879 284.353 199.722C283.783 199.573 283.316 199.425 282.952 199.276C282.597 199.118 282.289 198.89 282.027 198.592C281.774 198.285 281.647 197.883 281.647 197.389C281.646 196.997 281.762 196.637 281.995 196.31C282.227 195.983 282.558 195.726 282.987 195.538C283.416 195.341 283.906 195.243 284.457 195.242C285.306 195.24 285.992 195.453 286.516 195.882C287.039 196.31 287.32 196.897 287.359 197.644L286.085 197.646C286.056 197.245 285.892 196.923 285.593 196.681C285.303 196.439 284.911 196.319 284.417 196.32C283.959 196.32 283.595 196.419 283.325 196.616C283.055 196.812 282.92 197.069 282.921 197.386C282.921 197.638 283.001 197.848 283.16 198.016C283.328 198.174 283.534 198.305 283.776 198.407C284.029 198.5 284.374 198.606 284.813 198.727C285.364 198.875 285.812 199.024 286.158 199.172C286.503 199.312 286.798 199.526 287.041 199.815C287.294 200.104 287.425 200.481 287.435 200.948C287.436 201.368 287.32 201.746 287.087 202.083C286.855 202.419 286.524 202.686 286.095 202.882C285.675 203.07 285.19 203.164 284.639 203.165ZM293.611 194.104C293.369 194.105 293.163 194.021 292.995 193.854C292.827 193.686 292.742 193.481 292.742 193.238C292.741 192.995 292.825 192.79 292.993 192.622C293.16 192.453 293.365 192.369 293.608 192.368C293.841 192.368 294.038 192.452 294.197 192.619C294.365 192.787 294.449 192.992 294.45 193.235C294.45 193.477 294.366 193.683 294.199 193.851C294.04 194.02 293.845 194.104 293.611 194.104ZM294.23 195.349L294.244 203.021L292.97 203.024L292.956 195.352L294.23 195.349ZM297.957 196.392L297.965 200.914C297.966 201.288 298.046 201.553 298.205 201.712C298.364 201.861 298.639 201.935 299.031 201.934L299.969 201.932L299.971 203.01L298.823 203.013C298.114 203.014 297.582 202.852 297.226 202.526C296.871 202.2 296.693 201.663 296.691 200.917L296.683 196.395L295.689 196.396L295.687 195.346L296.681 195.345L296.677 193.413L297.951 193.41L297.955 195.342L299.957 195.338L299.959 196.388L297.957 196.392ZM301.921 203.091C301.678 203.091 301.473 203.008 301.305 202.84C301.136 202.672 301.052 202.467 301.051 202.224C301.051 201.982 301.135 201.776 301.302 201.608C301.47 201.44 301.675 201.355 301.918 201.355C302.151 201.354 302.347 201.438 302.506 201.606C302.675 201.773 302.759 201.979 302.759 202.221C302.76 202.464 302.676 202.669 302.509 202.838C302.35 203.006 302.154 203.09 301.921 203.091Z" fill="#2B3544"/>
</g>
<defs>
<clipPath id="clip0_12480_1433">
<rect width="303.035" height="254.451" fill="white" transform="matrix(0.962679 0.270646 -0.277752 0.960653 90.2598 25.4098)"/>
</clipPath>
</defs>
</svg>
