<svg width="266" height="134" viewBox="0 0 266 134" fill="none" xmlns="http://www.w3.org/2000/svg">
<g style="mix-blend-mode:multiply" opacity="0.4">
<path d="M265.236 1.68634L263.787 1.54032C256.508 0.843901 249.117 0.394602 241.827 0.181184L240.333 0.125023L240.456 1.60771C240.569 2.91068 240.67 4.22488 240.771 5.51662L240.187 5.49416L240.31 6.97684C241.085 16.7491 241.771 26.6562 242.344 36.4397C240.692 38.1021 239.827 40.0902 239.749 42.4041C239.715 43.3477 239.827 44.2687 240.063 45.1561C239.771 45.9648 239.603 46.8522 239.58 47.7845C237.278 32.2275 234.537 16.5132 231.414 1.09101L231.189 0.0126953H230.088C222.765 0.0576253 215.328 0.315975 208.005 0.843902L207.061 0.922529L206.814 1.83236C204.972 8.51569 203.242 15.3563 201.669 22.107C198.805 15.7607 195.783 9.40306 192.66 3.18026L192.245 2.32659L191.324 2.45015C184.078 3.33752 176.743 4.46076 169.566 5.80866L168.487 6.02208V7.11163C168.42 13.8961 168.442 20.7367 168.532 27.566C167.038 23.893 164.646 20.7254 161.388 18.1419C156.839 14.5363 151.233 12.6043 144.763 12.4134C141.528 12.2898 138.271 12.5931 135.069 13.2333C133.721 13.5142 132.362 13.8736 131.037 14.2892C121.668 17.2209 114.58 22.4665 110.548 29.4755C107.605 34.5863 106.594 39.8431 107.493 45.1224C105.392 42.348 102.707 40.1239 99.4498 38.4503C94.2602 35.8107 88.3966 35.0469 82.0051 36.1476C81.5108 36.215 81.0165 36.3049 80.5223 36.4285C76.4897 37.2597 72.5694 38.7199 68.8738 40.7193C60.2469 45.4818 54.3272 52.0416 51.7324 59.7584C49.8228 65.4195 49.8565 70.8111 51.8447 75.8658C51.7548 75.731 51.665 75.5737 51.5526 75.4277C51.0247 74.6639 50.4406 74.0124 49.8228 73.4171C49.6767 73.1138 49.5532 72.8105 49.3959 72.496C49.1937 72.1029 48.9017 71.6086 48.486 71.0245C46.0148 67.4751 42.5101 65.7003 38.0507 65.7677C37.0285 65.7677 35.9951 65.8913 34.9504 66.1159C31.4457 66.8461 27.7501 68.7106 23.9646 71.6536C16.1465 77.7865 8.50813 84.3238 1.2629 91.1083L0.296875 92.0181L35.2874 129.366L38.9718 133.286L39.949 132.376C47.183 125.592 54.8663 119.133 62.7631 113.158C65.5601 111.057 67.4472 108.238 68.3683 104.789C69.3119 101.274 69.0647 97.8814 67.6494 94.6914L67.582 94.5791L67.5371 94.5005C67.5371 94.5005 67.4472 94.3432 67.2787 93.9164C67.2562 93.8602 67.2338 93.8153 67.2225 93.7704C69.6938 94.9835 72.4458 95.8708 75.4563 96.3763C79.4889 97.0165 83.2856 96.9604 87.0823 96.1741C90.2949 95.5002 93.5412 94.2758 96.7089 92.5348C100.169 90.614 103.336 88.1653 106.437 85.009C108.964 82.3694 110.952 79.3928 112.323 76.1016C113.727 72.788 114.468 69.261 114.524 65.6329C114.547 64.0155 114.423 62.4317 114.176 60.8704C117.153 64.9815 121.275 68.0816 126.51 70.0698C132.407 72.3275 138.237 72.8105 144.37 71.53C145.572 71.2829 146.796 70.9684 148.01 70.5865C151.761 69.3958 155.367 67.6211 159.018 65.1499C162.017 63.0607 164.544 60.5222 166.555 57.6017C167.634 56.0067 168.521 54.3331 169.262 52.5808C169.318 53.8838 169.363 55.1867 169.431 56.4785L169.498 58.051L170.397 57.8713C170.453 59.1743 170.509 60.4772 170.577 61.769L170.655 63.3415L172.194 63.0045C173.025 62.8136 173.868 62.6563 174.721 62.4542C179.72 61.4208 184.797 60.4997 189.841 59.7471L191.054 59.5674L190.987 58.3431C190.605 52.7268 190.245 47.0656 189.897 41.4269C192.425 46.8298 194.873 52.3337 197.199 57.7702L197.592 58.7025L198.58 58.5677C202.849 58.051 207.185 57.6579 211.453 57.3321L212.442 57.2872L212.655 56.3212C213.913 50.6151 215.283 44.8753 216.721 39.2141C217.474 44.6506 218.193 50.1995 218.912 55.6922L219.069 56.8941L220.293 56.8491C226.281 56.602 232.402 56.5571 238.423 56.7143L239.985 56.7368L239.771 55.1867C239.58 53.9062 239.412 52.6369 239.198 51.3227L240.119 51.3564L240.097 51.188C240.546 52.4909 241.288 53.7377 242.321 54.8498C244.175 56.8267 246.545 57.9387 249.342 58.1072C250.386 58.1746 251.409 58.1184 252.352 57.905C253.925 57.6017 255.363 56.9053 256.688 55.8719C258.845 54.1758 260.069 51.9518 260.327 49.2672C260.417 48.3349 260.372 47.4363 260.193 46.5602C260.53 45.7402 260.743 44.8641 260.833 43.9093C261.046 41.6965 260.496 39.6634 259.238 37.8662C260.9 28.1838 262.664 18.2992 264.506 8.52693L264.776 7.08917L264.293 7.04424C264.529 5.7525 264.776 4.46076 265.023 3.15779L265.281 1.72004L265.236 1.68634ZM145.797 44.4822C144.595 45.7964 143.146 46.695 141.382 47.2566C141.056 47.3464 140.742 47.4363 140.416 47.5037C139.518 47.6834 138.585 47.762 137.642 47.6946C135.901 47.5936 134.407 47.0993 133.081 46.1783C132.587 45.8188 132.149 45.4369 131.756 45.0101C131.778 44.909 131.756 44.8079 131.789 44.7068C131.902 43.0669 132.542 41.6179 133.699 40.27C134.878 38.8996 136.384 37.9336 138.158 37.372C138.462 37.2821 138.787 37.1923 139.113 37.1249C140.068 36.9227 141.079 36.8665 142.135 36.9114C143.91 37.0238 145.449 37.5742 146.662 38.5289C147.145 38.9333 147.56 39.3601 147.931 39.8544C147.931 39.9442 147.92 40.0453 147.909 40.1127C147.684 41.7414 146.987 43.1567 145.819 44.4822H145.797ZM89.3626 67.374C88.4527 68.9241 87.2171 70.1035 85.5883 70.9909C84.6897 71.4851 83.7349 71.8445 82.7464 72.0355C82.4881 72.1029 82.2522 72.1253 81.9938 72.1815C80.2639 72.4174 78.6913 72.2377 77.1973 71.5862C76.6245 71.3391 76.1302 71.0695 75.6584 70.6988C75.6584 70.6089 75.636 70.5191 75.6247 70.418C75.4226 68.7668 75.7595 67.228 76.6357 65.6891C77.5231 64.1053 78.8037 62.8361 80.4437 61.9487C81.3423 61.4432 82.3757 61.0726 83.4878 60.8479C83.7237 60.7805 83.9933 60.7468 84.2629 60.7243C86.0377 60.4548 87.644 60.6906 89.0368 61.3871C89.5985 61.6903 90.0815 62.0273 90.5308 62.4204C90.5421 62.5103 90.5533 62.6002 90.5533 62.69C90.6656 64.3412 90.2725 65.8576 89.3626 67.374ZM42.4203 103.857C42.5214 103.779 43.3414 103.105 43.6559 102.88L44.5882 102.116C44.8803 101.903 45.1611 101.734 45.4195 101.588C45.2959 101.779 45.1499 101.959 44.9701 102.094L44.2175 102.711C44.2175 102.711 42.9145 103.756 42.5775 104.037L42.4203 103.857ZM31.5918 89.7491C32.1871 89.2886 32.715 88.9067 33.2318 88.6596C32.9285 89.019 32.5241 89.4009 31.9849 89.8502C31.7715 90.0075 31.5581 90.1759 31.3559 90.3444L31.1649 90.131C31.3109 89.9962 31.457 89.8727 31.603 89.7603L31.5918 89.7491ZM54.5293 80.8642C54.9225 81.4371 55.3493 81.9987 55.7762 82.5379C55.1809 82.4031 54.5855 82.302 53.9789 82.2458C53.9228 81.1675 53.7093 80.0555 53.3274 78.9547C53.6981 79.5949 54.0913 80.2352 54.5181 80.8642H54.5293Z" fill="black"/>
</g>
<path d="M35.3436 127.479C24.3017 115.673 13.2373 103.879 2.19531 92.074C9.463 85.2558 17.0227 78.8084 24.7959 72.6866C29.5474 69.0024 34.0181 67.1603 38.062 67.0929C42.1171 67.0255 45.2061 68.6205 47.3853 71.7768C47.7672 72.3047 48.048 72.754 48.2053 73.091C50.1935 76.8876 49.9913 80.5606 47.6661 84.1326C47.4415 84.4471 47.2393 84.7504 47.0146 85.0873C47.5201 84.8515 48.0031 84.5819 48.4974 84.3572C51.1259 83.4025 53.6757 83.2789 56.1582 83.9865C58.6407 84.6942 60.6177 86.1881 62.1453 88.4234C62.5497 89.0187 62.8306 89.5242 62.9878 89.9398C63.1451 90.3441 63.2799 90.6249 63.381 90.7597C64.6952 93.7251 64.8637 96.8141 63.9763 100.038C63.0889 103.262 61.3478 105.834 58.7193 107.788C50.6204 113.91 42.836 120.458 35.3549 127.479H35.3436ZM32.805 90.8608C35.2538 88.8839 36.0176 87.053 35.0516 85.312C34.6921 84.6605 34.4225 84.2224 34.2203 83.9753C32.659 81.9647 30.3562 82.122 27.357 84.5257C26.8515 84.9188 26.3573 85.3232 25.8518 85.7388C27.6154 87.9067 29.3789 90.0633 31.1425 92.2087C31.6817 91.7594 32.2433 91.3101 32.7938 90.8608H32.805ZM44.4086 104.272C44.622 104.104 44.8354 103.924 45.0489 103.756C45.3184 103.542 45.588 103.329 45.8576 103.115C47.4976 101.52 47.5089 99.6559 45.8464 97.488C44.2738 95.4549 42.4428 95.2191 40.4097 96.8478C40.0951 97.0949 39.7694 97.3645 39.4436 97.6116C39.1291 97.8587 38.8146 98.1283 38.5001 98.3754C38.0395 98.7573 37.5902 99.1055 37.1297 99.4874C38.882 101.633 40.6343 103.756 42.3867 105.901C43.0606 105.351 43.7346 104.8 44.4198 104.272H44.4086Z" fill="black"/>
<path d="M39.0311 131.399C27.9892 119.594 16.9248 107.8 5.88281 96.0167C13.0382 89.2996 20.4519 82.942 28.124 76.9327C32.7856 73.2933 37.2002 71.4961 41.2103 71.4624C45.2205 71.4287 48.287 73.0687 50.455 76.1913C50.8481 76.7417 51.1177 77.191 51.275 77.5055C53.2969 81.3246 53.106 84.9639 50.8369 88.4797C50.6347 88.8054 50.4213 89.1424 50.2079 89.4456C50.6909 89.1985 51.1851 88.9739 51.6681 88.7268C54.2517 87.7945 56.7904 87.7046 59.2504 88.4235C61.6991 89.1648 63.6761 90.6588 65.1926 92.8716C65.597 93.4781 65.8778 93.9948 66.0463 94.3767C66.1923 94.7923 66.3383 95.0619 66.4394 95.2192C67.7537 98.1845 67.9559 101.24 67.0909 104.43C66.2372 107.642 64.5411 110.158 61.9687 112.102C54.0271 118.089 46.3774 124.536 39.0311 131.399ZM36.2004 95.0619C38.6155 93.1187 39.3456 91.2766 38.3796 89.5468C38.0089 88.9065 37.7393 88.4572 37.5371 88.2101C35.9758 86.1995 33.6955 86.3342 30.7525 88.6931C30.2582 89.1087 29.764 89.4906 29.2697 89.9062C31.0333 92.0741 32.7969 94.2082 34.5717 96.3649C35.1108 95.9268 35.6388 95.4775 36.1892 95.0507L36.2004 95.0619ZM47.7816 108.462C47.995 108.294 48.2084 108.137 48.4106 107.968C48.669 107.743 48.9498 107.541 49.2081 107.317C50.8144 105.755 50.8144 103.913 49.152 101.745C47.5681 99.7346 45.7709 99.465 43.7602 101.071C43.4457 101.318 43.1311 101.566 42.8166 101.835C42.5133 102.082 42.1988 102.329 41.8843 102.576C41.435 102.947 40.9744 103.307 40.5363 103.677C42.2887 105.8 44.041 107.946 45.7933 110.08C46.4448 109.529 47.0964 108.99 47.7703 108.462H47.7816Z" fill="black"/>
<path d="M58.6735 84.5602C54.5959 78.6182 53.5176 72.0022 55.9214 64.7011C58.3028 57.4337 63.7732 51.2333 72.1193 46.628C76.0845 44.4489 80.2744 42.9887 84.6327 42.2698C90.7097 41.2589 96.2139 42.0564 101.044 44.5612C105.874 47.0661 109.233 50.8065 111.311 55.6253C112.648 58.7704 113.254 62.0952 113.187 65.5885C113.131 69.0818 112.423 72.4066 111.086 75.5517C109.772 78.7305 107.896 81.5274 105.47 84.0435C102.527 87.065 99.404 89.48 96.0678 91.3446C89.4854 94.9727 82.8355 96.197 75.6689 95.0176C68.5135 93.8607 62.7735 90.5134 58.6735 84.5602ZM84.8462 78.1689C86.2615 78.0004 87.587 77.5623 88.8226 76.8771C90.6199 75.8999 92.0128 74.552 93.0237 72.8447C94.0234 71.1149 94.4728 69.3064 94.3492 67.4194C94.2593 66.24 93.9448 65.1279 93.3944 64.0384C92.5182 62.3311 91.2714 61.0393 89.6539 60.2306C88.0138 59.3994 86.1604 59.1186 84.0936 59.3994C82.521 59.6353 81.0831 60.0846 79.8251 60.7922C77.9604 61.8144 76.5114 63.2409 75.5004 65.0381C74.4782 66.8241 74.0963 68.6999 74.3322 70.5869C74.4108 71.7439 74.7815 72.8447 75.4218 73.9342C76.399 75.5517 77.7245 76.7199 79.4319 77.4725C81.1393 78.225 82.9478 78.4385 84.8686 78.1801L84.8462 78.1689Z" fill="black"/>
<path d="M112.479 55.1528C109.648 48.5031 109.906 41.8198 113.658 35.1702C117.41 28.543 123.936 23.5445 133.024 20.7027C137.326 19.366 141.707 18.7707 146.11 18.928C152.265 19.1414 157.5 21.006 161.735 24.4431C165.981 27.869 168.531 32.1936 169.598 37.338C170.272 40.6629 170.216 44.0438 169.452 47.4585C168.71 50.8844 167.351 53.9958 165.43 56.8264C163.51 59.657 161.117 62.0495 158.241 64.0265C154.759 66.4077 151.243 68.16 147.604 69.2945C140.46 71.541 133.742 71.4174 126.969 68.8115C120.24 66.2393 115.298 61.8137 112.49 55.1528H112.479ZM139.247 54.1419C140.673 54.243 142.032 54.0857 143.391 53.6701C145.335 53.0635 146.964 52.0189 148.289 50.5587C149.603 49.0535 150.401 47.3799 150.648 45.4928C150.805 44.3359 150.704 43.1677 150.378 42.0108C149.873 40.1349 148.907 38.6298 147.48 37.4841C146.054 36.3608 144.29 35.7206 142.212 35.597C140.617 35.4959 139.134 35.6869 137.753 36.0912C135.742 36.7203 134.034 37.8323 132.698 39.3824C131.339 40.9437 130.597 42.6847 130.451 44.5942C130.316 45.7399 130.451 46.9081 130.867 48.0875C131.485 49.8623 132.563 51.2888 134.091 52.3559C135.585 53.4117 137.314 54.0183 139.258 54.1419H139.247Z" fill="black"/>
<path d="M171.879 61.6681C171.059 45.3136 170.689 28.8917 170.79 12.4024C177.855 11.0882 184.966 9.9874 192.121 9.1225C195.334 15.6261 198.389 22.141 201.298 28.712C201.433 29.15 201.669 29.8577 201.972 30.8125C202.264 31.7784 202.511 32.6995 202.702 33.5869C202.747 34.1597 202.815 34.7101 202.848 35.2718C202.882 33.9912 202.916 32.7332 202.95 31.4752C203.017 30.0037 203.129 29.0377 203.287 28.521C204.87 21.5232 206.6 14.5253 208.487 7.54995C215.676 7.04449 222.888 6.79737 230.144 6.74121C233.357 22.8823 236.132 39.0908 238.423 55.3105C232.346 55.1645 226.269 55.2319 220.215 55.4678C219.406 49.245 218.586 43.0334 217.732 36.8218C217.687 36.0131 217.653 35.2493 217.631 34.4967C217.586 33.7778 217.564 33.0365 217.519 32.3288C217.496 31.8795 217.485 31.5426 217.474 31.3179C217.418 30.0149 217.35 28.7232 217.294 27.4202C217.238 27.8695 217.193 28.3076 217.137 28.7794C216.979 29.6892 216.822 30.5878 216.665 31.4976C216.418 33.1151 216.159 34.7663 215.912 36.3838C215.912 36.5186 215.935 36.6533 215.935 36.7881C214.284 43.1794 212.745 49.5707 211.341 55.9732C207.016 56.299 202.702 56.6809 198.411 57.1976C195.839 51.177 193.166 45.1788 190.346 39.2256C190.313 39.147 190.279 39.0683 190.234 38.956C189.661 37.3722 189.088 35.7772 188.504 34.171C188.257 33.5307 188.01 32.8792 187.763 32.2502C187.516 31.5987 187.268 30.9585 187.021 30.3182C187.145 30.8462 187.28 31.4078 187.414 31.9582C187.56 32.9803 187.706 33.9463 187.841 34.8562C187.987 35.766 188.133 36.6197 188.279 37.4059C188.358 37.8889 188.425 38.3607 188.504 38.8662C188.448 39.2481 188.437 39.4952 188.47 39.63C188.819 45.8865 189.212 52.1317 189.639 58.3658C183.696 59.2756 177.777 60.3652 171.902 61.6457L171.879 61.6681Z" fill="black"/>
<path d="M241.634 6.89844C248.789 7.10062 255.967 7.54992 263.156 8.2688C261.28 18.1871 259.494 28.1279 257.798 38.0686C253.103 37.653 248.407 37.3497 243.701 37.17C243.105 27.0832 242.409 16.9965 241.623 6.90967L241.634 6.89844ZM240.904 47.8409C240.971 45.5944 241.915 43.6961 243.779 42.1348C245.633 40.5735 247.868 39.8546 250.452 40.0006C253.024 40.1691 255.169 41.1576 256.821 42.9435C258.483 44.752 259.18 46.7963 258.955 49.1102C258.73 51.4465 257.674 53.3224 255.81 54.7938C253.956 56.2653 251.833 56.9055 249.396 56.7483C246.913 56.6022 244.88 55.6475 243.251 53.9064C241.634 52.1542 240.825 50.1323 240.904 47.8409Z" fill="black"/>
<path d="M35.4882 125.49C25.109 114.314 14.7073 103.104 4.32812 91.939C11.2027 85.5477 18.3131 79.5046 25.6257 73.776C29.9953 70.3276 34.1515 68.6091 37.8022 68.5641C41.4079 68.508 44.1038 69.8896 46.0696 72.6977C46.5077 73.3043 46.7211 73.6749 46.7997 73.8547C48.6082 77.2581 48.451 80.3807 46.4291 83.5146C45.2945 85.2107 44.1825 86.9293 43.0817 88.6479C45.0362 87.6482 46.9795 86.626 48.9452 85.6488C51.2367 84.8288 53.4272 84.7389 55.5951 85.3567C57.808 85.9857 59.5379 87.2775 60.9083 89.2769C61.3351 89.9059 61.5373 90.299 61.6159 90.5349C61.7957 90.9617 61.9417 91.2875 62.0653 91.5009C63.2447 94.163 63.3907 96.87 62.582 99.7793C61.7844 102.7 60.268 104.969 57.8866 106.743C50.1359 112.607 42.6436 118.852 35.477 125.513L35.4882 125.49ZM42.0819 107.9C43.6321 106.631 45.1822 105.351 46.7548 104.126C46.7773 104.093 46.7997 104.093 46.811 104.059C48.0803 102.823 49.8214 100.251 47.0244 96.578C45.0137 93.9608 42.2617 93.6351 39.5545 95.803C38.0493 96.9936 36.5553 98.2292 35.0726 99.431C37.409 102.25 39.7342 105.07 42.0707 107.9H42.0819ZM30.7929 94.2529C31.7476 93.4666 32.6912 92.6803 33.646 91.9165C37.7685 88.6142 37.1619 85.851 36.4093 84.4694C36.0049 83.7617 35.7241 83.3012 35.4882 82.9979C34.3088 81.4703 31.5455 79.426 26.5131 83.4584C25.592 84.211 24.6709 84.9748 23.7386 85.7274C26.0863 88.5692 28.4339 91.411 30.7816 94.2416L30.7929 94.2529Z" fill="#AD0400"/>
<path d="M49.5982 107.575C49.5982 107.575 49.6432 107.519 49.6656 107.507C50.9462 106.261 52.6648 103.677 49.8791 100.027C49.3399 99.3302 48.7445 98.7799 48.1267 98.4092C49.2275 101.094 47.8796 103.037 46.8349 104.059C46.8237 104.082 46.8012 104.093 46.7788 104.127C45.2062 105.362 43.656 106.631 42.1059 107.901C40.7355 106.238 39.3314 104.542 37.9609 102.891C40.2974 105.71 42.6338 108.53 44.9703 111.36C46.5204 110.091 48.0706 108.81 49.6319 107.586L49.5982 107.575Z" fill="#FFF8B6"/>
<path d="M38.3321 86.4348C37.9502 85.9518 37.3998 85.4014 36.6697 85.042C37.2313 86.5247 37.2762 89.0071 33.648 91.9275C32.6932 92.6913 31.7497 93.4776 30.7949 94.2639C29.402 92.5678 27.9979 90.8717 26.5938 89.198C28.9302 92.0398 31.2891 94.8592 33.6256 97.701C34.5916 96.9372 35.5351 96.1509 36.4899 95.3534C40.6124 92.0735 40.0058 89.3103 39.242 87.9063C38.8376 87.1986 38.5568 86.7381 38.3321 86.4348Z" fill="#FFF8B6"/>
<path d="M28.4676 77.2019C32.8485 73.776 36.9934 72.0462 40.6329 71.9901C43.1266 71.9564 45.1822 72.6303 46.8559 73.9557C46.8447 73.9108 46.8334 73.8883 46.7997 73.8547C46.7211 73.6749 46.5077 73.3043 46.0696 72.6977C44.1038 69.8896 41.4079 68.508 37.8022 68.5641C34.1515 68.6091 29.9953 70.3389 25.6257 73.776C18.3019 79.4934 11.2027 85.5477 4.32812 91.939C5.33909 93.0173 6.36128 94.0956 7.37224 95.1964C14.1794 88.895 21.2224 82.8856 28.4676 77.2132V77.2019Z" fill="#FFF8B6"/>
<path d="M50.1835 85.2778C49.9252 85.8282 49.6331 86.4123 49.2849 86.9627C48.1504 88.67 47.0383 90.3774 45.9375 92.0959C47.892 91.0738 49.8466 90.0741 51.7898 89.0969C54.0814 88.2769 56.2718 88.187 58.451 88.8048C59.6079 89.1418 60.6526 89.6697 61.5737 90.3886C61.4614 90.1415 61.2704 89.7933 60.9222 89.2766C59.5518 87.2772 57.8107 85.9967 55.609 85.3564C53.823 84.8397 52.037 84.8285 50.1835 85.2778Z" fill="#FFF8B6"/>
<path d="M55.6316 80.1005C51.5428 74.1585 50.5094 67.5314 52.9919 60.1853C55.4631 52.8505 61.0121 46.5715 69.5155 41.91C73.5368 39.6972 77.8053 38.2145 82.2086 37.462C88.3755 36.3949 93.9583 37.1811 98.8333 39.6523C103.708 42.1234 107.123 45.8751 109.168 50.7051C110.516 53.8389 111.1 57.1525 111.021 60.6683C110.931 64.1616 110.19 67.5089 108.819 70.6765C107.46 73.844 105.528 76.6971 103.046 79.2356C100.035 82.3021 96.8564 84.7508 93.4416 86.6378C86.7467 90.3446 79.9958 91.6363 72.7393 90.5131C65.4941 89.401 59.7204 86.0874 55.6203 80.1117L55.6316 80.1005ZM82.1862 73.4846C83.6128 73.2936 84.9719 72.8443 86.23 72.1479C88.061 71.137 89.4763 69.7891 90.5098 68.048C91.5544 66.3295 92.0037 64.4986 91.8914 62.6003C91.8015 61.4209 91.4983 60.3313 90.9366 59.2305C90.0717 57.5007 88.8136 56.2202 87.1624 55.4003C85.5224 54.5915 83.6352 54.3219 81.5347 54.614C79.9396 54.8499 78.4905 55.3329 77.1988 56.0517C75.3004 57.0851 73.8289 58.5341 72.7842 60.3538C71.7508 62.1622 71.3352 64.0268 71.5486 65.9363C71.6272 67.0933 71.9979 68.1941 72.6382 69.2836C73.6042 70.9011 74.9522 72.0693 76.6596 72.8106C78.3782 73.5295 80.2204 73.7654 82.1637 73.4733L82.1862 73.4846Z" fill="black"/>
<path d="M92.7972 85.4471C86.4281 88.9741 79.913 90.1984 73.0497 89.1426C66.1302 88.053 60.7721 84.9641 56.908 79.2355C53.0214 73.5406 52.1003 67.374 54.4592 60.3761C56.7957 53.4794 62.1426 47.4925 70.1629 43.0781C73.982 40.9664 78.0708 39.5511 82.2719 38.8322C88.0456 37.81 93.3588 38.5514 97.9418 40.8541C102.536 43.1792 105.805 46.7399 107.771 51.2778C109.051 54.232 109.635 57.4108 109.568 60.7131C109.489 64.0267 108.793 67.2167 107.524 70.2046C106.232 73.1924 104.401 75.9107 102.064 78.292C99.1662 81.2349 96.0659 83.6386 92.7972 85.4358V85.4471ZM70.0618 66.2283C70.1741 67.5537 70.6009 68.8454 71.3311 70.0698C72.4319 71.9119 74.0157 73.2486 75.9703 74.0798C77.9248 74.9222 80.059 75.1806 82.2832 74.8324C83.9119 74.6302 85.4396 74.1135 86.8774 73.3272C88.9555 72.204 90.5843 70.6089 91.7637 68.6433C92.9544 66.6776 93.4824 64.5771 93.3588 62.3868C93.2689 61.0501 92.9207 59.7584 92.3029 58.534C91.3369 56.602 89.8766 55.1081 88.0119 54.1758C86.1024 53.2098 83.9119 52.8953 81.4969 53.2435C79.6884 53.5018 78.0147 54.0522 76.5431 54.8722C74.3752 56.0629 72.6453 57.7365 71.4546 59.837C70.264 61.8925 69.8034 64.0716 70.0505 66.217L70.0618 66.2283Z" fill="#AD0400"/>
<path d="M78.1501 77.6751C80.1271 78.5288 82.2501 78.7759 84.4742 78.4502C86.0918 78.2255 87.6307 77.7088 89.0685 76.945C91.1578 75.7993 92.7866 74.2267 93.966 72.2611C95.1455 70.2729 95.6847 68.1724 95.5611 66.0046C95.46 64.6679 95.1118 63.3649 94.5052 62.1293C94.0447 61.2195 93.4606 60.3771 92.7866 59.6807C93.1011 60.568 93.2921 61.4666 93.3595 62.3989C93.483 64.5893 92.9438 66.6897 91.7644 68.6554C90.5849 70.6211 88.9562 72.2049 86.8781 73.3394C85.4403 74.1257 83.9014 74.6423 82.2838 74.8445C80.0597 75.1927 77.9255 74.9232 75.9709 74.092C74.7016 73.564 73.5896 72.8002 72.6797 71.8342C72.8819 72.452 73.1739 73.081 73.5334 73.6651C74.6342 75.5185 76.2068 76.8664 78.1613 77.6864L78.1501 77.6751Z" fill="#FFF8B6"/>
<path d="M56.6531 63.971C58.9895 57.0743 64.3252 51.0986 72.3567 46.673C76.1646 44.5837 80.2647 43.146 84.4545 42.4271C90.2395 41.4274 95.5414 42.1463 100.124 44.4714C103.079 45.9653 105.483 47.9647 107.336 50.4022C105.348 46.2798 102.225 43.0449 97.934 40.8658C93.351 38.5631 88.0378 37.8218 82.2641 38.8439C78.0742 39.5628 73.9742 40.9781 70.155 43.0898C62.1347 47.5042 56.7879 53.4911 54.4514 60.3879C52.0925 67.3745 53.0136 73.5411 56.9002 79.2472C57.0575 79.4943 57.2484 79.7414 57.4282 79.9886C55.0018 75.08 54.6649 69.8231 56.6419 63.9822L56.6531 63.971Z" fill="#FFF8B6"/>
<path d="M110.372 50.1769C107.563 43.5384 107.844 36.8326 111.697 30.1268C115.55 23.466 122.211 18.4338 131.422 15.5583C135.792 14.1767 140.251 13.5701 144.722 13.7274C150.967 13.8959 156.28 15.7605 160.56 19.1527C164.851 22.5786 167.446 26.9031 168.513 32.0476C169.198 35.3724 169.12 38.7534 168.322 42.1793C167.558 45.6165 166.154 48.7279 164.188 51.5697C162.223 54.4115 159.774 56.8153 156.842 58.7922C153.281 61.1959 149.687 62.9707 145.991 64.1389C138.723 66.419 131.871 66.3292 125.019 63.7794C118.178 61.2409 113.202 56.8265 110.372 50.1656V50.1769ZM137.578 49.0199C139.016 49.121 140.408 48.93 141.779 48.5032C143.767 47.9079 145.418 46.852 146.766 45.3581C148.125 43.8642 148.945 42.1905 149.204 40.2923C149.339 39.1241 149.271 37.9559 148.934 36.7765C148.429 34.9231 147.451 33.418 146.002 32.2835C144.565 31.1378 142.767 30.5088 140.667 30.3964C139.06 30.329 137.544 30.4975 136.14 30.9356C134.084 31.5758 132.366 32.6878 130.984 34.2604C129.602 35.8217 128.85 37.5852 128.681 39.4835C128.546 40.6292 128.681 41.7974 129.086 42.9768C129.703 44.7516 130.793 46.1781 132.321 47.2227C133.86 48.2898 135.601 48.8963 137.566 48.9974L137.578 49.0199Z" fill="black"/>
<path d="M145.585 62.8588C138.666 65.0379 132.072 64.948 125.602 62.5218C119.064 60.0844 114.47 55.962 111.796 49.582C109.145 43.2468 109.426 37.0128 113.099 30.6552C116.739 24.3763 123.108 19.58 131.813 16.8505C135.97 15.5587 140.249 14.9747 144.484 15.0982C150.337 15.2555 155.391 17.019 159.435 20.209C163.479 23.4103 165.984 27.555 167.006 32.3738C167.669 35.5189 167.613 38.7651 166.883 41.9888C166.164 45.2125 164.849 48.2116 162.985 50.8849C161.143 53.5583 158.806 55.8385 156.043 57.7255C152.617 60.017 149.135 61.7692 145.574 62.87L145.585 62.8588ZM127.174 39.4952C127.006 40.8094 127.174 42.1461 127.646 43.5164C128.365 45.5383 129.634 47.1558 131.387 48.3689C133.139 49.582 135.161 50.2447 137.407 50.3683C139.014 50.4806 140.642 50.2784 142.181 49.8066C144.439 49.1102 146.349 47.9196 147.899 46.2122C149.449 44.5049 150.404 42.5617 150.696 40.3938C150.876 39.0684 150.797 37.7317 150.426 36.4063C149.865 34.2945 148.741 32.5647 147.09 31.2505C145.416 29.9476 143.338 29.1838 140.901 29.049C139.081 28.9479 137.34 29.1613 135.745 29.678C133.386 30.4081 131.375 31.6886 129.803 33.497C128.23 35.3055 127.354 37.3161 127.174 39.4952Z" fill="#FFEC00"/>
<path d="M145.585 62.8588C138.666 65.0379 132.072 64.948 125.602 62.5218C119.064 60.0844 114.47 55.962 111.796 49.582C109.145 43.2468 109.426 37.0128 113.099 30.6552C116.739 24.3763 123.108 19.58 131.813 16.8505C135.97 15.5587 140.249 14.9747 144.484 15.0982C150.337 15.2555 155.391 17.019 159.435 20.209C163.479 23.4103 165.984 27.555 167.006 32.3738C167.669 35.5189 167.613 38.7651 166.883 41.9888C166.164 45.2125 164.849 48.2116 162.985 50.8849C161.143 53.5583 158.806 55.8385 156.043 57.7255C152.617 60.017 149.135 61.7692 145.574 62.87L145.585 62.8588ZM127.174 39.4952C127.006 40.8094 127.174 42.1461 127.646 43.5164C128.365 45.5383 129.634 47.1558 131.387 48.3689C133.139 49.582 135.161 50.2447 137.407 50.3683C139.014 50.4806 140.642 50.2784 142.181 49.8066C144.439 49.1102 146.349 47.9196 147.899 46.2122C149.449 44.5049 150.404 42.5617 150.696 40.3938C150.876 39.0684 150.797 37.7317 150.426 36.4063C149.865 34.2945 148.741 32.5647 147.09 31.2505C145.416 29.9476 143.338 29.1838 140.901 29.049C139.081 28.9479 137.34 29.1613 135.745 29.678C133.386 30.4081 131.375 31.6886 129.803 33.497C128.23 35.3055 127.354 37.3161 127.174 39.4952Z" fill="#AD0400"/>
<path d="M132.411 51.3561C134.163 52.5692 136.185 53.2544 138.431 53.3554C140.049 53.4678 141.655 53.2768 143.205 52.7938C145.463 52.0974 147.373 50.9068 148.923 49.1994C150.473 47.4921 151.417 45.5489 151.709 43.381C151.9 42.0556 151.81 40.7189 151.45 39.3934C151.248 38.6072 150.956 37.922 150.608 37.248C150.799 38.2814 150.833 39.3598 150.698 40.4044C150.394 42.5722 149.44 44.5267 147.901 46.2228C146.362 47.9302 144.441 49.1208 142.183 49.8172C140.633 50.289 139.016 50.5024 137.409 50.3788C135.163 50.2553 133.152 49.5926 131.388 48.3794C130.063 47.4584 129.018 46.3127 128.266 44.9198C128.367 45.459 128.49 45.9645 128.67 46.5036C129.378 48.5255 130.647 50.143 132.411 51.3561Z" fill="#FFF8B6"/>
<path d="M114.122 33.6312C117.75 27.3522 124.119 22.5559 132.847 19.8264C136.981 18.5347 141.272 17.9506 145.518 18.1079C151.37 18.2427 156.436 20.0062 160.458 23.1962C163.333 25.4539 165.4 28.1947 166.737 31.3173C165.58 26.9366 163.176 23.1625 159.436 20.2196C155.392 17.0408 150.337 15.2661 144.485 15.1088C140.25 14.974 135.959 15.5581 131.814 16.8611C123.108 19.5906 116.739 24.3868 113.1 30.6658C109.415 37.0234 109.135 43.235 111.797 49.5926C110.348 44.2796 111.033 39.0003 114.133 33.6424L114.122 33.6312Z" fill="#FFF8B6"/>
<path d="M170.755 56.4001C169.969 40.0231 169.654 23.6012 169.8 7.12311C176.967 5.77521 184.212 4.6632 191.469 3.77583C194.715 10.2682 197.815 16.8055 200.769 23.3765C200.904 23.7921 201.14 24.4998 201.443 25.4545C201.747 26.4093 201.994 27.3416 202.174 28.2402C202.241 28.7906 202.275 29.341 202.342 29.8914C202.376 28.6333 202.409 27.3528 202.443 26.0948C202.511 24.6458 202.623 23.6573 202.791 23.1631C204.409 16.154 206.184 9.16743 208.105 2.18081C215.417 1.66412 222.741 1.38331 230.099 1.34961C233.367 17.5019 236.187 33.7104 238.546 49.9414C232.345 49.7617 226.145 49.8403 219.978 50.0874C219.18 43.8646 218.338 37.653 217.473 31.4527C217.428 30.644 217.394 29.8801 217.372 29.1276C217.338 28.4087 217.304 27.6673 217.271 26.9597C217.259 26.5104 217.237 26.1734 217.237 25.9488C217.169 24.6458 217.102 23.3541 217.057 22.0511C217.001 22.5004 216.945 22.9497 216.889 23.4102C216.731 24.3201 216.574 25.2187 216.417 26.1285C216.147 27.746 215.889 29.3859 215.631 31.0259C215.642 31.1607 215.653 31.2954 215.653 31.4302C213.957 37.7991 212.395 44.2128 210.958 50.6041C206.554 50.9299 202.162 51.3567 197.781 51.8734C195.175 45.864 192.457 39.8546 189.615 33.9126C189.57 33.8115 189.537 33.7329 189.492 33.6543C188.919 32.048 188.323 30.4642 187.75 28.8805C187.503 28.229 187.256 27.5887 186.998 26.9372C186.751 26.297 186.504 25.6455 186.245 25.0165C186.38 25.5444 186.515 26.0948 186.65 26.6564C186.796 27.6786 186.942 28.667 187.077 29.5544C187.2 30.4755 187.346 31.3179 187.515 32.1042C187.582 32.6096 187.649 33.0814 187.717 33.5644C187.672 33.9351 187.661 34.1934 187.683 34.3282C188.031 40.5847 188.424 46.8525 188.84 53.0977C182.774 54.0188 176.742 55.1196 170.766 56.4225L170.755 56.4001Z" fill="black"/>
<path d="M221.236 48.6948C220.517 42.8989 219.775 37.1141 218.967 31.3294C218.843 28.2067 218.719 25.0841 218.573 21.9727C217.54 21.939 216.495 21.9166 215.462 21.939C215.406 22.3659 215.35 22.8039 215.305 23.2532C215.159 24.1518 215.001 25.0617 214.867 25.9378C214.586 27.6227 214.339 29.2851 214.08 30.9699C214.08 31.0823 214.091 31.1946 214.091 31.3069C212.553 37.3163 211.092 43.3145 209.756 49.3351C206.049 49.6271 202.342 49.9753 198.669 50.4134C196.209 44.6961 193.648 39.0124 190.974 33.34C190.952 33.2726 190.929 33.2164 190.896 33.1603C190.323 31.5765 189.761 29.9815 189.188 28.4202C188.683 27.106 188.2 25.8142 187.705 24.5225C186.694 24.7808 185.706 25.0616 184.717 25.3312C184.841 25.8592 184.965 26.3983 185.099 26.9262C185.245 27.8585 185.391 28.8245 185.526 29.7568C185.672 30.6891 185.829 31.554 185.998 32.3515C186.054 32.7896 186.122 33.2052 186.178 33.6208C186.133 33.9915 186.133 34.2723 186.155 34.4857C186.515 40.3041 186.897 46.1226 187.312 51.9522C182.201 52.7498 177.124 53.6596 172.069 54.7379C171.451 39.2708 171.227 23.7474 171.418 8.19044C177.708 7.02226 184.032 6.07873 190.39 5.26999C193.49 11.4142 196.445 17.6033 199.275 23.8261C199.433 24.2641 199.657 24.9493 199.938 25.8367C200.219 26.7353 200.466 27.6227 200.646 28.4314C200.679 28.9706 200.747 29.5209 200.803 30.0489C201.814 29.9927 202.836 29.959 203.847 29.9029C203.881 28.6448 203.926 27.3868 203.971 26.1063C204.06 24.3765 204.195 23.725 204.274 23.4779C204.274 23.4779 204.281 23.4666 204.296 23.4442C205.858 16.7721 207.565 10.0887 209.419 3.45032C215.81 3.02349 222.235 2.77638 228.672 2.73145C231.817 17.9627 234.535 33.2501 236.861 48.56C231.637 48.4702 226.436 48.5263 221.224 48.7061L221.236 48.6948Z" fill="#AD0400"/>
<path d="M185.148 28.1836C185.283 28.7115 185.418 29.2395 185.553 29.7786C185.699 30.7109 185.834 31.6769 185.991 32.6317C186.058 33.0697 186.114 33.4853 186.193 33.8897C186.193 33.7999 186.193 33.71 186.204 33.6089C186.148 33.1933 186.07 32.7777 186.025 32.3396C185.845 31.5533 185.699 30.6884 185.553 29.7449C185.474 29.217 185.396 28.6778 185.306 28.1387L185.16 28.1836H185.148Z" fill="#FFF8B6"/>
<path d="M209.442 3.44984C207.589 10.0995 205.881 16.7716 204.32 23.4437C204.32 23.4437 204.312 23.4549 204.297 23.4774C204.219 23.7245 204.084 24.376 203.994 26.1058C203.96 27.3863 203.904 28.6443 203.87 29.9024C202.848 29.9585 201.826 29.9922 200.826 30.0484C200.77 29.5205 200.703 28.9701 200.669 28.4309C200.489 27.6222 200.242 26.7348 199.961 25.8362C199.681 24.9376 199.456 24.2524 199.299 23.8256C196.468 17.6028 193.514 11.4137 190.413 5.2695C184.056 6.06701 177.732 7.02177 171.441 8.18995C171.25 23.747 171.475 39.2703 172.093 54.7374C172.205 54.7374 172.306 54.7037 172.418 54.67C171.879 40.1576 171.711 25.634 171.879 11.043C178.17 9.89729 184.494 8.9313 190.852 8.12256C193.941 14.2667 196.906 20.4558 199.737 26.7011C199.872 27.1167 200.107 27.8019 200.388 28.7005C200.692 29.6103 200.916 30.4752 201.096 31.3177C201.152 31.8456 201.208 32.3735 201.264 32.9014C202.275 32.8453 203.286 32.8116 204.309 32.7779C204.342 31.4974 204.387 30.2393 204.432 28.9813C204.522 27.229 204.657 26.5775 204.735 26.3529C204.735 26.3304 204.747 26.3304 204.758 26.2967C206.33 19.6134 208.027 12.9413 209.891 6.3029C216.294 5.87606 222.708 5.62894 229.156 5.57278C232.099 19.8605 234.671 34.1932 236.918 48.5483C234.592 33.2384 231.874 17.9622 228.729 2.71973C222.292 2.76466 215.878 3.023 209.476 3.43861L209.442 3.44984Z" fill="#FFF8B6"/>
<path d="M219.022 24.8252C218.921 24.8252 218.82 24.8252 218.719 24.8252C218.82 27.0043 218.898 29.1609 218.977 31.3288C219.775 37.1248 220.516 42.9095 221.246 48.6943C221.269 48.6943 221.291 48.683 221.314 48.6943C220.696 43.853 220.078 39.0343 219.415 34.1819C219.303 31.0817 219.157 27.9478 219.022 24.8252Z" fill="#FFF8B6"/>
<path d="M241.781 1.51758C249.06 1.731 256.362 2.19153 263.663 2.89917C261.776 12.8175 259.99 22.7358 258.271 32.6878C253.486 32.2722 248.701 31.9801 243.927 31.7892C243.309 21.7024 242.601 11.5931 241.781 1.51758ZM241.062 42.46C241.13 40.2135 242.085 38.2928 243.994 36.7427C245.881 35.1926 248.162 34.4625 250.779 34.6422C253.407 34.7882 255.587 35.7992 257.283 37.5964C258.957 39.3711 259.675 41.4491 259.462 43.7518C259.237 46.0881 258.17 47.9752 256.272 49.4354C254.374 50.8956 252.217 51.5471 249.746 51.3674C247.207 51.2101 245.151 50.2666 243.489 48.5368C241.826 46.7733 241.006 44.7627 241.085 42.4713L241.062 42.46Z" fill="black"/>
<path d="M249.816 50.0202C247.671 49.8967 245.952 49.0992 244.548 47.6277C243.133 46.1113 242.459 44.4489 242.537 42.5169C242.594 40.6186 243.402 39.0573 244.997 37.7431C246.604 36.4064 248.48 35.8223 250.692 35.9684C252.894 36.1032 254.691 36.9231 256.118 38.4283C257.556 39.9559 258.151 41.652 257.971 43.6065C257.803 45.5834 256.916 47.1222 255.309 48.3915C253.703 49.6159 251.906 50.155 249.794 50.0202H249.816ZM245.391 30.4981C244.874 21.3212 244.256 12.1105 243.571 2.93359C249.625 3.14701 255.669 3.52891 261.757 4.0793C260.083 13.1215 258.499 22.1636 256.972 31.2395C253.108 30.9137 249.255 30.6666 245.391 30.4981Z" fill="#AD0400"/>
<path d="M261.355 6.22423C261.49 5.50535 261.603 4.76401 261.749 4.06759C255.672 3.5172 249.617 3.14652 243.562 2.92188C243.619 3.62952 243.675 4.37087 243.72 5.10098C249.595 5.32563 255.481 5.67384 261.344 6.213L261.355 6.22423Z" fill="#FFF8B6"/>
<path d="M250.716 35.9789C248.492 35.8329 246.616 36.417 245.021 37.7536C243.425 39.0566 242.617 40.6292 242.561 42.5275C242.527 42.8981 242.561 43.2913 242.606 43.6732C242.886 42.2354 243.65 40.9998 244.953 39.9103C246.559 38.5961 248.435 38.0345 250.648 38.158C252.861 38.2928 254.658 39.1015 256.074 40.6179C257.13 41.7299 257.725 42.9655 257.893 44.3022C257.95 44.0775 257.972 43.8529 257.995 43.617C258.174 41.6626 257.579 39.9664 256.141 38.4388C254.715 36.9337 252.917 36.1137 250.716 35.9789Z" fill="#FFF8B6"/>
</svg>
