<svg width="177" height="191" viewBox="0 0 177 191" fill="none" xmlns="http://www.w3.org/2000/svg">
<path d="M2.51928 30.7601L7.04059 19.846L104.683 77.2888L105.983 109.866L68.0303 114.054L2.51928 30.7601Z" fill="#FFFFFB"/>
<path d="M44.17 80.4682C67.2439 109.592 84.9183 133.868 84.9183 133.868C84.9183 133.868 65.082 111.265 41.8129 82.1669C18.739 53.0429 1.03906 28.5723 1.03906 28.5723C1.03906 28.5723 20.8754 51.1747 44.1444 80.2731L44.17 80.4682Z" fill="#181415"/>
<path d="M65.1028 55.4915C32.6459 36.5305 7.25781 20.0156 7.25781 20.0156C7.25781 20.0156 34.3152 34.1281 66.577 53.1148C99.034 72.0758 124.617 88.565 124.617 88.565C124.617 88.565 97.5598 74.4525 65.1028 55.4915Z" fill="#181415"/>
<path d="M103.218 93.3589L34.1797 43.6729L106.192 88.8006L103.218 93.3589Z" fill="#181415"/>
<path d="M61.8781 126.175C61.5316 117.487 68.1003 110.075 76.7873 109.729C77.1775 109.678 77.5677 109.627 77.7628 109.601C81.1782 105.382 86.1898 102.739 91.7295 102.607C93.0953 102.428 94.3171 102.665 95.734 102.876C97.2595 100.889 99.0312 99.2673 101.244 97.9844C101.142 97.2039 101.014 96.2284 100.911 95.4479C100.707 93.887 101.061 92.0542 101.442 90.4164C101.195 90.0518 100.923 89.4921 100.677 89.1275C99.6406 87.2788 99.1638 85.1582 98.8821 83.012C98.5552 77.4976 101.283 72.5746 106.125 70.1528C109.458 68.326 113.19 68.0346 116.712 69.1601C119.207 70.0234 121.363 71.3282 123.01 73.2952C128.972 70.3294 136.862 71.4769 142.898 76.6388C146.455 79.5459 148.97 83.5823 149.898 87.6284C152.495 89.2722 154.779 91.5526 156.36 94.5207C157.668 96.9291 158.417 99.6095 158.58 102.367C158.683 103.147 158.785 103.928 158.497 104.759C164.76 107.113 169.287 112.87 169.598 119.775C169.934 126.876 165.825 133.37 159.448 136.192C159.602 137.362 159.755 138.533 159.909 139.704C160.005 143.462 159.296 147.128 157.754 150.506C153.105 160.444 142.471 165.611 132.815 163.108C131.088 168.098 126.23 171.911 120.521 172.263C118.42 175.913 114.384 178.428 109.845 178.627C105.502 178.8 101.267 176.776 98.829 173.325C98.4388 173.376 98.0486 173.427 97.4633 173.504C89.5824 173.943 82.8586 168.077 82.2243 160.222C74.8775 160.194 68.5439 154.277 68.1559 146.786C68.0181 144.224 68.6606 141.559 69.7702 139.429C65.0682 136.87 61.866 132.13 61.7086 126.395L61.8781 126.175Z" fill="#181415"/>
<path d="M109.772 175.063C113.725 174.941 117.125 172.113 118.25 168.591C118.836 168.515 119.667 168.802 120.253 168.726C125.767 168.399 130.107 163.661 129.78 158.147C130 158.316 130.416 158.46 130.637 158.63C139.302 162.653 149.843 158.292 154.179 148.99C156.491 143.923 156.555 138.357 154.574 133.854C161.182 132.788 165.979 126.998 165.668 120.092C165.408 113.577 160.348 108.287 153.899 107.545C155.025 104.024 154.682 99.9007 152.804 96.1778C151.249 93.4047 148.965 91.1244 146.224 89.8964C145.738 86.1893 143.639 82.2968 140.277 79.364C134.267 74.3972 126.258 73.8607 121.671 78.2337C121.646 78.0386 121.62 77.8435 121.595 77.6484C118.731 72.4669 112.52 70.5037 107.508 73.1463C102.496 75.7889 100.754 82.1703 103.617 87.3517C104.136 88.276 104.628 89.0053 105.316 89.7089C103.944 92.866 103.846 96.65 105.477 100.008C101.847 101.08 98.7864 103.467 97.2452 106.845C95.5819 106.269 93.7748 106.109 91.7982 106.17C86.4792 106.472 82.0784 109.232 79.4434 113.349C78.6374 113.257 77.6363 113.19 76.8303 113.097C70.12 113.382 65.1023 119.003 65.3878 125.713C65.5708 131.644 70.3594 136.374 76.0016 137.023C73.2799 138.968 71.5436 142.371 71.64 146.13C72.0181 152.034 76.9763 156.544 82.6854 156.191C83.8561 156.037 85.0267 155.884 85.951 155.366C85.5193 156.613 85.4779 157.809 85.4364 159.006C85.8146 164.91 90.7983 169.615 96.9233 169.406C98.0939 169.253 99.0694 169.125 100.214 168.776C101.677 172.355 105.352 174.651 109.305 174.529L109.772 175.063ZM110.138 155.168C110.138 155.168 110.019 155.779 109.85 155.999C109.655 156.025 109.46 156.051 109.265 156.076C109.629 155.83 109.799 155.609 110.138 155.168Z" fill="white"/>
<path d="M106.523 174.497C105.953 173.182 105.579 171.842 105.374 170.281C105.221 169.11 105.457 167.889 105.889 166.641C104.744 166.99 103.794 167.313 102.598 167.272C96.6933 167.65 91.7351 163.14 91.5521 157.21C91.4557 153.452 93.0226 150.269 95.9137 148.103C90.0764 147.48 85.4829 142.724 85.2999 136.794C85.0144 130.083 90.0321 124.463 96.7424 124.177C97.7179 124.049 98.5239 124.142 99.3556 124.43C101.991 120.313 106.391 117.552 111.71 117.251C113.661 116.995 115.494 117.35 117.157 117.925C118.699 114.547 121.734 111.966 125.389 111.089C123.758 107.73 123.856 103.947 125.203 100.594C124.515 99.8906 124.022 99.1614 123.504 98.2371C120.641 93.0556 122.604 86.8437 127.395 84.0316C132.406 81.389 138.618 83.3523 141.481 88.5337C141.507 88.7289 141.532 88.924 141.558 89.1191C142.796 87.9643 144.28 87.174 145.789 86.5789C144.845 83.9242 143.121 81.3719 140.668 79.3123C134.657 74.3455 126.648 73.809 122.062 78.182C122.037 77.9869 122.011 77.7917 121.985 77.5966C119.122 72.4152 112.91 70.4519 107.899 73.0945C102.887 75.7371 101.145 82.1185 104.008 87.2999C104.526 88.2243 105.019 88.9535 105.707 89.6571C104.335 92.8143 104.236 96.5982 105.868 99.9566C102.238 101.029 99.1771 103.415 97.6359 106.793C95.9726 106.217 94.1655 106.058 92.1888 106.119C86.8698 106.42 82.4691 109.181 79.8341 113.298C79.0281 113.205 78.027 113.138 77.2209 113.045C70.5106 113.331 65.4929 118.951 65.7784 125.662C65.9614 131.592 70.7501 136.322 76.3922 136.971C73.6706 138.916 71.9342 142.319 72.0306 146.078C72.4088 151.982 77.3669 156.492 83.0761 156.139C84.2467 155.986 85.4173 155.832 86.3416 155.314C85.9099 156.561 85.8685 157.758 85.8271 158.954C86.2052 164.858 91.189 169.563 97.314 169.354C98.4846 169.201 99.4601 169.073 100.605 168.724C101.744 171.353 103.782 173.269 106.472 174.107L106.523 174.497Z" fill="#C0C0C0"/>
<path d="M124.845 168.917C122.046 170.276 118.678 170.321 116.158 169.263C113.637 168.204 111.82 166.458 111.005 164.779C109.994 163.125 109.789 161.565 109.661 160.589C109.533 159.613 109.651 159.003 109.651 159.003C109.651 159.003 109.958 161.344 112.098 164.04C113.253 165.278 114.798 166.464 116.852 166.989C118.905 167.513 121.272 167.401 123.316 166.339C125.554 165.251 127.105 163.46 127.85 161.575C128.791 159.666 128.899 157.468 128.499 155.933C128.038 152.421 126.052 150.896 126.052 150.896C126.052 150.896 126.493 151.235 127.376 151.913C128.064 152.616 129.218 153.854 129.839 155.559C130.46 157.263 130.793 159.8 129.955 162.49C129.092 164.985 127.253 167.608 124.259 168.993L124.845 168.917Z" fill="#181415"/>
<path d="M153.329 94.1238C155.495 97.0151 156.176 100.697 155.975 103.7C155.8 106.899 154.546 109.445 153.19 111.211C151.834 112.976 150.402 114.157 149.282 114.701C148.163 115.245 147.603 115.517 147.603 115.517C147.603 115.517 150.206 114.183 152.087 110.363C153.027 108.454 153.721 106.179 153.557 103.422C153.419 100.86 152.84 97.9589 150.921 95.4322C149.196 92.8799 146.794 91.2105 144.469 90.1265C141.948 89.068 139.556 88.9851 137.605 89.2412C133.508 89.779 131.397 91.8423 131.371 91.6472C131.371 91.6472 131.71 91.2058 132.778 90.2717C133.677 89.5583 135.305 88.3522 137.4 87.6803C139.495 87.0084 142.447 86.8193 145.527 87.6058C148.412 88.418 151.646 90.3752 153.642 93.4872L153.329 94.1238Z" fill="#181415"/>
<path d="M104.436 73.946C107.081 71.4156 110.737 70.5388 113.571 70.9607C116.599 71.357 119.002 73.0264 120.233 74.8495C121.634 76.4518 122.255 78.1566 122.409 79.3273C122.563 80.4979 122.639 81.0833 122.639 81.0833C122.639 81.0833 122.563 80.4979 122.019 79.3785C121.5 78.4542 120.71 76.9701 119.165 75.7836C117.815 74.5715 115.685 73.4617 113.097 73.4044C110.705 73.3215 108.025 74.0703 106.084 75.9129C104.142 77.7555 103.305 80.4457 103.222 82.8382C103.139 85.2308 104.032 87.4953 105.212 88.9282C106.418 90.5561 107.717 91.378 108.599 92.056C109.652 92.5133 110.288 92.8267 110.288 92.8267C110.288 92.8267 109.703 92.9035 108.456 92.4718C107.429 92.2097 105.74 91.439 104.144 89.8622C102.548 88.2855 101.044 85.9027 100.855 82.9504C100.471 80.0238 101.571 76.3068 104.02 73.8021L104.436 73.946Z" fill="#181415"/>
<path d="M130.661 142.153C129.068 145.141 126.347 147.086 123.667 147.835C120.986 148.584 118.322 147.941 116.412 147.001C114.698 146.035 113.713 144.577 112.999 143.678C112.481 142.754 112.404 142.168 112.209 142.194C112.209 142.194 112.481 142.754 113.169 143.457C113.856 144.161 114.986 145.203 116.649 145.779C118.312 146.355 120.51 146.463 122.579 145.596C124.674 144.924 126.641 143.277 127.725 140.951C129.004 138.6 129.282 136.182 128.584 133.892C127.887 131.602 126.876 129.948 125.356 128.957C124.032 127.94 122.564 127.338 121.368 127.297C120.341 127.035 119.756 127.112 119.756 127.112C119.756 127.112 120.341 127.035 121.511 126.881C122.487 126.753 124.294 126.913 126.009 127.879C127.918 128.819 129.761 130.76 130.705 133.415C131.648 136.07 131.499 139.463 129.88 142.256L130.661 142.153Z" fill="#181415"/>
<path d="M130.694 131.829C130.694 131.829 131.212 132.753 131.263 133.143C132.629 132.964 133.918 132.2 135.13 130.85C136.537 129.474 137.426 127.174 137.314 124.807C137.006 122.466 135.749 120.448 134.179 119.066C132.634 117.88 130.801 117.525 129.409 117.509C128.044 117.688 126.873 117.842 126.144 118.334C125.415 118.827 125.245 119.048 125.245 119.048C125.245 119.048 126.924 118.232 129.394 118.9C130.615 119.137 131.889 119.764 132.823 120.832C133.757 121.9 134.547 123.384 134.752 124.945C134.957 126.506 134.381 128.169 133.534 129.273C132.881 130.351 131.788 131.09 130.668 131.634L130.694 131.829Z" fill="#181415"/>
<path d="M80.9029 112.364L36.1953 62.0645L84.7854 108.679L80.9029 112.364Z" fill="#181415"/>
<path d="M97.5411 107.599L59.9453 70.6562L101.177 103.549L97.5411 107.599Z" fill="#181415"/>
<path d="M163.801 130.062C166.055 127.583 167.715 123.594 167.398 119.666C167.055 115.543 165.008 112.041 162.164 110.033C159.957 108.337 157.657 107.449 155.434 107.145C155.316 107.756 154.977 108.197 154.859 108.808C156.717 109.358 158.822 110.273 160.443 112.045C162.481 113.96 164.061 116.929 164.302 120.271C164.737 123.588 163.561 126.719 161.866 128.927C160.196 131.329 157.788 132.638 155.719 133.505C155.719 133.505 156.042 134.455 156.288 134.819C158.825 134.486 161.623 133.127 163.852 130.452L163.801 130.062Z" fill="#181415"/>
<path d="M121.963 77.4017C121.963 77.4017 122.312 78.5467 122.584 79.1064C124.017 77.926 126.086 77.059 128.622 76.726C131.354 76.3675 134.434 77.154 137.031 78.7978C139.824 80.416 142.082 82.5013 143.586 84.8841C144.325 85.9779 144.869 87.0974 145.217 88.2424C145.828 88.3607 146.465 88.6741 147.101 88.9875C146.871 87.2315 146.42 85.306 145.409 83.6524C143.854 80.8794 141.519 78.2088 138.285 76.2516C135.077 74.4895 131.411 73.7798 128.094 74.2152C125.558 74.5481 123.345 75.831 121.743 77.2321L121.963 77.4017Z" fill="#181415"/>
<path d="M106.744 99.0484C106.744 99.0484 106.098 97.1485 105.97 96.173C105.739 94.4169 105.924 92.8048 106.33 91.3622C105.694 91.0488 105.227 90.5147 104.76 89.9806C104.76 89.9806 104.734 89.7855 104.514 89.616C104.514 89.616 104.37 90.0318 104.2 90.2525C103.43 91.9415 103.126 94.1645 103.433 96.5059C103.587 97.6766 103.715 98.6521 104.233 99.5765C105.209 99.4484 106.184 99.3204 106.965 99.2179L106.744 99.0484Z" fill="#181415"/>
<path d="M98.1808 103.348C99.5367 101.582 101.58 100.52 103.285 99.8993C105.185 99.253 106.771 99.2432 108.163 99.2591C110.971 99.4859 112.49 100.477 112.49 100.477C112.49 100.477 110.878 100.292 108.342 100.625C105.806 100.958 102.838 102.538 100.414 105.238C97.9895 107.938 97.0335 111.239 96.9507 113.632C96.8934 116.219 97.4885 117.729 97.2934 117.755C97.2934 117.755 96.1386 116.517 95.5593 113.616C95.38 112.25 95.1496 110.494 95.5044 108.661C95.8592 106.828 96.7737 104.724 98.3503 103.127L98.1808 103.348Z" fill="#181415"/>
<path d="M78.0022 120.486C78.3314 118.458 79.2459 116.353 80.5506 114.197C82.076 112.21 84.1867 110.147 86.6206 109.034C89.2496 107.895 91.9554 107.341 94.5686 107.594C94.9588 107.542 95.3746 107.686 95.5697 107.661C95.883 107.024 95.9757 106.218 96.4842 105.556C95.8732 105.438 95.4574 105.294 94.8465 105.175C91.987 104.558 88.4752 105.019 85.4816 106.405C82.2929 107.816 80.0383 110.295 78.5898 112.867C77.1412 115.438 76.6937 118.077 76.5852 120.275C76.5633 124.644 78.262 127.001 78.0413 126.832C78.0413 126.832 77.3182 124.346 77.9765 120.291L78.0022 120.486Z" fill="#181415"/>
<path d="M80.0329 137.486C81.1779 137.137 81.712 136.67 81.712 136.67C81.712 136.67 80.9316 136.773 79.7609 136.926C78.5903 137.08 76.8088 137.115 74.7297 136.396C72.6763 135.871 70.5203 134.567 69.0424 132.379C67.395 130.412 66.4255 127.562 66.6266 124.559C66.8278 121.555 68.2763 118.983 70.0225 117.166C71.9637 115.324 74.2025 114.236 76.1535 113.98C76.7388 113.903 77.129 113.852 77.7143 113.775C77.8582 113.359 78.0277 113.138 78.1716 112.723C77.5607 112.604 76.7546 112.512 75.9742 112.614C73.6074 112.726 70.7065 113.306 68.4006 115.394C65.8741 117.314 63.9427 120.743 63.844 124.527C63.5502 128.337 65.2074 131.89 67.2962 134.196C69.5802 136.476 72.3214 137.704 74.5444 138.008C76.9625 138.286 78.6928 137.86 79.8378 137.512L80.0329 137.486Z" fill="#181415"/>
<path d="M85.5488 156.808C87.4486 156.161 88.6862 155.007 89.3898 154.319C90.0677 153.436 90.4068 152.995 90.4068 152.995C90.4068 152.995 88.6606 154.812 85.1744 155.468C83.4185 155.698 81.2211 155.59 79.3116 154.649C77.2069 153.735 75.3899 151.989 74.3022 149.75C73.2144 147.511 73.0766 144.949 73.6009 142.895C74.1252 140.842 75.286 139.101 76.7188 137.921C76.1335 137.998 75.5482 138.075 74.9116 137.761C74.9116 137.761 74.7165 137.787 74.5214 137.812C73.2582 138.772 72.0717 140.317 71.3267 142.201C70.2683 144.722 70.3135 148.09 71.6988 151.084C73.0841 154.078 75.7326 156.112 78.4226 156.949C81.1126 157.787 83.649 157.454 85.5488 156.808Z" fill="#181415"/>
<path d="M99.4095 168.683C96.8732 169.016 93.4284 168.476 90.7542 166.247C87.6386 163.678 86.5411 159.853 86.7678 157.045C86.7422 156.85 86.7166 156.654 86.6654 156.264C86.2752 156.315 85.7411 156.782 85.1558 156.859C84.7498 158.302 84.6157 160.304 85.0925 162.425C85.5694 164.545 86.8522 166.759 88.8642 168.479C90.8763 170.2 93.3455 170.868 95.5429 170.977C97.1293 170.967 98.6645 170.567 99.8351 170.413C99.7583 169.828 99.4864 169.268 99.4095 168.683Z" fill="#181415"/>
<path d="M114.873 174.592C116.696 173.361 117.857 171.621 118.432 169.957C118.432 169.957 118.432 169.957 118.407 169.762C118.016 169.813 117.38 169.5 116.964 169.356C116.117 170.46 115.074 171.589 113.59 172.379C112.106 173.169 110.181 173.62 108.153 173.291C106.151 173.157 104.436 172.191 103.281 170.954C101.931 169.741 101.167 168.453 100.597 167.138C99.6535 164.483 99.9827 162.455 99.9827 162.455C99.9827 162.455 98.8219 164.195 99.0365 167.343C99.2414 168.904 99.9134 170.999 101.314 172.601C102.716 174.203 105.092 175.678 107.705 175.93C110.344 176.378 112.804 175.459 114.627 174.228L114.873 174.592Z" fill="#181415"/>
<path d="M142.495 158.264C138.501 159.582 134.301 159.339 131.17 158.163C131.17 158.163 130.974 158.188 130.754 158.019C130.831 158.604 130.882 158.994 130.959 159.58C134.141 161.147 138.613 161.949 143.193 160.554C147.993 159.328 152.682 155.736 155.189 150.643C157.891 145.525 158.124 139.739 156.534 135.184C155.113 130.409 151.7 127.086 148.687 125.298C145.478 123.536 142.449 123.14 140.473 123.201C138.496 123.262 137.546 123.585 137.546 123.585C137.546 123.585 138.717 123.431 140.55 123.786C142.382 124.141 145.242 124.758 147.865 126.597C150.488 128.436 153.095 131.666 154.244 135.882C155.367 139.902 155.032 144.908 152.643 149.39C150.449 153.846 146.49 156.945 142.495 158.264Z" fill="#181415"/>
</svg>
