<svg width="100%" height="100%" viewBox="8.69 0.62 426.11 379.68" fill="none" xmlns="http://www.w3.org/2000/svg">
<g clip-path="url(#clip0_91_22)">
<path d="M434.468 259.556C433.261 249.192 429.125 241.592 425.677 236.928C425.332 236.582 425.16 236.237 424.815 235.891C427.229 232.782 430.159 228.118 432.227 222.072C433.951 216.89 435.847 208.599 434.123 198.753C432.917 190.979 429.642 183.379 424.815 177.16C421.023 172.151 416.714 168.696 413.611 166.623C414.301 163.687 414.646 160.578 414.818 157.468C415.163 148.486 412.577 139.331 407.579 131.903C402.58 124.303 395.34 118.257 387.067 114.975C382.413 113.075 377.586 112.038 372.415 111.865C372.243 105.82 371.209 99.9465 369.14 94.2461C365.521 83.5364 358.626 73.6903 349.835 66.608C341.044 59.5258 330.013 54.8618 318.636 53.6527C317.258 53.6527 315.706 53.3072 314.327 53.3072C306.571 52.9617 300.021 54.1709 295.367 55.5528C295.194 54.5164 295.022 53.3072 294.677 52.2708C292.609 43.9793 287.955 36.0334 281.75 30.1603C275.544 24.1145 267.443 19.9687 259.169 18.2414C256.756 17.7231 254.171 17.3777 251.758 17.3777C247.448 17.2049 243.312 17.5504 239.002 18.5868C235.9 15.3048 230.901 10.8136 224.179 7.18612C216.767 3.21314 208.321 0.967547 199.875 0.62207C198.668 0.62207 197.289 0.62207 196.083 0.62207C186.43 0.794808 176.433 3.73136 168.331 8.74076C161.437 12.8865 156.61 17.8959 153.68 21.5234C149.543 20.1415 145.234 19.2778 140.925 19.105H140.063C131.444 18.7596 122.654 21.1779 115.242 25.4964C107.83 29.8148 101.625 36.3789 97.6603 43.9793C96.6261 46.0522 95.5919 48.2978 94.9024 50.5434C94.2129 50.5434 93.5234 50.5434 93.0063 50.5434C87.6629 50.3706 82.3195 51.0616 77.1485 52.4435C67.6682 55.2073 59.0498 61.0804 52.8445 68.6809C49.5695 72.6539 46.984 77.145 45.2603 81.9817C43.709 86.3002 42.6748 90.6186 42.1577 95.1098C38.0209 97.3554 34.0564 100.119 30.609 103.229C27.1616 106.511 24.059 110.311 21.6459 114.456C18.888 118.948 16.9919 123.784 15.7853 128.794C13.3722 138.64 13.8893 149.004 17.1643 158.332C18.5432 162.132 20.2669 165.587 22.3353 169.042C18.5432 173.706 13.5446 181.133 10.7867 191.152C9.23534 197.025 8.54587 203.071 8.71824 209.29C8.89061 215.854 10.2696 222.418 12.5103 228.636C14.9235 234.855 18.1985 240.555 22.3353 245.565C26.2998 250.229 30.7814 254.374 35.9524 257.656C40.6064 260.593 45.6051 263.011 50.7761 264.566C52.8445 265.257 55.0853 265.775 57.3261 266.121C57.3261 266.812 57.1537 267.675 56.9814 268.366C56.2919 275.276 56.4643 285.985 61.2906 297.904C65.9445 309.305 74.2182 319.497 84.5603 326.406C89.9037 330.034 95.7642 332.797 101.969 334.525C106.796 335.907 111.794 336.598 116.621 336.943C117.655 336.943 118.689 336.943 119.551 336.943C129.893 336.943 138.339 334.179 143.855 331.761C146.096 336.943 149.371 341.78 153.163 346.098C159.885 353.526 169.021 359.054 178.673 361.645C182.293 362.681 186.258 363.199 190.05 363.372C196.255 363.718 202.633 362.681 208.493 360.954C211.768 359.917 215.043 358.535 218.146 356.808C221.593 361.817 227.281 368.382 236.244 373.391C243.484 377.537 251.93 379.955 260.721 380.3C263.134 380.3 265.547 380.3 267.788 380.128C273.476 379.609 278.992 378.228 284.163 375.982C288.989 373.909 293.471 371.145 297.608 367.863C306.226 360.781 310.708 352.49 313.121 346.962C314.155 344.371 315.017 341.607 315.706 338.843C319.671 339.88 323.808 340.398 327.944 340.571C328.979 340.571 329.84 340.571 330.875 340.571C337.252 340.571 347.077 339.361 357.419 334.007C365.521 329.861 372.76 323.815 378.276 316.387C378.965 315.351 379.827 314.314 380.517 313.278C381.379 313.278 382.068 313.451 382.93 313.624C383.619 313.624 384.136 313.624 384.826 313.624C389.997 313.796 398.098 313.278 406.544 309.305C415.68 305.159 423.609 297.904 428.435 288.922C431.021 284.258 432.917 279.421 433.779 274.067C434.64 269.23 434.813 264.393 434.296 259.556H434.468Z" fill="#181415"/>
<path d="M426.884 260.42C426.022 252.647 422.92 246.083 419.645 241.419C417.921 239.173 416.37 237.273 414.646 235.891C415.508 235.2 416.197 234.337 417.059 233.3C419.989 230.018 423.092 225.354 424.988 219.481C426.884 213.781 427.746 206.871 426.539 199.789C425.505 192.707 422.403 186.488 418.783 181.652C415.163 176.815 410.682 173.36 406.889 171.115C406.028 170.596 405.338 170.251 404.649 169.905C406.2 166.278 407.234 161.96 407.407 157.123C407.579 150.386 405.855 142.613 401.374 135.876C397.064 129.139 390.687 124.475 384.482 121.884C378.104 119.293 371.899 118.948 367.072 119.466C366.211 119.466 365.349 119.639 364.659 119.811C364.659 119.811 364.659 119.984 364.659 120.157C364.659 120.675 364.659 121.021 364.487 121.366C364.487 121.366 364.487 120.502 364.659 120.157C365.521 113.42 365.176 105.129 362.246 96.4918C359.316 87.8549 353.628 79.0452 345.354 72.3085C337.08 65.5717 327.255 61.9442 318.12 60.9077C308.984 59.8713 300.883 61.2532 294.505 63.6716C292.265 64.5352 290.369 65.3989 288.645 66.2626C288.99 62.4624 288.645 58.3167 287.611 53.8255C286.059 47.4342 282.44 40.6974 276.924 35.3425C271.408 29.9876 264.513 26.7056 257.963 25.3237C251.413 23.9418 245.553 24.46 240.726 25.6692C239.347 26.0146 237.969 26.5329 236.762 26.8783C236.762 26.8783 236.59 26.5329 236.417 26.3601C232.97 21.8689 227.799 17.0323 220.904 13.4048C214.182 9.77727 205.563 7.35893 196.6 7.70441C187.637 7.87715 179.191 10.641 172.469 14.7867C165.746 18.7596 160.92 23.9418 157.645 28.6057C157.3 29.2967 156.783 29.8149 156.438 30.5058C152.129 28.2602 146.441 26.5329 140.063 26.3601C133.513 26.1874 126.102 27.742 119.379 31.715C112.657 35.688 107.658 41.3883 104.555 47.2614C102.487 51.2344 101.28 55.2074 100.591 59.0076C100.074 59.0076 99.5568 58.8349 99.0397 58.6621C93.5239 57.453 86.6292 57.2802 79.2173 59.5258C71.9779 61.5987 64.3937 66.2626 58.7055 73.3449C55.9476 76.7996 53.7068 80.5999 52.1555 84.5729C50.6042 88.5458 49.7423 92.5188 49.57 96.3191C49.57 97.5282 49.57 98.7374 49.57 99.9466C45.0884 101.674 40.2621 104.61 35.7805 108.756C33.0226 111.347 30.2647 114.629 28.0239 118.257C25.7831 121.884 24.0595 126.03 23.0253 130.521C20.7845 139.504 21.6463 148.486 24.2318 155.741C26.1279 161.269 29.0581 165.933 32.1608 169.56C31.816 169.733 31.6437 170.078 31.2989 170.424C25.9555 175.606 20.7845 183.379 18.0266 193.225C16.6476 198.062 15.9582 203.417 16.1305 208.944C16.3029 214.472 17.3371 220.172 19.4055 225.7C21.4739 231.228 24.4042 236.237 28.0239 240.555C31.4713 244.874 35.6081 248.329 39.9173 251.092C44.2266 253.856 48.5358 255.929 52.845 257.138C57.1542 258.52 61.1187 259.211 64.9108 259.384C65.4279 259.384 65.945 259.384 66.2897 259.384C65.4279 262.148 64.7384 265.43 64.3937 269.23C63.7042 276.485 64.3937 285.813 68.1858 295.141C71.9779 304.468 78.8726 313.624 88.5252 320.188C93.3515 323.47 98.5226 325.888 103.866 327.27C109.209 328.825 114.38 329.515 119.379 329.343C129.377 329.343 138.167 326.406 144.545 322.951C145.752 322.26 146.958 321.57 148.165 320.879C148.165 321.57 148.509 322.26 148.682 322.951C150.233 328.652 153.336 335.043 158.851 340.916C164.195 346.789 171.779 351.799 180.742 354.217C189.705 356.635 198.841 355.944 206.253 353.526C212.63 351.453 217.801 348.171 221.766 344.716C221.766 344.716 221.076 345.407 220.732 345.58C221.594 347.307 222.455 349.208 223.834 351.108C227.282 356.463 232.625 362.163 240.209 366.309C247.621 370.627 257.274 373.045 267.271 372.009C272.27 371.491 277.096 370.282 281.405 368.554C285.715 366.654 289.679 364.236 292.954 361.472C299.504 355.944 303.813 349.38 306.226 343.507C308.64 337.634 309.329 332.452 309.501 329.17C309.501 328.825 309.501 328.479 309.501 328.134C310.363 328.479 311.225 328.825 312.087 329.17C317.086 331.07 323.636 332.625 331.047 332.625C338.287 332.625 346.561 330.897 354.145 326.924C361.729 323.124 367.934 317.424 372.243 311.551C373.967 309.132 375.518 306.714 376.725 304.468C378.793 304.987 381.034 305.505 383.62 305.678C389.308 306.196 396.375 305.332 403.614 302.05C410.682 298.768 417.576 292.895 422.058 284.949C424.299 280.976 425.85 276.658 426.539 272.512C427.401 268.366 427.401 264.048 427.057 260.248L426.884 260.42ZM66.8068 258.002C66.8068 258.002 66.4621 258.866 66.2897 259.384C66.2897 258.866 66.6344 258.347 66.8068 258.002Z" fill="#181415"/>
<path fill-rule="evenodd" clip-rule="evenodd" d="M412.922 235.719C419.299 228.636 423.264 219.309 423.608 209.117C424.298 192.707 415.507 178.024 402.235 170.424C403.441 166.969 404.131 163.341 404.303 159.714C405.165 139.504 389.48 122.403 369.312 121.539C367.072 121.539 364.831 121.539 362.59 121.884C362.59 121.021 362.59 120.157 362.762 119.293C363.969 89.755 341.044 64.8807 311.569 63.6716C302.606 63.3261 293.987 65.2262 286.403 68.8537C286.403 68.5082 286.403 68.1628 286.403 67.8173C287.265 46.225 270.545 27.9148 248.827 27.0511C244.173 26.8783 239.519 27.5693 235.382 28.9512C226.591 18.9324 214.009 12.3683 199.702 11.8501C181.948 11.1592 166.09 19.6233 156.61 33.0969C152.301 31.1968 147.474 30.1604 142.476 29.9876C122.826 29.1239 105.934 42.943 102.142 61.5987C99.9007 61.0805 97.66 60.9078 95.2468 60.735C72.3218 59.8713 53.1889 77.6633 52.1547 100.465C52.1547 100.81 52.1547 101.156 52.1547 101.501C36.8139 108.065 25.7824 122.921 25.0929 140.713C24.5758 151.768 28.1955 161.96 34.4008 169.906C25.61 178.715 19.9218 190.807 19.4047 204.453C18.1982 232.609 39.7442 256.447 67.6679 258.347C66.806 261.975 66.2889 265.602 66.1166 269.575C64.91 299.977 88.3521 325.543 118.689 326.752C129.72 327.27 140.235 324.333 149.198 318.979C154.369 337.634 171.089 351.799 191.428 352.662C202.46 353.181 212.63 349.553 220.731 343.507C228.143 358.19 242.966 368.554 260.548 369.245C285.541 370.282 306.57 351.453 308.983 326.924C313.982 328.825 319.498 329.861 325.186 330.034C345.87 330.897 364.486 320.015 374.311 303.259C376.724 303.778 379.137 304.123 381.551 304.296C403.786 305.159 422.574 287.886 423.608 265.43C424.126 254.029 419.816 243.665 412.577 235.891L412.922 235.719Z" fill="#EF0A26"/>
<path fill-rule="evenodd" clip-rule="evenodd" d="M412.922 235.719C419.299 228.636 423.264 219.309 423.608 209.117C424.298 192.707 415.507 178.024 402.235 170.424C403.441 166.969 404.131 163.341 404.303 159.714C405.165 139.504 389.48 122.403 369.312 121.539C367.072 121.539 364.831 121.539 362.59 121.884C362.59 121.021 362.59 120.157 362.762 119.293C363.969 89.755 341.044 64.8807 311.569 63.6716C302.606 63.3261 293.987 65.2262 286.403 68.8537C286.403 68.5082 286.403 68.1628 286.403 67.8173C287.265 46.225 270.545 27.9148 248.827 27.0511C244.173 26.8783 239.519 27.5693 235.382 28.9512C226.591 18.9324 214.009 12.3683 199.702 11.8501C181.948 11.1592 166.09 19.6233 156.61 33.0969C152.301 31.1968 147.474 30.1604 142.476 29.9876C122.826 29.1239 105.934 42.943 102.142 61.5987C99.9007 61.0805 97.66 60.9078 95.2468 60.735C72.3218 59.8713 53.1889 77.6633 52.1547 100.465C52.1547 100.81 52.1547 101.156 52.1547 101.501C36.8139 108.065 25.7824 122.921 25.0929 140.713C24.5758 151.768 28.1955 161.96 34.4008 169.906C25.61 178.715 19.9218 190.807 19.4047 204.453C18.1982 232.609 39.7442 256.447 67.6679 258.347C66.806 261.975 66.2889 265.602 66.1166 269.575C64.91 299.977 88.3521 325.543 118.689 326.752C129.72 327.27 140.235 324.333 149.198 318.979C154.369 337.634 171.089 351.799 191.428 352.662C202.46 353.181 212.63 349.553 220.731 343.507C228.143 358.19 242.966 368.554 260.548 369.245C285.541 370.282 306.57 351.453 308.983 326.924C313.982 328.825 319.498 329.861 325.186 330.034C345.87 330.897 364.486 320.015 374.311 303.259C376.724 303.778 379.137 304.123 381.551 304.296C403.786 305.159 422.574 287.886 423.608 265.43C424.126 254.029 419.816 243.665 412.577 235.891L412.922 235.719Z" fill="#FF2C10"/>
<path fill-rule="evenodd" clip-rule="evenodd" d="M67.3233 271.303C67.3233 271.303 66.6338 271.303 66.2891 271.303C66.2891 272.857 66.2891 274.412 66.2891 275.967C66.4614 274.412 66.8062 272.857 67.1509 271.303H67.3233Z" fill="#BC0044"/>
<path d="M353.972 327.097C346.388 331.07 338.114 332.625 330.875 332.797C323.463 332.797 317.086 331.416 311.914 329.343C306.743 327.443 303.124 325.024 300.711 323.297C298.297 321.569 297.091 320.36 297.091 320.36C297.091 320.36 298.47 321.051 301.228 322.26C303.986 323.297 307.95 324.852 312.949 325.715C317.947 326.752 323.98 327.097 330.53 326.406C337.08 325.715 343.975 323.815 350.697 320.36C357.42 316.906 363.108 312.414 367.417 307.578C371.899 302.741 375.001 297.559 377.242 292.895C379.483 288.231 380.517 284.258 381.207 281.322C381.896 278.558 382.068 276.83 382.068 276.83C382.068 276.83 382.241 278.385 382.241 281.494C382.241 284.431 381.896 288.922 380.517 294.104C379.138 299.286 376.38 305.505 372.071 311.378C367.762 317.251 361.557 322.779 353.972 326.752V327.097Z" fill="#FF9700"/>
<path d="M236.417 27.3964C236.417 27.3964 236.245 27.0509 236.072 26.8782C232.625 22.387 227.454 17.5503 220.559 13.9228C213.837 10.2953 205.218 7.877 196.255 8.22248C187.292 8.39521 178.846 11.159 172.124 15.3047C165.401 19.2777 160.575 24.4599 157.3 29.1238C154.025 33.7877 152.301 38.1062 151.267 41.0427C150.233 43.9793 150.061 45.7066 150.061 45.7066C150.061 45.7066 150.75 44.152 152.301 41.5609C153.853 38.9699 156.266 35.1696 160.058 31.3694C163.85 27.5691 168.676 23.5962 174.882 20.6596C181.087 17.7231 188.326 15.6502 196.255 15.4775C204.012 15.3047 211.596 16.8594 217.801 19.4505C223.834 22.0415 228.833 25.4963 232.797 28.951C233.832 28.4328 235.038 27.9146 236.245 27.3964H236.417Z" fill="#FF9700"/>
<path d="M362.073 96.8372C359.143 88.2003 353.455 79.3907 345.181 72.6539C336.907 65.9171 327.082 62.2896 317.947 61.2532C308.811 60.2168 300.71 61.5987 294.332 64.017C292.091 64.8807 290.195 65.7444 288.472 66.6081C288.472 67.6445 288.299 68.6809 288.127 69.5446C290.195 68.8537 292.609 68.1627 295.366 67.4718C301.572 66.0899 309.156 65.7444 317.085 67.4718C325.014 69.0264 333.46 72.6539 340.699 78.3543C347.939 84.2274 353.282 91.6551 356.557 99.0828C359.832 106.511 361.039 114.111 361.039 120.33C361.039 126.721 360.177 131.903 359.143 135.358C358.281 138.813 357.419 140.713 357.419 140.713C357.419 140.713 358.626 138.985 360.177 135.703C361.728 132.421 363.797 127.239 364.486 120.502C365.348 113.766 365.003 105.474 362.073 96.8372Z" fill="#FF9700"/>
<path d="M401.373 136.221C397.064 129.485 390.686 124.821 384.481 122.23C378.103 119.639 371.898 119.293 367.072 119.811C366.21 119.811 365.348 119.984 364.659 120.157C364.659 120.157 364.659 120.33 364.659 120.502C364.659 121.539 364.314 122.402 364.142 123.266C365.176 123.266 366.038 123.266 367.072 123.266C371.553 123.612 376.897 124.821 381.896 127.585C386.894 130.348 391.721 134.494 395.34 140.022C398.96 145.549 400.856 151.595 401.373 157.295C401.89 162.996 400.856 168.351 399.477 172.669C397.926 176.988 396.03 180.27 394.478 182.343C392.927 184.415 391.893 185.625 391.893 185.625C391.893 185.625 393.099 184.934 395.168 183.206C397.236 181.479 399.994 178.542 402.58 174.224C404.993 169.905 407.061 164.032 407.234 157.295C407.406 150.559 405.682 142.785 401.201 136.049L401.373 136.221Z" fill="#FF9700"/>
<path d="M426.711 199.962C425.677 192.88 422.574 186.661 418.955 181.824C415.335 176.988 410.853 173.533 407.061 171.287C406.199 170.769 405.51 170.424 404.82 170.078C404.476 171.115 403.959 171.978 403.441 173.015C403.959 173.36 404.476 173.878 404.993 174.397C408.095 177.16 411.37 180.788 413.956 185.452C416.714 189.943 418.782 195.471 419.644 201.344C420.678 207.217 420.334 213.09 419.299 218.272C418.265 223.454 416.369 227.945 414.301 231.573C412.232 235.2 410.164 237.791 408.612 239.692C407.061 241.419 406.027 242.455 406.027 242.455C406.027 242.455 407.234 241.937 409.302 240.555C411.37 239.173 414.301 237.101 417.231 233.818C420.161 230.536 423.264 225.873 425.16 219.999C427.056 214.299 427.918 207.39 426.711 200.307V199.962Z" fill="#FF9700"/>
<path d="M426.884 260.42C426.022 252.647 422.919 246.083 419.644 241.419C417.921 239.173 416.369 237.273 414.646 235.891C414.129 236.41 413.439 236.928 412.922 237.446C414.129 239.173 415.335 241.074 416.542 243.319C418.955 247.983 420.679 254.029 420.851 260.766C420.851 267.502 419.472 274.757 415.68 281.494C411.888 288.231 406.544 293.413 400.684 296.695C394.823 300.15 388.79 301.705 383.619 302.05C381.551 302.05 379.655 302.223 377.931 302.05C377.586 302.741 377.242 303.605 376.725 304.468C378.793 304.987 381.034 305.505 383.619 305.678C389.307 306.196 396.375 305.332 403.614 302.05C410.681 298.768 417.576 292.895 422.057 284.949C424.298 280.976 425.85 276.658 426.539 272.512C427.401 268.366 427.401 264.048 427.056 260.247L426.884 260.42Z" fill="#FF9700"/>
<path d="M309.329 323.988C309.329 323.988 309.156 325.888 308.295 329.17C307.433 332.452 305.881 337.116 302.951 342.125C300.021 347.135 295.367 352.489 289.162 356.808C282.956 361.126 275.2 364.236 266.581 365.099C257.963 365.963 249.689 364.236 242.967 361.126C236.072 358.017 230.729 353.526 226.764 349.035C225.213 347.307 224.006 345.58 222.8 343.853C222.11 344.371 221.421 345.062 220.731 345.58C221.593 347.307 222.455 349.207 223.834 351.108C227.281 356.462 232.625 362.163 240.209 366.309C247.621 370.627 257.274 373.045 267.271 372.009C272.27 371.491 277.096 370.281 281.405 368.554C285.714 366.654 289.679 364.236 292.954 361.472C299.504 355.944 303.813 349.38 306.226 343.507C308.639 337.634 309.329 332.452 309.501 329.17C309.501 325.715 309.501 323.815 309.501 323.815L309.329 323.988Z" fill="#FF9700"/>
<path d="M88.6971 320.36C79.0445 313.796 71.9774 304.641 68.3577 295.313C64.5656 285.985 63.8761 276.83 64.5656 269.403C65.2551 261.975 67.3235 256.447 69.0472 252.647C70.7708 249.02 71.9774 247.119 71.9774 247.119C71.9774 247.119 71.1156 249.192 70.0814 252.992C69.0472 256.793 68.0129 262.493 68.1853 269.403C68.3577 276.312 69.909 284.604 73.8735 292.55C77.8379 300.495 84.2156 308.269 92.6616 313.969C101.108 319.669 110.76 322.606 119.723 323.124C128.687 323.815 136.788 322.088 143.338 319.497C149.888 317.078 154.714 313.796 157.817 311.378C160.919 308.96 162.471 307.405 162.471 307.405C162.471 307.405 161.264 309.305 158.506 312.242C155.748 315.178 151.439 319.324 144.889 322.779C138.339 326.233 129.721 329.17 119.723 329.17C114.725 329.17 109.381 328.479 104.21 327.097C98.8669 325.542 93.6958 323.297 88.8695 320.015L88.6971 320.36Z" fill="#FF9700"/>
<path d="M231.073 331.416C229.005 333.834 226.075 337.116 221.593 340.225C217.284 343.334 211.423 346.271 204.701 347.826C197.979 349.38 190.222 349.38 182.638 347.307C175.054 345.235 168.331 341.434 163.16 336.77C157.989 332.106 154.369 326.752 152.129 321.915C151.611 321.051 151.267 320.015 150.922 319.151C150.06 319.842 149.198 320.36 148.164 321.051C148.164 321.742 148.509 322.433 148.681 323.124C150.232 328.824 153.335 335.216 158.851 341.089C164.194 346.962 171.779 351.971 180.742 354.39C189.705 356.808 198.84 356.117 206.252 353.699C213.836 351.28 219.697 347.135 223.834 342.989C227.971 338.843 230.556 334.87 231.935 332.106C233.314 329.17 233.831 327.615 233.831 327.615C233.831 327.615 232.797 329.17 230.901 331.588L231.073 331.416Z" fill="#FF9700"/>
<path d="M66.2892 259.729C66.634 258.52 66.9787 257.484 67.3234 256.447C66.634 256.447 65.9445 256.274 65.255 256.102C58.3603 254.893 50.6037 251.783 43.3642 246.428C36.1248 241.073 29.9195 233.127 26.2998 223.454C22.68 213.781 22.1629 203.762 23.8866 194.952C25.6103 186.143 29.5748 178.715 33.884 173.187C38.1932 167.66 42.6748 164.032 45.9498 161.787C49.2248 159.541 51.2932 158.505 51.2932 158.505C51.2932 158.505 49.0524 159.023 45.4327 160.75C41.8129 162.478 36.4695 165.414 31.1261 170.769C25.7827 175.951 20.6116 183.724 17.8537 193.57C16.4748 198.407 15.7853 203.762 15.9577 209.29C16.13 214.817 17.1643 220.518 19.2327 226.045C21.3011 231.573 24.2314 236.582 27.8511 240.901C31.2985 245.219 35.4353 248.674 39.7445 251.438C44.0537 254.202 48.3629 256.274 52.6721 257.484C56.9813 258.865 60.9458 259.556 64.7379 259.729C65.255 259.729 65.7721 259.729 66.1169 259.729H66.2892Z" fill="#FF9700"/>
<path d="M49.3972 100.292C44.9157 102.019 40.0893 104.956 35.6078 109.102C32.8499 111.693 30.092 114.975 27.8512 118.602C25.6104 122.23 23.8867 126.375 22.8525 130.867C20.6117 139.849 21.4736 148.831 24.0591 156.086C25.9551 161.614 28.8854 166.278 31.988 169.905C33.0222 168.869 34.2288 167.832 35.263 166.969C33.0222 163.341 31.1262 159.196 29.9196 154.359C28.1959 147.795 28.0236 140.194 29.9196 132.594C31.8157 124.993 35.4354 118.429 39.917 113.247C43.0196 109.792 46.2946 107.029 49.5696 104.956C49.3972 103.401 49.2249 101.847 49.2249 100.119L49.3972 100.292Z" fill="#FF9700"/>
<path d="M139.718 26.7055C133.168 26.5328 125.757 28.0874 119.034 32.0604C112.312 36.0334 107.313 41.7337 104.211 47.6068C102.142 51.5798 100.936 55.5528 100.246 59.353C101.797 59.6985 103.176 60.2167 104.555 60.7349C105.59 57.4529 107.313 54.1709 109.382 50.8888C112.484 46.2249 116.966 41.7337 122.654 38.4517C128.17 35.1697 134.203 33.4423 139.891 32.9241C145.234 32.4059 150.233 32.9241 154.37 34.1332C154.887 33.0968 155.576 32.0604 156.266 30.8512C151.957 28.6056 146.268 26.8782 139.891 26.7055H139.718Z" fill="#FF9700"/>
<path d="M58.7046 73.6902C64.2204 66.7806 71.8046 62.1167 79.2164 59.8711C86.6283 57.6255 93.523 57.7983 99.0388 59.0074C104.555 60.0439 108.691 62.1167 111.277 63.6714C113.862 65.226 115.241 66.4352 115.241 66.4352C115.241 66.4352 113.69 65.7442 110.932 64.7078C108.174 63.8441 103.865 62.8077 98.694 62.6349C93.523 62.6349 87.4901 63.1532 81.2848 65.7442C75.2519 68.1626 69.2191 72.481 64.3927 78.1814C59.7388 84.0545 56.8085 90.7912 55.7743 97.3553C54.5678 103.919 55.0849 109.965 56.4638 114.975C57.6704 119.984 59.5664 123.784 61.1177 126.375C62.6691 128.966 63.7033 130.348 63.7033 130.348C63.7033 130.348 62.3243 129.312 60.2559 127.066C58.1875 124.821 55.4296 121.366 53.0164 116.184C50.7756 111.002 49.2243 104.265 49.7414 96.6643C50.0862 92.8641 50.948 88.8911 52.327 84.9182C53.8783 80.9452 55.9467 77.1449 58.877 73.6902H58.7046Z" fill="#FF9700"/>
<path d="M276.579 35.6878C282.094 41.0427 285.714 47.7795 287.265 54.1708C288.817 60.5621 288.644 66.6079 287.61 71.4446C286.576 76.2813 284.852 79.736 283.646 82.1543C282.267 84.3999 281.405 85.6091 281.405 85.6091C281.405 85.6091 281.922 84.2272 282.784 81.8089C283.473 79.3905 284.508 75.5903 284.68 71.0991C284.852 66.6079 284.335 61.253 282.439 55.7254C280.543 50.1978 277.096 44.8429 272.442 40.179C267.615 35.6878 262.1 32.4058 256.584 30.8511C251.068 29.1238 245.725 28.7783 241.243 29.1238C236.762 29.4692 233.142 30.5057 230.729 31.3693C228.315 32.233 226.937 32.924 226.937 32.924C226.937 32.924 227.971 31.8876 230.212 30.5057C232.452 29.1238 235.9 27.2236 240.726 26.0145C245.38 24.8053 251.413 24.2871 257.963 25.669C264.34 27.0509 271.235 30.3329 276.923 35.6878H276.579Z" fill="#FF9700"/>
<path d="M356.557 133.803C359.66 139.676 360.867 146.24 360.522 151.941C360.177 157.641 358.281 162.65 356.213 166.278C354.144 169.905 351.731 172.497 350.007 174.051C348.284 175.606 347.249 176.297 347.249 176.297C347.249 176.297 348.111 175.433 349.49 173.533C350.869 171.633 352.42 168.869 353.799 165.242C355.178 161.614 356.213 156.95 356.04 151.941C356.04 146.931 354.661 141.404 351.903 136.394C349.146 131.385 345.353 127.239 341.389 124.303C337.252 121.366 332.943 119.639 329.151 118.775C325.359 117.911 322.084 117.739 319.843 117.739C317.602 117.739 316.396 117.911 316.396 117.911C316.396 117.911 317.602 117.393 319.843 116.875C322.084 116.357 325.531 115.666 329.668 116.011C333.805 116.357 338.976 117.566 343.974 120.33C348.973 123.093 353.627 127.757 356.902 133.63L356.557 133.803Z" fill="#FF9700"/>
<path d="M305.882 320.188C299.504 322.26 292.954 322.088 287.438 320.533C281.922 318.978 277.441 316.387 274.166 313.623C270.891 310.86 268.995 308.096 267.788 306.023C266.582 303.95 266.064 302.914 266.064 302.914C266.064 302.914 266.754 303.95 268.305 305.505C269.857 307.059 272.27 309.305 275.545 311.378C278.82 313.451 283.129 315.351 288.128 316.042C293.126 316.905 298.642 316.733 304.158 315.005C309.674 313.278 314.328 310.341 317.947 306.887C321.567 303.432 324.153 299.459 325.704 295.831C327.255 292.204 328.117 289.095 328.462 286.849C328.807 284.603 328.807 283.394 328.807 283.394C328.807 283.394 329.151 284.603 329.151 287.022C329.151 289.267 329.151 292.722 328.117 296.868C327.083 301.014 324.842 305.678 321.222 309.996C317.43 314.314 312.087 318.115 305.709 320.188H305.882Z" fill="#FF9700"/>
<path d="M51.6384 150.386C53.3621 145.204 56.4647 140.885 60.0845 137.949C63.7042 135.012 67.4963 133.285 70.9437 132.594C74.2187 131.73 76.9766 131.903 78.8726 131.903C80.7687 131.903 81.8029 132.248 81.8029 132.248C81.8029 132.248 80.7687 132.248 79.045 132.594C77.3213 132.939 74.7358 133.458 71.8055 134.667C68.8753 135.876 65.6003 137.776 62.8424 140.713C59.9121 143.649 57.499 147.277 56.12 151.768C54.5687 156.086 54.3963 160.75 54.9134 164.723C55.4305 168.696 56.9818 172.324 58.5332 175.088C60.0845 177.851 61.8082 179.924 63.1871 181.133C64.5661 182.343 65.2555 183.033 65.2555 183.033C65.2555 183.033 64.3937 182.688 62.67 181.652C61.1187 180.615 58.8779 179.061 56.6371 176.297C54.3963 173.706 52.3279 169.905 51.2937 165.414C50.2595 160.923 50.2595 155.568 51.9832 150.386H51.6384Z" fill="#FF9700"/>
<path d="M198.496 311.378C204.529 312.069 209.872 310.169 213.665 308.096C217.457 306.196 219.525 304.296 219.525 304.296C219.525 304.296 218.146 306.714 214.699 309.65C212.975 311.032 210.734 312.587 207.976 313.796C205.219 314.833 201.599 315.524 198.151 315.178C194.532 314.833 191.429 313.451 188.844 311.723C186.258 309.996 184.362 308.096 182.983 306.368C180.225 302.741 179.363 300.15 179.363 300.15C179.363 300.15 181.087 302.395 184.362 304.987C187.637 307.578 192.636 310.514 198.669 311.205L198.496 311.378Z" fill="#FF9700"/>
<path d="M233.659 315.696C230.384 317.251 225.902 318.805 220.731 318.46C215.733 318.46 211.596 315.869 208.838 313.623C208.838 313.623 208.666 313.623 208.493 313.451C208.148 313.451 207.976 313.623 207.631 313.796C207.287 313.796 207.114 313.969 206.77 314.142C206.942 314.487 207.114 314.66 207.287 315.005C208.321 316.56 210.045 318.287 212.113 319.842C214.354 321.397 217.284 322.433 220.387 322.433C223.489 322.433 226.247 321.915 228.66 320.878C231.073 319.842 232.97 318.633 234.348 317.251C237.279 314.66 238.313 312.587 238.313 312.587C238.313 312.587 236.417 313.969 233.314 315.696H233.659Z" fill="#FF9700"/>
<path d="M89.0422 269.403C85.4225 264.911 83.3541 259.384 82.6646 254.547C81.8027 249.71 81.9751 245.219 82.6646 241.592C83.6988 234.337 85.9396 230.364 85.7672 230.364C85.7672 230.364 84.9054 234.682 85.0777 241.764C85.0777 245.219 85.5948 249.365 86.8014 253.683C88.008 258.002 89.9041 262.32 93.0067 266.293C99.2119 274.239 107.83 278.73 114.38 281.322C120.93 283.913 125.24 284.604 125.24 284.604C125.24 284.604 120.758 285.122 113.691 283.74C110.071 283.049 105.934 281.84 101.625 279.594C97.3159 277.349 92.8343 274.066 89.2146 269.403H89.0422Z" fill="#FF9700"/>
<path d="M162.471 39.1428C168.331 38.4518 173.847 39.4882 178.501 41.3883C183.155 43.2885 186.775 45.7068 189.532 48.1251C195.048 52.7891 197.461 56.762 197.461 56.762C197.461 56.762 194.186 53.6528 188.154 50.198C185.223 48.4706 181.431 46.7432 177.122 45.3613C172.813 44.1522 168.159 43.4612 163.16 44.1522C153.163 45.1886 144.717 50.3707 139.201 54.5164C133.685 58.6622 130.755 62.1169 130.755 62.1169C130.755 62.1169 132.651 57.9712 137.65 52.6163C140.063 50.0253 143.338 46.916 147.647 44.4976C151.784 41.9066 156.955 39.8337 162.815 39.1428H162.471Z" fill="#FF9700"/>
<path d="M56.6368 201.862C55.6026 204.971 54.9131 208.772 54.9131 213.09C54.9131 217.408 55.7749 222.418 58.1881 226.909C60.6012 231.573 64.221 235.028 67.6683 237.619C71.1157 240.21 74.7354 241.765 77.6657 242.974C79.3894 243.665 80.9407 244.183 82.3196 244.528C82.3196 244.01 82.3196 243.492 82.3196 242.974C81.2854 242.283 80.0789 241.592 78.6999 240.728C76.1144 239.001 73.1841 236.928 70.2539 234.337C67.3236 231.746 64.5657 228.464 62.6697 224.663C58.7052 216.89 58.5328 208.426 59.2223 202.38C59.9118 196.334 61.2907 192.534 61.1183 192.534C61.1183 192.534 58.7052 195.643 56.6368 201.862Z" fill="#FF9700"/>
<path d="M377.069 269.748C375.862 273.721 373.277 277.003 370.519 279.249C367.761 281.494 364.831 282.703 362.418 283.567C357.419 285.122 354.316 284.949 354.316 284.949C354.316 284.949 357.419 284.085 361.556 281.84C363.624 280.631 366.037 279.076 368.278 276.83C370.347 274.757 372.243 271.821 373.277 268.539C374.311 265.084 374.828 261.802 374.656 258.693C374.656 255.583 373.966 252.82 373.105 250.574C371.381 246.083 369.14 243.665 369.14 243.665C369.14 243.665 369.83 244.01 370.864 245.046C371.898 246.083 373.449 247.465 374.828 249.71C376.207 251.956 377.414 254.893 377.931 258.347C378.448 261.802 378.103 265.775 376.897 269.575L377.069 269.748Z" fill="#FF9700"/>
<path d="M391.203 225.7C390.686 222.245 389.479 219.136 388.1 217.063C386.722 214.817 385.343 213.435 384.136 212.399C383.102 211.535 382.412 211.017 382.412 211.017C382.412 211.017 384.653 213.263 386.377 217.927C387.239 220.172 387.928 222.936 387.928 226.045C387.928 229.155 387.583 232.609 386.549 235.891C385.515 239.173 383.619 241.937 381.55 244.183C379.482 246.428 377.069 247.983 375 249.192C375 249.192 375 249.192 374.828 249.192C374.828 249.365 375.173 249.538 375.173 249.883C375.345 250.229 375.518 250.574 375.69 250.92C378.103 250.056 381.033 248.847 383.791 246.601C386.549 244.356 389.135 241.074 390.341 237.101C391.548 233.3 391.893 229.327 391.375 225.873L391.203 225.7Z" fill="#FF9700"/>
<path d="M281.922 96.4917C281.578 94.0734 280.888 91.1368 279.337 88.0275C277.785 85.091 275.545 81.9817 272.27 79.5634C268.995 77.145 265.375 75.9359 262.1 75.4177C258.825 74.8995 255.895 74.8994 253.482 75.2449C252.103 75.2449 250.896 75.5904 249.689 75.7631C249.689 76.1086 250.034 76.4541 250.207 76.9723C251.241 76.9723 252.275 76.9723 253.482 77.3178C255.895 77.6633 258.653 78.0087 261.411 78.8724C264.341 79.7361 267.271 80.9453 270.029 82.8454C275.545 86.8184 278.475 92.6915 280.026 97.0099C281.578 101.501 281.922 104.438 282.095 104.438C282.095 104.438 282.612 101.501 282.095 96.4917H281.922Z" fill="#FF9700"/>
</g>
<defs>
<clipPath id="clip0_91_22">
<rect width="491.25" height="379.851" fill="white" transform="translate(0.789062 0.449219)"/>
</clipPath>
</defs>
</svg>
