<svg width="152" height="162" viewBox="0 0 152 162" fill="none" xmlns="http://www.w3.org/2000/svg">
<path fill-rule="evenodd" clip-rule="evenodd" d="M71.5016 43.1924C68.9967 43.2935 66.8849 44.7762 65.9638 46.8429C64.526 45.8994 62.7849 45.3602 60.9427 45.4276C56.2586 45.5624 52.6079 49.5163 52.7876 54.1778C52.8213 55.492 53.1583 56.7163 53.7312 57.7946C55.1802 60.6028 58.1682 62.4561 61.5717 62.355C65.1887 62.2202 68.1992 59.8165 69.2888 56.5815C69.4685 56.0423 69.592 55.4695 69.6594 54.8966C70.3671 55.1325 71.131 55.2673 71.9397 55.2336C75.3882 55.0988 78.1066 52.3244 77.983 49.0221C77.8707 45.6748 74.9614 43.1137 71.4904 43.2148L71.5016 43.1924Z" fill="#FF9A00"/>
<path fill-rule="evenodd" clip-rule="evenodd" d="M116.278 93.2333C116.649 92.7952 116.952 92.2898 117.188 91.7506C118.761 88.0664 116.379 83.506 111.886 81.5852C107.382 79.6982 102.462 81.1471 100.889 84.8314C99.3502 88.4483 101.552 92.8402 105.809 94.8283C103.81 96.648 102.596 99.2876 102.698 102.197C102.9 107.465 107.314 111.587 112.56 111.385C117.828 111.183 121.94 106.791 121.749 101.523C121.614 97.8386 119.378 94.6935 116.278 93.2446V93.2333Z" fill="#FF9A00"/>
<path fill-rule="evenodd" clip-rule="evenodd" d="M105.023 84.2803L107.203 81.4385C107.203 81.4385 112.628 81.4385 115.605 84.4488C118.582 87.4591 116.515 92.2217 116.515 92.2217C116.515 92.2217 115.852 87.9982 112.516 85.7742C108.135 82.8987 105.035 84.2915 105.035 84.2915L105.023 84.2803Z" fill="#FFDA24"/>
<path d="M113.974 80.8319C115.928 81.9776 117.388 83.7412 118.118 85.5608C118.882 87.4142 118.849 89.3461 118.343 90.694C117.871 92.1093 117.04 92.9293 116.467 93.4011C115.872 93.8728 115.49 94.0413 115.49 94.0413C115.49 94.0413 115.748 93.7381 116.085 93.0978C116.411 92.4576 116.759 91.514 116.759 90.3908C116.793 89.2788 116.456 87.987 115.681 86.7739C114.94 85.5608 113.794 84.4713 112.356 83.5951C109.503 81.9103 106.189 81.6744 104.021 82.5168C101.831 83.3255 100.898 84.8869 100.898 84.8195C100.921 84.8532 100.932 84.4151 101.213 83.7411C101.483 83.0335 102.078 82.0226 103.212 81.1015C104.347 80.2254 106.021 79.5177 107.941 79.3829C109.862 79.2482 112.064 79.6862 113.985 80.8319H113.974Z" fill="#181415"/>
<path fill-rule="evenodd" clip-rule="evenodd" d="M151.653 14.3359L94.8704 100.22L65.0919 87.3809L62.25 61.5686L131.602 0.890625L151.653 14.3359Z" fill="#DD5E00"/>
<path fill-rule="evenodd" clip-rule="evenodd" d="M112.491 73.5651L112.536 73.2618C112.536 73.2618 99.1242 90.8295 95.8667 88.5717C92.6204 86.2691 104.988 67.3198 104.988 67.3198C104.988 67.3198 93.6987 81.8435 88.5653 80.3945C83.4655 78.9455 103.842 49.8196 103.842 49.8196C103.842 49.8196 77.7929 75.1601 70.514 69.4877C64.4819 64.7925 86.6669 40.1934 86.6669 40.1934L62.2578 61.58L65.0997 87.3923L94.8894 100.231L112.514 73.5763L112.491 73.5651Z" fill="#181415"/>
<path fill-rule="evenodd" clip-rule="evenodd" d="M113.773 114.451C113.616 110.228 111.257 106.577 107.842 104.623L105.697 102.938C107.517 101.523 108.674 99.2536 108.572 96.76C108.438 92.604 104.955 89.3914 100.799 89.5262C97.89 89.6273 95.4299 91.3796 94.273 93.8844C93.4979 93.5474 92.6554 93.379 91.7456 93.4127C89.9258 93.4801 88.3307 94.3562 87.2973 95.749C86.4661 93.5475 84.4105 91.9974 81.9729 91.93C84.2083 90.2788 85.6236 87.6055 85.5225 84.5952C85.354 79.8326 81.3326 76.0472 76.5362 76.2494C74.3458 76.3168 72.3688 77.1929 70.8973 78.6195C70.931 78.3162 70.9422 78.0129 70.931 77.7096C70.8299 74.6319 68.2912 72.2057 65.2247 72.2057C67.1455 70.3861 68.3362 67.7801 68.2351 64.9046C68.0441 59.6366 63.6071 55.5142 58.3389 55.6827C54.5197 55.8175 51.3071 58.1875 49.8917 61.4562C47.5665 59.1985 44.3539 57.8393 40.8155 57.9404C34.2443 58.21 29.0772 63.5455 28.9424 70.0379C26.9317 69.0606 24.6626 68.5552 22.2813 68.6225C14.4407 68.9258 8.32998 75.5193 8.63327 83.3147C8.72313 85.988 9.54313 88.4816 10.936 90.5821C10.7114 90.5484 10.4979 90.5147 10.2733 90.5484C5.31956 90.7169 1.43297 94.8729 1.62393 99.8377C1.78119 103.623 4.2075 106.734 7.55491 107.948C4.51079 110.385 2.65736 114.024 2.79216 118.012C3.03928 125.043 9.50944 130.514 17.2152 130.244C18.0577 130.21 18.9001 130.109 19.6977 129.941C19.2371 130.884 18.99 132.008 19.0349 133.12C19.1697 136.905 22.3262 139.848 26.1004 139.713C26.3363 139.713 26.561 139.679 26.7744 139.646C26.5498 140.859 26.4374 142.083 26.4824 143.364C26.8193 152.821 34.761 160.19 44.2079 159.853C50.1726 159.651 55.306 156.405 58.1929 151.642C59.8104 153.057 61.9222 153.911 64.2362 153.81C65.7863 153.776 67.2578 153.304 68.4934 152.496C69.4932 155.742 72.5485 158.067 76.1094 157.932C80.2094 157.797 83.4557 154.416 83.4894 150.328C84.5677 150.732 85.7584 150.934 86.9828 150.867C92.2061 150.698 96.2612 146.307 96.0927 141.106C96.0478 139.926 95.7894 138.837 95.3625 137.826C98.4853 139.78 102.428 139.376 104.506 136.748C106.775 133.906 106.023 129.514 102.821 126.987C102.72 126.919 102.619 126.852 102.518 126.751C108.966 126.447 114.009 120.977 113.773 114.485V114.451Z" fill="#FF9A00"/>
<path fill-rule="evenodd" clip-rule="evenodd" d="M120.823 10.6855L86.4844 40.7212C86.4844 40.7212 106.153 26.3661 108.703 28.1858C111.253 30.0391 102.738 43.2598 102.738 43.2598C102.738 43.2598 116.117 28.4554 119.666 31.3646C123.227 34.2738 111.893 53.0545 111.893 53.0545C111.893 53.0545 122.913 36.7337 126.283 39.2722C129.641 41.8445 119.049 63.9388 119.049 63.9388L142.728 25.3552L120.812 10.6855H120.823Z" fill="#181415"/>
<path fill-rule="evenodd" clip-rule="evenodd" d="M99.72 82.6518C98.3046 81.6746 104.685 69.9478 114.008 56.4688C123.298 42.9898 132.015 32.8918 133.43 33.8691C134.845 34.8463 128.443 46.573 119.142 60.0183C109.83 73.4973 101.135 83.629 99.72 82.6518Z" fill="#B54900"/>
<path opacity="0.14" fill-rule="evenodd" clip-rule="evenodd" d="M90.3942 76.9799C89.0799 76.0364 94.9772 65.2868 103.537 52.8525C112.119 40.4518 120.105 31.1625 121.431 32.0387C122.734 32.9485 116.848 43.7317 108.266 56.1324C99.7175 68.5331 91.7084 77.856 90.3942 76.9799Z" fill="#FFBC00"/>
<path opacity="0.26" fill-rule="evenodd" clip-rule="evenodd" d="M76.344 62.961C74.5917 61.3098 80.7698 51.8745 90.1492 41.9787C99.5287 32.0491 108.582 25.3546 110.335 27.017C112.087 28.6682 105.92 38.0698 96.552 47.9993C87.1613 57.9288 78.1188 64.6234 76.344 62.961Z" fill="#FFBC00"/>
<path fill-rule="evenodd" clip-rule="evenodd" d="M113.435 112.182C112.694 108.936 110.627 106.207 107.841 104.612L105.696 102.927C106.426 102.354 107.033 101.646 107.482 100.86C106.673 101.332 105.797 101.702 104.865 101.972C105.359 103.32 105.426 104.78 105.067 106.094C105.876 108.262 105.64 110.621 104.236 112.407C102.247 114.945 98.563 115.383 95.5189 113.721C95.4964 113.991 95.474 114.26 95.4178 114.53C95.62 115.237 95.7548 115.979 95.7885 116.765C95.9794 121.966 91.9019 126.358 86.7011 126.526C85.4654 126.56 84.286 126.358 83.1852 125.987C83.1515 130.076 79.9276 133.457 75.8164 133.591C72.2555 133.726 69.189 131.424 68.2005 128.155C66.9648 128.93 65.5158 129.402 63.9207 129.469C61.618 129.536 59.495 128.728 57.8887 127.301C55.0018 132.03 49.8684 135.276 43.8812 135.478C34.4568 135.849 26.5151 128.447 26.1782 119.023C26.1445 118.383 26.1557 117.776 26.2119 117.169C26.1108 116.563 26.0434 115.956 25.9984 115.35H25.7738C22.022 115.485 18.8431 112.575 18.7083 108.79C18.6746 108.116 18.7757 107.442 18.9442 106.802C18.8094 106.465 18.7083 106.094 18.6184 105.724C18.0568 105.825 17.4839 105.892 16.8998 105.892C9.78934 106.162 3.7348 101.5 2.65644 95.2773C2.21836 96.0524 1.92631 96.9285 1.75781 97.8496C2.58905 100.59 4.64467 102.747 7.2844 103.724C6.34084 104.466 5.53207 105.375 4.81316 106.364C5.62193 107.004 6.52057 107.577 7.52029 107.914C4.97042 109.981 3.26302 112.845 2.85864 116.091C4.27398 121.966 10.1263 126.223 16.9672 125.987C17.8096 125.953 18.6409 125.852 19.4496 125.684C18.9779 126.627 18.742 127.739 18.7757 128.863C18.7869 129.267 18.8431 129.638 18.9105 130.008C19.1801 129.975 19.4159 129.941 19.6743 129.907C19.4946 130.278 19.3485 130.682 19.2474 131.087C20.2584 133.726 22.8644 135.546 25.8412 135.445C26.0771 135.445 26.3129 135.411 26.5151 135.377C26.3129 136.59 26.2006 137.848 26.2456 139.129C26.2456 139.297 26.2792 139.466 26.2792 139.634C26.4477 139.634 26.5938 139.601 26.751 139.601C26.6387 140.207 26.5488 140.814 26.5151 141.454C27.9642 149.732 35.3217 155.877 43.9486 155.607C49.9245 155.371 55.0692 152.125 57.956 147.362C59.5624 148.778 61.6854 149.631 63.9881 149.53C65.572 149.497 67.0322 149.025 68.2679 148.25C69.2676 151.496 72.3229 153.787 75.8838 153.686C79.9838 153.518 83.2189 150.137 83.2526 146.082C84.3534 146.453 85.5328 146.655 86.7685 146.621C91.2953 146.453 94.9685 143.105 95.7211 138.814C95.62 138.444 95.4964 138.107 95.3616 137.77C95.5189 137.871 95.6537 137.938 95.8222 138.006C95.8559 137.635 95.8671 137.231 95.8559 136.826C95.8222 135.681 95.5526 134.591 95.1482 133.58C98.2597 135.535 102.214 135.13 104.303 132.502C104.809 131.862 105.146 131.154 105.348 130.401C104.876 129.087 104 127.896 102.809 126.919C102.708 126.852 102.607 126.784 102.506 126.683C103.416 126.65 104.292 126.481 105.146 126.245C104.674 124.931 103.809 123.707 102.573 122.696C102.472 122.628 102.371 122.561 102.27 122.494C108.077 122.19 112.705 117.765 113.424 112.16L113.435 112.182Z" fill="#C66C01"/>
<path opacity="0.74" fill-rule="evenodd" clip-rule="evenodd" d="M31.7073 79.7432C34.4145 84.6069 28.1465 82.5851 23.2714 85.2809C18.3851 87.9879 16.7788 94.4016 14.0829 89.5379C11.3758 84.6743 13.1393 78.5189 18.0032 75.8231C22.867 73.116 29.0002 74.8795 31.7073 79.7432Z" fill="#FFBC00"/>
<path opacity="0.31" fill-rule="evenodd" clip-rule="evenodd" d="M69.0761 126.583C68.7054 123.033 71.918 125.774 75.4452 125.369C78.9948 124.999 81.5446 121.618 81.9153 125.167C82.3085 128.717 79.7474 131.929 76.209 132.3C72.6594 132.671 69.4805 130.11 69.0761 126.594V126.583Z" fill="#FFBC00"/>
<path opacity="0.31" fill-rule="evenodd" clip-rule="evenodd" d="M29.6824 114.181C32.7378 106.745 36.1301 115.63 43.5663 118.674C51.0025 121.718 59.6518 117.798 56.6077 125.234C53.5524 132.67 45.049 136.219 37.6129 133.175C30.1767 130.098 26.6383 121.617 29.6712 114.192L29.6824 114.181Z" fill="#FFBC00"/>
<path opacity="0.46" fill-rule="evenodd" clip-rule="evenodd" d="M41.234 99.1418C45.3228 99.2429 41.6721 102.455 41.571 106.578C41.4362 110.666 44.8847 114.081 40.7735 113.98C36.6735 113.845 33.4608 110.43 33.5732 106.308C33.6855 102.219 37.1003 99.007 41.2228 99.1418H41.234Z" fill="#FFBC00"/>
<path opacity="0.46" fill-rule="evenodd" clip-rule="evenodd" d="M80.1532 89.2117C78.6368 91.8513 77.7831 88.3355 75.1209 86.8416C72.4699 85.3252 69.0102 86.4035 70.5266 83.7302C72.0094 81.0905 75.3905 80.147 78.0639 81.6297C80.7149 83.1461 81.6472 86.4934 80.1532 89.2004V89.2117Z" fill="#FFBC00"/>
<path opacity="0.46" fill-rule="evenodd" clip-rule="evenodd" d="M63.4709 69.6111C61.8308 72.5203 60.8985 68.7013 57.978 67.0389C55.0686 65.4214 51.3056 66.5671 52.9456 63.6579C54.5856 60.7487 58.27 59.7377 61.1906 61.3552C64.0999 63.0064 65.1221 66.6907 63.4709 69.5999V69.6111Z" fill="#FFBC00"/>
<path fill-rule="evenodd" clip-rule="evenodd" d="M68.8423 119.416C68.6064 116.271 71.3584 118.809 74.4812 118.54C77.6264 118.337 79.9516 115.428 80.1875 118.573C80.4234 121.718 78.0532 124.414 74.9305 124.65C71.8077 124.886 69.0669 122.527 68.831 119.416H68.8423Z" fill="#FFBC00"/>
<path fill-rule="evenodd" clip-rule="evenodd" d="M52.4379 68.0614C55.2911 72.9924 48.8434 71.038 43.8897 73.9023C38.936 76.7778 37.4195 83.3263 34.5439 78.3953C31.6907 73.4642 33.3757 67.1066 38.3294 64.276C43.2606 61.4005 49.5848 63.0966 52.4379 68.0614Z" fill="#FFBC00"/>
<path d="M104.783 127.593C104.042 127.728 103.334 127.728 102.615 127.728C102.728 127.862 102.851 127.997 102.952 128.132C103.593 129.075 104.154 130.3 104.3 131.648C104.469 132.962 104.199 134.388 103.424 135.5C102.615 136.646 101.402 137.388 100.11 137.668C98.7962 137.938 97.4595 137.803 96.3811 137.466C94.1682 136.792 93.0225 135.534 93 135.579C93.0225 135.579 93.1123 135.983 93.4942 136.59C93.8649 137.23 94.5277 138.106 95.6622 138.926C96.7743 139.701 98.403 140.409 100.391 140.375C101.369 140.342 102.413 140.106 103.435 139.634C104.446 139.129 105.379 138.354 106.075 137.365C107.49 135.377 107.58 132.872 106.974 131.052C106.502 129.57 105.671 128.413 104.795 127.604L104.783 127.593Z" fill="#181415"/>
<path d="M95.6671 138.904C95.2627 138.601 94.9257 138.332 94.6561 138.028C94.6786 138.129 94.7235 138.23 94.746 138.332C95.0717 139.747 95.1054 141.477 94.5662 143.162C94.0383 144.846 92.9487 146.509 91.3536 147.688C89.7698 148.868 87.8714 149.441 86.0966 149.474C85.389 149.474 84.7262 149.407 84.0859 149.238C84.187 149.643 84.2657 150.047 84.3218 150.519C84.3555 150.923 84.3555 151.361 84.3331 151.833C84.8273 151.968 85.344 152.103 85.9057 152.17C88.2309 152.507 91.0279 151.968 93.2745 150.249C95.5435 148.598 96.8578 146.093 97.2172 143.734C97.4531 142.252 97.3071 140.825 96.9813 139.646C96.4871 139.41 96.049 139.14 95.6783 138.904H95.6671Z" fill="#181415"/>
<path d="M77.084 159.415C74.5679 159.786 72.0854 158.91 70.4791 157.528C68.8391 156.113 67.9966 154.282 67.7607 152.799C67.4911 151.283 67.727 150.058 67.9629 149.283C68.2325 148.542 68.4684 148.171 68.4572 148.171C68.4796 148.138 68.4235 148.609 68.4796 149.351C68.547 150.092 68.7492 151.17 69.2884 152.327C69.8613 153.406 70.8048 154.563 72.0966 155.338C73.3996 156.113 75.0172 156.483 76.6797 156.247C78.3197 156.045 79.8024 155.236 80.8134 154.147C81.8805 153.035 82.4871 151.709 82.7005 150.463C82.9588 149.25 82.8578 148.138 82.7005 147.419C82.5657 146.644 82.3972 146.239 82.3972 146.239C82.3972 146.239 82.7342 146.543 83.1723 147.216C83.6104 147.89 84.1495 149.002 84.318 150.53C84.4865 152.046 84.1608 154.012 82.9701 155.798C81.7906 157.584 79.6451 159.112 77.0953 159.415H77.084Z" fill="#181415"/>
<path d="M67.7623 152.799C67.6612 152.26 67.6612 151.755 67.6612 151.316C66.6166 151.788 65.4484 152.159 64.179 152.193C62.4267 152.26 60.7867 151.755 59.45 150.979C59.3152 151.215 59.2141 151.485 59.0793 151.721C58.8209 152.26 58.5176 152.765 58.2031 153.271C58.3042 153.372 58.3716 153.473 58.4727 153.541C59.9555 154.686 62.0672 155.495 64.3026 155.394C65.7179 155.36 67.0547 154.956 68.2004 154.349C67.9982 153.81 67.8297 153.271 67.7623 152.799Z" fill="#181415"/>
<path d="M37.756 160.493C32.9932 158.977 29.3313 155.461 27.4105 151.676C25.4672 147.857 25.2313 143.869 25.7592 140.837C26.2984 137.725 27.5453 135.501 28.5001 134.108C29.4773 132.727 30.185 132.12 30.1513 132.12C30.185 132.12 29.6121 132.861 28.9381 134.378C28.2642 135.861 27.4666 138.13 27.388 141.005C27.2644 143.813 27.8935 147.25 29.8031 150.362C31.679 153.473 34.8354 156.169 38.7782 157.461C42.6985 158.741 46.8659 158.404 50.202 157.023C53.5831 155.641 56.1105 153.271 57.7056 150.912C59.3119 148.587 60.0421 146.251 60.3566 144.667C60.6823 143.049 60.6936 142.095 60.716 142.128C60.7048 142.128 60.8845 143.004 60.8733 144.701C60.8284 146.385 60.5026 148.924 59.0985 151.732C57.7281 154.54 55.1782 157.573 51.359 159.505C47.5735 161.459 42.5412 162.111 37.7784 160.516L37.756 160.493Z" fill="#181415"/>
<path d="M25.7619 140.904V140.836C25.9191 139.994 26.1213 139.219 26.3572 138.466C25.818 138.466 25.2788 138.399 24.7509 138.197C23.4366 137.792 22.201 136.883 21.4035 135.602C20.6284 134.355 20.3588 132.794 20.561 131.446C20.6284 131.109 20.6958 130.772 20.7969 130.469C20.7295 130.502 20.6396 130.536 20.561 130.57C19.7522 130.839 18.8087 131.042 17.8202 131.176C17.281 133.063 17.4607 135.366 18.6627 137.287C19.9432 139.387 22.1449 140.634 24.1892 140.87C24.7284 140.937 25.2564 140.971 25.7619 140.904Z" fill="#181415"/>
<path d="M32.3778 78.8667C32.3778 78.8667 22.7512 66.028 35.523 58.7943C46.5425 52.5827 52.9565 66.2639 52.9565 66.2639C52.9565 66.2639 46.565 57.9518 37.6011 63.0514C28.626 68.1509 32.3778 78.8667 32.3778 78.8667Z" fill="#FFDA24"/>
<path d="M29.2142 74.2722L28.675 69.8129C28.675 69.8129 15.9706 65.9939 10.6012 75.5865C2.99655 89.2003 17.8802 96.097 17.8802 96.097C17.8802 96.097 7.52342 86.7066 14.5552 77.1478C19.7561 70.0825 29.2142 74.2722 29.2142 74.2722Z" fill="#FFDA24"/>
<path d="M12.856 92.7162L10.2836 90.7617C10.2836 90.7617 1.39841 91.7726 1.7691 99.6129C2.10608 107.453 7.54281 107.925 7.54281 107.925L9.85679 106.611C9.85679 106.611 5.20637 104.96 5.53212 99.1749C5.84664 93.3003 12.8447 92.7162 12.8447 92.7162H12.856Z" fill="#FFDA24"/>
<path d="M5.57747 108.329C6.24022 107.722 6.91419 107.217 7.58817 106.779C6.7457 106.307 5.93693 105.701 5.24049 104.892C3.97117 103.477 3.17363 101.444 3.2298 99.3206C3.27473 97.1864 4.17336 95.2319 5.48761 93.8503C6.80186 92.4687 8.49803 91.6488 10.0145 91.3455C10.1717 91.3118 10.3178 91.3118 10.475 91.2781C10.4301 91.2107 10.3627 91.1433 10.2953 91.0422C9.99201 90.6378 9.68872 90.2335 9.41913 89.7617C7.6668 89.7617 5.53254 90.3346 3.67911 91.8622C1.65719 93.4123 0.0845834 96.1867 0.0284189 99.2644C-0.0726773 102.342 1.37637 105.173 3.34213 106.869C4.0498 107.475 4.82487 107.947 5.58871 108.351L5.57747 108.329Z" fill="#181415"/>
<path d="M27.8538 68.1961C27.2809 67.9602 26.7081 67.7581 26.1015 67.5896C24.1807 67.1178 22.0127 66.983 19.8223 67.3537C17.6431 67.7243 15.4639 68.6005 13.5319 69.9933C11.6447 71.3749 10.1171 73.1721 9.0724 75.1266C8.02774 77.081 7.4661 79.1815 7.34254 81.1697C7.05048 85.2246 8.48829 88.7404 10.2856 91.0318C12.0716 93.4018 14.1384 94.6149 15.5763 95.2889C17.0141 95.9291 17.8902 96.0976 17.879 96.0976C17.9015 96.0976 17.0815 95.7607 15.8346 94.8508C14.5878 93.9747 12.9253 92.4471 11.6447 90.1557C10.3642 87.8867 9.54419 84.7528 10.0609 81.4729C10.499 78.193 12.3749 74.8233 15.4302 72.588C18.4743 70.3527 22.2935 69.6788 25.5286 70.2517C26.3598 70.3865 27.1462 70.6223 27.8988 70.8919C27.7977 70.0158 27.764 69.1397 27.8651 68.1849L27.8538 68.1961Z" fill="#181415"/>
<path d="M2.81491 123.976C1.81518 122.157 1.29847 120.124 1.26477 118.203C1.19737 116.249 1.62422 114.35 2.34313 112.766C3.78094 109.487 6.29711 107.397 8.52123 106.252C10.7903 105.106 12.8122 104.803 14.1601 104.701C15.5418 104.634 16.2832 104.769 16.2832 104.769C16.2832 104.769 15.5418 104.836 14.2612 105.207C12.9919 105.578 11.1834 106.252 9.3637 107.644C7.5552 108.992 5.7467 111.059 4.8593 113.755C3.96067 116.428 4.09546 119.663 5.63437 122.471C7.15081 125.246 9.77931 127.234 12.4752 128.211C15.1823 129.256 17.9344 129.357 20.1585 129.02C22.4163 128.649 24.1574 127.84 25.3144 127.2C26.4602 126.526 27.0331 126.054 27.0331 126.054C27.0331 126.054 26.6287 126.661 25.6177 127.605C24.6068 128.514 22.9667 129.772 20.5517 130.581C18.1815 131.39 15.0139 131.727 11.644 130.817C8.31904 129.941 4.80314 127.672 2.80368 123.988L2.81491 123.976Z" fill="#181415"/>
<path d="M51.6551 62.9954L50.2734 60.8613C50.2734 60.8613 56.137 52.0438 63.5395 56.6042C70.942 61.1309 67.4598 68.2298 67.4598 68.2298L65.6176 71.6445C65.6176 71.6445 67.5946 63.7368 61.4502 60.1536C55.9798 56.9074 51.6663 62.9954 51.6663 62.9954H51.6551Z" fill="#FFDA24"/>
<path d="M69.181 62.2088C68.6081 59.5354 66.7097 56.7722 63.8454 55.2783C60.9585 53.7956 57.6336 53.863 55.1062 54.8739C52.5563 55.9523 50.8489 57.8505 49.9727 59.5691C49.8716 59.7713 49.793 59.9735 49.7031 60.142C49.7481 60.2094 49.8155 60.2768 49.8829 60.3442C50.1861 60.6474 50.4557 60.9844 50.6916 61.2877C50.8938 61.0181 51.0848 60.7485 51.3207 60.4452C52.3878 59.1984 54.0053 57.9741 56.0048 57.4349C57.9593 56.9295 60.3182 57.098 62.3401 58.1426C64.3845 59.1872 65.8673 61.0181 66.575 62.9389C67.2826 64.8709 67.2489 66.8927 66.8108 68.4765C66.3728 70.094 65.5752 71.3183 64.9574 72.0933C64.3284 72.8684 63.8791 73.2391 63.8903 73.2391C63.8678 73.2391 64.4295 73.0369 65.2944 72.464C66.1593 71.8912 67.3725 70.8465 68.3048 69.083C69.2147 67.3645 69.7876 64.8596 69.181 62.1863V62.2088Z" fill="#181415"/>
<path d="M33.9067 58.4232C36.8609 56.5699 40.3656 56.1206 43.23 56.7047C46.1393 57.2775 48.4308 58.8051 49.8799 60.3552C51.3626 61.9053 52.1152 63.4666 52.4859 64.5449C52.8791 65.6569 52.9465 66.2972 52.9577 66.2635C52.9352 66.2972 52.6881 65.6907 52.0478 64.8145C51.4076 63.871 50.3966 62.6466 48.8352 61.5683C47.2851 60.49 45.207 59.5689 42.8369 59.4005C40.4892 59.1983 37.8494 59.7374 35.6029 61.1527C33.3226 62.5343 31.6826 64.6685 30.8064 66.8251C29.9302 69.0604 29.8067 71.3181 30.0763 73.1827C30.3459 75.0473 31.0198 76.53 31.5253 77.5072C32.0645 78.4508 32.4689 78.9562 32.4689 78.9562C32.4689 78.9562 31.9297 78.6192 31.1209 77.7768C30.3459 76.9681 29.245 75.609 28.5261 73.5871C27.7848 71.5653 27.4478 68.8582 28.2228 66.0164C28.9979 63.1746 30.93 60.2429 33.8955 58.412L33.9067 58.4232Z" fill="#181415"/>
<path d="M60.3281 74.8793C60.3281 74.8793 63.0353 70.6896 67.8991 73.0259C72.7854 75.3511 69.7188 78.5299 69.7188 78.5299L68.1687 82.3826C68.1687 82.3826 69.1123 77.8222 66.4613 75.688C63.6418 73.3854 60.3281 74.8793 60.3281 74.8793Z" fill="#FFDA24"/>
<path d="M69.7154 78.5299C70.322 77.7212 71.1645 76.9124 72.1867 76.2272C71.9845 74.9804 71.3779 73.655 70.3332 72.6441C69.0302 71.3636 67.2554 70.757 65.739 70.8244C64.2001 70.8581 62.9307 71.4647 62.0883 72.1386C61.257 72.8463 60.8414 73.5876 60.6055 74.0594C60.3696 74.5985 60.3359 74.9018 60.3359 74.8681C60.3359 74.9355 61.2458 73.9583 62.8746 73.5539C64.4584 73.1158 66.6601 73.4528 68.0979 74.9355C69.1425 75.9127 69.648 77.2382 69.7379 78.5187L69.7154 78.5299Z" fill="#181415"/>
<path d="M53.3307 55.8622C53.3307 55.8622 52.96 45.7979 61.1825 45.4946C70.0003 45.1576 69.5622 55.222 69.5622 55.222C69.5622 55.222 67.8548 48.6622 61.2386 48.9654C54.6337 49.2687 53.3307 55.8622 53.3307 55.8622Z" fill="#FFDA24"/>
<path d="M68.5057 47.9551L66.9219 46.1691C66.9219 46.1691 69.7638 42.9566 73.5493 43.799C77.3685 44.6415 77.7729 48.2583 77.7729 48.2583C77.7729 48.2583 75.7509 46.0231 72.4148 46.1354C69.0898 46.2365 68.5169 47.9551 68.5169 47.9551H68.5057Z" fill="#FFDA24"/>
<path d="M60.4973 43.7987C63.2381 43.5965 65.8554 44.6749 67.5291 46.3036C69.214 47.8874 70.034 49.8868 70.2362 51.5379C70.4721 53.1891 70.1688 54.5145 69.8655 55.3233C69.5735 56.1657 69.2927 56.5701 69.3039 56.5701C69.2814 56.5701 69.3938 56.0983 69.3713 55.2559C69.3488 54.4135 69.214 53.234 68.6749 51.9423C68.1469 50.6955 67.1921 49.3363 65.788 48.3928C64.4063 47.4156 62.5979 46.8764 60.7332 47.0449C58.8573 47.1797 57.1724 47.9885 55.9367 49.1454C54.7011 50.2911 53.9597 51.785 53.634 53.0992C53.297 54.4471 53.3419 55.6715 53.4655 56.4802C53.5666 57.3227 53.7351 57.7607 53.7351 57.7944C53.7351 57.7607 53.3981 57.4238 52.9712 56.6487C52.5669 55.8737 52.0614 54.6269 52.0277 52.9308C51.9715 51.3133 52.4658 49.1791 53.9036 47.3594C55.3077 45.5061 57.7228 44.0122 60.4861 43.81L60.4973 43.7987Z" fill="#181415"/>
<path d="M77.6784 45.4951C77.2179 44.4505 76.308 43.2598 74.8927 42.5185C73.4773 41.7097 71.579 41.3728 69.7368 41.8445C67.8946 42.3163 66.3781 43.5294 65.5469 44.8885C66.2882 45.2929 66.951 45.7647 67.5239 46.3038C67.5913 46.3712 67.6587 46.4386 67.7261 46.506C68.4674 45.7984 69.411 45.2255 70.5343 44.9559C72.7696 44.3831 75.0611 45.1581 76.3417 46.4049C77.656 47.6517 77.9817 49.0109 77.9929 49.0109C77.9929 49.0109 78.094 48.6739 78.1502 48.0673C78.1839 47.4945 78.1277 46.5846 77.6784 45.4951Z" fill="#181415"/>
<path d="M68.2109 85.089C68.2109 85.089 72.8614 76.9117 79.1406 80.3601C83.9707 82.9997 80.9603 90.5592 80.9603 90.5592L83.263 90.8288C83.263 90.8288 89.34 80.8993 80.8255 77.3835C69.3342 72.6546 68.2109 85.089 68.2109 85.089Z" fill="#FFDA24"/>
<path d="M83.8609 77.3839C85.0965 78.4959 85.9726 79.9561 86.4781 81.4388C86.9724 82.9215 87.051 84.4828 86.8488 85.8644C86.4444 88.7062 84.782 90.8292 83.1532 91.9749C81.502 93.188 79.8732 93.525 78.8061 93.5924C77.7277 93.6934 77.1661 93.5587 77.1661 93.5924C77.1436 93.5587 77.7614 93.4912 78.705 93.1206C79.6485 92.7836 80.9515 92.0423 82.0861 90.7842C83.1981 89.5374 84.108 87.6728 84.1417 85.6173C84.1866 83.5168 83.3666 81.2928 81.6704 79.709C79.9855 78.1252 77.6828 77.44 75.6271 77.6871C73.5491 77.8556 71.7743 78.9002 70.5948 80.1246C69.4153 81.3377 68.8088 82.6968 68.4943 83.674C68.2022 84.6176 68.1797 85.2241 68.1573 85.2241C68.191 85.2241 68 84.6513 68 83.573C68.0225 82.5283 68.2247 80.8659 69.303 79.1473C70.3477 77.4288 72.3584 75.6316 75.1666 75.025C76.537 74.6881 78.0872 74.6881 79.6148 75.0587C81.1313 75.4294 82.6252 76.2382 83.8496 77.3839H83.8609Z" fill="#181415"/>
<path fill-rule="evenodd" clip-rule="evenodd" d="M75.9062 97.9954C75.9062 97.9954 77.9057 95.0862 81.4328 94.8166C85.0274 94.5807 86.1844 97.1866 86.1844 97.1866L86.892 95.1311C86.892 95.1311 85.0049 91.6827 80.6802 92.5251C76.3556 93.4013 75.9175 97.9954 75.9175 97.9954H75.9062Z" fill="#FFDA24"/>
<path d="M86.2744 95.3561C86.2744 95.3561 86.2744 95.3898 86.3081 95.3898C86.544 94.8507 86.881 94.3115 87.3528 93.806C87.0158 93.0647 86.5103 92.3234 85.7352 91.7056C84.6906 90.8294 83.1517 90.2229 81.5117 90.2903C79.8941 90.3577 78.4001 91.0653 77.4117 92.0088C76.4119 92.9524 75.8952 94.0756 75.6706 95.0191C75.2999 96.9736 75.9401 98.0294 75.9064 97.9957C75.9064 98.0294 76.176 96.8837 77.1533 95.6931C78.0969 94.5137 79.7706 93.5252 81.6465 93.5027C83.4887 93.4016 85.2298 94.2778 86.2744 95.3561Z" fill="#181415"/>
<path fill-rule="evenodd" clip-rule="evenodd" d="M86.1423 99.4112C86.1423 99.4112 85.7716 95.8617 89.6582 94.716C93.5448 93.5366 93.7582 95.3563 93.7582 95.3563C93.7582 95.3563 91.8486 95.2889 89.6021 96.502C87.3442 97.7151 86.1423 99.4112 86.1423 99.4112Z" fill="#FFDA24"/>
<path d="M94.3207 92.2445C93.5456 91.9076 92.6358 91.7391 91.7034 91.7728C90.0971 91.8402 88.6144 92.5141 87.6371 93.4577C86.6599 94.4012 86.1544 95.5581 85.9522 96.468C85.5815 98.4 86.2218 99.4109 86.1544 99.4109C86.1881 99.4446 86.4577 98.2989 87.4012 97.1419C88.3448 95.9625 90.0073 95.0077 91.827 94.974C92.3886 94.9403 92.9278 95.0077 93.4445 95.1425C93.5119 94.3338 93.7478 93.3228 94.3207 92.2333V92.2445Z" fill="#181415"/>
<path fill-rule="evenodd" clip-rule="evenodd" d="M93.6094 97.1199C93.6094 97.1199 95.0809 85.4943 106.381 92.3574C110.672 94.9521 108.909 100.636 105.404 103.174C103.685 104.421 101.349 104.522 101.349 104.522C101.349 104.522 108.617 98.715 103.685 94.4578C99.091 90.4703 93.6206 97.1312 93.6206 97.1312L93.6094 97.1199Z" fill="#FFDA24"/>
<path d="M107.29 90.3575C109.503 92.3794 110.334 95.4234 109.896 97.8608C109.525 100.366 108.043 102.219 106.605 103.23C105.133 104.275 103.718 104.544 102.786 104.578C101.853 104.612 101.348 104.477 101.348 104.51C101.348 104.477 101.853 104.409 102.662 104.072C103.471 103.769 104.583 103.129 105.538 102.006C106.47 100.927 107.189 99.3323 107.189 97.58C107.223 95.8614 106.515 93.9969 105.088 92.7164C103.673 91.3685 101.775 90.8293 100.056 90.9641C98.3038 91.0989 96.7761 91.9076 95.7652 92.9185C94.7205 93.9632 94.1813 95.0864 93.9117 95.9288C93.6421 96.7713 93.6084 97.2767 93.5747 97.2767C93.6084 97.2767 93.4399 96.805 93.4062 95.8614C93.4062 94.9516 93.5747 93.4914 94.4846 91.975C95.3832 90.4249 97.1356 88.8299 99.6068 88.2571C102.022 87.6842 105.111 88.257 107.29 90.3575Z" fill="#181415"/>
<path d="M109.203 93.1991C109.203 93.1991 119.492 90.3572 121.38 100.77C122.963 109.486 114.528 111.104 114.528 111.104L113.517 109.857C113.517 109.857 118.953 107.857 118.515 101.376C118.077 94.8615 109.203 93.1991 109.203 93.1991Z" fill="#FFDA24"/>
<path d="M122.836 98.4677C123.712 101.175 123.308 104.039 122.207 106.173C121.106 108.341 119.387 109.756 117.849 110.498C116.276 111.273 114.894 111.441 113.984 111.441C113.075 111.475 112.569 111.374 112.569 111.374C112.569 111.374 113.075 111.273 113.906 110.97C114.737 110.666 115.86 110.127 116.984 109.15C118.084 108.206 119.163 106.813 119.736 105.095C120.309 103.41 120.398 101.377 119.769 99.4562C119.174 97.5354 117.95 95.9404 116.478 94.8958C115.007 93.8175 113.355 93.2783 111.895 93.1435C110.424 93.0087 109.177 93.2109 108.334 93.4468C107.492 93.6827 107.031 93.8849 107.031 93.8849C107.031 93.8849 107.368 93.5142 108.11 93.0087C108.885 92.4696 110.098 91.7956 111.828 91.5261C113.513 91.2565 115.748 91.425 117.893 92.5707C120.016 93.649 121.993 95.7832 122.847 98.479L122.836 98.4677Z" fill="#181415"/>
<path d="M113.978 109.442C112.563 106.667 110.328 104.881 108.339 103.938C107.71 103.634 107.126 103.432 106.553 103.264C106.093 103.567 105.655 103.803 105.239 104.005C105.947 104.308 106.744 104.746 107.542 105.319C109.092 106.465 110.653 108.262 111.507 110.554C112.383 112.811 112.541 115.619 111.619 118.225C110.721 120.831 108.879 122.921 106.789 124.201C104.689 125.448 102.375 125.886 100.443 125.863C98.477 125.796 96.8932 125.291 95.8485 124.819C94.7814 124.347 94.2422 123.943 94.2422 123.943C94.2647 123.943 94.6353 124.482 95.5789 125.223C96.5112 125.965 98.0277 126.953 100.229 127.458C102.397 127.93 105.25 127.93 108.07 126.616C110.856 125.336 113.495 122.73 114.675 119.281C115.877 115.833 115.416 112.182 114.001 109.453L113.978 109.442Z" fill="#181415"/>
<path d="M74.8474 127.694C72.5447 127.796 70.4217 126.751 69.1411 125.291C67.8269 123.875 67.3214 122.112 67.2989 120.764C67.2652 119.349 67.6584 118.304 67.9953 117.653C68.3323 116.979 68.6019 116.709 68.6019 116.709C68.6019 116.709 68.4671 117.08 68.3323 117.787C68.2312 118.461 68.1975 119.472 68.5008 120.595C68.7929 121.708 69.4444 122.921 70.5564 123.875C71.6348 124.785 73.1625 125.358 74.7463 125.291C76.3302 125.223 77.7904 124.549 78.8239 123.538C79.8573 122.561 80.4302 121.269 80.6324 120.157C80.857 119.012 80.7335 117.99 80.565 117.316C80.4077 116.642 80.2392 116.271 80.2617 116.237C80.2392 116.271 80.5313 116.541 80.9244 117.181C81.2951 117.787 81.7669 118.798 81.8568 120.225C81.9242 121.573 81.5535 123.336 80.3515 124.886C79.1833 126.403 77.1389 127.627 74.8587 127.694H74.8474Z" fill="#181415"/>
<path fill-rule="evenodd" clip-rule="evenodd" d="M39.1745 97.7598C39.1745 97.7598 28.5594 98.2652 30.6263 108.981C32.4797 118.843 42.9937 115.642 42.9937 115.642C42.9937 115.642 34.4118 115.372 32.9627 108.408C31.48 101.444 39.1858 97.771 39.1858 97.771L39.1745 97.7598Z" fill="#FFDA24"/>
<path d="M27.9398 109.486C27.3332 106.745 27.9847 103.982 29.2765 101.983C30.5458 99.9947 32.3543 98.7367 33.9382 98.1301C35.522 97.5236 36.9149 97.4899 37.8023 97.5236C38.7009 97.591 39.1727 97.7595 39.1727 97.7595C39.1727 97.7595 38.6785 97.8268 37.8585 98.0627C37.0272 98.2649 35.8702 98.703 34.6796 99.5454C33.5338 100.422 32.3656 101.668 31.6579 103.297C30.9278 104.915 30.6582 106.88 31.085 108.801C31.4894 110.755 32.5341 112.452 33.8596 113.631C35.1738 114.81 36.7464 115.484 38.1618 115.799C39.5659 116.102 40.8127 116.035 41.6777 115.9C42.5201 115.765 42.9919 115.63 42.9919 115.63C42.9919 115.63 42.6212 115.967 41.8125 116.372C41.0374 116.81 39.7568 117.315 38.0494 117.416C36.342 117.517 34.219 117.113 32.2195 115.799C30.2426 114.485 28.5015 112.249 27.951 109.486H27.9398Z" fill="#181415"/>
<path fill-rule="evenodd" clip-rule="evenodd" d="M36.3661 117.181C36.3661 117.181 33.6252 122.651 40.8929 124.482C48.1718 126.268 49.2053 118.158 49.2053 118.158C49.2053 118.158 45.7568 123.594 41.8028 122.55C37.8713 121.505 36.3661 117.181 36.3661 117.181Z" fill="#FFDA24"/>
<path d="M49.2099 118.157C49.2099 118.157 49.1538 118.562 48.9516 119.202C48.7494 119.876 48.3562 120.82 47.5811 121.707C46.8398 122.583 45.694 123.392 44.3011 123.729C42.9195 124.066 41.2907 123.931 39.9091 123.19C38.4937 122.448 37.4715 121.168 36.9997 119.809C36.6965 119 36.6066 118.157 36.6628 117.371C36.1573 117.304 35.6518 117.236 35.1126 117.102C34.8767 118.045 34.8093 119.202 35.0452 120.348C35.4159 122.235 36.7302 124.2 38.7633 125.279C40.7852 126.391 43.1554 126.357 44.9414 125.649C46.7274 124.942 47.9518 123.594 48.5921 122.37C49.2212 121.123 49.3335 120 49.3335 119.258C49.2998 118.517 49.1987 118.146 49.1987 118.146L49.2099 118.157Z" fill="#181415"/>
</svg>
