<svg width="469" height="381" viewBox="0 0 469 381" fill="none" xmlns="http://www.w3.org/2000/svg">
<path d="M298.864 19.8427C306.342 21.8105 313.032 24.7623 318.739 28.1077C324.445 31.453 328.971 35.3887 332.513 38.7341C336.055 42.2763 338.613 45.4248 340.187 47.5895C341.761 49.7541 342.549 51.1316 342.549 51.1316C342.549 51.1316 341.565 49.9509 339.794 47.983C337.826 46.0152 335.071 43.2602 331.332 40.1116C327.594 37.1598 322.871 33.8145 317.164 30.8627C311.655 27.9109 305.161 25.1559 298.077 23.3848C290.993 21.6137 284.106 20.8266 277.613 20.6298C271.316 20.6298 265.609 21.2202 260.69 22.0073C255.77 22.7945 252.228 23.9752 249.474 24.7623C246.916 25.5495 245.538 26.1398 245.538 26.1398C245.538 26.1398 246.916 25.3527 249.277 24.172C251.835 22.9912 255.377 21.417 260.296 20.0395C265.019 18.662 270.922 17.678 277.416 17.2845C284.106 17.0877 291.387 17.678 298.668 19.4491L298.864 19.8427Z" fill="#181415"/>
<path d="M15.1137 282.158C10.1943 276.648 6.84909 270.548 5.0781 266.219C3.30712 261.692 2.7168 258.741 2.7168 258.741C2.7168 258.741 8.4233 269.367 17.8685 279.797C27.3138 290.423 37.3493 296.917 37.1526 297.114C37.1526 297.114 34.2009 296.327 30.0686 293.965C25.7396 291.801 20.2298 287.865 15.1137 282.355V282.158Z" fill="#181415"/>
<path d="M21.6073 270.154C17.0815 264.251 14.5234 257.954 13.146 253.231C11.9653 248.508 11.7686 245.556 11.7686 245.556C11.7686 245.556 15.7041 256.97 24.3622 267.99C32.8236 279.207 43.0559 285.7 42.8591 285.7C42.8591 285.7 40.1043 284.913 35.7752 282.552C31.6429 280.19 25.9364 276.058 21.4106 270.154H21.6073Z" fill="#181415"/>
<path d="M468.092 209.151C467.501 216.629 465.927 223.319 464.353 227.845C462.779 232.568 461.401 235.127 461.401 235.127C461.401 235.127 463.566 223.319 464.353 208.757C465.337 194.392 464.943 182.191 464.943 182.191C464.943 182.191 465.927 185.143 466.911 189.866C467.895 194.785 468.485 201.476 468.092 208.954V209.151Z" fill="#181415"/>
<path d="M450.185 206.396C449.791 213.283 448.611 219.777 447.037 225.484C445.462 231.191 443.495 236.11 441.33 240.243C437.395 248.311 433.853 252.64 433.853 252.64C433.853 252.64 436.607 247.721 439.559 239.652C442.707 231.387 445.659 219.58 446.446 206.396C447.233 193.211 445.462 181.207 443.298 172.745C441.133 164.283 438.969 159.167 438.969 159.167C438.969 159.167 441.92 163.89 445.069 172.155C446.643 176.287 448.02 181.404 449.201 187.307C450.185 193.211 450.775 199.705 450.185 206.592V206.396Z" fill="#181415"/>
<path d="M411.814 336.471C406.698 341.588 400.991 344.933 396.662 346.704C392.333 348.475 389.578 349.065 389.578 349.065C389.578 349.065 399.614 343.555 409.256 333.716C418.898 324.27 424.407 314.038 424.407 314.038C424.407 314.038 423.817 316.793 422.046 321.122C420.275 325.451 416.93 331.158 411.814 336.274V336.471Z" fill="#181415"/>
<path d="M317.164 378.977C310.474 380.945 304.177 380.748 299.651 380.158C295.125 379.371 292.567 378.387 292.567 378.387C292.567 378.387 303.587 379.174 315.984 375.435C328.381 371.893 337.432 365.202 337.432 365.399C337.432 365.399 335.858 367.563 332.513 370.515C329.168 373.467 323.855 377.009 317.164 378.977Z" fill="#181415"/>
<path d="M79.8534 10.9874C87.3309 5.28058 95.3987 2.52558 101.499 1.34486C107.402 0.164147 111.141 0.360932 111.141 0.360932C111.141 0.360932 107.402 1.14807 101.892 3.11593C96.3825 5.08379 89.1018 8.62594 82.0179 13.9392C74.934 19.2524 69.621 25.3527 66.0791 30.0756C62.7339 34.7985 60.9629 38.1438 60.9629 38.1438C60.9629 38.1438 61.75 34.6017 64.5049 29.0917C67.2597 23.7784 72.1791 16.6942 79.6566 10.9874H79.8534Z" fill="#181415"/>
<path d="M89.1015 15.907C94.6112 12.3648 100.318 10.7906 104.253 10.2002C108.385 9.60985 110.944 9.80663 110.944 9.80663C110.944 9.80663 101.105 12.5616 91.0692 19.0556C80.8369 25.3527 74.1465 33.2241 74.1465 33.0274C74.1465 33.0274 75.1304 30.6659 77.4917 27.1238C79.853 23.7784 83.7885 19.2524 89.1015 15.907Z" fill="#181415"/>
<path d="M0.946081 147.557C1.53641 141.26 3.50416 135.946 5.27515 132.404C7.04613 128.862 8.81711 126.894 8.62034 126.894C8.62034 126.894 5.27515 136.143 4.48804 147.754C3.50416 159.364 5.27515 169.006 5.27515 169.006C5.27515 169.006 4.0945 166.842 2.71707 163.103C1.53641 159.364 0.355754 153.657 0.946081 147.557Z" fill="#181415"/>
<path d="M102.679 344.933C94.2181 342.768 87.331 338.439 83.0019 334.7C78.6728 330.961 76.7051 328.009 76.7051 328.009C76.7051 328.009 79.2632 330.174 83.9858 333.126C88.7084 336.077 95.3988 339.226 103.467 341.194C111.338 343.162 119.012 343.555 124.522 343.359C130.031 342.965 133.377 342.375 133.377 342.375C133.377 342.375 130.228 343.949 124.718 345.13C119.209 346.31 111.141 346.901 102.679 344.736V344.933Z" fill="#181415"/>
<path d="M14.7204 144.211C10.7849 164.874 22.3947 184.946 41.0884 192.621C23.7721 205.215 16.6882 228.632 25.1496 249.885C33.2174 269.958 52.5014 281.765 72.5725 280.781C68.4402 304.985 84.5759 328.206 108.779 332.732C127.079 336.078 144.986 327.813 154.628 313.25C158.564 316.596 163.089 319.548 168.206 321.909C171.354 323.286 174.699 324.467 177.848 325.254C188.867 339.423 205.396 349.853 225.074 353.395C240.619 356.347 255.574 354.575 268.955 349.065C274.661 357.724 283.713 364.218 294.929 366.383C315.984 370.318 336.055 356.937 340.778 336.274C345.501 338.833 350.617 340.604 355.93 341.588C384.265 346.901 411.421 328.206 416.733 299.869C419.882 283.339 414.569 267.006 404.14 255.395C414.766 244.769 422.44 230.994 425.392 215.054C430.705 186.52 419.488 158.774 398.433 141.653C404.73 135.356 409.256 127.091 411.027 117.645C415.75 92.6535 399.22 68.6456 374.23 64.1195C358.881 61.3645 344.123 66.2842 333.694 76.3203C326.217 58.4128 310.278 44.441 289.616 40.5052C264.035 35.7824 239.242 48.1799 227.042 69.6295C228.616 52.5092 216.809 36.5695 199.493 33.421C181.193 30.0756 163.483 42.2763 159.941 60.5774C159.941 60.7742 159.941 61.1678 159.941 61.3645C159.547 42.0795 145.773 25.156 126.096 21.417C103.663 17.2845 82.0178 32.0435 77.6887 54.6738C75.721 64.9067 77.6887 74.9428 82.8049 83.2078C82.0178 83.011 81.2307 82.8142 80.4436 82.6174C70.6048 80.8463 60.9628 87.3403 59.1918 97.1796C58.4047 101.312 59.1918 105.248 60.9628 108.79C39.1206 107.216 19.0495 122.171 14.9172 144.211H14.7204ZM219.761 87.9306C219.761 87.9306 220.351 87.1435 220.745 86.7499C220.745 87.1435 220.548 87.7338 220.351 88.1274C220.351 88.3242 220.351 88.521 220.351 88.9146L219.367 88.521C219.367 88.521 219.564 88.3242 219.761 88.1274V87.9306ZM159.547 70.4167H158.957C158.957 70.4167 158.957 70.0231 158.957 69.6295C158.957 69.0392 158.957 68.4488 159.154 67.8585C159.154 68.6456 159.154 69.4328 159.154 70.2199L159.547 70.4167Z" fill="white"/>
<path d="M290.601 34.7985C309.885 38.3406 326.217 50.1478 335.662 67.0713C347.075 59.0031 361.243 55.6578 375.214 58.216C403.353 63.5292 421.85 90.4889 416.734 118.629C415.16 126.894 411.814 134.569 406.698 141.063C426.966 160.151 436.411 188.291 431.295 216.038C428.54 230.797 422.047 244.375 412.011 255.592C421.653 268.58 425.589 284.716 422.637 300.853C416.734 332.339 386.43 353.198 355.143 347.294C351.601 346.704 348.059 345.523 344.517 344.343C336.646 364.218 315.788 376.222 294.142 372.089C283.517 370.122 274.071 364.611 267.184 356.15C253.607 360.873 238.848 361.857 224.287 359.102C204.609 355.363 187.096 345.326 174.7 330.371C171.748 329.584 168.796 328.403 166.041 327.222C162.499 325.648 159.154 323.68 155.809 321.515C144.199 335.29 125.899 341.784 107.796 338.439C82.8052 333.716 65.2922 311.283 66.2761 286.488C64.3083 286.488 62.5373 286.094 60.5696 285.7C42.0726 282.355 26.9209 269.761 19.837 252.05C11.7691 231.584 16.295 208.954 31.0532 193.998C14.524 183.372 5.47232 163.3 9.21106 143.424C13.3434 121.384 31.4467 105.248 53.2889 103.28C53.0921 100.919 53.2888 98.5571 53.4856 96.3924C55.4534 86.1596 63.718 78.4849 73.5568 77.1074C71.1955 69.6296 70.6051 61.7581 71.9826 53.8867C76.7052 28.3045 101.499 11.381 127.08 16.1038C142.625 19.0556 155.416 29.4852 161.712 43.2603C170.567 31.6499 185.325 25.156 200.674 28.1077C215.432 30.8627 226.845 41.4892 231.174 54.8706C246.129 38.7342 268.562 31.0595 290.797 35.192L290.601 34.7985Z" fill="#181415"/>
<path d="M14.7204 144.211C10.7849 164.874 22.3947 184.946 41.0884 192.621C23.7721 205.215 16.6882 228.632 25.1496 249.885C33.2174 269.958 52.5014 281.765 72.5725 280.781C68.4402 304.985 84.5759 328.206 108.779 332.732C127.079 336.078 144.986 327.813 154.628 313.25C158.564 316.596 163.089 319.548 168.206 321.909C171.354 323.286 174.699 324.467 177.848 325.254C188.867 339.423 205.396 349.853 225.074 353.395C240.619 356.347 255.574 354.575 268.955 349.065C274.661 357.724 283.713 364.218 294.929 366.383C315.984 370.318 336.055 356.937 340.778 336.274C345.501 338.833 350.617 340.604 355.93 341.588C384.265 346.901 411.421 328.206 416.733 299.869C419.882 283.339 414.569 267.006 404.14 255.395C414.766 244.769 422.44 230.994 425.392 215.054C430.705 186.52 419.488 158.774 398.433 141.653C404.73 135.356 409.256 127.091 411.027 117.645C415.75 92.6535 399.22 68.6456 374.23 64.1195C358.881 61.3645 344.123 66.2842 333.694 76.3203C326.217 58.4128 310.278 44.441 289.616 40.5052C264.035 35.7824 239.242 48.1799 227.042 69.6295C228.616 52.5092 216.809 36.5695 199.493 33.421C181.193 30.0756 163.483 42.2763 159.941 60.5774C159.941 60.7742 159.941 61.1678 159.941 61.3645C159.547 42.0795 145.773 25.156 126.096 21.417C103.663 17.2845 82.0178 32.0435 77.6887 54.6738C75.721 64.9067 77.6887 74.9428 82.8049 83.2078C82.0178 83.011 81.2307 82.8142 80.4436 82.6174C70.6048 80.8463 60.9628 87.3403 59.1918 97.1796C58.4047 101.312 59.1918 105.248 60.9628 108.79C39.1206 107.216 19.0495 122.171 14.9172 144.211H14.7204Z" fill="white"/>
<path d="M293.748 37.5534C301.619 39.5212 309.097 43.0634 315.197 47.5895C321.494 52.1155 326.413 57.6255 330.152 63.5291C333.89 69.4327 336.448 75.7298 338.023 81.6334C339.597 87.537 339.99 93.4406 339.794 98.557C339.4 108.987 336.252 117.055 333.89 121.975C331.332 127.091 329.365 129.452 329.365 129.452C329.365 129.452 330.939 126.697 332.71 121.384C334.481 116.071 336.448 108.2 336.055 98.3602C335.858 93.4406 334.874 88.1273 333.103 82.8141C331.332 77.5009 328.577 71.9909 324.839 66.8745C321.1 61.758 316.377 57.0352 310.868 53.0995C305.358 49.1638 298.864 46.212 291.78 44.4409C284.696 42.6698 277.612 42.2762 270.922 43.2602C264.232 44.0473 257.738 46.0152 252.228 48.7702C246.522 51.5252 241.603 55.0673 237.667 59.003C233.535 62.9388 230.386 67.2681 227.828 71.4006C222.909 79.8623 220.941 87.7338 219.957 93.2438C219.17 98.7538 219.367 101.902 219.17 101.902C219.17 101.902 218.58 98.7538 218.776 93.047C218.776 87.3402 219.957 78.8784 224.286 69.4327C226.451 64.7098 229.599 59.7902 233.731 55.2641C237.864 50.738 242.98 46.4087 249.08 42.8666C255.18 39.5212 262.264 36.963 269.938 35.7823C277.612 34.6016 285.68 34.9952 293.551 36.963L293.748 37.5534Z" fill="#181415"/>
<path d="M23.3783 254.805C20.6235 248.901 18.8525 242.801 18.4589 236.701C17.8686 230.6 18.4589 224.697 20.0331 219.384C21.4106 214.07 23.7719 209.151 26.33 205.215C29.0848 201.083 32.0365 197.737 35.1849 194.982C41.4817 189.669 47.7785 187.307 51.9108 185.93C56.2399 184.749 58.6012 184.552 58.6012 184.552C58.6012 184.552 56.2399 185.143 52.3044 187.111C48.3689 188.882 42.8591 192.227 37.743 197.737C32.6268 203.247 27.9042 211.315 26.1332 220.761C24.1654 230.207 25.3461 241.227 30.2655 251.263C35.1849 261.299 43.2527 268.974 51.9108 273.303C60.5689 277.632 69.8174 278.813 77.2949 278.223C84.7724 277.435 90.6757 275.074 94.6112 273.106C98.5467 271.138 100.318 269.564 100.318 269.564C100.318 269.564 98.7435 271.335 95.2015 274.09C91.6595 276.648 85.953 280.19 77.8852 281.961C73.9497 282.749 69.2271 283.339 64.5045 282.945C59.5851 282.552 54.4689 281.371 49.3527 279.206C44.2366 277.042 39.1204 273.893 34.7913 269.761C30.2655 265.628 26.5267 260.512 23.5751 254.805H23.3783Z" fill="#181415"/>
<path d="M229.206 61.9548C229.206 60.9709 229.206 59.7901 228.812 58.8062C228.222 54.8705 226.844 50.9348 224.68 46.9991C222.515 43.0633 219.367 39.5212 215.431 36.3726C211.496 33.4208 206.773 31.0594 201.657 29.8787C196.541 28.698 191.228 28.698 186.309 29.8787C181.389 30.8626 177.06 32.8305 173.321 35.5855C169.583 38.1437 166.631 41.2923 164.466 44.6376C162.302 47.7862 160.728 51.3284 159.744 54.4769C157.973 60.7741 158.17 66.0873 158.957 69.6294C159.547 73.1716 160.334 74.9427 160.334 74.9427C160.334 74.9427 159.941 72.9748 160.137 69.6294C160.137 66.2841 160.924 61.1676 163.483 55.8544C165.844 50.5412 170.37 45.0312 176.863 41.2923C183.357 37.5533 191.621 35.9791 199.886 37.7501C208.151 39.5212 215.038 44.6376 219.17 50.738C223.302 56.8384 225.073 63.5291 225.073 69.4327C226.254 67.0712 227.631 64.7098 229.206 62.3484V61.9548Z" fill="#181415"/>
<path d="M159.744 54.2804C159.744 54.2804 159.744 53.4932 160.138 53.2964C160.138 53.2964 160.138 53.0997 160.138 52.9029C159.547 49.3607 158.367 45.2282 156.399 41.0957C154.431 36.9632 151.479 32.6339 147.347 28.895C143.412 24.9593 138.295 21.8107 132.195 19.6461C126.292 17.4814 119.602 16.4975 112.715 17.2846C105.827 18.0718 98.9402 20.63 92.8402 24.7625C86.7401 28.895 82.0175 34.6018 78.6723 40.7021C75.5239 46.8025 73.9497 53.4932 73.7529 59.7904C73.7529 66.0875 74.9336 71.9911 76.9013 77.1075C79.0659 82.224 81.8207 86.5532 85.1659 89.8986C88.3143 93.244 91.6595 95.8022 94.8079 97.5732C97.9564 99.3443 100.908 100.525 103.269 101.312C108.189 102.69 110.944 102.69 110.944 102.886C110.944 102.886 108.189 102.296 103.86 100.328C99.5306 98.3604 93.4305 94.4247 88.3143 87.5372C85.7563 84.1918 83.5917 80.0593 82.0175 75.3364C80.6401 70.8104 79.853 65.4972 80.4433 60.1839C80.8369 54.8707 82.4111 49.3607 85.3627 44.2443C88.1176 39.1279 92.2499 34.6018 97.366 31.0596C102.482 27.5175 108.189 25.3528 113.895 24.5657C119.602 23.7786 125.308 24.1721 130.621 25.7464C135.737 27.3207 140.46 29.6821 144.199 32.8307C148.134 35.7825 151.086 39.3246 153.25 43.0636C156.792 48.5736 158.367 54.0836 159.154 58.6097C159.35 57.2322 159.744 55.8547 160.138 54.4771L159.744 54.2804Z" fill="#181415"/>
<path d="M56.0435 105.838C58.0112 105.838 59.7822 105.838 61.5532 106.232C62.1435 106.232 62.7338 106.232 63.3242 106.429C61.9467 102.69 62.1435 97.9668 64.1113 94.031C66.079 89.8985 69.8178 87.1435 73.5565 85.766C76.1146 84.9789 78.8695 84.7821 81.2308 85.1757C80.0501 83.4046 78.8695 81.4367 77.8856 79.4689C76.1146 79.2721 74.1468 79.2721 72.1791 79.4689C69.2274 79.8625 66.2758 81.0432 63.7177 83.011C61.1596 84.7821 58.7983 87.5371 57.2241 90.4889C55.6499 93.6375 55.0596 96.9828 55.0596 100.131C55.0596 102.099 55.4531 103.87 56.0435 105.641V105.838Z" fill="#181415"/>
<path d="M37.35 193.408C38.9242 192.227 40.3017 191.243 41.8759 190.456C39.5146 189.275 37.1532 187.898 34.9887 186.323C30.8564 183.175 27.1177 179.239 23.9693 174.32C21.0176 169.4 18.8531 163.693 18.2628 157.593C17.4757 151.492 18.2628 144.998 20.2305 138.898C22.3951 132.798 25.937 127.288 30.2661 123.155C34.5952 118.826 39.9081 115.677 45.221 113.71C50.534 111.742 56.0437 110.955 61.1599 111.348C66.2761 111.742 70.9987 112.726 75.131 114.3C83.3956 117.645 89.1021 122.762 92.2505 126.697C95.5957 130.633 96.7763 133.191 96.7763 133.191C96.7763 133.191 95.9892 130.436 93.0376 125.91C91.6601 123.746 89.6924 120.991 86.9375 118.432C84.1827 115.874 80.8375 112.922 76.5084 110.758C72.1793 108.396 67.0632 106.625 61.3567 106.035C55.6502 105.248 49.1566 105.641 42.8597 107.609C36.5629 109.577 30.2661 112.922 24.9531 117.842C19.6402 122.762 15.3111 129.059 12.753 136.537C10.195 143.818 9.60463 151.492 10.5885 158.577C11.7692 165.858 14.524 172.352 18.2628 177.665C22.0015 183.175 26.7241 187.307 31.6435 190.456C33.4145 191.637 35.1855 192.424 36.9565 193.211L37.35 193.408Z" fill="#181415"/>
<path d="M150.496 314.234C148.135 317.186 144.986 319.744 141.641 322.106C137.509 325.057 132.589 327.222 127.08 328.403C121.767 329.584 116.06 329.977 110.354 328.993C104.647 328.009 99.1374 326.041 94.6116 323.09C90.0857 320.138 85.9534 316.596 82.805 312.463C79.6566 308.331 77.4921 304.001 75.9179 299.672C74.5404 295.343 73.7533 291.014 73.7533 287.078C73.7533 285.504 73.7533 284.126 73.7533 282.749C72.5727 282.749 71.5888 282.945 70.4081 283.142C70.2114 284.323 70.0146 285.7 69.8178 287.078C69.4243 291.407 69.8178 296.13 70.8017 301.246C71.9823 306.363 74.1469 311.479 77.2953 316.399C80.6405 321.319 84.9696 325.845 90.2825 329.387C95.5955 332.929 102.089 335.487 108.779 336.668C115.47 337.849 122.357 337.455 128.654 335.684C134.951 333.913 140.46 330.961 145.183 327.419C148.922 324.664 151.873 321.319 154.235 317.973C152.857 316.793 151.48 315.612 150.102 314.234H150.496Z" fill="#181415"/>
<path d="M313.032 285.307C312.442 279.01 311.458 275.468 311.458 275.468C311.458 275.468 312.048 279.01 311.852 285.307C311.852 291.604 310.474 300.656 305.948 310.692C303.587 315.612 300.438 320.925 296.306 325.648C292.174 330.568 287.058 335.094 280.958 339.029C275.054 342.965 268.167 346.114 260.69 348.081C253.212 350.049 245.144 351.033 236.88 350.837C228.615 350.443 220.744 348.869 213.267 346.31C205.986 343.752 199.296 340.21 193.392 336.078C190.834 334.11 188.276 332.142 186.112 329.977C183.16 329.977 180.208 329.387 177.257 328.796C180.799 333.126 184.734 337.455 189.654 341.194C195.754 346.114 202.838 350.246 210.905 353.198C218.777 356.15 227.631 358.118 236.683 358.314C245.735 358.708 254.59 357.527 262.854 354.969C270.922 352.608 278.4 348.672 284.893 344.146C291.19 339.62 296.503 334.306 300.635 328.796C304.768 323.286 307.719 317.383 309.687 312.07C313.622 301.05 313.819 291.407 313.229 285.11L313.032 285.307Z" fill="#181415"/>
<path d="M338.416 336.668C336.842 341.391 334.087 346.31 330.152 350.64C325.232 355.953 318.345 360.282 310.278 362.25C302.21 364.218 294.142 363.234 287.255 360.676C281.351 358.511 276.629 354.969 273.087 351.23C271.709 351.82 270.529 352.411 269.151 353.001C272.497 357.921 277.416 363.037 284.5 366.579C288.239 368.547 292.568 369.925 297.29 370.515C302.013 371.106 306.932 370.909 311.852 369.728C321.691 367.563 329.758 361.66 334.874 354.772C338.81 349.656 340.975 344.146 342.155 339.029C340.778 338.242 339.4 337.455 338.22 336.668H338.416Z" fill="#181415"/>
<path d="M420.865 291.604C420.865 285.701 419.882 279.994 418.111 275.074C416.34 270.154 414.175 265.825 411.617 262.086C410.043 259.922 408.469 257.954 407.091 256.379C406.304 257.167 405.714 257.757 404.927 258.347C406.107 260.118 407.288 261.889 408.469 264.054C412.404 271.335 415.159 280.781 414.372 291.407C413.978 296.721 412.994 302.034 410.83 307.347C408.665 312.66 405.714 317.777 401.778 322.106C393.907 331.158 383.085 336.668 372.655 338.439C362.226 340.407 352.387 338.833 344.713 335.881C337.039 332.929 331.529 328.797 327.987 325.648C324.445 322.499 322.871 320.335 322.871 320.335C322.871 320.335 324.052 322.696 327.2 326.435C330.152 330.174 335.268 335.291 343.139 339.226C347.075 341.194 351.6 342.965 356.717 343.949C361.833 344.933 367.539 345.327 373.442 344.736C379.346 343.949 385.446 342.375 391.349 339.226C397.252 336.274 402.762 332.142 407.288 326.829C412.011 321.712 415.356 315.612 417.52 309.512C419.685 303.411 420.669 297.114 420.669 291.21L420.865 291.604Z" fill="#181415"/>
<path d="M373.246 67.0714C378.166 68.0554 383.282 70.0232 387.808 73.1718C392.53 76.1236 396.663 80.0593 400.008 84.7821C403.353 89.505 405.714 94.8182 406.895 100.131C408.272 105.445 408.469 110.955 407.682 115.874C407.092 120.991 405.518 125.714 403.55 129.846C401.976 132.995 400.205 135.946 398.237 138.505C399.024 139.095 400.008 139.685 400.795 140.473C400.992 140.473 401.188 140.866 401.582 141.063C403.943 138.701 406.305 135.75 408.272 132.404C411.027 127.878 412.995 122.762 414.176 116.858C415.356 111.151 415.356 104.854 414.176 98.5572C412.995 92.26 410.24 85.9629 406.305 80.2561C402.369 74.5493 397.253 70.0232 391.743 66.8746C386.234 63.5293 380.133 61.5614 374.427 60.7743C368.72 59.9871 363.014 60.1839 357.898 61.1678C352.782 62.1518 348.453 64.1196 344.517 66.0875C340.778 68.2521 337.827 70.6136 335.269 72.975C335.662 73.7621 335.859 74.5493 336.252 75.3364C339.007 73.3686 342.353 71.2039 346.288 69.6296C353.569 66.4811 363.211 64.9068 373.246 67.0714Z" fill="#181415"/>
<path d="M430.508 199.902C430.508 208.364 429.327 216.629 426.966 224.303C424.604 231.978 421.062 238.865 416.93 244.966C408.469 256.97 397.646 265.038 388.004 269.958C378.165 274.877 369.507 276.451 363.604 277.239C357.701 277.829 354.355 277.632 354.355 277.632C354.355 277.632 357.701 277.435 363.407 276.058C369.114 274.68 377.378 272.122 386.233 266.612C395.088 261.299 404.533 253.034 411.617 241.424C415.159 235.717 418.111 229.223 420.079 222.335C422.046 215.251 423.227 207.773 423.03 200.099C423.03 184.553 417.717 170.187 410.24 158.97C402.762 147.754 393.12 139.685 384.069 134.569C375.017 129.452 366.752 127.091 361.046 125.91C355.339 124.73 351.994 124.533 351.994 124.533C351.994 124.533 355.339 124.139 361.243 124.533C367.146 125.123 376.001 126.501 385.84 131.027C390.759 133.388 396.072 136.34 401.188 140.276C406.304 144.211 411.224 149.131 415.553 155.035C419.882 160.938 423.621 167.629 426.375 175.304C428.934 182.781 430.508 191.046 430.704 199.705L430.508 199.902Z" fill="#181415"/>
<path d="M166.631 325.254C156.596 320.728 148.331 313.447 143.215 305.379C137.902 297.311 135.738 288.849 135.541 281.765C135.147 274.68 136.722 268.974 138.099 265.431C139.476 261.889 140.657 260.118 140.657 260.118C140.657 260.118 139.87 262.086 139.28 265.825C138.493 269.564 138.099 274.877 139.28 281.371C140.46 287.668 143.412 295.146 148.528 301.64C153.644 308.331 160.925 314.234 169.78 318.17C178.635 322.106 187.883 323.68 196.345 322.893C204.806 322.302 212.087 319.547 217.596 316.202C223.106 312.857 226.845 308.724 229.206 305.772C231.568 302.821 232.355 300.853 232.551 300.853C232.551 300.853 231.961 302.821 230.19 306.363C228.419 309.708 225.271 314.628 219.761 319.154C214.251 323.68 206.38 327.616 196.935 329.19C187.49 330.764 176.667 329.584 166.631 325.057V325.254Z" fill="#181415"/>
</svg>
