<svg width="146" height="153" viewBox="0 0 146 153" fill="none" xmlns="http://www.w3.org/2000/svg">
<path d="M135.384 128.337C135.384 128.337 133.148 161.788 117.141 150.398C115.962 149.556 102.145 139.884 87.3966 129.551C69.7048 117.184 50.6875 103.907 50.6875 103.907L72.8725 73.5228L110.828 68.7041L124.364 101.57L135.395 128.326L135.384 128.337Z" fill="#DD5E00"/>
<path d="M124.232 98.0546C131.006 114.544 135.387 128.326 135.387 128.326C135.387 128.326 128.782 115.454 121.986 98.9981C115.212 82.5088 110.82 68.7041 110.82 68.7041C110.82 68.7041 117.448 81.599 124.232 98.0546Z" fill="#181415"/>
<path d="M83.2214 128.124C64.8781 115.285 50.6797 103.896 50.6797 103.896C50.6797 103.896 66.2597 113.286 84.6031 126.125C102.969 138.963 117.145 150.353 117.145 150.387C117.145 150.353 101.587 140.963 83.2214 128.124Z" fill="#181415"/>
<path d="M119.231 101.166C113.12 85.7658 111.188 71.7588 110.874 69.1417L110.144 68.7822L95.26 70.6693L72.6257 81.3514L61.4602 92.9883L53.5859 104.883C58.5509 106.636 69.3345 110.825 80.6685 117.52C80.6685 117.52 69.9073 107.186 71.7832 105.018C73.6591 102.783 86.7005 112.151 86.7005 112.151C86.7005 112.151 75.58 96.9421 77.7255 94.28C79.8709 91.573 104.954 114.858 104.954 114.858C104.954 114.858 85.1392 84.6088 90.34 81.3065C93.6537 79.2172 109.29 101.379 109.29 101.379C109.29 101.379 99.2702 79.9473 102.224 79.0712C105.167 78.2063 119.759 102.525 119.759 102.525C119.59 102.087 119.388 101.649 119.22 101.177L119.231 101.166Z" fill="#181415"/>
<path d="M69.4701 108.4C68.257 106.209 65.9879 104.682 63.3257 104.547C61.5172 104.479 59.8323 105.052 58.4956 106.063C58.3271 105.693 58.1586 105.288 57.9676 104.951C56.2939 101.84 53.115 99.6832 49.3632 99.5484C46.2854 99.3799 43.4323 100.627 41.4553 102.727C39.804 104.446 38.7369 106.748 38.6133 109.354C38.3437 115.027 42.7358 119.834 48.4084 120.104C51.8232 120.239 54.9123 118.722 56.8893 116.251C58.1698 118.071 60.2367 119.295 62.6293 119.396C66.7181 119.598 70.2003 116.42 70.3688 112.331C70.4362 110.916 70.0992 109.557 69.4589 108.411L69.4701 108.4Z" fill="#FF9A00"/>
<path d="M129.48 39.6119C129.851 31.7042 123.841 25.0097 115.978 24.4705C116.911 20.3032 114.675 15.7541 110.373 13.6761C107.25 12.1709 103.746 12.3394 101.05 13.8333C99.0617 7.06012 92.9622 1.96057 85.5036 1.60113C80.0107 1.34278 75.012 3.72407 71.7208 7.63298C69.8112 4.92595 66.7221 3.09505 63.1613 2.92656C57.0843 2.64575 51.9284 7.296 51.5352 13.3391C49.1651 11.8564 46.3793 10.9241 43.3914 10.7893C36.6966 10.4748 30.7544 14.0804 27.7776 19.5731C26.5982 21.7522 25.8681 24.2121 25.7557 26.8518C25.6883 28.0424 25.7782 29.2218 25.9579 30.3563C24.6774 30.0081 23.3519 29.7835 21.9927 29.7161C11.9954 29.2555 3.51457 36.9835 3.05402 46.9804C2.78443 52.8213 5.32306 58.1455 9.45677 61.6613C5.46909 63.4473 2.61593 67.3562 2.38004 72.0177C2.07675 78.6224 7.17649 84.2161 13.8039 84.5307C16.2078 84.643 18.488 84.0252 20.4313 82.8795C20.8357 85.1148 21.8804 87.1366 23.3743 88.7541C22.2623 90.4165 21.5546 92.3709 21.4423 94.5051C21.139 100.649 25.9018 105.861 32.0349 106.164C34.2478 106.232 36.3371 105.693 38.1344 104.648C40.1451 106.131 42.5602 107.052 45.1662 107.187C49.1202 107.389 52.7709 105.704 55.4331 102.828C56.9158 104.48 59.0164 105.423 61.2405 105.154C63.4758 104.884 65.2731 103.469 66.3065 101.436C66.9468 101.705 67.6545 101.907 68.4071 101.941C71.7994 102.076 74.6975 99.4699 74.8323 96.0664C74.8997 94.8196 74.5739 93.629 73.9898 92.6181C74.8885 92.2137 75.6972 91.6408 76.3824 90.9669C78.0224 92.5844 80.2353 93.6065 82.7066 93.7413C88.0759 93.9772 92.6028 89.8549 92.8611 84.497C92.951 82.8233 92.5691 81.2171 91.8951 79.8018C91.7266 79.4648 91.5244 79.1278 91.3222 78.8133L91.3896 78.7347C93.6587 80.1837 96.5118 80.2174 98.5 78.5999C99.5672 77.735 100.207 76.5219 100.443 75.2077C102.196 77.0161 104.97 77.6451 107.408 76.5556C110.283 75.2751 111.699 72.0626 110.823 69.1084C115.585 69.0635 119.539 65.3343 119.764 60.5156C119.899 57.6738 118.697 55.079 116.709 53.3268C123.651 52.5293 129.177 46.8119 129.514 39.6231L129.48 39.6119Z" fill="#FF9A00"/>
<path d="M130.388 63.7388C130.702 56.7859 125.76 50.9001 119.334 50.608C112.92 50.316 107.461 55.7076 107.135 62.6605C106.967 65.9179 107.978 68.9507 109.741 71.2533C109.977 71.5454 110.213 71.815 110.449 72.0845C109 73.4998 108.056 75.4318 107.944 77.6109C107.843 80.1495 108.877 82.4634 110.595 84.0696C111.966 85.3501 113.785 86.1701 115.818 86.2487C120.379 86.4509 124.243 82.9351 124.468 78.3747C124.535 77.0268 124.266 75.7239 123.726 74.5669C127.478 72.6125 130.14 68.5575 130.388 63.75V63.7388Z" fill="#FF9A00"/>
<path d="M128.12 36.2534C128.188 34.737 128.019 33.2656 127.649 31.8615C126.042 29.0197 123.493 26.7507 120.415 25.5039C118.932 26.425 117.236 27.054 115.45 27.391C115.719 28.02 115.922 28.6715 116.056 29.3454C117.067 30.8955 117.64 32.7376 117.539 34.737C117.314 39.5558 113.349 43.2962 108.598 43.3299C109.496 46.2728 108.07 49.4853 105.183 50.777C102.734 51.8553 99.9933 51.2376 98.2185 49.4291C97.9938 50.7433 97.3535 51.9564 96.2752 52.8213C94.2757 54.4388 91.4226 54.4051 89.176 52.9561L89.0749 53.0348C89.2995 53.3605 89.4793 53.6862 89.6478 54.0344C90.3554 55.4497 90.6924 57.056 90.625 58.7409C90.3779 64.0875 85.8286 68.2211 80.493 67.974C78.0105 67.8617 75.7976 66.8058 74.1576 65.1996C73.4612 65.896 72.6524 66.4688 71.7425 66.8732C72.3491 67.8729 72.6749 69.0635 72.6187 70.3216C72.4502 73.7138 69.5746 76.331 66.1822 76.1849C65.4184 76.1512 64.7332 75.9715 64.0704 75.6907C63.0595 77.6789 61.2285 79.1278 59.0156 79.4087C56.8027 79.6782 54.691 78.7459 53.2195 77.0723C50.5348 79.9141 46.8841 81.6215 42.9301 81.4305C40.3128 81.307 37.909 80.3859 35.8871 78.892C34.1123 79.9366 32.0342 80.5094 29.8101 80.4084C24.7103 80.1612 20.5654 76.5107 19.487 71.7706C18.3525 69.9284 17.7459 67.7381 17.847 65.413C17.9369 63.5933 18.4536 61.8972 19.3185 60.4145C18.8805 59.5721 18.5435 58.6735 18.3188 57.7299C18.2177 57.5615 18.1391 57.393 18.0492 57.2245C16.1396 58.3253 13.9267 58.9094 11.5566 58.797C10.1749 58.7296 8.83823 58.4264 7.60261 57.9209C7.75987 58.0557 7.89467 58.2017 8.0407 58.3253C7.63631 58.5162 7.23193 58.7296 6.82754 58.9655C7.60261 59.954 8.44508 60.875 9.41111 61.6838C5.42343 63.4697 2.57027 67.3787 2.33438 72.0401C2.30068 73.1971 2.40178 74.3203 2.67137 75.3874C4.65959 78.7122 8.20919 81.0149 12.3878 81.2059C14.8029 81.3182 17.072 80.7004 19.0152 79.5547C19.2287 80.7678 19.6443 81.9247 20.2172 82.9918C20.2846 82.9581 20.3183 82.9357 20.3857 82.902C20.4194 83.0929 20.4531 83.2951 20.498 83.4861C20.9248 84.1825 21.4079 84.834 21.9695 85.4293C21.801 85.6539 21.6325 85.9123 21.4977 86.1706C21.992 87.1142 22.6098 87.9903 23.3175 88.7766C22.2054 90.439 21.4977 92.3934 21.3854 94.5276C21.3405 95.5722 21.4416 96.5495 21.655 97.5379C23.5084 100.548 26.7884 102.637 30.6076 102.806C32.843 102.907 34.921 102.334 36.6846 101.323C38.7065 102.806 41.1216 103.716 43.7276 103.828C47.6816 104.03 51.3323 102.345 54.017 99.5036C55.4885 101.155 57.6003 102.11 59.8132 101.84C62.0261 101.537 63.8458 100.121 64.868 98.122C65.5307 98.3916 66.2384 98.5601 66.9798 98.5938C70.3721 98.7623 73.2477 96.1226 73.4162 92.7529C73.4836 91.4724 73.1466 90.3154 72.5401 89.3045C73.4499 88.9001 74.2587 88.3273 74.9551 87.6196C76.5951 89.2371 78.808 90.2817 81.2905 90.3828C86.6261 90.6524 91.1867 86.5188 91.4226 81.1609C91.49 79.4761 91.153 77.881 90.4453 76.4658C90.2768 76.1063 90.0859 75.7918 89.8837 75.4661L89.9735 75.3874C92.2313 76.8476 95.0733 76.8926 97.0727 75.2639C98.1511 74.399 98.8026 73.1859 99.0272 71.8717C100.78 73.6801 103.543 74.3091 105.969 73.2196C108.856 71.939 110.271 68.7153 109.384 65.7724C114.147 65.7387 118.101 61.9871 118.325 57.1683C118.359 56.4719 118.325 55.798 118.191 55.1465C117.753 54.4837 117.247 53.8772 116.64 53.3493C116.977 53.3043 117.281 53.2594 117.618 53.192C117.079 51.9677 116.27 50.8781 115.292 50.002C122.223 49.1932 127.761 43.4759 128.098 36.2871L128.12 36.2534Z" fill="#C66C01"/>
<path d="M112.648 146.411C114.973 144.276 102.156 128.068 102.156 128.068C102.156 128.068 111.401 136.11 117.849 131.853C124.285 127.596 118.691 117.363 118.691 117.363C118.691 117.363 127.812 131.617 130.654 130.337C133.507 129.023 133.709 126.417 133.709 126.417L145.549 132.875C145.549 132.875 121.589 152.779 121.084 152.88C120.578 152.982 110.3 148.556 112.637 146.433L112.648 146.411Z" fill="#181415"/>
<path d="M130.384 63.7389C130.62 58.6618 128.036 54.1688 124.127 52.001C125.88 54.3149 126.868 57.3027 126.733 60.5264C126.497 65.334 123.824 69.4001 120.083 71.3433C120.623 72.5003 120.892 73.8033 120.825 75.1512C120.6 79.7115 116.736 83.2386 112.175 83.0251C111.131 82.9802 110.12 82.7331 109.188 82.3063C109.569 82.9465 110.052 83.5306 110.603 84.0585C111.973 85.339 113.793 86.159 115.826 86.2376C120.387 86.4398 124.251 82.924 124.475 78.3636C124.543 77.0157 124.273 75.7128 123.734 74.5558C127.486 72.6014 130.148 68.5464 130.395 63.7389H130.384Z" fill="#C66C01"/>
<path d="M22.9088 90.5954C20.8869 88.742 19.6625 86.2933 19.2468 84.0019C18.82 81.6992 19.157 79.5875 19.7411 78.0037C20.314 76.3975 21.1227 75.3079 21.6956 74.6227C22.3022 73.9263 22.7066 73.6343 22.7066 73.623C22.7515 73.623 21.5945 75.3978 21.2912 78.3744C21.1564 79.8459 21.2912 81.5869 21.8866 83.3392C22.4819 85.0802 23.5603 86.81 25.0767 88.2028C26.5932 89.6181 28.4241 90.528 30.2102 90.966C32.0187 91.4041 33.7598 91.3704 35.2088 91.1008C38.1518 90.5617 39.8031 89.2475 39.8031 89.3148C39.8031 89.2811 39.5335 89.7192 38.9269 90.3595C38.2866 91.0334 37.2757 91.9096 35.7143 92.6621C34.1978 93.3698 32.1198 93.8752 29.7833 93.6731C27.4693 93.4709 24.9195 92.4599 22.9088 90.5954Z" fill="#181415"/>
<path d="M62.8471 114.813C60.4657 114.746 58.3876 113.499 57.1183 111.702C55.1413 114.139 52.0298 115.689 48.6262 115.521C43.7399 115.285 39.8084 111.702 38.9996 107.04C38.7975 107.781 38.6627 108.523 38.629 109.343C38.3594 115.015 42.7514 119.823 48.4241 120.092C51.8389 120.227 54.9279 118.711 56.9049 116.239C58.1855 118.059 60.2523 119.283 62.6449 119.385C66.7337 119.587 70.2159 116.408 70.3844 112.319C70.4181 111.544 70.3395 110.769 70.1485 110.017C69.0364 112.993 66.1384 114.981 62.8471 114.813Z" fill="#C66C01"/>
<path d="M121.2 61.8854C120.728 64.8171 118.874 67.2433 116.763 68.5351C114.628 69.883 112.303 70.1526 110.551 69.9167C108.765 69.6808 107.496 68.9956 106.72 68.4564C105.945 67.8948 105.608 67.5017 105.586 67.5129C105.608 67.4905 106.058 67.7488 106.923 68.0071C107.799 68.2543 109.091 68.5014 110.585 68.3104C112.067 68.1532 113.775 67.5354 115.179 66.3335C116.594 65.1541 117.695 63.3794 118.032 61.3463C118.391 59.302 117.931 57.2801 116.987 55.6851C116.055 54.0788 114.651 52.9444 113.303 52.2929C111.955 51.6414 110.652 51.428 109.753 51.3831C108.843 51.3381 108.338 51.4167 108.338 51.4055C108.338 51.428 108.776 51.1584 109.686 50.8888C110.596 50.6417 112.034 50.4058 113.808 50.7765C115.561 51.1359 117.661 52.1581 119.211 54.1238C120.795 56.0558 121.716 58.965 121.2 61.8854Z" fill="#181415"/>
<path d="M108.021 78.015C106.471 78.7114 104.763 78.7226 103.393 78.2958C102.045 77.869 101.023 77.049 100.383 76.274C99.7423 75.4765 99.4727 74.7239 99.3379 74.2072C99.2031 73.6793 99.2031 73.3984 99.2031 73.4097C99.2031 73.376 99.9782 74.3644 101.416 75.0384C102.854 75.746 104.909 75.9145 106.718 75.0946C108.56 74.3083 109.807 72.6571 110.245 71.1295C110.706 69.6019 110.481 68.3775 110.515 68.3887C110.515 68.3887 110.717 68.5909 111.02 69.0402C111.312 69.4783 111.694 70.1972 111.851 71.2081C112.009 72.2078 111.941 73.5108 111.323 74.8025C110.751 76.1055 109.571 77.3747 108.01 78.0487L108.021 78.015Z" fill="#181415"/>
<path d="M100.585 78.7456C99.338 80.3294 97.406 81.1269 95.766 81.1269C94.1147 81.1606 92.7556 80.5652 91.8345 79.9138C90.9246 79.251 90.3854 78.5322 90.0597 78.0267C89.7564 77.4988 89.6553 77.1955 89.6328 77.1955C89.6328 77.1618 90.7112 78.0604 92.5197 78.4648C93.4183 78.6557 94.463 78.7006 95.4627 78.4423C96.4624 78.184 97.3723 77.6111 98.0463 76.7574C98.6865 75.915 99.0572 74.8479 99.1471 73.7808C99.2369 72.7137 99.0348 71.6691 98.7202 70.8042C98.08 69.0632 97.0802 68.0859 97.1139 68.0859C97.0802 68.1196 98.4843 68.2769 100.068 69.9393C100.843 70.7593 101.585 71.9949 101.854 73.6011C102.124 75.1624 101.821 77.1618 100.574 78.7456H100.585Z" fill="#181415"/>
<path d="M77.0013 92.5508C75.7881 93.6628 74.2492 94.2693 72.8675 94.4041C71.4634 94.6063 70.2166 94.3367 69.3067 93.966C67.4196 93.191 66.7568 92.1127 66.7344 92.1801C66.7344 92.1127 67.9138 92.4834 69.5763 92.3823C71.25 92.2812 73.2719 91.6072 74.8782 90.147C76.5295 88.7205 77.4843 86.7773 77.7876 85.1485C78.1021 83.5198 77.8886 82.2955 77.9223 82.3067C77.8662 82.3067 78.8659 83.1042 79.3939 85.0811C79.6522 86.0471 79.7309 87.3164 79.3939 88.6755C79.0569 90.0234 78.2593 91.4724 77.0125 92.5508H77.0013Z" fill="#181415"/>
<path d="M93.6257 84.0696C93.4347 82.5869 92.9517 81.4974 92.5473 80.8122C92.1429 80.1158 91.8509 79.8013 91.8733 79.79C91.8059 79.79 92.435 81.5311 92.0418 84.0696C91.8396 85.3277 91.3454 86.7205 90.4917 88.0347C89.6155 89.3152 88.3462 90.5058 86.7961 91.2809C85.2572 92.0559 83.5722 92.3929 81.9996 92.3255C80.5281 92.2581 79.2139 91.8537 78.1355 91.3146C77.8097 91.7863 77.4615 92.1907 77.0234 92.5614V92.5951C78.0681 93.606 79.6407 94.5832 81.6402 95.0325C83.6509 95.4369 86.0884 95.2684 88.2676 94.1564C90.4468 93.0781 92.0531 91.2135 92.8843 89.3264C93.7492 87.4394 93.884 85.5635 93.6594 84.0921L93.6257 84.0696Z" fill="#181415"/>
<path d="M75.346 93.8642C74.3687 92.0445 73.1781 91.6289 73.223 91.6289C73.1893 91.6289 73.7622 92.7072 73.8183 94.2685C73.8633 95.886 73.223 97.7843 71.7739 99.1322C70.6619 100.143 69.2353 100.682 67.9098 100.783C67.82 101.188 67.6852 101.592 67.5167 102.03C67.4268 102.266 67.3145 102.502 67.1797 102.772C67.8874 103.041 68.7523 103.243 69.7183 103.21C71.1224 103.176 72.7287 102.603 73.9419 101.457C75.1887 100.345 75.8852 98.784 76.02 97.3687C76.1772 95.9534 75.8403 94.7291 75.3572 93.8529L75.346 93.8642Z" fill="#181415"/>
<path d="M48.2607 108.568C45.1043 109.141 41.9478 108.467 39.5889 107.119C37.1963 105.805 35.5676 103.94 34.5566 102.256C33.5232 100.571 33.0739 99.0768 32.8155 98.0659C32.5684 96.9876 32.5234 96.4484 32.5234 96.4484C32.5234 96.4484 32.7593 96.9539 33.2648 97.8637C33.7928 98.7398 34.6015 100.032 35.8371 101.312C37.0503 102.559 38.7128 103.884 40.7684 104.693C42.7903 105.535 45.2279 105.872 47.6654 105.434C50.1142 104.963 52.2934 103.817 53.9895 102.357C55.7082 100.908 56.9662 99.1779 57.8087 97.6278C59.5161 94.4827 59.7969 92.0565 59.8531 92.0902C59.8306 92.0902 59.943 92.663 59.9542 93.7414C59.9542 94.786 59.8643 96.381 59.2915 98.2344C58.7523 100.099 57.7076 102.323 55.8767 104.277C54.0906 106.277 51.4172 107.995 48.2607 108.568Z" fill="#181415"/>
<path d="M67.9421 97.38C67.7062 96.1332 67.212 95.2122 66.8301 94.6393C66.4594 94.0665 66.1898 93.7969 66.1898 93.7969C66.1561 93.7969 66.6616 95.2796 66.3583 97.4474C66.1898 98.5258 65.7966 99.7501 65.089 100.828C64.3813 101.873 63.3479 102.828 62.1123 103.266C60.8766 103.771 59.5287 103.771 58.3492 103.401C57.9111 103.232 57.4843 103.03 57.1024 102.794C56.7317 103.3 56.3385 103.805 55.8892 104.277C55.8106 104.412 55.687 104.479 55.5859 104.614C56.0577 105.052 56.5969 105.49 57.2259 105.827C58.8322 106.77 61.1575 107.107 63.2917 106.299C65.4147 105.456 66.8525 103.726 67.5153 102.042C68.2117 100.323 68.223 98.6605 67.9534 97.38H67.9421Z" fill="#181415"/>
<path d="M31.8997 104.782C29.9114 104.512 27.8783 103.636 26.1934 102.109C24.5197 100.626 23.4188 98.694 22.9133 96.7732C22.4191 94.8188 22.509 92.9205 22.8796 91.3704C22.947 91.1345 23.0144 90.9324 23.0818 90.7302C23.0144 90.6965 22.9695 90.6291 22.9133 90.5954C22.5876 90.2921 22.3068 90.0225 22.0372 89.6855C21.8013 90.0225 21.5991 90.3595 21.3969 90.7639C20.5544 92.415 19.9479 94.684 20.2511 97.2562C20.5432 99.7611 21.8013 102.524 24.0703 104.557C26.3057 106.546 29.1925 107.5 31.7424 107.5C34.1238 107.534 36.2019 106.793 37.7071 105.849C37.1791 105.445 36.7074 104.973 36.303 104.535C34.9887 104.872 33.4835 105.04 31.9109 104.804L31.8997 104.782Z" fill="#181415"/>
<path d="M19.0918 82.834C18.6537 82.9912 18.1931 83.126 17.7101 83.2159C15.6882 83.6539 13.1495 83.5753 10.7457 82.5531C8.34186 81.5534 6.11774 79.5541 4.90459 76.8695C3.69143 74.2186 3.62404 71.2083 4.43281 68.7484C5.20788 66.2548 6.83665 64.3003 8.48789 63.0535C8.81364 62.7952 9.15063 62.5705 9.48761 62.3683C9.06076 62.0763 8.64515 61.773 8.2183 61.4248C8.0161 61.5034 7.82514 61.5821 7.62295 61.6719C5.51117 62.739 3.20842 64.7496 1.89417 67.7712C0.557453 70.7478 0.35526 74.6904 1.99526 78.2062C3.5791 81.7332 6.71309 84.1706 9.83583 85.1029C12.981 86.0689 16.0027 85.6645 18.1819 84.7322C18.5863 84.575 18.957 84.3953 19.2939 84.1931C19.2715 84.1257 19.2602 84.0471 19.249 83.9684C19.1816 83.5753 19.1255 83.1934 19.0918 82.8115V82.834Z" fill="#181415"/>
<path d="M131.196 59.0214C130.163 55.9999 128.219 53.7534 126.299 52.4616C125.591 51.9786 124.883 51.6192 124.22 51.3496C123.839 51.5855 123.457 51.8101 123.086 52.0123C123.794 52.4392 124.557 52.9896 125.288 53.7197C126.737 55.135 128.028 57.2467 128.579 59.7628C129.14 62.2676 128.961 65.2105 127.781 67.8838C126.939 69.872 125.58 71.5232 124.018 72.6914C124.49 73.2642 124.917 73.9269 125.254 74.6795C125.344 74.8592 125.411 75.0389 125.479 75.2299C127.691 73.9045 129.623 71.804 130.769 69.1868C132.252 65.7609 132.218 62.0205 131.207 59.0326L131.196 59.0214Z" fill="#181415"/>
<path d="M69.0685 118.666C66.8893 120.654 63.8002 121.239 61.4301 120.621C58.9813 120.014 57.2739 118.419 56.3977 116.903C55.5216 115.353 55.3531 113.926 55.3868 113.016C55.4205 112.106 55.589 111.635 55.5777 111.635C55.6002 111.635 55.6227 112.14 55.8923 112.949C56.1506 113.791 56.6673 114.937 57.6783 115.959C58.6892 116.936 60.1832 117.779 61.9019 117.914C63.6205 118.082 65.4852 117.543 66.9005 116.263C68.3158 114.982 69.0235 113.185 69.0235 111.433C69.0235 109.68 68.3158 108.153 67.4172 107.074C66.4849 105.962 65.4065 105.345 64.6315 105.008C63.8227 104.671 63.3172 104.569 63.3172 104.536C63.3172 104.569 63.8115 104.468 64.7325 104.502C65.6424 104.569 67.0465 104.839 68.4956 105.884C69.9109 106.895 71.3487 108.726 71.7194 111.219C72.1126 113.657 71.2589 116.656 69.0572 118.655L69.0685 118.666Z" fill="#181415"/>
<path d="M56.3935 116.914C56.1464 116.442 55.9554 116.037 55.7869 115.599C55.4836 115.903 55.1579 116.24 54.8097 116.509C52.9562 117.958 50.3839 118.767 47.7442 118.396C45.1044 118.059 42.8466 116.577 41.4313 114.678C40.0159 112.825 39.4543 110.556 39.488 108.669C39.5105 108.13 39.5554 107.624 39.6452 107.152C39.6228 107.152 39.6115 107.119 39.6115 107.119C39.2409 106.917 38.8814 106.714 38.5669 106.479C38.2973 107.051 38.0614 107.725 37.8929 108.5C37.4211 110.623 37.6009 113.533 39.1735 116.206C40.6899 118.845 43.7003 121.137 47.3173 121.575C49.1146 121.845 50.9006 121.642 52.5182 121.07C54.102 120.497 55.5061 119.621 56.6069 118.542C56.7979 118.34 56.9776 118.172 57.1461 117.969C56.8541 117.599 56.6069 117.262 56.4047 116.925L56.3935 116.914Z" fill="#181415"/>
<path d="M125.324 81.8004C124.314 84.2378 122.28 85.9901 120.202 86.7539C118.102 87.5289 116.057 87.3941 114.563 86.9111C113.047 86.4169 112.047 85.6306 111.441 85.0241C110.845 84.44 110.632 84.0468 110.609 84.0581C110.609 84.0356 111.003 84.3052 111.721 84.6197C112.452 84.9454 113.53 85.2824 114.844 85.3161C116.158 85.3611 117.686 85.069 119.068 84.2715C120.449 83.4852 121.674 82.1823 122.348 80.5535C123.044 78.9248 123.112 77.1389 122.707 75.6112C122.303 74.0612 121.438 72.7694 120.494 71.8596C119.551 70.9498 118.54 70.4218 117.787 70.1298C117.046 69.8377 116.608 69.7366 116.608 69.7366C116.608 69.7366 117.046 69.6243 117.888 69.6356C118.72 69.658 119.989 69.8153 121.404 70.5454C122.808 71.2755 124.347 72.6459 125.257 74.6789C126.167 76.7008 126.369 79.3629 125.324 81.8004Z" fill="#181415"/>
<path d="M75.7425 108.096C74.4395 110.399 84.3244 119.486 88.0762 122.35C91.828 125.226 98.8373 130.427 100.275 128.798C101.691 127.18 95.0519 121.295 90.9968 117.914C86.908 114.499 77.023 105.783 75.7425 108.085V108.096Z" fill="#B54900"/>
<path d="M67.6953 17.8209C67.6953 17.8209 69.706 -2.58858 89.1052 2.36495C108.493 7.31848 99.4732 26.908 99.4732 26.908C99.4732 26.908 103.393 10.5085 88.0156 6.37495C73.3904 2.43235 67.6953 17.8321 67.6953 17.8321V17.8209Z" fill="#FFDA24"/>
<path d="M71.721 7.63248L69.07 11.182C69.07 11.182 67.3851 7.66618 62.2741 7.38537C56.0174 7.02593 52.4453 12.4512 52.4453 12.4512C52.4453 12.4512 54.3324 3.60002 61.5327 2.99346C68.7106 2.36444 71.721 7.64372 71.721 7.64372V7.63248Z" fill="#FFDA24"/>
<path d="M70.3841 7.86883C70.8222 7.20611 71.3277 6.53216 71.9006 5.88068C71.4737 5.33029 70.9907 4.80236 70.4515 4.30813C68.351 2.38737 65.1271 1.09564 61.7685 1.34275C58.3874 1.55617 55.3769 3.28597 53.5572 5.47631C51.9397 7.38583 51.1421 9.57617 50.9062 11.4857C51.4454 11.789 51.9734 12.1147 52.4452 12.4517C52.9169 10.7331 53.8942 8.84606 55.5567 7.34091C57.1742 5.81329 59.477 4.7125 61.9819 4.55525C64.5205 4.37553 66.9356 5.1281 68.7553 6.41984C69.3844 6.85791 69.9011 7.35214 70.3953 7.86883H70.3841Z" fill="#181415"/>
<path d="M59.3502 28.0081C59.3502 28.0081 53.7225 10.2158 37.6033 16.1803C23.4273 23.0995 30.2232 39.0047 30.2232 39.0047C30.2232 39.0047 16.0698 18.8648 35.8958 12.2938C59.3614 4.52093 59.3389 28.0081 59.3389 28.0081H59.3502Z" fill="#FFDA24"/>
<path fill-rule="evenodd" clip-rule="evenodd" d="M26.4914 33.7703L25.2446 30.9397C25.2446 30.9397 9.29385 26.6714 4.3626 41.0939C-1.10782 57.0665 14.0454 64.3339 14.0454 64.3339C14.0454 64.3339 3.21685 54.3819 8.11439 42.8237C13.3377 30.5803 26.4914 33.7703 26.4914 33.7703Z" fill="#FFDA24"/>
<path d="M25.2341 30.9399C25.088 30.412 24.987 29.8279 24.8971 29.2438C22.0552 28.48 18.4269 28.2666 14.6639 29.446C10.7324 30.6479 6.75594 33.4448 4.26224 37.5671C1.74607 41.6894 1.11702 46.5082 1.84716 50.5294C2.5773 54.6068 4.56553 57.853 6.66608 60.0096C8.77787 62.2 10.9458 63.3682 12.4398 64.0084C13.9562 64.6487 14.8436 64.8059 14.8436 64.8172C14.8436 64.7947 14.0124 64.4577 12.6757 63.5703C11.3614 62.683 9.53047 61.2228 7.89047 58.9763C6.25046 56.741 4.86882 53.697 4.53183 50.1587C4.19484 46.643 4.90251 42.6891 7.03677 39.252C9.11485 35.8036 12.2938 33.31 15.5738 32.007C18.865 30.6816 22.2124 30.5131 24.9533 30.9175C25.0543 30.9399 25.1554 30.9624 25.2565 30.9736V30.9399H25.2341Z" fill="#181415"/>
<path d="M36.0647 10.3505C40.8162 8.54207 45.9609 9.0363 49.8362 10.9121C53.779 12.788 56.3962 15.8432 57.8116 18.6513C59.2494 21.4931 59.5639 24.0654 59.5976 25.7727C59.6313 27.4913 59.4067 28.4124 59.4291 28.4124C59.4291 28.4124 59.4291 27.4688 59.0921 25.8289C58.7664 24.2002 58.0587 21.8638 56.4187 19.4713C54.8012 17.1012 52.1951 14.7199 48.7466 13.4057C45.3543 12.0578 41.1082 11.8669 37.188 13.3608C33.2677 14.8098 30.2236 17.7752 28.5386 21.0214C26.8312 24.2788 26.4493 27.7833 26.7975 30.6476C27.1345 33.5231 28.1455 35.7359 28.9767 37.1849C29.8192 38.6227 30.4594 39.3416 30.4258 39.3528C30.4482 39.3303 29.6844 38.78 28.5723 37.477C27.4715 36.174 26 34.0286 25.2249 30.9509C24.4161 27.8957 24.3824 23.8632 26.0898 19.8757C27.7636 15.9106 31.2907 12.1365 36.0534 10.3617L36.0647 10.3505Z" fill="#181415"/>
<path fill-rule="evenodd" clip-rule="evenodd" d="M102.44 17.3038C102.44 17.3038 106.136 15.0685 110.045 18.2024C112.516 20.1905 113.089 24.2455 113.089 24.2455L116.133 24.2679C116.133 24.2679 116.234 16.6186 111.033 13.7094C105.866 10.8114 102.047 13.8666 102.047 13.8666L102.451 17.315L102.44 17.3038Z" fill="#FFDA24"/>
<path d="M114.596 20.7185C114.955 21.7519 115.067 22.774 115.056 23.7625C115.483 23.7175 115.921 23.6951 116.393 23.7063C116.651 23.7063 116.921 23.7288 117.19 23.74C117.426 22.628 117.494 21.37 117.235 20.067C116.831 17.7306 115.46 15.2707 113.248 13.5971C111.068 11.9122 108.384 11.1821 106.036 11.2944C104.43 11.3618 102.992 11.7999 101.812 12.3952C102.015 13.0467 102.183 13.6757 102.284 14.3272C103.396 14.0127 104.654 13.8666 105.98 14.0014C107.777 14.1812 109.664 14.9 111.271 16.1468C112.888 17.3824 114.045 19.0336 114.596 20.7297V20.7185Z" fill="#181415"/>
<path d="M130.795 35.7811C130.02 31.7936 127.616 28.4687 124.819 26.4806C122.011 24.4475 118.888 23.7062 116.395 23.6949C113.856 23.6725 111.913 24.2903 110.666 24.8406C109.419 25.3798 108.824 25.8403 108.812 25.8179C108.812 25.8403 109.52 25.5595 110.823 25.3124C112.104 25.0765 114.013 24.8856 116.249 25.2899C118.484 25.6943 121 26.7052 123.146 28.6148C125.314 30.4794 127.032 33.2313 127.65 36.3989C128.29 39.5777 127.762 42.7789 126.482 45.34C125.235 47.9122 123.269 49.833 121.382 51.0461C120.135 51.866 118.911 52.3827 117.855 52.7197C118.125 52.9444 118.394 53.1915 118.653 53.4611C119.697 53.3038 120.888 53.023 122.146 52.4726C124.46 51.4841 127.032 49.6083 128.852 46.6654C130.694 43.7449 131.627 39.7574 130.807 35.7811H130.795Z" fill="#181415"/>
<path d="M90.0352 0.75831C94.5508 2.08375 98.1229 5.19515 100.134 8.63229C102.2 12.0919 102.751 15.7649 102.537 18.6741C102.313 21.6058 101.425 23.8186 100.684 25.2227C99.9201 26.6268 99.3473 27.2895 99.3697 27.3007C99.3473 27.3007 99.7629 26.5144 100.212 25.043C100.65 23.5603 101.122 21.3475 100.92 18.6741C100.751 16.0233 99.8527 12.9006 97.8645 10.115C95.91 7.34055 92.8434 4.9368 89.1253 3.84725C85.4072 2.73523 81.5206 3.02728 78.3642 4.27408C75.174 5.52089 72.7253 7.6326 71.119 9.75554C69.479 11.8785 68.6477 13.9902 68.2096 15.4616C67.7828 16.9556 67.7042 17.8317 67.6817 17.8205C67.6929 17.8205 67.5806 16.9556 67.7154 15.3718C67.8727 13.7992 68.3107 11.4516 69.7598 8.86817C71.1751 6.3184 73.6464 3.56643 77.2634 1.80293C80.8467 0.0169649 85.542 -0.589589 90.0352 0.769543V0.75831Z" fill="#181415"/>
<path fill-rule="evenodd" clip-rule="evenodd" d="M45.5113 46.2383C45.5113 46.2383 38.6816 35.5337 50.6447 32.4223C62.6414 29.3109 61.5968 42.2845 61.5968 42.2845C61.5968 42.2845 59.1817 33.0064 51.431 35.1855C44.2644 37.1737 45.5225 46.2383 45.5225 46.2383H45.5113Z" fill="#FFDA24"/>
<path fill-rule="evenodd" clip-rule="evenodd" d="M44.275 44.3513L43.6796 42.2284C43.6796 42.2284 35.2999 40.1279 33.0308 47.5526C30.3237 56.561 39.0067 59.2231 39.0067 59.2231C39.0067 59.2231 33.3678 54.0899 35.9851 48.0693C38.2204 42.981 44.2637 44.3401 44.2637 44.3401L44.275 44.3513Z" fill="#FFDA24"/>
<path d="M39.4699 42.8575C40.7729 42.498 42.0759 42.4868 43.2217 42.689C43.1206 42.3969 43.0195 42.1161 42.9521 41.7904C42.851 41.386 42.7836 40.948 42.7499 40.4762C41.6378 40.1504 40.346 40.0157 38.9869 40.1841C36.5156 40.4762 33.8197 41.8915 32.146 44.3514C30.4611 46.7776 30.0679 49.8104 30.697 52.2254C31.2699 54.6628 32.7189 56.4825 34.1792 57.5496C35.6282 58.6279 37.0211 59.021 37.9422 59.1671C38.8858 59.3243 39.4137 59.2682 39.4137 59.2794C39.4137 59.2794 38.9082 59.1109 38.0995 58.6841C37.3244 58.2572 36.2236 57.5384 35.28 56.3589C34.314 55.202 33.5389 53.5845 33.3704 51.7199C33.1682 49.8778 33.6288 47.8559 34.8082 46.1598C35.9764 44.4525 37.7175 43.318 39.4923 42.835L39.4699 42.8575Z" fill="#181415"/>
<path d="M49.9582 30.4457C52.8338 29.6482 55.7993 30.3222 57.8661 31.7038C59.9779 33.0854 61.1911 35.0735 61.6966 36.7809C62.2357 38.4994 62.1346 39.9597 61.9662 40.8807C61.7977 41.813 61.573 42.2848 61.5955 42.2848C61.573 42.2848 61.5955 41.7569 61.4831 40.8695C61.3483 39.9821 61.0226 38.7129 60.2475 37.4211C59.4725 36.1294 58.2031 34.8377 56.5294 34.0626C54.8445 33.2651 52.7776 33.018 50.7894 33.5571C48.8012 34.0851 47.1387 35.3319 46.0941 36.8483C45.0157 38.3647 44.5776 40.1282 44.5439 41.6221C44.5102 43.1385 44.8809 44.3965 45.2067 45.2277C45.5436 46.0701 45.8357 46.5082 45.8132 46.5194C45.8357 46.5194 45.3864 46.2162 44.7798 45.4861C44.1732 44.7559 43.3645 43.5541 42.9601 41.7906C42.5557 40.0495 42.6231 37.7244 43.7576 35.4779C44.8584 33.2426 47.1163 31.1759 49.9694 30.4345L49.9582 30.4457Z" fill="#181415"/>
<path opacity="0.74" fill-rule="evenodd" clip-rule="evenodd" d="M97.3078 23.8862C95.7015 31.1311 91.2083 23.5717 83.9631 21.9766C76.6954 20.3704 69.4389 25.3239 71.0565 18.079C72.6403 10.834 79.8406 6.25115 87.0746 7.84616C94.3423 9.45241 98.9141 16.63 97.3078 23.8862Z" fill="#FFBC00"/>
<path fill-rule="evenodd" clip-rule="evenodd" d="M67.1346 14.6307C66.6965 17.7534 64.551 14.7206 61.4283 14.2825C58.3055 13.8557 55.3962 16.2033 55.8231 13.0806C56.2612 9.958 59.1368 7.77889 62.282 8.20573C65.3935 8.63256 67.5839 11.5193 67.1458 14.6307H67.1346Z" fill="#FFBC00"/>
<path opacity="0.53" fill-rule="evenodd" clip-rule="evenodd" d="M106.213 40.7012C102.922 38.7692 107.348 37.7583 109.269 34.4672C111.223 31.1648 109.943 26.8178 113.256 28.7611C116.536 30.7043 117.648 34.9502 115.705 38.2525C113.762 41.5436 109.504 42.6444 106.213 40.7012Z" fill="#FFBC00"/>
<path opacity="0.46" fill-rule="evenodd" clip-rule="evenodd" d="M56.0938 24.8408C58.801 31.76 50.8593 27.9634 43.9286 30.6592C37.0204 33.3438 33.7291 41.4986 31.0332 34.5794C28.3486 27.6489 31.7634 19.8648 38.6828 17.1802C45.6135 14.4844 53.4092 17.9104 56.0826 24.8408H56.0938Z" fill="#FFBC00"/>
<path opacity="0.31" fill-rule="evenodd" clip-rule="evenodd" d="M73.7927 62.4696C71.4562 58.4147 76.7469 60.0209 80.7908 57.707C84.8458 55.3819 86.1264 50.0016 88.4404 54.0453C90.7544 58.0889 89.3727 63.2559 85.3176 65.581C81.2625 67.9062 76.1066 66.5133 73.7927 62.4584V62.4696Z" fill="#FFBC00"/>
<path opacity="0.31" fill-rule="evenodd" clip-rule="evenodd" d="M33.6175 71.4786C33.2918 66.0196 37.9984 70.4676 43.4463 70.1306C48.883 69.8049 53.0055 64.8401 53.3425 70.2879C53.6683 75.7244 49.5233 80.4084 44.0641 80.7341C38.6049 81.0599 33.9433 76.9038 33.6063 71.4673L33.6175 71.4786Z" fill="#FFBC00"/>
<path opacity="0.46" fill-rule="evenodd" clip-rule="evenodd" d="M59.9665 41.3304C61.0786 44.936 57.192 42.7457 53.575 43.8689C49.9804 45.0034 48.0372 49.0247 46.9026 45.419C45.7681 41.8246 47.7788 37.9719 51.3846 36.8486C55.0016 35.7254 58.8207 37.7135 59.9665 41.3304Z" fill="#FFBC00"/>
<path opacity="0.46" fill-rule="evenodd" clip-rule="evenodd" d="M44.7686 46.2271C47.7228 47.5413 44.0946 48.8106 42.7916 51.7648C41.4886 54.7301 42.9713 58.2684 40.0058 56.9542C37.0516 55.64 35.7149 52.1691 37.0291 49.215C38.3321 46.2496 41.7919 44.9129 44.7686 46.2271Z" fill="#FFBC00"/>
<path fill-rule="evenodd" clip-rule="evenodd" d="M27.0653 38.4883C32.1314 42.0715 24.8525 43.0937 21.2692 48.1483C17.6859 53.2254 19.1574 60.4254 14.0913 56.8422C9.0253 53.2478 7.80091 46.2388 11.3842 41.1729C14.9787 36.1071 21.9881 34.9052 27.0653 38.4883Z" fill="#FFBC00"/>
<path opacity="0.26" fill-rule="evenodd" clip-rule="evenodd" d="M127.434 125.562C126.098 126.304 119.796 117.419 113.348 105.692C106.901 93.9989 102.733 83.9346 104.07 83.1933C105.384 82.4632 111.708 91.3593 118.156 103.052C124.615 114.745 128.771 124.81 127.434 125.551V125.562Z" fill="#FFBC00"/>
<path opacity="0.14" fill-rule="evenodd" clip-rule="evenodd" d="M119.031 128.943C117.716 129.752 111.111 121.069 104.271 109.612C97.4073 98.1214 92.9142 88.1807 94.2396 87.4056C95.5202 86.6306 102.148 95.2909 108.988 106.77C115.829 118.261 120.322 128.191 119.042 128.932L119.031 128.943Z" fill="#FFBC00"/>
</svg>
