<svg width="164" height="156" viewBox="0 0 164 156" fill="none" xmlns="http://www.w3.org/2000/svg">
<path d="M46.9247 69.6406L25.043 105.865L0.296875 146.819L22.0213 155.064L94.3275 95.9808L46.9247 69.6406Z" fill="#DD5E00"/>
<path d="M24.3016 108.64C11.4287 129.925 0.296875 146.819 0.296875 146.819C0.296875 146.819 10.047 129.117 22.9312 107.797C35.8041 86.4894 46.9247 69.6406 46.9247 69.6406C46.9247 69.6406 37.197 87.3318 24.3016 108.651V108.64Z" fill="#181415"/>
<path d="M46.9226 69.6406L29.9609 97.7443C31.6346 95.3069 43.5303 78.3121 47.2596 80.963C51.8202 84.2092 35.7908 106.921 35.7908 106.921C35.7908 106.921 53.1794 86.2984 56.8301 89.0953C60.5145 91.881 49.3602 106.416 49.3602 106.416C49.3602 106.416 63.1766 93.0828 66.1871 96.0707C70.0399 99.9234 50.1689 121.894 50.1689 121.894C50.1689 121.894 74.0276 96.329 79.4644 101.485C83.9575 105.742 49.832 128.712 49.832 128.712L58.0769 125.601L94.3367 95.9808L46.9339 69.6406H46.9226Z" fill="#181415"/>
<path d="M38.0412 63.9113C38.8724 62.9678 39.4116 61.7434 39.479 60.3843C39.6362 57.2392 37.1987 54.5771 34.0535 54.4311C30.9083 54.285 28.2461 56.7113 28.1113 59.8564C28.0102 61.9793 29.0885 63.8664 30.7622 64.9334C27.808 66.5846 25.7411 69.6623 25.5726 73.2904C25.3255 78.873 29.6277 83.6019 35.2217 83.8602C40.8157 84.1186 45.5448 79.8053 45.8031 74.2227C46.0278 69.2917 42.6804 65.0121 38.0524 63.9225L38.0412 63.9113Z" fill="#FF9A00"/>
<path d="M39.625 81.5356C34.0535 81.2661 29.7288 76.5372 29.9984 70.9659C30.1669 67.3378 32.2338 64.2601 35.1655 62.6089C33.4918 61.5643 32.4135 59.6547 32.5146 57.543C32.5595 56.3749 32.9751 55.3078 33.6154 54.4541C30.6724 54.544 28.2461 56.8803 28.1113 59.8682C28.0102 61.9911 29.0885 63.8782 30.7622 64.9453C27.808 66.5964 25.7411 69.6741 25.5726 73.3022C25.3255 78.8848 29.6277 83.6137 35.2217 83.872C38.0075 83.9956 40.5573 83.0071 42.4669 81.2661C41.5571 81.4907 40.6135 81.5806 39.625 81.5469V81.5356Z" fill="#C66C01"/>
<path d="M102.504 113.368C101.291 109.583 97.8426 106.775 93.6639 106.573C91.2488 106.472 88.9798 107.247 87.2275 108.628C85.6099 106.505 83.0713 105.045 80.1957 104.91C76.2754 104.742 72.8269 106.966 71.2767 110.313C70.7713 111.391 70.468 112.582 70.4006 113.829C70.1647 118.996 74.1524 123.388 79.3195 123.624C81.5212 123.725 83.5768 123.051 85.228 121.871C86.8793 124.241 89.6201 125.859 92.7428 126.027C98.1122 126.263 102.673 122.141 102.931 116.738C102.976 115.559 102.83 114.402 102.493 113.357L102.504 113.368Z" fill="#FF9A00"/>
<path d="M92.9606 121.748C89.8154 121.613 87.0971 119.996 85.4458 117.558C83.7946 118.771 81.7277 119.445 79.5373 119.344C75.1115 119.108 71.5619 115.862 70.7869 111.706C70.5847 112.38 70.4499 113.088 70.4162 113.829C70.1803 118.996 74.168 123.388 79.3351 123.624C81.5368 123.725 83.5924 123.051 85.2436 121.871C86.8949 124.242 89.6357 125.859 92.7584 126.027C98.1278 126.263 102.688 122.141 102.947 116.738C102.98 115.997 102.913 115.289 102.789 114.57C101.61 118.895 97.5998 121.939 92.9606 121.737V121.748Z" fill="#C66C01"/>
<path d="M158.486 76.3797C158.655 73.0886 156.947 70.1457 154.33 68.5394C158.756 66.54 161.946 62.0807 162.204 56.7341C162.541 49.5677 157.441 43.4685 150.679 42.6822C150.983 41.4354 151.185 40.1437 151.252 38.7958C151.724 28.5068 144.153 19.8016 134.358 19.3411C131.044 19.1838 127.921 19.9926 125.203 21.5089C125.518 12.1635 118.272 4.2783 108.915 3.85146C103.95 3.62681 99.3898 5.54757 96.0986 8.80499C93.2229 4.1772 87.6851 1.38031 81.7204 2.11043C73.8125 3.08765 68.1174 9.89455 68.7801 17.4428C66.3763 17.3305 64.096 17.8359 62.0853 18.8356C60.0297 17.4203 57.5809 16.533 54.9075 16.4206C47.2916 16.0612 40.8327 21.947 40.4844 29.5627C40.4395 30.8656 40.5518 32.1124 40.8439 33.3255C35.5757 35.0441 31.6554 40.0201 31.3521 46.1081C31.1162 51.1627 33.4863 55.7007 37.1932 58.3515C36.6877 59.6657 36.3507 61.0586 36.2833 62.5413C35.9463 69.8761 41.619 76.1101 48.9541 76.4471C50.0212 76.492 51.0546 76.4134 52.0319 76.2224C52.4699 78.8172 54.6716 80.8502 57.39 80.9738H57.4574C57.3001 81.5916 57.199 82.2206 57.1653 82.8608C56.8957 88.6568 61.3776 93.5654 67.1626 93.835C70.4089 93.9923 73.3744 92.6444 75.4075 90.4091C76.3736 92.0153 78.0136 93.161 79.9344 93.498C78.7212 95.5648 77.9911 97.9349 77.8788 100.485C77.4744 109.122 84.304 116.457 93.1331 116.862C98.8955 117.131 104.063 114.402 107.073 110.077C108.758 113.323 112.061 115.615 115.958 115.783C120.721 115.985 124.911 112.975 126.439 108.651C128.427 111.459 131.606 113.312 135.313 113.514C141.715 113.784 147.141 108.853 147.422 102.462C147.489 100.934 147.253 99.4512 146.781 98.0809C147.613 98.4403 148.523 98.6762 149.489 98.7099C153.813 98.9121 157.498 95.5648 157.7 91.2178C157.857 88.0615 156.094 85.2421 153.443 83.8718C156.318 82.5688 158.374 79.7495 158.509 76.3909L158.486 76.3797Z" fill="#FF9A00"/>
<path d="M157.072 87.814C155.702 88.3082 154.219 88.5441 152.657 88.4767C149.063 88.3082 145.951 86.4998 143.918 83.8265C143.783 84.0062 143.649 84.1859 143.48 84.3544C141.795 88.2858 137.808 90.9479 133.314 90.7457C129.417 90.5547 126.114 88.2745 124.429 85.0171C121.419 89.3529 116.252 92.0936 110.489 91.8352C101.649 91.4196 94.8304 84.096 95.2348 75.4695C95.3471 72.9197 96.0997 70.5384 97.2904 68.4604C95.3696 68.1347 93.7296 66.989 92.7636 65.3827C90.7416 67.618 87.7649 68.9546 84.5186 68.8086C78.7449 68.539 74.2517 63.6304 74.5213 57.8345C74.555 57.183 74.6561 56.554 74.8134 55.9474H74.746C72.0276 55.8351 69.826 53.7795 69.3879 51.1961C68.4106 51.387 67.3772 51.4656 66.3101 51.4207C58.975 51.0837 53.3023 44.8609 53.6393 37.5149C53.7292 36.0322 54.0437 34.6281 54.5492 33.3252C50.8311 30.6743 48.4834 26.1251 48.7193 21.0817C48.7643 19.7563 49.0226 18.4758 49.4158 17.2852C47.2029 18.1164 45.2483 19.5204 43.7431 21.2839C42.9681 22.9014 42.4738 24.7098 42.3952 26.6081C42.3278 27.8999 42.4626 29.1579 42.7547 30.371C41.9796 30.6294 41.2382 30.9439 40.5418 31.337C40.5755 32.011 40.6878 32.6737 40.8451 33.3252C38.4524 34.1002 36.3407 35.5604 34.7119 37.5037C33.8807 39.2222 33.3752 41.1205 33.2741 43.1761C33.0382 48.2307 35.3859 52.7574 39.0815 55.4083C38.576 56.7225 38.2727 58.1265 38.2053 59.6092C37.8683 66.944 43.5409 73.1781 50.876 73.515C51.9207 73.56 52.9429 73.4813 53.9539 73.2904C54.3807 75.8851 56.5599 77.9069 59.2895 78.0417C59.3232 78.0417 59.3232 78.0417 59.3569 78.0417C59.2221 78.6595 59.1098 79.2885 59.0873 79.9288C58.8177 85.7135 63.2772 90.6334 69.0734 90.9029C72.3197 91.0602 75.2739 89.7011 77.3183 87.4883C78.2843 89.0721 79.9243 90.229 81.8452 90.566C80.6432 92.6328 79.9019 95.014 79.7783 97.575C79.3739 106.202 86.2148 113.536 95.0326 113.941C100.773 114.21 105.951 111.436 108.973 107.111C110.658 110.358 113.96 112.649 117.847 112.851C121.127 112.986 124.092 111.638 126.125 109.403C126.226 109.167 126.327 108.931 126.429 108.662C126.462 108.729 126.53 108.796 126.563 108.864C127.327 107.954 127.911 106.909 128.316 105.719C130.304 108.527 133.517 110.38 137.201 110.549C140.829 110.751 144.143 109.201 146.389 106.696C146.962 105.415 147.333 103.989 147.4 102.472C147.468 100.945 147.232 99.4621 146.76 98.0918C147.535 98.4287 148.411 98.6534 149.31 98.7208C149.299 97.474 149.063 96.2721 148.647 95.1488C149.49 95.497 150.4 95.7441 151.366 95.7778C153.623 95.8789 155.713 95.014 157.229 93.5426C157.465 92.8237 157.634 92.0487 157.667 91.2399C157.735 90.038 157.499 88.8811 157.061 87.8477L157.072 87.814Z" fill="#C66C01"/>
<g opacity="0.2">
<path d="M88.8937 117.76C84.6701 116.58 81.2891 113.739 79.3682 110.526C77.3912 107.347 76.8296 103.899 77.0543 101.192C77.2789 98.4399 78.1326 96.4068 78.8403 95.1151C79.5704 93.8234 80.1096 93.2168 80.1096 93.2168C80.1096 93.2168 79.7389 93.9469 79.3008 95.3173C78.8965 96.6876 78.4584 98.7432 78.6606 101.203C78.8628 103.641 79.7389 106.516 81.6373 109.055C83.4907 111.559 86.3663 113.716 89.7924 114.693C93.2184 115.671 96.8017 115.435 99.7447 114.323C102.721 113.244 105.035 111.346 106.574 109.392C108.124 107.471 108.9 105.539 109.326 104.191C109.753 102.776 109.832 101.956 109.854 101.956C109.832 101.956 109.955 102.764 109.821 104.258C109.686 105.741 109.281 107.909 107.889 110.301C106.552 112.671 104.204 115.199 100.823 116.828C97.4757 118.445 93.1061 118.995 88.8937 117.771V117.76Z" fill="#181415"/>
</g>
<path d="M140.655 114.211C137.241 115.559 133.523 115.188 130.771 113.841C127.962 112.493 126.12 110.257 125.177 108.236C124.199 106.214 124.042 104.383 124.064 103.237C124.098 102.024 124.267 101.384 124.244 101.384C124.267 101.384 124.3 102.024 124.57 103.17C124.84 104.282 125.379 105.877 126.558 107.427C127.704 108.977 129.512 110.538 131.826 111.347C134.129 112.156 136.915 112.223 139.465 111.212C142.037 110.201 144.025 108.269 145.171 106.113C146.317 103.956 146.586 101.62 146.373 99.6651C146.171 97.7219 145.497 96.1831 144.935 95.1834C144.374 94.1837 143.958 93.667 143.958 93.667C143.958 93.667 144.52 94.0264 145.34 94.8801C146.171 95.745 147.283 97.1715 147.946 99.3282C148.62 101.451 148.788 104.315 147.642 107.225C146.53 110.134 144.059 112.897 140.644 114.222L140.655 114.211Z" fill="#181415"/>
<path d="M52.935 80.8498C51.7218 79.8501 51.0253 78.4236 50.8344 77.1206C50.6322 75.8176 50.9018 74.6495 51.3062 73.807C52.1486 72.1221 53.2607 71.7065 53.1933 71.6953C53.227 71.6953 52.7889 72.7287 52.8676 74.1777C52.9237 75.6267 53.6426 77.2779 54.9793 78.3899C56.2936 79.5356 58.0571 79.9624 59.5062 79.7939C60.9215 79.6367 61.8876 79.0189 61.8876 79.0526C61.8651 79.0077 61.6404 80.1646 60.1128 81.2879C59.3489 81.8158 58.2369 82.2763 56.9339 82.2988C55.6196 82.3325 54.0919 81.872 52.9125 80.8498H52.935Z" fill="#181415"/>
<g opacity="0.2">
<path d="M75.4353 92.9814C74.1211 91.7683 73.4134 90.1396 73.2561 88.6344C73.0989 87.1292 73.4583 85.8263 73.9526 84.8715C74.458 83.928 75.0646 83.3327 75.5027 82.9845C75.9408 82.6363 76.2104 82.5127 76.2104 82.5127C76.2441 82.5127 75.5813 83.6359 75.5027 85.3433C75.3679 87.0394 76.0306 89.1736 77.6369 90.6338C79.1871 92.1277 81.3887 92.6332 83.04 92.3973C84.7474 92.1951 85.8257 91.4538 85.8482 91.4875C85.8257 91.4875 85.7134 91.7795 85.4101 92.2513C85.0956 92.7118 84.5339 93.3521 83.6241 93.9137C82.7254 94.4753 81.4224 94.9134 79.9397 94.8572C78.4345 94.801 76.7271 94.2057 75.4465 92.9814H75.4353Z" fill="#181415"/>
</g>
<path d="M17.7978 138.776L18.8087 139.146L37.1857 136.473L53.1028 124.005C53.1028 124.005 40.3534 133.227 35.6693 128.431C31.5243 124.207 40.5668 112.11 40.5668 112.11C40.5668 112.11 29.6147 123.061 23.8747 120.658C18.1347 118.288 25.0205 107.044 25.0205 107.044L24.0096 108.358L13.8438 125.218L17.7978 138.765V138.776Z" fill="#181415"/>
<path d="M125.343 108.572C124.804 109.651 124.063 110.673 123.074 111.549C121.49 112.998 119.289 114.054 116.907 114.155C114.492 114.29 112.223 113.515 110.505 112.234C109.539 111.56 108.764 110.684 108.135 109.797C108.045 109.965 107.966 110.134 107.865 110.302C107.573 110.841 107.225 111.347 106.82 111.886C107.326 112.728 107.955 113.571 108.741 114.323C110.729 116.21 113.807 117.569 117.087 117.367C120.367 117.233 123.277 115.548 125.029 113.447C125.77 112.571 126.343 111.661 126.747 110.706C126.175 109.999 125.703 109.291 125.332 108.572H125.343Z" fill="#181415"/>
<path d="M88.8937 117.76C84.6701 116.58 81.2891 113.739 79.3682 110.526C77.3912 107.347 76.8296 103.899 77.0543 101.192C77.2789 98.4399 78.1326 96.4068 78.8403 95.1151C79.5704 93.8234 80.1096 93.2168 80.1096 93.2168C80.1096 93.2168 79.7389 93.9469 79.3008 95.3173C78.8965 96.6876 78.4584 98.7432 78.6606 101.203C78.8628 103.641 79.7389 106.516 81.6373 109.055C83.4907 111.559 86.3663 113.716 89.7924 114.693C93.2184 115.671 96.8017 115.435 99.7447 114.323C102.721 113.244 105.035 111.346 106.574 109.392C108.124 107.471 108.9 105.539 109.326 104.191C109.753 102.776 109.832 101.956 109.854 101.956C109.832 101.956 109.955 102.764 109.821 104.258C109.686 105.741 109.281 107.909 107.889 110.301C106.552 112.671 104.204 115.199 100.823 116.828C97.4757 118.445 93.1061 118.995 88.8937 117.771V117.76Z" fill="#181415"/>
<path d="M64.471 116.648C58.8433 121.613 53.5751 124.859 52.7102 123.882C51.834 122.904 55.6869 118.041 61.3033 113.065C66.9085 108.1 72.188 104.854 73.0642 105.831C73.9403 106.808 70.0875 111.638 64.4598 116.648H64.471Z" fill="#B54900"/>
<path opacity="0.14" d="M53.4752 113.267C46.6793 120.467 40.4113 125.567 39.4565 124.657C38.513 123.781 43.2083 117.187 49.993 109.998C56.7552 102.798 63.0344 97.7101 64.0004 98.6087C64.9664 99.5073 60.2374 106.078 53.4752 113.267Z" fill="#FFBC00"/>
<path opacity="0.25" d="M45.8436 104.888C39.834 111.482 34.24 116.143 33.3638 115.334C32.4989 114.526 36.6551 108.572 42.6759 101.99C48.708 95.4191 54.302 90.7352 55.1782 91.5439C56.0543 92.3527 51.8869 98.3171 45.8548 104.899L45.8436 104.888Z" fill="#FFBC00"/>
<path opacity="0.26" d="M36.8174 101.001C30.8864 110.156 25.1801 117.019 24.0793 116.278C22.9672 115.57 26.8875 107.561 32.796 98.4179C38.7382 89.2634 44.4557 82.4228 45.5453 83.1417C46.6462 83.8606 42.7371 91.8581 36.8061 101.013L36.8174 101.001Z" fill="#FFBC00"/>
<path d="M26.4819 59.7776C26.5493 58.1939 27.2795 56.7561 28.2006 55.8126C29.1441 54.8466 30.245 54.3636 31.1773 54.1726C33.0644 53.8356 34.0529 54.4759 34.0529 54.431C34.0866 54.4534 32.9409 54.7118 31.8176 55.6441C30.6718 56.5764 29.7619 58.1714 29.7058 59.9349C29.6047 61.6872 30.3685 63.372 31.4132 64.3942C32.4466 65.4276 33.5474 65.7983 33.5137 65.8095C33.5474 65.7533 32.5028 66.315 30.6381 65.787C29.7283 65.5287 28.6836 64.9221 27.8299 63.8887C26.9874 62.8666 26.4145 61.3614 26.4819 59.7776Z" fill="#181415"/>
<path d="M44.8919 76.9416C44.4201 77.9076 43.6899 79.0084 42.5779 80.0081C41.1064 81.3447 38.916 82.4343 36.4335 82.4792C33.951 82.5466 31.2663 81.5469 29.3904 79.4802C27.5033 77.4246 26.7507 74.6614 27.0652 72.1903C27.3348 69.7191 28.6378 67.6411 30.1094 66.2932C30.3003 66.1247 30.5025 65.9562 30.6822 65.799L30.6485 65.7765C30.1431 65.6417 29.6376 65.3834 29.0984 65.0352C27.1439 66.2483 25.1107 68.5285 24.403 71.7073C24.0436 73.2798 24.0099 75.0321 24.4367 76.7731C24.8748 78.5254 25.751 80.2215 27.0428 81.6368C28.3233 83.0409 29.9521 84.0742 31.637 84.6583C33.3219 85.2536 35.0855 85.366 36.6694 85.1638C39.9269 84.737 42.4094 82.9173 43.8023 81.0639C44.8694 79.6486 45.3861 78.2446 45.622 77.1101C45.3861 77.0539 45.1502 76.9865 44.9143 76.9191L44.8919 76.9416Z" fill="#181415"/>
<path d="M50.8473 77.1324C50.7462 76.5595 50.7799 76.0092 50.8473 75.5037C48.8254 75.5262 46.5227 75.0881 44.3884 73.9199C41.9172 72.572 39.7043 70.2132 38.6147 67.2253C37.5027 64.2375 37.6375 60.9913 38.6484 58.3741C39.6257 55.7233 41.4566 53.6902 43.2427 52.3984C45.0624 51.0842 46.8934 50.4889 48.1739 50.1969C49.4545 49.9161 50.1958 49.8936 50.1958 49.8824C50.1958 49.9048 49.4657 49.7251 48.1065 49.6914C46.7586 49.6914 44.7254 49.8936 42.4339 51.0056C40.1873 52.0839 37.6824 54.1507 36.1435 57.2733C34.6046 60.3623 34.1552 64.5071 35.5818 68.3374C36.9859 72.1676 40.0301 75.0319 43.1977 76.3686C45.9049 77.5255 48.6345 77.6603 50.8698 77.2897C50.8698 77.2447 50.8361 77.1886 50.8361 77.1436L50.8473 77.1324Z" fill="#181415"/>
<path d="M75.4353 92.9814C74.1211 91.7683 73.4134 90.1396 73.2561 88.6344C73.0989 87.1292 73.4583 85.8263 73.9526 84.8715C74.458 83.928 75.0646 83.3327 75.5027 82.9845C75.9408 82.6363 76.2104 82.5127 76.2104 82.5127C76.2441 82.5127 75.5813 83.6359 75.5027 85.3433C75.3679 87.0394 76.0306 89.1736 77.6369 90.6338C79.1871 92.1277 81.3887 92.6332 83.04 92.3973C84.7474 92.1951 85.8257 91.4538 85.8482 91.4875C85.8257 91.4875 85.7134 91.7795 85.4101 92.2513C85.0956 92.7118 84.5339 93.3521 83.6241 93.9137C82.7254 94.4753 81.4224 94.9134 79.9397 94.8572C78.4345 94.801 76.7271 94.2057 75.4465 92.9814H75.4353Z" fill="#181415"/>
<path d="M73.7472 90.4878C72.9721 91.0158 72.096 91.4763 71.1299 91.7908C69.2091 92.4311 66.9064 92.4872 64.7609 91.7459C62.5929 91.0158 60.8294 89.5443 59.6948 87.8594C58.5491 86.1746 58.0548 84.265 57.9874 82.6251C57.9762 82.4678 57.9874 82.333 57.9874 82.1758C57.6729 82.2432 57.3135 82.2881 56.954 82.2993C56.7855 82.2993 56.617 82.2769 56.4485 82.2656C56.4148 82.3555 56.3811 82.4229 56.3811 82.5015C56.0217 84.3549 56.1453 86.8148 57.3247 89.1961C58.4705 91.5661 60.7395 93.779 63.705 94.8011C66.648 95.8233 69.782 95.4751 72.1521 94.3181C73.2305 93.7902 74.1404 93.1275 74.9267 92.4086C74.4212 91.8133 74.0168 91.173 73.7472 90.4991V90.4878Z" fill="#181415"/>
<path d="M92.4422 127.633C89.3644 127.431 86.6685 125.847 85.0397 123.814C83.3997 121.826 82.7819 119.456 82.7594 117.636C82.7257 115.749 83.2312 114.323 83.658 113.447C84.0961 112.537 84.4331 112.132 84.4331 112.099C84.4331 112.099 84.2646 112.638 84.1298 113.581C84.0175 114.525 83.9613 115.884 84.3657 117.434C84.7364 118.95 85.6126 120.647 87.0504 121.994C88.4882 123.309 90.4652 124.297 92.6556 124.432C94.8348 124.6 96.9466 123.926 98.5529 122.781C100.137 121.669 101.26 120.107 101.833 118.658C102.439 117.176 102.574 115.817 102.597 114.873C102.608 113.93 102.473 113.39 102.507 113.39C102.473 113.39 102.776 113.828 103.08 114.772C103.383 115.716 103.686 117.209 103.383 119.063C103.125 120.882 102.17 123.118 100.272 124.87C98.3956 126.667 95.4863 127.88 92.431 127.644L92.4422 127.633Z" fill="#181415"/>
<path d="M80.4432 122.253C78.1742 122.321 75.7479 121.411 74.018 119.512C72.2994 117.625 71.6142 115.12 71.895 112.863C72.1309 110.594 73.2766 108.707 74.6358 107.46C75.5457 106.584 76.5229 106.045 77.3766 105.674C77.3205 105.404 77.2756 105.135 77.2419 104.865C76.2084 105 74.984 105.371 73.6586 106.146C71.8388 107.291 69.9068 109.426 69.2328 112.391C68.8958 113.84 68.8621 115.502 69.244 117.154C69.6372 118.771 70.4459 120.366 71.6591 121.68C72.861 122.994 74.3662 123.983 75.9501 124.522C77.5339 125.061 79.1739 125.162 80.6791 124.96C82.2517 124.758 83.6222 124.185 84.7679 123.444C84.3298 122.837 83.9591 122.231 83.6558 121.59C82.6898 121.995 81.6002 122.231 80.4432 122.264V122.253Z" fill="#181415"/>
<path d="M97.8772 12.0741L96.6641 8.41231C96.6641 8.41231 107.796 -1.06792 119.321 8.26629C130.857 17.6005 121.669 31.4052 121.669 31.4052C121.669 31.4052 126.263 16.949 115.928 10.4566C105.729 4.03164 97.8884 12.0741 97.8884 12.0741H97.8772Z" fill="#FFDA24"/>
<path d="M97.9419 18.409C97.9419 18.409 95.4706 3.86294 82.4292 5.96342C72.7465 7.5135 73.3418 18.0945 73.3418 18.0945L68.7812 16.4883C68.7812 16.4883 69.3204 2.61613 83.0021 1.97588C99.3572 1.21207 97.9419 18.409 97.9419 18.409Z" fill="#FFDA24"/>
<path d="M97.8742 10.5011C97.1103 8.06366 95.3692 5.26677 92.4711 3.23369C89.6292 1.16691 85.6415 0.00996411 81.5528 0.504194C77.4864 0.987191 73.8807 3.07644 71.6229 5.73854C69.2977 8.40064 68.2418 11.5233 68.0733 14.0843C68.0171 14.8032 68.0396 15.4771 68.0733 16.1061C68.5114 16.1398 68.9495 16.1735 69.3538 16.2409C69.3988 15.6344 69.4886 14.9941 69.6571 14.3314C70.1963 12.0961 71.4544 9.61375 73.5774 7.60313C75.6779 5.58128 78.6434 4.08736 81.9347 3.70546C85.2484 3.30109 88.4722 4.04243 91.0109 5.51389C93.5495 6.96288 95.358 9.07459 96.3802 11.1189C97.4249 13.1632 97.7956 15.0952 97.8967 16.4206C97.9978 17.7685 97.8967 18.5211 97.8967 18.5211C97.8967 18.5211 98.1887 17.8135 98.4021 16.4431C98.5706 15.0727 98.6493 12.9835 97.863 10.5011H97.8742Z" fill="#181415"/>
<path d="M125.883 20.9699C125.883 20.9699 142.946 16.0051 149.09 29.5178C155.235 43.0305 145.395 51.8817 145.395 51.8817C145.395 51.8817 151.696 37.3693 143.755 30.0906C134.937 22.0257 124.445 27.1702 124.445 27.1702L125.883 20.9699Z" fill="#FFDA24"/>
<path d="M124.894 13.1853C123.389 9.55723 120.345 6.00776 116.155 4.03084C111.965 2.02022 107.292 1.9079 103.518 3.06485C100.53 3.96345 98.1264 5.55846 96.3516 7.28827C96.711 7.84989 97.0143 8.38905 97.2614 8.95068C99.0812 7.51292 101.451 6.27734 104.181 5.69325C107.461 4.9856 111.314 5.28888 114.762 6.92883C118.222 8.55754 120.873 11.3432 122.412 14.331C123.984 17.3189 124.423 20.4977 124.254 23.1261C124.119 25.7657 123.378 27.8774 122.771 29.2703C122.131 30.6743 121.626 31.3932 121.659 31.3932C121.637 31.3707 122.288 30.7979 123.209 29.5174C124.086 28.2369 125.265 26.1926 125.86 23.3395C126.456 20.5314 126.422 16.8471 124.883 13.1853H124.894Z" fill="#181415"/>
<path d="M150.445 45.4116C150.445 45.4116 158.286 47.5008 158.454 55.5995C158.612 63.2039 152.557 66.7196 152.557 66.7196L155.208 68.1012C155.208 68.1012 162.712 63.6419 162.105 54.4987C161.532 45.3442 151.4 42.918 151.4 42.918L150.457 45.4116H150.445Z" fill="#FFDA24"/>
<path d="M160.568 55.1279C160.827 58.3516 159.872 61.4742 158.221 63.7881C157.21 65.2371 155.952 66.3941 154.671 67.2365C154.941 67.3713 155.21 67.5061 155.48 67.6746C155.884 67.9105 156.289 68.2025 156.659 68.5282C157.974 67.7869 159.243 66.776 160.355 65.4618C162.635 62.8446 164.084 58.9469 163.77 54.8695C163.478 50.8034 161.4 47.164 158.715 44.9512C156.569 43.1091 154.087 42.2105 151.885 41.9297C151.717 42.5362 151.526 43.1316 151.312 43.682C153.222 44.2099 155.233 45.2433 156.884 46.9394C158.883 48.9612 160.31 51.8929 160.546 55.1166L160.568 55.1279Z" fill="#181415"/>
<path d="M152.446 34.9653C152.075 31.0677 150.346 26.7769 147.111 23.4745C143.898 20.1497 139.562 18.3188 135.619 18.0829C131.935 17.8021 128.655 18.7456 126.229 20.0486C126.229 20.7001 126.184 21.3291 126.094 21.9132C126.195 21.8795 126.262 21.8458 126.363 21.8121C128.801 20.8124 131.957 20.2395 135.316 20.7675C138.663 21.2617 142.101 22.9353 144.808 25.7322C147.515 28.4842 149.132 31.9775 149.739 35.3472C150.379 38.7058 150.042 41.907 149.278 44.4568C148.537 47.029 147.403 48.961 146.526 50.2191C145.65 51.4771 145.044 52.0949 145.044 52.1061C145.044 52.0837 145.785 51.6344 146.92 50.5336C148.054 49.4553 149.593 47.6581 150.784 45.0297C151.997 42.4125 152.828 38.8855 152.435 34.9653H152.446Z" fill="#181415"/>
<path d="M143.977 69.5615C143.977 69.5615 146.088 67.7193 148.728 67.3599C153.727 66.686 159.905 69.3368 158.928 76.6379C157.276 89.0274 145.886 83.6807 145.886 83.6807C145.886 83.6807 154.535 83.9728 154.356 75.7281C154.154 66.7534 143.977 69.5615 143.977 69.5615Z" fill="#FFDA24"/>
<path d="M152.267 84.9278L154.379 84.5908C154.379 84.5908 159.838 88.4436 157.4 94.2171C154.985 99.9906 147.234 97.9238 147.234 97.9238C147.234 97.9238 152.469 97.2049 153.794 92.9703C155.446 87.7921 152.278 84.9166 152.278 84.9166L152.267 84.9278Z" fill="#FFDA24"/>
<path d="M158.356 87.3199C157.615 85.8372 156.537 84.7926 155.447 84.1074C154.852 84.4444 154.268 84.714 153.661 84.9162C153.695 84.9386 153.728 84.9611 153.762 84.9836C154.627 85.8148 155.413 86.9717 155.84 88.3645C156.267 89.7461 156.267 91.3524 155.75 92.8688C155.234 94.3852 154.245 95.6657 153.077 96.4969C151.897 97.3618 150.538 97.7774 149.359 97.9122C148.617 97.9796 147.943 97.9459 147.359 97.856C147.55 98.2491 147.696 98.6535 147.854 99.0691C148.28 99.2601 148.719 99.4061 149.258 99.5296C150.673 99.8217 152.571 99.7655 154.425 98.8669C156.267 98.002 158.008 96.2385 158.783 93.9246C159.581 91.6107 159.255 89.1621 158.345 87.3424L158.356 87.3199Z" fill="#181415"/>
<path d="M160.036 74.7401C160.441 77.8515 159.16 80.873 157.295 82.6927C155.408 84.5573 153.038 85.3211 151.151 85.366C149.264 85.4334 147.837 84.8943 146.961 84.4337C146.051 83.962 145.681 83.5913 145.658 83.6025C145.658 83.6025 146.186 83.7935 147.096 83.962C148.039 84.1192 149.41 84.1979 150.949 83.771C152.454 83.3667 154.094 82.4007 155.273 80.8618C156.453 79.3454 157.093 77.2562 156.846 75.122C156.588 72.9991 155.442 71.1232 153.959 69.9214C152.443 68.7082 150.612 68.1691 149.062 68.1354C147.478 68.0905 146.152 68.4948 145.299 68.8655C144.434 69.2362 143.996 69.5731 143.984 69.5619C144.007 69.5731 144.276 69.1014 145.029 68.4499C145.77 67.7872 147.04 66.9335 148.893 66.5404C150.735 66.1472 153.218 66.3157 155.487 67.6861C157.745 69.0115 159.71 71.6175 160.047 74.7513L160.036 74.7401Z" fill="#181415"/>
<path d="M55.0697 35.5379C55.0697 35.5379 51.4527 24.4402 61.6297 19.6889C71.7955 14.96 77.7489 21.2839 77.7489 21.2839C77.7489 21.2839 70.0432 18.5094 63.09 22.6767C56.1143 26.844 55.0809 35.5379 55.0809 35.5379H55.0697Z" fill="#FFDA24"/>
<path d="M57.2275 20.7343L61.0468 18.4654C61.0468 18.4654 51.0158 14.3655 44.9612 19.4875C38.8955 24.6096 41.3105 32.4049 41.3105 32.4049C41.3105 32.4049 43.7818 23.2729 49.6903 20.8916C55.2281 18.6788 57.2275 20.7343 57.2275 20.7343Z" fill="#FFDA24"/>
<path d="M59.9659 18.1732C62.3473 16.6568 65.0882 16.0166 67.5032 16.0727C69.9071 16.1177 71.9964 16.8028 73.5578 17.6453C75.1079 18.4877 76.1526 19.4537 76.8041 20.1501C77.4668 20.8578 77.7477 21.2958 77.7477 21.2958C77.7477 21.3408 76.029 19.9479 72.9624 19.1392C69.9408 18.3192 65.4813 18.454 61.6734 20.8915C59.7638 22.0821 58.2585 23.6659 57.1914 25.3283C56.1131 27.0019 55.5065 28.7542 55.2032 30.2931C54.5742 33.4157 55.1021 35.5499 55.0347 35.5386C55.0572 35.5386 54.7651 35.0893 54.4281 34.202C54.0687 33.3146 53.6531 31.9442 53.5857 30.192C53.4958 28.4397 53.7879 26.2494 54.7988 24.0478C55.8098 21.8462 57.5509 19.6784 59.9659 18.1732Z" fill="#181415"/>
<path d="M36.1442 57.2618C36.3127 56.9473 36.4812 56.6328 36.6497 56.3408C36.1554 55.8128 35.6836 55.2288 35.268 54.5885C33.6505 52.1847 32.6957 48.9947 32.999 45.6811C33.2685 42.3675 34.7064 39.3909 36.717 37.3017C38.7053 35.1787 41.2214 33.9769 43.4792 33.5388C45.7258 33.1007 47.6691 33.3141 48.9834 33.6174C50.2864 33.9207 50.9828 34.2464 50.9828 34.2352C50.9828 34.2352 50.4099 33.741 49.1631 33.1344C47.9162 32.5391 45.9168 31.8652 43.2995 31.9438C40.7159 32.0112 37.537 32.9884 34.8748 35.336C32.1902 37.6387 30.1233 41.3005 29.8088 45.434C29.4381 49.5451 30.8535 53.5214 33.1 56.2172C33.8639 57.1607 34.7063 57.947 35.605 58.6097C35.7622 58.1492 35.9644 57.6999 36.1666 57.2618H36.1442Z" fill="#181415"/>
<path d="M54.6978 15.0387C51.6424 14.7804 48.0591 15.6116 45.1386 17.7794C42.218 19.9361 40.3421 23.0812 39.6794 26.0915C39.1402 28.4728 39.275 30.708 39.7243 32.5839C40.3534 32.3817 40.9711 32.2244 41.5665 32.1233C41.4766 30.4834 41.6564 28.6525 42.2967 26.8216C43.1054 24.4291 44.7342 22.0702 47.0594 20.3741C49.3621 18.6556 52.0917 17.8244 54.6304 17.757C56.3827 17.6896 58.0452 17.9929 59.4942 18.4871C59.6403 18.386 59.7975 18.2624 59.966 18.1726C60.4378 17.8693 60.9433 17.6109 61.4375 17.3751C59.7301 16.2069 57.4049 15.2409 54.6978 15.0387Z" fill="#181415"/>
<path d="M94.4297 36.6282C94.4297 36.6282 97.002 32.225 101.742 30.9333C106.224 29.7202 112.268 31.3601 115.109 37.5717C120.614 49.6129 107.269 53.1961 107.269 53.1961C107.269 53.1961 115.75 45.5468 110.481 37.7963C105.258 30.147 94.4297 36.6282 94.4297 36.6282Z" fill="#FFDA24"/>
<path d="M97.4502 33.2015L99.7642 31.2808C99.7642 31.2808 96.282 24.1032 87.9359 25.541C79.5787 26.99 79.6797 36.8409 79.6797 36.8409C79.6797 36.8409 81.4321 29.2365 88.8233 28.5737C96.1921 27.8998 97.4502 33.224 97.4502 33.224V33.2015Z" fill="#FFDA24"/>
<path d="M114.447 34.37C116.592 37.1332 117.3 40.6153 116.828 43.547C116.39 46.4899 114.874 48.815 113.312 50.2752C111.74 51.7691 110.122 52.4543 109.021 52.8025C107.909 53.1395 107.269 53.1732 107.269 53.1957C107.269 53.1732 107.875 52.971 108.853 52.4206C109.796 51.8478 111.155 50.9042 112.301 49.3654C113.447 47.849 114.402 45.7148 114.537 43.2998C114.671 40.8961 113.964 38.2115 112.268 36.0661C110.594 33.8982 108.179 32.5391 105.831 32.0786C103.45 31.6068 101.147 31.9887 99.3946 32.7301C97.6198 33.4602 96.373 34.516 95.5754 35.3023C94.8004 36.0998 94.4409 36.639 94.4297 36.6277C94.4522 36.6277 94.6319 36.0324 95.2385 35.0327C95.845 34.0555 96.9234 32.6627 98.7543 31.5057C100.574 30.36 103.18 29.4839 106.157 29.7871C109.1 30.0567 112.301 31.6068 114.447 34.3812V34.37Z" fill="#181415"/>
<path d="M99.0679 31.3149C99.697 30.9554 100.371 30.6297 101.112 30.3601C99.9329 27.8665 97.5964 25.5414 94.5186 24.508C91.3397 23.4072 87.9586 23.8565 85.4649 25.1707C82.9263 26.4849 81.275 28.5629 80.4325 30.4387C79.5901 32.3258 79.4553 33.9994 79.489 35.1115C79.5227 36.2235 79.68 36.8188 79.68 36.8188C79.6912 36.8188 79.6912 36.201 79.8934 35.1564C80.0956 34.1118 80.5674 32.6066 81.6008 31.079C82.6342 29.5626 84.2518 28.0462 86.4197 27.1813C88.5427 26.3164 91.1824 26.1367 93.6649 26.9904C96.0126 27.7879 97.9109 29.4391 99.0679 31.3036V31.3149Z" fill="#181415"/>
<path opacity="0.46" fill-rule="evenodd" clip-rule="evenodd" d="M108.011 49.5899C104.63 52.7125 105.001 47.276 101.901 43.8838C98.778 40.5028 93.3188 40.4579 96.6999 37.324C100.092 34.2014 105.383 34.4148 108.494 37.7958C111.64 41.188 111.404 46.4672 108.023 49.5899H108.011Z" fill="#FFBC00"/>
<path opacity="0.46" fill-rule="evenodd" clip-rule="evenodd" d="M94.465 35.7515C94.465 38.9865 91.8252 36.2008 88.5901 36.2008C85.3438 36.2008 82.7266 38.9865 82.7266 35.7403C82.749 32.5054 85.3663 29.877 88.5901 29.877C91.814 29.877 94.465 32.5166 94.465 35.7515Z" fill="#FFBC00"/>
<path opacity="0.46" fill-rule="evenodd" clip-rule="evenodd" d="M143.415 48.3773C139.124 54.4316 137.945 45.7152 131.89 41.4131C125.847 37.1111 117.209 38.8296 121.522 32.7866C125.847 26.7435 134.227 25.3282 140.27 29.6415C146.313 33.9435 147.74 42.3454 143.415 48.3885V48.3773Z" fill="#FFBC00"/>
<path opacity="0.46" fill-rule="evenodd" clip-rule="evenodd" d="M151.258 64.4504C147.337 65.2254 150.089 61.3615 149.303 57.4189C148.528 53.4763 144.484 50.9602 148.427 50.1739C152.358 49.3989 156.2 51.9486 156.975 55.88C157.773 59.8226 155.223 63.6529 151.269 64.4392L151.258 64.4504Z" fill="#FFBC00"/>
<path fill-rule="evenodd" clip-rule="evenodd" d="M94.2639 14.5225C95.0614 19.5771 90.2762 15.8591 85.2214 16.6567C80.1666 17.4429 76.7518 22.4414 75.9767 17.3868C75.1679 12.3321 78.6277 7.60326 83.6825 6.80575C88.7485 6.01948 93.4776 9.47909 94.2526 14.5225H94.2639Z" fill="#FFBC00"/>
<path fill-rule="evenodd" clip-rule="evenodd" d="M78.3399 27.9897C80.9123 33.2465 74.4197 30.7866 69.1514 33.3589C63.8832 35.9086 61.8163 42.5358 59.2665 37.2565C56.7166 31.9885 58.907 25.6534 64.1865 23.0811C69.4435 20.5313 75.7788 22.7217 78.3399 27.9897Z" fill="#FFBC00"/>
<path opacity="0.46" fill-rule="evenodd" clip-rule="evenodd" d="M120.047 26.8778C117.396 32.7187 114.959 25.5299 109.117 22.8791C103.276 20.2394 96.2445 23.1374 98.8842 17.2853C101.535 11.4444 108.41 8.86091 114.262 11.5005C120.114 14.1402 122.709 21.0257 120.058 26.8778H120.047Z" fill="#FFBC00"/>
<path opacity="0.31" fill-rule="evenodd" clip-rule="evenodd" d="M77.8576 53.9032C80.576 50.1066 81.3061 55.5881 85.1028 58.3176C88.8883 61.0471 94.3251 59.98 91.5955 63.7766C88.8546 67.5731 83.5864 68.438 79.8009 65.7198C76.0042 62.9791 75.1393 57.6998 77.8576 53.9144V53.9032Z" fill="#FFBC00"/>
<path opacity="0.31" fill-rule="evenodd" clip-rule="evenodd" d="M99.9638 71.3813C103.176 65.5067 105.165 73.156 111.051 76.3573C116.926 79.5585 124.463 77.0761 121.25 82.9507C118.071 88.8253 110.702 91.0044 104.828 87.8032C98.9528 84.6132 96.7849 77.2671 99.9638 71.3813Z" fill="#FFBC00"/>
<path opacity="0.53" fill-rule="evenodd" clip-rule="evenodd" d="M126.422 82.9957C126.028 79.1878 129.443 82.1757 133.251 81.7938C137.07 81.4119 139.845 77.8287 140.216 81.6365C140.586 85.4556 137.812 88.8366 134.004 89.2185C130.185 89.5891 126.803 86.8035 126.433 82.9957H126.422Z" fill="#FFBC00"/>
</svg>
