<svg width="142" height="159" viewBox="0 0 142 159" fill="none" xmlns="http://www.w3.org/2000/svg">
<path fill-rule="evenodd" clip-rule="evenodd" d="M42.1489 81.7107C42.1489 80.1943 41.8793 78.7677 41.4075 77.4535C39.9585 73.4997 36.5549 70.7365 32.5897 70.7365C27.2653 70.7028 22.9631 75.6002 22.9294 81.6433C22.9294 82.789 23.0979 83.9122 23.3675 84.9568C21.2669 86.3384 19.8516 88.7085 19.8516 91.4155C19.8404 95.7063 23.3001 99.1884 27.5911 99.1884C31.6237 99.2221 34.9598 96.1444 35.3305 92.1569C39.2621 90.809 42.1152 86.6529 42.1602 81.7219L42.1489 81.7107Z" fill="#FF9A00"/>
<path fill-rule="evenodd" clip-rule="evenodd" d="M15.3915 0.589844L75.1618 48.8783L75.8021 78.9814L36.3521 74.2862L0.148438 16.4726L15.3915 0.589844Z" fill="#DD5E00"/>
<path fill-rule="evenodd" clip-rule="evenodd" d="M31.7691 15.8319C33.1058 14.4503 38.5425 19.3139 38.5425 19.3139L15.3803 0.600586L0.148438 16.4834L12.4485 36.1178C12.4485 36.1178 8.03396 28.884 11.3701 27.1655C14.7175 25.4132 24.7148 40.8466 24.7148 40.8466C24.7148 40.8466 11.4038 20.8079 15.4589 18.1795C19.514 15.5398 34.7571 34.9383 34.7571 34.9383C34.7571 34.9383 23.5354 19.5947 26.2088 17.9773C29.2978 16.0902 41.0924 29.8051 41.0924 29.8051C41.0924 29.8051 30.4436 17.2359 31.7803 15.8543L31.7691 15.8319Z" fill="#181415"/>
<path fill-rule="evenodd" clip-rule="evenodd" d="M65.8981 51.6075C62.4833 54.5168 45.4879 35.9944 45.4879 35.9944C45.4879 35.9944 67.1449 62.0762 62.9551 65.255C58.7315 68.4675 50.8235 58.0213 50.8235 58.0213C50.8235 58.0213 56.3613 66.7377 52.677 68.7708C49.1274 70.7253 30.7615 45.4297 30.7615 45.4297C30.7615 45.4297 44.4657 66.7153 40.1523 68.7034C35.8501 70.7253 20.2812 48.6309 20.2812 48.6309L36.3331 74.2748L75.7831 78.9699L75.1428 48.8668L44.0276 23.7285C44.0276 23.7285 69.3354 48.732 65.8869 51.6075H65.8981Z" fill="#181415"/>
<path fill-rule="evenodd" clip-rule="evenodd" d="M139.962 103.839C139.962 98.9078 136.48 94.7855 131.852 93.9093C135.335 92.7636 137.851 89.4837 137.862 85.5973C137.896 80.7673 133.964 76.8135 129.112 76.7798C129.01 76.7798 128.909 76.8135 128.808 76.8135C132.897 74.9938 135.773 70.9389 135.806 66.1988C135.806 59.7513 130.639 54.5057 124.214 54.5057C122.158 54.5057 120.26 55.0112 118.586 55.921C119.024 54.7416 119.283 53.4162 119.283 52.0683C119.316 45.8567 114.284 40.7796 108.061 40.7796C103.77 40.7459 100.018 43.1497 98.1087 46.6879C97.1764 41.5546 92.7169 37.6682 87.3251 37.6682C82.0681 37.6345 77.6648 41.3188 76.564 46.2161C76.4629 46.2161 76.3842 46.1824 76.2944 46.2161C72.1719 46.1824 68.8245 49.6645 68.7908 53.9553C68.7908 56.3591 69.8242 58.482 71.4417 59.931C68.7571 61.0767 66.8587 63.8849 66.8475 67.1647C66.825 69.3551 67.6787 71.3208 69.0267 72.7698C68.5212 72.6687 67.982 72.6013 67.4541 72.6013C64.2078 72.6013 61.3883 74.4209 59.9393 77.0943C58.8946 73.3763 55.6595 71.0175 52.5705 71.7251C50.6496 72.1969 49.2118 73.7919 48.5828 75.8475C47.0776 74.8703 45.2578 74.2974 43.2921 74.2974C38.0575 74.2637 33.7778 78.2849 33.7778 83.2834C33.7553 85.2041 34.3844 87.0014 35.429 88.4503C34.5866 88.7873 33.789 89.2254 33.0477 89.6971C29.6329 91.9998 27.3863 95.8413 27.3751 100.267C27.3526 107.332 33.0477 113.072 40.0907 113.072C40.5288 113.072 40.9669 113.072 41.3937 113.005C41.214 113.746 41.1017 114.487 41.1017 115.24C41.068 119.632 44.2469 123.316 48.4031 124.091C46.179 125.709 44.7187 128.348 44.7074 131.325C44.685 135.649 47.7628 139.3 51.8516 140.142C51.4584 141.221 51.245 142.411 51.245 143.624C51.2113 149.297 55.7718 153.891 61.4445 153.891C64.9267 153.925 67.982 152.206 69.8579 149.566C71.3294 153.722 75.261 156.733 79.8889 156.766C85.8199 156.8 90.6388 151.936 90.6613 145.916C90.6613 145.276 90.5939 144.635 90.4928 144.062C94.0761 147.544 99.5465 148.926 104.781 147.174C112.127 144.703 116.182 137.042 113.835 130.011C113.801 129.876 113.734 129.775 113.7 129.64C115.419 130.718 117.452 131.358 119.608 131.358C125.876 131.392 130.965 126.326 130.999 120.104C130.999 117.733 130.291 115.577 129.067 113.791C129.37 113.825 129.639 113.825 129.943 113.825C135.413 113.825 139.873 109.365 139.906 103.828L139.962 103.839Z" fill="#FF9A00"/>
<path fill-rule="evenodd" clip-rule="evenodd" d="M138.188 98.0659C136.716 95.9429 134.459 94.4153 131.853 93.9098C133.066 93.5055 134.155 92.8315 135.065 92.0228C133.717 90.7423 132.044 89.8549 130.168 89.5179C133.661 88.3722 136.177 85.0923 136.211 81.2059C136.211 80.9363 136.177 80.6667 136.166 80.3971C134.56 78.2293 132.021 76.814 129.123 76.7803C129.022 76.7803 128.921 76.814 128.82 76.814C130.269 76.1737 131.561 75.2639 132.639 74.1069C131.19 73.0286 129.393 72.4221 127.449 72.3884C127.348 72.3884 127.258 72.4221 127.157 72.4221C131.246 70.6024 134.122 66.5475 134.122 61.8074C134.122 61.1334 134.077 60.5268 133.964 59.8866C131.909 56.6741 128.303 54.5175 124.214 54.5175C122.159 54.5175 120.26 55.0229 118.586 55.9328C119.025 54.7534 119.283 53.4279 119.283 52.08C119.283 51.6083 119.249 51.1028 119.182 50.631C118.407 50.8669 117.632 51.1702 116.924 51.5409C117.362 50.3277 117.598 49.036 117.62 47.6881C117.643 47.1153 117.576 46.5424 117.508 45.9695C116.239 44.0151 114.397 42.4875 112.206 41.6113C112.24 41.7798 112.296 41.9483 112.307 42.1505C113.453 43.9365 114.127 46.1043 114.127 48.3958C114.105 51.4735 112.914 54.2367 110.948 56.3372C112.903 57.7524 114.262 60.0214 114.498 62.5936C115.565 64.0426 116.205 65.8735 116.183 67.828C116.183 70.3328 115.104 72.6242 113.374 74.208C115.059 75.7581 116.183 77.8923 116.52 80.2848C117.632 81.9023 118.272 83.9017 118.272 86.0246C118.238 91.596 113.779 96.0552 108.308 96.0552C108.039 96.0552 107.78 96.0215 107.511 95.9879L107.567 96.19C108.679 97.9423 109.353 100.043 109.353 102.301C109.319 108.557 104.253 113.589 97.9853 113.555C95.8062 113.555 93.7842 112.949 92.0544 111.871C92.0881 111.972 92.1555 112.106 92.1892 112.208C94.5368 119.239 90.5042 126.945 83.1354 129.371C77.9121 131.123 72.4305 129.742 68.8584 126.259C68.9595 126.866 69.0157 127.473 69.0157 128.146C69.0045 134.122 64.1855 138.986 58.2433 138.963C53.6153 138.963 49.6951 135.953 48.2123 131.763C47.6731 132.538 46.9992 133.212 46.2578 133.819C47.3923 134.762 48.7403 135.436 50.2455 135.74C49.8411 136.852 49.6164 138.009 49.6164 139.222V139.323C50.3241 139.693 51.088 139.963 51.8967 140.132C51.5036 141.21 51.2902 142.401 51.2902 143.614C51.2902 144.085 51.3239 144.557 51.3913 144.995C53.211 147.702 56.3113 149.488 59.8159 149.488C63.2757 149.522 66.3535 147.803 68.2181 145.164C69.7009 149.32 73.6437 152.33 78.2828 152.364C84.1914 152.397 89.0327 147.534 89.044 141.513C89.044 140.873 88.9878 140.266 88.8867 139.66C92.47 143.142 97.9404 144.523 103.175 142.771C110.51 140.3 114.565 132.639 112.217 125.608C112.173 125.507 112.128 125.372 112.06 125.237C113.801 126.316 115.823 126.956 118.002 126.956C124.248 126.99 129.336 121.924 129.359 115.701C129.381 115.094 129.325 114.521 129.247 113.949C129.213 113.881 129.157 113.814 129.123 113.78H129.213C128.943 112.196 128.337 110.702 127.472 109.388C127.741 109.422 128.045 109.422 128.337 109.422C133.807 109.456 138.289 104.963 138.289 99.425C138.289 98.9532 138.255 98.4815 138.21 98.0434L138.188 98.0659Z" fill="#C66C01"/>
<path fill-rule="evenodd" clip-rule="evenodd" d="M116.004 56.2697C115.173 60.9312 112.084 56.2023 107.389 55.3935C102.693 54.5848 98.2002 57.9658 99.009 53.2257C99.8515 48.5642 104.311 45.4191 109.006 46.2616C113.702 47.0703 116.824 51.5633 116.004 56.2585V56.2697Z" fill="#FFBC00"/>
<path opacity="0.31" fill-rule="evenodd" clip-rule="evenodd" d="M103.976 93.3362C99.9542 90.9325 105.357 89.7531 107.739 85.7318C110.12 81.7443 108.604 76.4089 112.625 78.8126C116.635 81.2051 117.949 86.417 115.568 90.4046C113.175 94.3921 107.963 95.74 103.976 93.3475V93.3362Z" fill="#FFBC00"/>
<path opacity="0.31" fill-rule="evenodd" clip-rule="evenodd" d="M71.6197 123.204C69.1485 118.374 75.1806 120.53 80.0219 118.07C84.8409 115.599 86.6269 109.455 89.0757 114.285C91.5469 119.115 89.6373 125.001 84.8184 127.494C79.9882 129.932 74.0685 128.034 71.6197 123.204Z" fill="#FFBC00"/>
<path opacity="0.46" fill-rule="evenodd" clip-rule="evenodd" d="M71.0136 107.489C70.3509 104.782 73.1142 106.613 75.7988 105.939C78.506 105.299 80.1235 102.423 80.7863 105.13C81.449 107.837 79.7865 110.533 77.0906 111.207C74.406 111.847 71.6876 110.196 71.0249 107.489H71.0136Z" fill="#FFBC00"/>
<path opacity="0.46" fill-rule="evenodd" clip-rule="evenodd" d="M47.8186 80.4302C49.7057 82.4858 46.4369 82.2499 44.3925 84.1482C42.3482 86.0353 42.3481 89.3152 40.4498 87.2933C38.5626 85.2715 38.6638 82.0927 40.7081 80.1944C42.7525 78.3073 45.9314 78.4084 47.8186 80.4302Z" fill="#FFBC00"/>
<path opacity="0.46" fill-rule="evenodd" clip-rule="evenodd" d="M78.98 63.9072C81.4512 65.2214 78.2498 66.0751 76.958 68.5013C75.6438 70.9724 76.666 74.0726 74.2172 72.7584C71.7797 71.4442 70.8698 68.4002 72.1953 65.929C73.5095 63.4916 76.5536 62.5817 78.9912 63.9072H78.98Z" fill="#FFBC00"/>
<path opacity="0.65" fill-rule="evenodd" clip-rule="evenodd" d="M37.4556 90.7308C41.9487 87.8216 40.4323 93.977 43.3641 98.5037C46.3071 102.997 52.5751 104.109 48.0595 107.085C43.5663 109.995 37.5342 108.703 34.5912 104.21C31.6706 99.7168 32.9175 93.7074 37.4443 90.7308H37.4556Z" fill="#FFBC00"/>
<path opacity="0.65" fill-rule="evenodd" clip-rule="evenodd" d="M95.4585 52.1468C95.1215 56.8083 91.6393 52.5175 86.9777 52.1468C82.316 51.8099 78.2272 55.5278 78.5754 50.8663C78.9349 46.2048 83.0012 42.7228 87.6628 43.0935C92.3245 43.4304 95.818 47.4854 95.4473 52.1468H95.4585Z" fill="#FFBC00"/>
<path fill-rule="evenodd" clip-rule="evenodd" d="M75.5461 82.2834C76.8491 85.934 72.7603 83.8335 69.1096 85.1252C65.4589 86.4394 63.6055 90.6629 62.3137 87.0123C60.9994 83.3618 62.909 79.3068 66.5709 78.0263C70.2216 76.7121 74.243 78.6329 75.5461 82.2834Z" fill="#FFBC00"/>
<path opacity="0.31" fill-rule="evenodd" clip-rule="evenodd" d="M93.643 109.995C90.2956 107.086 95.5301 106.883 98.4395 103.536C101.326 100.189 100.787 94.9883 104.146 97.8975C107.493 100.807 107.83 105.839 104.943 109.186C102.056 112.567 96.9904 112.904 93.643 109.995Z" fill="#FFBC00"/>
<path fill-rule="evenodd" clip-rule="evenodd" d="M81.9365 40.735C81.914 45.4639 78.0499 49.3166 73.3096 49.3166C68.558 49.2829 64.7276 45.3965 64.7501 40.6676C64.7613 35.9387 68.6367 32.0859 73.377 32.0859C78.1285 32.1196 81.9589 36.0061 81.9365 40.735Z" fill="#FF9A00"/>
<path d="M73.3627 30.4909C75.5981 30.4909 77.6537 31.3333 79.069 32.5464C80.5181 33.7595 81.3718 35.2535 81.7761 36.534C82.1805 37.8145 82.1805 38.9377 82.1131 39.6454C82.0457 40.353 81.911 40.7237 81.9334 40.7237C81.8997 40.7574 81.6863 39.1062 80.3271 37.2416C79.0465 35.422 76.4068 33.6585 73.3627 33.6922C70.2849 33.6585 67.6676 35.377 66.3646 37.2079C65.0166 39.0276 64.7583 40.69 64.7246 40.6563C64.7358 40.6563 64.601 40.2856 64.5336 39.578C64.4887 38.8366 64.4999 37.7583 64.9043 36.4666C65.3087 35.1861 66.1736 33.6921 67.6452 32.5127C69.0605 31.3333 71.1386 30.446 73.3515 30.4909H73.3627Z" fill="#181415"/>
<path d="M106.532 148.241C104.42 149.151 102.162 149.555 100.005 149.488C97.8373 149.42 95.8041 148.881 94.0293 148.039C90.4348 146.32 88.132 143.377 87.1211 140.67C86.0764 137.963 86.1438 135.604 86.3797 134.088C86.638 132.572 86.9863 131.752 86.9863 131.752C86.9863 131.752 86.8178 132.628 86.8852 134.122C86.9525 135.604 87.312 137.772 88.5701 139.996C89.8169 142.187 92.0523 144.388 95.1076 145.534C98.1293 146.68 101.881 146.747 105.273 145.298C108.688 143.883 111.238 141.108 112.451 138.132C113.721 135.121 113.631 132.021 112.856 129.584C112.081 127.146 110.721 125.394 109.677 124.349C108.632 123.305 107.902 122.833 107.924 122.833C107.913 122.833 108.722 123.103 110.025 123.979C111.272 124.821 113.069 126.382 114.35 128.977C115.63 131.549 116.237 135.267 115.024 139.041C113.855 142.827 110.8 146.477 106.532 148.23V148.241Z" fill="#181415"/>
<path d="M139.37 84.0813C139.594 85.6651 139.415 87.2601 138.943 88.6417C138.437 90.057 137.662 91.3151 136.708 92.2586C134.798 94.213 132.383 94.9993 130.462 95.0667C128.519 95.1341 127.047 94.595 126.137 94.1232C125.239 93.6514 124.834 93.2808 124.834 93.2808C124.834 93.2808 125.362 93.483 126.306 93.6514C127.25 93.8199 128.676 93.921 130.226 93.4829C131.776 93.0786 133.473 92.1013 134.652 90.4726C135.865 88.9225 136.505 86.7547 136.168 84.5643C135.865 82.3628 134.63 80.4757 133.023 79.2963C131.439 78.1169 129.541 77.6451 127.935 77.7125C126.317 77.7125 124.98 78.1843 124.127 78.6224C123.251 79.0604 122.812 79.4311 122.812 79.3974C122.812 79.4311 123.082 78.9256 123.823 78.218C124.554 77.5103 125.812 76.5668 127.71 76.0838C129.552 75.612 132.102 75.6794 134.472 77.0273C136.842 78.2741 138.909 80.8801 139.359 84.0926L139.37 84.0813Z" fill="#181415"/>
<path d="M138.17 95.9091C137.137 94.9318 135.968 94.2242 134.823 93.7412C133.879 94.3141 132.924 94.651 132.003 94.8532C133.486 95.3924 135.025 96.3359 136.216 97.7624C137.631 99.481 138.518 101.885 138.316 104.412C138.148 106.951 136.934 109.208 135.238 110.657C133.587 112.174 131.509 112.893 129.701 113.027C127.892 113.162 126.387 112.758 125.376 112.387C124.376 111.983 123.859 111.646 123.859 111.646C123.859 111.646 124.23 112.118 125.14 112.825C126.016 113.499 127.533 114.375 129.644 114.645C131.722 114.914 134.497 114.544 136.923 112.825C139.327 111.174 141.304 108.164 141.518 104.648C141.821 101.2 140.316 97.886 138.17 95.8979V95.9091Z" fill="#181415"/>
<path d="M130.62 114.724C130.283 114.724 129.957 114.69 129.642 114.656C129.328 114.589 129.013 114.521 128.71 114.454C128.822 114.724 128.946 114.96 129.047 115.195C129.654 116.813 129.991 118.913 129.62 121.036C129.283 123.159 128.205 125.361 126.441 127.079C124.689 128.764 122.442 129.719 120.297 129.989C118.129 130.292 116.084 129.888 114.489 129.18C114.478 129.18 114.456 129.18 114.422 129.146C114.759 129.854 115.062 130.663 115.264 131.516C116.713 132.224 118.477 132.729 120.454 132.696C123.206 132.729 126.329 131.685 128.676 129.382C131.024 127.147 132.237 124.047 132.327 121.306C132.439 118.666 131.653 116.341 130.62 114.712V114.724Z" fill="#181415"/>
<path d="M89.9192 145.028C89.8967 145.264 89.9192 145.5 89.8855 145.77C89.717 147.634 89.0093 149.723 87.5378 151.476C86.1 153.262 83.8759 154.655 81.3373 155.059C78.7874 155.463 76.2712 154.789 74.3616 153.509C72.4408 152.262 71.1378 150.465 70.4413 148.746C69.7449 147.028 69.5989 145.466 69.5989 144.354C69.6213 143.276 69.7337 142.636 69.7224 142.636C69.7337 142.669 69.4192 143.209 69.1159 144.287C68.8126 145.399 68.5093 147.095 68.9136 149.184C69.2843 151.285 70.4526 153.778 72.7329 155.677C74.9682 157.631 78.3718 158.788 81.8427 158.249C85.3249 157.743 88.2006 155.587 89.7732 153.116C91.1885 150.88 91.6491 148.488 91.5592 146.522C90.9526 146.05 90.4247 145.545 89.9417 145.04L89.9192 145.028Z" fill="#181415"/>
<path d="M68.9387 149.386C67.8379 150.532 66.299 151.554 64.4456 152.06C62.4012 152.632 59.9524 152.498 57.7845 151.487C55.6165 150.476 53.9877 148.645 53.1228 146.69C52.2803 144.736 52.1568 142.636 52.4825 140.951C52.7858 139.232 53.4822 137.907 54.0326 137.031C54.6055 136.188 55.0099 135.75 55.0099 135.75C55.0099 135.75 54.482 136.02 53.662 136.694C52.8532 137.401 51.7187 138.581 50.9211 140.479C50.1461 142.299 49.7754 144.871 50.5617 147.578C51.3368 150.285 53.3811 152.981 56.3916 154.407C59.402 155.822 62.7831 155.721 65.3442 154.643C67.1639 153.868 68.5681 152.711 69.579 151.464C69.2645 150.757 69.051 150.083 68.9162 149.397L68.9387 149.386Z" fill="#181415"/>
<path d="M47.0783 134.594C46.1685 132.774 46.0337 130.64 46.5054 128.854C46.8649 127.54 47.5164 126.394 48.2915 125.473H48.1567C47.449 125.372 46.7413 125.203 46.0112 124.934C45.2024 125.742 44.4723 126.72 43.9555 127.978C42.9558 130.28 42.8547 133.313 44.1802 136.02C45.4945 138.727 47.9432 140.547 50.3583 141.153C50.4594 141.187 50.5605 141.221 50.6616 141.221C50.729 140.951 50.8301 140.715 50.9312 140.479C51.2008 139.839 51.5041 139.3 51.8074 138.828C51.6276 138.761 51.4367 138.693 51.2345 138.592C49.5495 137.885 47.9882 136.492 47.0783 134.605V134.594Z" fill="#181415"/>
<path d="M23.1558 96.7845C22.1448 95.6725 21.3361 94.0775 21.2687 92.2578C21.1676 90.4719 21.8416 88.5062 23.2794 87.0909C23.3018 87.0572 23.3467 87.0235 23.3692 86.9898C23.2007 86.7202 23.0434 86.4506 22.8974 86.1474C22.5604 85.4734 22.2909 84.7321 22.0887 83.9121C21.718 84.1817 21.3473 84.4513 21.0103 84.7882C18.8199 86.9561 18.0673 90.09 18.5728 92.6285C19.0446 95.1671 20.6171 97.0204 22.1336 98.0314C23.6725 99.0423 25.1552 99.2782 26.0988 99.3119C27.0761 99.3119 27.5816 99.1771 27.5816 99.1771C27.5816 99.1771 27.0424 99.1097 26.1999 98.8064C25.3574 98.5031 24.178 97.8966 23.1558 96.7845Z" fill="#181415"/>
<path fill-rule="evenodd" clip-rule="evenodd" d="M39.1074 67.3891C37.9617 68.2315 31.1994 60.6271 24.0216 50.4617C16.8438 40.33 11.9575 31.4451 13.1257 30.5914C14.2715 29.7827 21.0337 37.3534 28.2003 47.5188C35.4006 57.6842 40.2644 66.5691 39.1074 67.3891Z" fill="#B54900"/>
<path opacity="0.09" fill-rule="evenodd" clip-rule="evenodd" d="M50.3244 64.3795C49.0101 65.3567 40.8438 56.7414 32.0934 45.1494C23.3429 33.5238 17.3109 23.3247 18.6251 22.3475C19.9394 21.3366 28.1169 29.9182 36.8673 41.5438C45.6178 53.1695 51.6274 63.3686 50.3131 64.3795H50.3244Z" fill="#FFBC00"/>
<path opacity="0.14" fill-rule="evenodd" clip-rule="evenodd" d="M60.5854 62.7615C59.2711 63.7725 51.1048 55.1571 42.3543 43.5427C33.6039 31.9508 27.5606 21.7517 28.8748 20.7408C30.2116 19.7298 38.3667 28.3452 47.1171 39.9708C55.8675 51.5627 61.9221 61.7618 60.5854 62.7728V62.7615Z" fill="#FFBC00"/>
<path opacity="0.26" fill-rule="evenodd" clip-rule="evenodd" d="M62.5217 48.777C61.6567 49.552 54.7148 43.3067 46.9978 34.8262C39.2808 26.3457 33.7317 18.8424 34.5966 18.0336C35.4616 17.2923 42.4147 23.5038 50.1205 32.0181C57.8263 40.4649 63.3866 48.0019 62.5217 48.777Z" fill="#FFBC00"/>
<path d="M27.3394 74.5896C28.8896 73.0395 30.8666 72.1521 32.7762 72.0847C34.697 71.9836 36.4605 72.6576 37.7748 73.5337C38.0444 73.7022 38.2466 73.8707 38.4825 74.0392C38.943 73.8707 39.3923 73.7022 39.8529 73.6348C39.5608 73.1967 39.2239 72.7587 38.8195 72.3206C37.5726 70.9727 35.5282 69.6136 32.8772 69.3777C30.26 69.0744 27.2046 70.119 25.0704 72.2869C22.9024 74.4548 21.8802 77.2516 21.6893 79.7228C21.4871 82.2613 22.06 84.4854 22.8687 86.1478C23.6775 87.7653 24.6885 88.8885 25.4523 89.5288C26.2162 90.1353 26.6879 90.4049 26.6879 90.4049C26.7441 90.4049 25.1041 88.7537 24.3852 85.6086C24.0145 84.0249 23.9246 82.0928 24.3627 80.1384C24.7896 78.1839 25.7668 76.1509 27.3169 74.6008L27.3394 74.5896Z" fill="#181415"/>
<path fill-rule="evenodd" clip-rule="evenodd" d="M77.1535 52.6975C77.1535 52.6975 73.0984 37.5561 88.5212 38.4098C102.36 39.1174 97.0807 53.7197 97.0807 53.7197C97.0807 53.7197 98.0242 41.5549 87.8248 41.1842C77.0524 40.8135 77.1423 52.7088 77.1423 52.7088L77.1535 52.6975Z" fill="#FFDA24"/>
<path fill-rule="evenodd" clip-rule="evenodd" d="M98.5938 50.0582L98.9532 45.5315C98.9532 45.5315 106.49 37.6912 114.14 42.2853C122.25 47.149 118.218 55.6296 118.218 55.6296C118.218 55.6296 117.555 47.2164 111.253 45.4641C102.604 43.0941 98.605 50.0582 98.605 50.0582H98.5938Z" fill="#FFDA24"/>
<path d="M116.857 47.5525C118.036 49.507 118.44 51.6749 118.373 53.4945C118.35 54.1685 118.272 54.775 118.148 55.3816C118.452 55.1457 118.777 54.9435 119.126 54.7413C119.328 54.6402 119.552 54.5392 119.766 54.4381C119.833 54.2022 119.923 53.9663 119.946 53.6967C120.451 51.6749 120.451 48.9678 119.238 46.2945C118.092 43.6549 115.688 41.1275 112.453 39.9481C109.241 38.7687 105.758 39.1394 103.164 40.3862C101.086 41.3971 99.5691 42.891 98.5469 44.3737C98.8052 45.1825 98.94 45.9912 98.985 46.7438C99.0524 46.6427 99.1085 46.5416 99.1872 46.4405C100.322 45.0252 102.04 43.6324 104.208 42.8911C106.354 42.1497 108.937 42.0823 111.341 42.9921C113.756 43.8683 115.688 45.5981 116.845 47.5525H116.857Z" fill="#181415"/>
<path d="M87.6628 36.0734C91.19 36.1408 94.3801 37.8931 96.2785 40.1957C98.233 42.4984 98.9969 45.1605 99.0193 47.3284C99.0867 49.4963 98.4914 51.1474 98.0084 52.1921C97.5029 53.2367 97.076 53.7084 97.0985 53.7084C97.076 53.7084 97.3344 53.1019 97.5366 52.0236C97.7163 50.9452 97.8511 49.3165 97.4355 47.4969C97.0311 45.6772 96.0538 43.6441 94.3127 42.0603C92.6053 40.4766 90.2015 39.3533 87.573 39.2859C84.9445 39.2185 82.4732 40.1621 80.676 41.6897C78.8787 43.1724 77.7667 45.1381 77.2612 46.924C76.7557 48.7437 76.7894 50.3387 76.9242 51.4507C77.059 52.5627 77.2612 53.1693 77.2387 53.1693C77.2612 53.1693 76.8793 52.6301 76.4075 51.5855C76.0031 50.5072 75.4976 48.8448 75.6661 46.6544C75.8234 44.5202 76.7108 41.8919 78.8113 39.6903C80.8333 37.5224 84.1132 35.9386 87.6628 36.0734Z" fill="#181415"/>
<path fill-rule="evenodd" clip-rule="evenodd" d="M114.386 59.9198C114.386 59.9198 126.181 46.306 134.875 62.7616C140.604 73.5785 129.18 76.0047 129.18 76.0047C129.18 76.0047 134.774 68.5688 130.494 62.3572C125.125 54.5844 114.375 59.9198 114.375 59.9198H114.386Z" fill="#FFDA24"/>
<path d="M135.711 59.6507C137.62 62.998 137.699 66.9519 136.587 69.9846C135.475 73.0623 133.296 75.1853 131.251 76.3422C129.207 77.5554 127.297 77.8249 126.05 77.8923C124.804 77.8923 124.13 77.7575 124.13 77.7575C124.13 77.7575 124.826 77.6901 125.983 77.3869C127.129 77.0499 128.769 76.3759 130.341 75.0617C131.914 73.7138 133.386 71.6807 133.992 69.1871C134.599 66.716 134.352 63.7506 132.914 61.2458C131.498 58.7072 129.128 56.9549 126.702 56.1799C124.231 55.4049 121.737 55.607 119.805 56.2473C117.85 56.8875 116.413 57.9322 115.514 58.7521C114.638 59.5946 114.233 60.1337 114.211 60.1337C114.233 60.1337 114.436 59.4935 115.143 58.4488C115.84 57.3705 117.064 55.9103 119.142 54.7646C121.187 53.6526 124.141 52.9112 127.331 53.5515C130.521 54.1917 133.857 56.3259 135.711 59.662V59.6507Z" fill="#181415"/>
<path fill-rule="evenodd" clip-rule="evenodd" d="M75.6319 47.4859C75.6319 47.4859 71.2398 45.318 69.4538 50.5636C67.6677 55.798 71.5543 58.5724 71.5543 58.5724L75.9464 58.7746C75.9464 58.7746 72.1609 57.5278 71.925 53.3043C71.7228 49.5527 75.6431 47.4971 75.6431 47.4971L75.6319 47.4859Z" fill="#FFDA24"/>
<path d="M75.666 46.6433C75.6997 46.1379 75.7783 45.6324 75.9019 45.0932C75.1268 45.0595 74.318 45.1269 73.4643 45.3291C71.3413 45.902 69.2071 47.5644 68.1287 49.8895C67.0166 52.2146 67.0841 54.8543 67.8928 56.8874C68.2972 57.8983 68.8364 58.707 69.4766 59.4259C69.7799 59.2574 70.0832 59.0889 70.3865 58.9541C70.7797 58.7856 71.1616 58.6509 71.5323 58.5835C71.0605 57.8421 70.6673 56.9997 70.4876 56.0449C70.1506 54.5622 70.2854 52.7987 71.0268 51.2824C71.7345 49.7323 72.9813 48.5416 74.3405 47.9014C74.7786 47.7329 75.2054 47.5981 75.621 47.497C75.621 47.2274 75.6435 46.9578 75.6547 46.6545L75.666 46.6433Z" fill="#181415"/>
<path fill-rule="evenodd" clip-rule="evenodd" d="M71.9615 73.0282L68.0412 70.9278C68.0412 70.9278 65.1544 64.5028 70.3552 60.8635C75.556 57.2129 80.2177 62.7505 80.2177 62.7505C80.2177 62.7505 75.4213 59.6391 72.1076 63.593C68.6254 67.749 71.9503 73.017 71.9503 73.017L71.9615 73.0282Z" fill="#FFDA24"/>
<path d="M79.5838 61.5144C79.0783 60.8068 78.2022 59.6948 76.5734 58.9422C75.0232 58.2008 72.6868 57.9313 70.3953 58.9422C68.1375 59.9194 66.1605 62.1547 65.509 64.9179C64.981 67.1195 65.3517 69.3435 66.2391 71.1295C67.4186 70.9947 68.5643 71.1295 69.6202 71.399C69.5191 71.2642 69.418 71.1295 69.3282 70.961C68.4969 69.4783 68.2161 67.5463 68.6317 65.6592C69.0698 63.8059 70.2156 62.2446 71.6422 61.3347C73.0575 60.4586 74.72 60.2227 76.0791 60.4586C77.4608 60.7282 78.5279 61.3347 79.2019 61.8739C79.8759 62.3794 80.2129 62.75 80.2129 62.75C80.2129 62.75 80.0781 62.2782 79.5726 61.5032L79.5838 61.5144Z" fill="#181415"/>
<path fill-rule="evenodd" clip-rule="evenodd" d="M61.0676 86.6756C61.0676 86.6756 54.6087 76.5439 65.4372 73.5673C76.2658 70.557 75.8951 81.138 75.8951 81.138C75.8951 81.138 73.0194 74.9264 66.6391 76.8809C60.2364 78.7679 61.0676 86.6756 61.0676 86.6756Z" fill="#FFDA24"/>
<path d="M58.6071 78.2288L59.3148 76.3417C59.3148 76.3417 58.0005 71.7477 52.8558 72.6912C47.7336 73.6347 48.52 80.2619 48.52 80.2619C48.52 80.2619 49.1265 75.6004 53.5073 75.0949C57.4276 74.6569 58.6071 78.24 58.6071 78.24V78.2288Z" fill="#FFDA24"/>
<path d="M63.9028 71.6462C66.4527 70.7026 69.1935 71.0059 71.2154 72.0169C73.2598 73.0278 74.6078 74.6902 75.2817 76.1392C75.9894 77.6219 76.0793 78.981 76.0568 79.8234C76.0231 80.6659 75.8883 81.1377 75.8883 81.1377C75.8883 81.1377 75.8209 80.6659 75.5513 79.8909C75.3042 79.1158 74.8099 78.0262 73.9338 77.0153C73.0576 76.0044 71.7322 75.0272 70.1708 74.5105C68.5982 74.0387 66.7447 74.0387 65.0373 74.6453C63.3299 75.3192 61.9258 76.5323 61.0721 77.9252C60.196 79.3068 59.859 80.9018 59.859 82.2834C59.859 83.665 60.1959 84.7545 60.4992 85.5296C60.8025 86.2709 61.0721 86.6753 61.0721 86.6753C61.0721 86.6753 60.6677 86.4057 60.0949 85.7991C59.522 85.1589 58.7244 84.1143 58.2751 82.4856C57.837 80.9355 57.7696 78.835 58.6458 76.712C59.5107 74.6116 61.3866 72.5897 63.914 71.6462H63.9028Z" fill="#181415"/>
<path d="M48.0474 77.555L48.1148 75.5331C48.1148 75.5331 41.42 71.8826 36.7808 77.555C32.1529 83.2274 36.4439 87.6867 36.4439 87.6867H37.6458C37.6458 87.6867 36.2753 83.2274 39.6902 79.779C43.1162 76.3306 48.0474 77.5437 48.0474 77.5437V77.555Z" fill="#FFDA24"/>
<path d="M33.9145 88.4726C34.8131 88.1019 35.6556 87.8324 36.4306 87.6976C36.1947 87.3269 36.0038 86.9225 35.8577 86.4845C35.2175 84.8333 35.1501 82.8339 35.8128 80.9805C36.4755 79.1159 37.7898 77.5996 39.3062 76.6223C40.8227 75.6788 42.5188 75.2407 44.0016 75.1397C45.4506 75.0723 46.7087 75.3081 47.5512 75.544C48.3824 75.8136 48.8318 76.0495 48.8318 76.0158C48.8318 76.0158 48.4948 75.6451 47.7534 75.106C47.012 74.6005 45.8326 73.8928 44.1252 73.5559C42.4515 73.2189 40.2498 73.2526 38.0594 74.2635C35.8802 75.207 33.7347 77.1727 32.7912 79.9022C31.8139 82.6429 32.2183 85.5409 33.3977 87.6414C33.5662 87.9447 33.7347 88.2143 33.9257 88.4839L33.9145 88.4726Z" fill="#181415"/>
<path d="M60.0545 74.3872C59.8186 73.9154 59.5827 73.4437 59.212 72.9382C58.2347 71.5903 56.5386 70.2649 54.3144 70.0627C53.2361 69.9616 52.124 70.1638 51.2029 70.6018C50.2594 71.0736 49.518 71.7476 48.9676 72.4215C47.8892 73.9042 47.6196 75.4318 47.5859 76.6449C47.5859 77.858 47.8555 78.7679 48.0914 79.3857C48.3273 79.9922 48.5183 80.2618 48.5183 80.2618C48.552 80.2955 48.4621 78.8128 49.181 76.9145C49.5517 76.0047 50.1471 74.9825 51.0008 74.2412C51.8432 73.5335 52.9103 73.1628 54.0449 73.2302C55.1569 73.365 56.2915 73.9379 57.1901 74.7129C57.8191 75.2521 58.3021 75.8923 58.729 76.5326C59.0548 75.7913 59.4928 75.0499 60.0657 74.3647L60.0545 74.3872Z" fill="#181415"/>
<path d="M40.2157 87.5635C40.2157 87.5635 35.4867 87.6983 31.9259 90.3379C27.5001 93.6178 24.5121 100.133 30.2859 107.4C35.8798 114.465 42.3275 114.061 46.5062 111.556C50.0895 109.433 51.8418 105.547 51.8418 105.547C51.8418 105.547 39.0363 114.533 33.4648 104.637C27.6236 94.303 40.227 87.5747 40.227 87.5747L40.2157 87.5635Z" fill="#FFDA24"/>
<path d="M44.8669 112.769L42.4518 114.016C42.4518 114.016 38.7674 117.801 45.6644 122.564C52.5277 127.326 58.1666 119.284 58.1666 119.284C58.1666 119.284 51.6628 123.17 47.2482 119.924C43.6986 117.285 44.8669 112.758 44.8669 112.758V112.769Z" fill="#FFDA24"/>
<path d="M57.175 120.429C56.501 121.07 55.4226 121.946 53.9286 122.53C52.4571 123.103 50.5475 123.305 48.6604 122.799C46.7957 122.294 44.976 121.047 43.8303 119.183C42.8305 117.599 42.4823 115.734 42.6508 114.016C41.741 114.252 40.7412 114.353 39.7078 114.386C39.4382 116.487 39.8089 118.846 41.0894 120.879C42.7294 123.586 45.5489 125.136 48.1549 125.473C50.7947 125.81 53.1424 125.001 54.6925 123.956C56.2651 122.878 57.1075 121.631 57.5793 120.744C58.0399 119.834 58.1522 119.295 58.1522 119.295C58.1522 119.295 57.8489 119.767 57.175 120.441V120.429Z" fill="#181415"/>
<path d="M28.0984 108.175C26.9526 106.389 26.245 104.356 26.0091 102.368C25.7732 100.368 25.9866 98.4477 26.537 96.6955C27.6379 93.1797 29.9968 90.7198 32.2321 89.3269C34.5124 87.979 36.6579 87.5747 38.0395 87.5073C39.4773 87.4399 40.2412 87.6084 40.2412 87.5747C40.2412 87.6084 39.4661 87.6421 38.1406 88.0127C36.8264 88.3834 34.9617 89.1247 33.1757 90.6524C31.4234 92.1688 29.7609 94.5051 29.1543 97.4143C28.5477 100.29 28.9858 103.66 30.8168 106.434C32.6253 109.242 35.5121 111.028 38.3877 111.635C41.2746 112.241 44.0828 111.736 46.1946 110.725C48.3064 109.748 49.7555 108.321 50.6204 107.31C51.4966 106.232 51.8672 105.558 51.8672 105.558C51.8672 105.558 51.6987 106.299 51.036 107.58C50.3733 108.827 49.1826 110.624 46.9809 112.106C44.813 113.623 41.5891 114.746 37.9384 114.342C34.3214 113.937 30.4348 111.803 28.1096 108.198L28.0984 108.175Z" fill="#181415"/>
<path d="M69.852 107.085C69.852 107.085 68.9533 111.342 71.3572 114.049C73.3005 116.285 78.4002 117.767 81.4106 115.431C90.1611 108.714 80.8041 102.289 80.8041 102.289C80.8041 102.289 85.432 108.871 78.7035 111.814C71.7728 114.858 69.852 107.085 69.852 107.085Z" fill="#FFDA24"/>
<path d="M85.4283 93.707C85.4283 93.707 95.4593 94.2462 94.145 105.198C93.3026 112.297 85.2935 111.657 85.2935 111.657L85.125 108.714C85.125 108.714 88.9442 109.388 90.7976 103.985C92.8195 98.0428 85.4283 93.7183 85.4283 93.7183V93.707Z" fill="#FFDA24"/>
<path d="M95.2781 99.1441C94.2784 96.8189 92.5261 95.2576 90.9085 94.4826C89.291 93.6738 87.8307 93.5391 86.8871 93.5391C85.9436 93.5728 85.4381 93.7075 85.4381 93.7075C85.4381 93.7075 85.9436 93.7749 86.8197 94.0445C87.6847 94.3141 88.8866 94.8532 90.0324 95.8305C91.1781 96.8077 92.2452 98.2679 92.7395 100.054C93.245 101.84 93.1326 103.94 92.234 105.794C91.3915 107.681 89.8189 109.107 88.134 109.849C87.3028 110.219 86.4603 110.455 85.6178 110.523C85.5841 110.792 85.528 111.062 85.4606 111.298C85.3595 111.769 85.191 112.207 85 112.679C86.2132 112.848 87.606 112.814 89.0326 112.41C91.4477 111.736 93.8852 109.871 95.1433 107.175C96.4126 104.468 96.3115 101.402 95.2781 99.1328V99.1441Z" fill="#181415"/>
<path d="M80.7314 116.959C79.4846 117.498 78.1479 117.701 76.8786 117.633C75.598 117.566 74.3961 117.195 73.3964 116.622C71.3744 115.51 70.15 113.713 69.667 112.163C69.1391 110.545 69.2851 109.22 69.4424 108.378C69.6333 107.501 69.8468 107.097 69.8468 107.097C69.8468 107.097 69.7906 107.569 69.8805 108.411C69.9479 109.22 70.1837 110.399 70.9251 111.59C71.5991 112.769 72.8122 113.915 74.4073 114.533C75.9575 115.173 77.8895 115.207 79.6082 114.466C81.3268 113.691 82.6186 112.23 83.2252 110.68C83.8317 109.096 83.798 107.434 83.3936 106.086C82.9893 104.772 82.2928 103.783 81.7424 103.177C81.2032 102.57 80.7988 102.301 80.7988 102.301C80.7988 102.301 81.2706 102.402 82.012 102.84C82.7534 103.278 83.8317 104.087 84.6517 105.547C85.4605 106.962 85.9997 109.063 85.4492 111.32C84.9438 113.578 83.2701 115.881 80.7314 116.959Z" fill="#181415"/>
</svg>
