<svg width="432" height="355" viewBox="0 0 432 355" fill="none" xmlns="http://www.w3.org/2000/svg">
<path d="M4.08042 200.033C3.94563 196.046 4.6196 192.125 5.93385 188.61C7.2481 185.094 9.18017 181.982 11.438 179.455C15.9424 174.288 21.6262 171.48 26.4451 170.368C31.3427 169.222 35.3641 169.593 38.0038 170.099C40.6435 170.604 42.014 171.211 42.014 171.177C42.014 171.211 40.5424 170.975 37.9252 171.042C35.3416 171.109 31.5561 171.581 27.3999 173.3C23.2999 175.03 18.8292 178.096 15.5043 182.724C12.1457 187.284 10.0339 193.361 10.2698 199.82C10.4607 206.245 13.0106 212.187 16.6613 216.511C20.2895 220.903 24.9399 223.711 29.1635 225.127C33.4208 226.575 37.2175 226.778 39.8123 226.643C42.4296 226.575 43.9011 226.239 43.9011 226.239C43.8786 226.239 42.5868 226.912 39.9696 227.62C37.386 228.294 33.3758 228.934 28.4334 228.126C23.5358 227.317 17.6835 224.879 12.8196 220.049C10.4158 217.646 8.29277 214.68 6.74262 211.266C5.19248 207.851 4.23769 203.998 4.10289 200.011L4.08042 200.033Z" fill="#181415"/>
<path d="M131.327 344.472C125.8 344.64 120.375 343.663 115.533 341.798C110.669 339.945 106.356 337.238 102.851 334.059C99.3354 330.88 96.5833 327.264 94.5614 323.624C92.517 320.007 91.2365 316.323 90.4839 312.92C88.9674 306.057 89.6077 300.384 90.3828 296.666C91.1578 292.915 92.0677 291.027 92.0228 290.994C92.0677 290.994 91.5285 293.049 91.3263 296.801C91.1354 300.485 91.3263 305.922 93.4494 312.077C95.5162 318.188 99.6612 324.916 106.221 330.083C109.479 332.689 113.32 334.812 117.544 336.272C121.779 337.687 126.418 338.44 131.158 338.294C135.887 338.159 140.448 337.148 144.593 335.452C148.726 333.767 152.433 331.363 155.545 328.589C161.79 323.051 165.531 316.087 167.216 309.876C168.934 303.619 168.833 298.149 168.429 294.465C167.991 290.747 167.351 288.759 167.384 288.759C167.351 288.759 168.35 290.578 169.373 294.296C170.35 297.947 171.293 303.552 170.215 310.516C169.676 313.964 168.609 317.716 166.8 321.468C165.003 325.253 162.453 329.005 159.128 332.386C155.803 335.733 151.692 338.732 146.929 340.866C142.2 343.034 136.865 344.314 131.315 344.483L131.327 344.472Z" fill="#181415"/>
<path d="M257.597 353.458C251.587 354.603 245.532 354.401 239.927 353.154C234.333 351.874 229.233 349.504 224.965 346.46C220.685 343.45 217.225 339.833 214.597 336.047C211.957 332.262 210.171 328.376 209.003 324.691C206.689 317.255 206.959 310.943 207.531 306.787C208.138 302.631 209.014 300.44 208.98 300.44C209.014 300.44 208.509 302.743 208.486 306.854C208.475 310.976 209.048 316.986 211.879 323.613C214.687 330.173 219.955 337.26 227.841 342.124C231.761 344.562 236.265 346.381 241.174 347.325C246.038 348.268 251.272 348.336 256.428 347.358C261.584 346.381 266.414 344.382 270.571 341.686C274.76 338.979 278.276 335.576 281.006 331.891C283.78 328.207 285.735 324.186 287.004 320.232C288.274 316.278 288.846 312.392 288.948 308.775C289.172 301.575 287.465 295.768 285.937 291.982C284.353 288.13 283.062 286.209 283.095 286.209C283.062 286.209 284.645 287.894 286.791 291.544C288.869 295.161 291.441 300.968 292.048 308.707C292.34 312.56 292.115 316.851 291.071 321.344C290.037 325.837 288.161 330.499 285.297 334.857C282.444 339.215 278.591 343.337 273.873 346.583C269.155 349.863 263.584 352.29 257.585 353.446L257.597 353.458Z" fill="#181415"/>
<path d="M403.556 248.748C403.511 245.907 402.86 243.278 401.905 241.043C401.501 240.167 401.063 239.324 400.591 238.538C399.119 238.605 397.749 238.605 396.491 238.538C397.861 241.38 398.737 244.896 398.367 248.602C397.996 252.893 395.896 257.319 392.222 260.632C388.572 263.946 383.91 265.698 379.495 266.103C375.867 266.44 372.452 265.934 369.566 264.923C369.341 266.069 369.038 267.26 368.667 268.439C371.644 270.056 375.407 271.247 379.653 271.315C385.123 271.517 391.481 269.63 396.379 265.193C398.816 263.002 400.703 260.295 401.916 257.454C403.13 254.578 403.658 251.545 403.568 248.737L403.556 248.748Z" fill="#181415"/>
<path d="M369.802 255.713C369.229 251.759 367.948 248.816 366.926 246.929C365.915 245.042 365.14 244.087 365.174 244.087C365.14 244.087 365.578 245.199 366.016 247.266C366.477 249.288 366.926 252.264 366.69 255.847C366.488 259.431 365.544 263.62 363.444 267.608C361.355 271.629 358.074 275.482 353.795 278.324C349.526 281.199 344.719 282.682 340.192 283.052C336.44 283.356 332.924 282.918 329.902 282.075C329.992 282.412 330.082 282.749 330.172 283.12C330.397 284.097 330.543 285.108 330.632 286.231C333.418 287.343 336.676 288.152 340.293 288.287C345.718 288.489 351.919 287.006 357.221 283.457C362.545 279.941 366.274 274.808 368.195 269.742C370.15 264.642 370.341 259.644 369.779 255.724L369.802 255.713Z" fill="#181415"/>
<path d="M330.183 283.109C329.385 279.593 327.936 277.099 326.824 275.538C325.712 273.954 324.915 273.269 324.937 273.235C324.915 273.235 325.409 274.179 325.982 275.976C326.555 277.728 327.15 280.301 327.116 283.479C327.094 286.591 326.386 290.275 324.566 293.712C322.747 297.194 319.804 300.44 315.985 302.597C312.165 304.832 307.897 305.709 303.977 305.506C300.056 305.304 296.529 304.091 293.822 302.53C292.541 301.788 291.418 300.98 290.475 300.16C290.879 301.508 291.216 302.968 291.486 304.484C291.654 304.653 291.789 304.821 291.957 304.956C294.563 307.461 298.461 309.786 303.348 310.662C308.178 311.572 314.008 310.898 319.062 307.955C324.128 305.079 327.678 300.418 329.329 295.79C331.048 291.095 330.98 286.568 330.194 283.086L330.183 283.109Z" fill="#181415"/>
<path d="M207.553 318.457C207.52 318.558 207.508 318.626 207.463 318.727C206.284 322.007 203.903 325.522 200.319 328.05C196.736 330.577 191.985 332.071 187.042 331.7C182.077 331.33 177.618 329.162 174.472 326.095C171.395 323.119 169.642 319.434 168.935 316.098C168.373 317.884 167.688 319.682 166.812 321.468C166.744 321.636 166.677 321.771 166.609 321.906C167.351 324.512 168.62 327.14 170.631 329.577C172.383 331.779 174.686 333.733 177.415 335.182C180.156 336.665 183.29 337.62 186.57 337.856C189.85 338.125 193.097 337.654 196.028 336.609C198.938 335.598 201.499 333.969 203.599 332.116C206.104 329.858 207.834 327.252 208.969 324.646C208.295 322.478 207.857 320.389 207.553 318.468V318.457Z" fill="#181415"/>
<path d="M89.7657 300.553C89.586 301.025 89.395 301.496 89.1591 301.968C87.9123 304.641 86.1487 307.371 83.8572 309.876C81.5544 312.381 78.6901 314.672 75.3426 316.391C71.9952 318.143 68.1985 319.3 64.1659 319.704C60.1445 320.041 55.8985 319.637 51.8546 318.289C47.7996 317.008 44.1376 314.84 41.1272 312.145C38.0831 309.438 35.7242 306.236 34.0617 302.855C30.6806 296.093 30.3099 288.804 31.4557 283.052C32.0623 279.907 33.0957 277.245 34.2077 274.976C33.4102 275.145 32.6014 275.246 31.7365 275.313C30.5233 277.268 29.3551 279.57 28.479 282.244C27.4455 285.321 26.8053 288.905 26.8277 292.814C26.8614 296.666 27.6028 300.856 29.2877 304.978C30.9614 309.101 33.5787 313.088 37.0946 316.469C40.5768 319.85 44.9801 322.591 49.9113 324.175C54.8651 325.792 59.9985 326.197 64.8286 325.556C69.6588 324.916 74.152 323.254 77.9262 320.928C81.6892 318.626 84.7671 315.694 87.1147 312.583C88.1482 311.201 89.0019 309.808 89.7657 308.427C89.4624 305.45 89.5298 302.822 89.7657 300.553Z" fill="#181415"/>
<path d="M45.9794 268.686C43.5755 269.865 39.9473 271.258 35.3531 271.595C30.8037 271.966 25.2659 271.258 20.0763 268.551C14.9092 265.945 10.1576 261.25 7.76503 255.207C5.29379 249.164 5.64201 242.537 7.83243 237.235C10.0116 231.9 13.8982 227.878 17.6949 225.374C18.0881 225.104 18.4588 224.902 18.8294 224.7C17.8634 224.127 16.9086 223.486 15.9763 222.812C13.7072 223.823 11.382 225.284 9.16914 227.272C6.88886 229.294 4.72091 231.9 3.10337 235.045C1.48584 238.156 0.396244 241.807 0.126654 245.682C-0.131703 249.568 0.463639 253.657 2.01378 257.51C3.53022 261.329 5.90037 264.71 8.7086 267.338C11.4831 270.045 14.6845 272 17.9196 273.314C24.4571 275.953 30.9161 275.852 35.8473 274.628C40.8459 273.449 44.3506 271.18 46.4961 269.495C48.664 267.776 49.5851 266.552 49.6076 266.586C49.6076 266.552 48.3945 267.462 45.9906 268.686H45.9794Z" fill="#181415"/>
<path d="M205.992 62.7945C197.781 38.0717 170.395 24.9185 144.807 33.4102C124.363 40.1947 111.254 58.7395 111.007 78.5424C112.523 78.7109 113.995 78.9805 115.376 79.3511C118.421 62.5586 131.204 49.1133 148.997 43.205C171.732 35.6567 195.321 43.8452 206.183 63.4122C206.138 63.2101 206.071 63.0079 206.004 62.8057L205.992 62.7945Z" fill="#FFDA24"/>
<path d="M205.487 59.2786C203.712 55.3247 200.556 49.686 194.804 44.0697C191.963 41.2953 188.492 38.5883 184.324 36.2632C180.202 33.938 175.439 32.051 170.171 30.9277C164.936 29.8045 159.219 29.4675 153.366 30.1415C147.536 30.8266 141.572 32.5789 136.011 35.432C130.44 38.2962 125.554 42.1153 121.588 46.4398C117.601 50.7643 114.523 55.628 112.4 60.5254C110.232 65.4564 108.985 70.4212 108.468 75.1501C108.356 76.2284 108.266 77.3179 108.21 78.3626C109.558 78.3963 110.883 78.4974 112.164 78.6995C112.872 73.5326 114.399 68.0624 117.118 62.7494C121.465 54.1004 128.957 45.9568 138.842 40.9246C143.762 38.3973 148.974 36.7686 154.153 36.0048C159.342 35.2298 164.453 35.3084 169.238 36.061C178.854 37.5324 186.941 41.7109 192.783 46.4061C198.657 51.0676 202.375 56.0998 204.644 59.7503C206.88 63.4009 207.767 65.6586 207.79 65.6249C207.767 65.6586 207.251 63.2998 205.487 59.2673V59.2786Z" fill="#181415"/>
<path d="M234.03 4.83463C209.418 1.26269 185.762 11.4843 176.236 32.6238C177.472 33.0507 178.674 33.5112 179.82 34.0167C191.895 17.3139 212.294 8.91203 234.221 13.3938C277.029 22.1327 272.738 70.556 272.738 70.556L274.12 62.5135C274.12 62.5135 281.219 11.6865 234.03 4.83463Z" fill="#FFDA24"/>
<path d="M274.591 42.0817C274.018 37.4876 272.94 32.433 270.738 27.2885C268.537 22.1665 265.167 16.977 260.37 12.7199C255.574 8.45159 249.486 5.23909 242.903 3.30711C239.623 2.32988 236.197 1.65593 232.737 1.20663C230.985 0.98198 229.222 0.824722 227.469 0.712397C225.694 0.611304 223.852 0.577608 222.032 0.656235C214.697 0.94828 207.677 2.79041 201.443 5.63223C195.197 8.48529 189.738 12.3268 185.211 16.6288C180.662 20.9309 177.067 25.7384 174.394 30.5684C174.158 30.9952 173.933 31.3996 173.72 31.8152C175.101 32.2083 176.461 32.6689 177.741 33.1631C177.842 33.0283 177.932 32.871 178.011 32.7362C180.796 28.4342 184.369 24.2332 188.704 20.4928C193.04 16.7524 198.129 13.4725 203.824 11.0463C209.497 8.64254 215.787 7.08122 222.268 6.83411C223.908 6.76671 225.492 6.78918 227.132 6.8678C228.772 6.94643 230.412 7.09246 231.996 7.27218C235.209 7.63162 238.32 8.19324 241.308 8.99075C247.273 10.5745 252.642 13.1805 257.001 16.6962C261.359 20.1895 264.616 24.5478 266.919 29.0745C269.233 33.6012 270.637 38.2514 271.57 42.5759C272.479 46.9004 272.918 50.9554 273.153 54.5048C273.389 58.0543 273.457 61.1545 273.389 63.6593C273.165 68.6915 272.547 71.4659 272.581 71.4659C272.547 71.4659 273.547 68.8263 274.333 63.7604C274.704 61.2219 274.973 58.1217 275.108 54.4711C275.243 50.8206 275.175 46.6645 274.602 42.0705L274.591 42.0817Z" fill="#181415"/>
<path d="M93.0907 125.123C79.1843 107.286 52.6971 104.68 33.9269 119.316C17.1562 132.391 12.2362 154.788 21.2899 172.154C22.1885 171.75 23.0647 171.379 23.9296 171.109C19.1107 155.058 26.6143 138.973 41.2396 127.561C57.9317 114.554 78.7912 112.756 93.4052 125.573C93.3041 125.438 93.203 125.303 93.0794 125.135L93.0907 125.123Z" fill="#FFDA24"/>
<g style="mix-blend-mode:screen" opacity="0.57">
<path d="M133.72 96.0763C126.823 82.3277 109.715 76.9474 95.472 84.08C84.0481 89.7861 76.6344 101.816 78.2407 113.475C79.1505 113.947 81.3522 114.453 82.1385 114.958C81.9138 104.343 88.5413 95.4585 98.9429 90.2242C111.591 83.9115 125.868 85.8997 133.866 96.4021C133.821 96.301 133.765 96.1662 133.709 96.0651L133.72 96.0763Z" fill="#FFDA24"/>
</g>
<path d="M131.361 90.3589C129.643 87.8877 126.632 84.4506 121.667 81.7773C116.77 79.1376 109.805 77.5201 102.29 78.8006C98.5611 79.4072 94.7082 80.7214 91.0912 82.7882C87.5079 84.855 84.1268 87.6519 81.3635 91.1002C78.589 94.5149 76.5109 98.3676 75.2528 102.321C74.3204 105.163 73.8037 108.061 73.6689 110.869C74.6013 111.173 75.4887 111.51 76.3536 111.914C77.2522 112.285 78.0947 112.689 78.9259 113.093C79.3528 106.949 81.7342 100.423 86.1712 94.9867C90.8216 89.2469 97.1233 85.4278 103.358 83.9002C109.625 82.2827 115.702 82.8893 120.42 84.6078C125.172 86.2927 128.553 88.966 130.642 90.9654C132.754 93.021 133.686 94.4138 133.72 94.4138C133.686 94.4138 133.113 92.8637 131.384 90.3589H131.361Z" fill="#181415"/>
<path d="M302.325 46.5072C293.238 42.4186 283.375 42.4523 274.962 45.8333C275.097 47.6867 275.13 49.4502 275.153 51.1013C283.027 48.5965 292.025 48.6639 300.191 52.6177C316.254 60.4243 323.589 76.0712 319.871 91.4372C319.916 91.3025 319.995 91.1677 320.062 91.0329C327.611 74.274 319.669 54.3363 302.337 46.5072H302.325Z" fill="#FFDA24"/>
<path d="M326.128 76.7451L325.33 65.0521C325.33 65.0521 337.405 64.0749 343.64 70.4886C355.872 83.0241 343.909 97.7836 343.909 97.7836C343.909 97.7836 349.818 84.0013 339.922 77.7111C331.879 72.6116 326.116 76.7339 326.116 76.7339L326.128 76.7451Z" fill="#FFDA24"/>
<path d="M325.128 63.8389C324.016 60.0199 322.185 56.1671 319.568 52.7188C316.951 49.203 313.569 46.0916 309.604 43.6991C305.639 41.2953 301.281 39.7789 296.99 39.1274C292.665 38.4535 288.441 38.5995 284.555 39.3633C280.893 40.0822 277.59 41.3627 274.67 42.8903C274.861 44.4404 274.962 45.968 275.041 47.3833C278.13 46.0017 281.601 44.9459 285.364 44.5078C292.126 43.6991 299.809 44.9796 306.414 49.0008C309.728 50.9553 312.592 53.4938 314.906 56.3356C317.22 59.1438 318.973 62.3113 320.163 65.4901C322.601 71.8477 322.769 78.3289 321.848 83.5632C320.972 88.8649 319.062 92.9199 317.557 95.5932C316.007 98.3003 314.884 99.6145 314.917 99.6482C314.884 99.6145 316.265 98.5698 318.332 96.1661C320.354 93.7286 323.084 89.8759 324.859 84.3046C326.633 78.8006 327.341 71.4995 325.128 63.8277V63.8389Z" fill="#181415"/>
<path d="M347.987 74.8919C347.987 74.8919 382.573 64.4794 398.783 93.6389C415.441 123.607 388.246 146.14 388.246 146.14C388.246 146.14 404.848 115.363 388.752 94.852C374.171 76.2735 350.739 80.935 350.739 80.935L347.987 74.8919Z" fill="#FFDA24"/>
<path d="M350.099 77.0148C348.762 72.5218 345.538 67.894 340.708 65.0859C338.327 63.6706 335.709 62.7832 333.126 62.3788C330.542 62.0419 328.026 62.1767 325.712 62.6484C325.409 62.7158 325.139 62.8169 324.836 62.8843C324.937 63.1876 325.038 63.5246 325.139 63.8278C325.532 65.1757 325.813 66.5349 326.049 67.8491C326.206 67.8491 326.352 67.8154 326.51 67.8154C330.127 67.5458 334.092 68.3208 337.574 70.3876C341.09 72.4544 343.707 75.5209 345.212 78.8008C346.751 82.1143 347.167 85.5627 346.931 88.4607C346.729 91.4036 345.898 93.7624 345.19 95.3574C344.46 96.9412 343.921 97.7949 343.921 97.7949C343.921 97.7949 344.752 97.2557 345.988 95.9078C347.223 94.5599 348.874 92.3921 349.953 89.1234C351.031 85.9109 351.469 81.5864 350.11 77.026L350.099 77.0148Z" fill="#181415"/>
<path d="M392.47 142.287L397.805 136.109C397.805 136.109 417.339 140.838 417.811 158.203C418.272 175.569 402.714 176.04 402.714 176.04C402.714 176.04 413.239 168.335 409.431 154.721C405.814 141.714 392.47 142.287 392.47 142.287Z" fill="#FFDA24"/>
<path d="M407.409 142.871C410.487 145.241 413.048 148.746 414.171 152.935C415.306 157.125 414.879 161.483 413.396 165.033C411.891 168.616 409.409 171.424 406.87 173.244C405.893 173.951 404.915 174.524 403.961 174.996C404.298 175.03 404.635 175.097 404.972 175.164C406.016 175.367 407.117 175.636 408.229 175.973C408.274 175.973 408.319 175.973 408.341 175.939C411.689 174.558 415.474 171.783 418.002 167.391C420.574 163.067 421.686 157.125 420.136 151.34C419.361 148.465 417.968 145.836 416.249 143.668C414.508 141.501 412.43 139.748 410.24 138.501C406.387 136.311 402.332 135.626 398.984 135.828C398.108 136.974 397.266 138.03 396.412 138.973C396.816 139.007 397.221 139.007 397.648 139.074C400.759 139.344 404.32 140.49 407.398 142.86L407.409 142.871Z" fill="#181415"/>
<path d="M406.904 108.601C406.635 104.141 405.59 99.4461 403.658 94.9195C401.726 90.3928 398.906 86.0345 395.312 82.2829C391.695 78.4975 387.471 75.4872 383.012 73.398C378.586 71.2301 373.958 70.017 369.499 69.5115C361.355 68.6017 353.952 70.2192 348.246 72.7577C348.819 73.735 349.291 74.7571 349.661 75.768C355.132 74.1506 361.759 73.398 368.769 74.6897C376.542 76.0376 384.596 80.0252 390.83 86.5512C397.076 93.0773 400.715 101.311 401.715 109.117C402.782 116.991 401.423 124.292 399.109 129.965C396.828 135.705 393.683 139.827 391.358 142.433C388.988 145.073 387.426 146.319 387.438 146.319C387.415 146.319 389.19 145.41 392.032 143.141C394.806 140.872 398.693 137.131 401.894 131.313C403.501 128.404 404.905 125 405.826 121.181C406.736 117.328 407.196 113.071 406.893 108.612L406.904 108.601Z" fill="#181415"/>
<path d="M431.426 207.199C431.358 211.692 430.314 216.051 428.505 219.87C426.73 223.689 424.226 226.969 421.462 229.563C415.891 234.831 409.297 237.37 403.804 238.212C398.277 239.088 393.784 238.414 390.841 237.741C387.898 236.999 386.404 236.292 386.382 236.325C386.382 236.292 388.033 236.662 390.976 236.763C393.919 236.864 398.221 236.73 403.108 235.213C407.971 233.697 413.397 230.754 417.733 225.924C419.901 223.52 421.765 220.656 423.102 217.477C424.416 214.298 425.18 210.749 425.225 207.11C425.394 199.775 422.552 192.99 418.384 188.025C414.228 183.027 408.904 179.848 404.13 178.163C399.311 176.478 395.02 176.108 392.088 176.063C389.134 176.097 387.471 176.366 387.471 176.332C387.494 176.366 389.01 175.726 391.976 175.119C394.953 174.58 399.446 174.108 404.95 175.187C410.387 176.265 416.857 179.039 422.248 184.51C424.922 187.25 427.281 190.586 428.921 194.473C430.572 198.359 431.504 202.751 431.403 207.211L431.426 207.199Z" fill="#181415"/>
<path d="M281.982 83.3051C281.982 83.3051 287.913 78.0033 296.237 80.4296C304.561 82.867 304.516 90.9993 304.516 90.9993C304.516 90.9993 300.663 86.877 294.181 84.7204C287.7 82.5637 281.982 83.3051 281.982 83.3051Z" fill="#FFDA24"/>
<path d="M296.361 78.0594C298.63 78.8007 300.505 80.2273 301.82 81.7436C303.134 83.2937 303.92 84.9561 304.291 86.3714C305.032 89.2806 304.493 90.9992 304.527 90.9992C304.504 91.0329 303.696 89.4154 302.022 87.5845C301.179 86.6747 300.112 85.7649 298.877 84.9449C297.63 84.1362 296.226 83.4285 294.687 82.9231C291.643 81.8447 288.486 81.7099 286.038 82.148C283.6 82.5524 281.982 83.3274 281.982 83.2937C281.994 83.3274 282.623 81.6089 284.993 79.8117C286.161 78.9018 287.767 78.0594 289.756 77.6438C291.744 77.2057 294.103 77.2394 296.361 78.0481V78.0594Z" fill="#181415"/>
<path d="M101.526 284.906C101.526 284.906 103.93 295.318 118.117 299.025C132.293 302.709 139.763 291.555 139.763 291.555C139.763 291.555 131.114 295.408 119.207 293.813C107.3 292.263 101.538 284.895 101.538 284.895L101.526 284.906Z" fill="#FF9A00"/>
<path d="M118.229 302.069C114.635 301.429 111.422 299.879 108.985 297.947C106.513 296.026 104.817 293.757 103.716 291.769C102.638 289.781 102.11 288.017 101.84 286.804C101.582 285.591 101.537 284.917 101.515 284.917C101.548 284.85 102.863 287.355 105.772 290.219C107.243 291.668 109.131 293.128 111.377 294.341C113.646 295.554 116.275 296.509 119.117 297.015C124.789 298.025 130.237 296.846 133.933 295.127C137.662 293.443 139.729 291.544 139.74 291.578C139.695 291.544 138.774 294.218 135.348 297.284C133.641 298.8 131.271 300.328 128.305 301.339C125.362 302.316 121.813 302.687 118.218 302.08L118.229 302.069Z" fill="#181415"/>
<path d="M175.315 278.784C175.315 278.784 182.549 289.354 199.882 290.511C217.214 291.657 226.358 280.042 226.358 280.042C226.358 280.042 214.754 286.467 201.275 286.186C187.773 285.883 175.327 278.784 175.327 278.784H175.315Z" fill="#FF9A00"/>
<path d="M200.477 294.431C196.107 294.363 191.985 293.251 188.57 291.623C185.177 290.005 182.493 287.939 180.516 285.984C178.539 283.996 177.258 282.165 176.461 280.851C175.663 279.57 175.326 278.795 175.326 278.795C175.36 278.762 177.696 281.266 182.122 283.962C184.324 285.276 187.053 286.602 190.199 287.613C193.321 288.556 196.86 289.23 200.611 289.298C208.115 289.533 214.832 287.343 219.348 284.838C223.897 282.367 226.357 279.975 226.38 280.042C226.369 280.042 225.998 280.783 225.144 282.064C224.279 283.277 222.909 285.074 220.853 286.928C218.798 288.815 215.989 290.78 212.507 292.196C209.047 293.645 204.869 294.566 200.499 294.431H200.477Z" fill="#181415"/>
<path d="M135.618 278.784C135.618 278.784 137.134 284.692 146.177 286.389C155.219 288.073 159.094 282.873 159.094 282.873C159.094 282.873 154.231 284.76 146.828 283.345C139.414 281.929 135.606 278.784 135.606 278.784H135.618Z" fill="#FF9A00"/>
<path d="M145.705 290.309C143.335 289.904 141.28 288.826 139.741 287.501C138.19 286.186 137.168 284.625 136.562 283.277C135.382 280.57 135.663 278.751 135.618 278.784C135.652 278.751 136.697 280.233 138.629 281.761C139.606 282.536 140.797 283.277 142.144 283.884C143.492 284.49 144.998 284.962 146.604 285.232C149.783 285.805 152.906 285.434 155.253 284.659C157.601 283.884 159.106 282.873 159.106 282.873C159.072 282.873 158.724 284.625 156.669 286.793C155.658 287.871 154.164 288.961 152.277 289.702C150.389 290.41 148.053 290.713 145.705 290.309Z" fill="#181415"/>
<path d="M289.588 279.301C289.588 279.301 295.328 283.457 303.404 280.548C311.481 277.605 312.02 271.225 312.02 271.225C312.02 271.225 309.066 274.909 301.933 277.537C294.8 280.143 289.588 279.29 289.588 279.29V279.301Z" fill="#FF9A00"/>
<path d="M304.056 284.299C301.787 285.108 299.462 285.209 297.485 284.838C295.474 284.434 293.856 283.625 292.666 282.738C290.273 280.952 289.622 279.222 289.588 279.29C289.588 279.256 291.239 279.997 293.677 280.368C296.148 280.772 299.271 280.57 302.326 279.458C305.37 278.38 307.898 276.515 309.56 274.662C311.211 272.808 311.998 271.18 312.031 271.213C311.986 271.213 312.57 272.932 311.863 275.841C311.492 277.256 310.762 278.953 309.47 280.503C308.19 282.053 306.325 283.479 304.067 284.288L304.056 284.299Z" fill="#181415"/>
<path d="M318.512 260.071C318.512 260.071 332.463 263.485 342.033 253.814C351.615 244.121 348.212 235.101 348.212 235.101C348.212 235.101 346.538 242.368 338.394 250.444C330.25 258.487 318.512 260.071 318.512 260.071Z" fill="#FF9A00"/>
<path d="M342.382 258.352C339.597 260.677 336.339 262.138 333.272 262.744C330.228 263.418 327.398 263.25 325.162 262.811C322.927 262.34 321.242 261.598 320.141 261.059C319.04 260.486 318.501 260.048 318.501 260.082C318.479 260.015 321.242 260.655 325.308 260.25C327.33 260.048 329.689 259.543 332.048 258.599C334.429 257.656 336.844 256.274 339.08 254.41C343.506 250.725 346.112 245.794 347.19 241.84C348.268 237.887 348.134 235.078 348.201 235.112C348.134 235.112 349.583 237.55 349.717 242.144C349.785 244.446 349.448 247.21 348.302 250.119C347.156 253.028 345.179 255.993 342.371 258.363L342.382 258.352Z" fill="#181415"/>
<path d="M255.968 51.8091C252.654 67.5571 242.589 52.0113 226.841 48.6977C211.092 45.3841 195.624 55.5271 198.927 39.7791C202.241 24.0199 217.708 13.9556 233.457 17.2692C249.205 20.594 259.27 36.0387 255.956 51.8091H255.968Z" fill="#FFBC00"/>
<path d="M88.855 137.356C97.2797 151.071 79.2958 146.712 65.5804 155.159C51.8988 163.606 47.6415 181.612 39.2056 167.897C30.7809 154.216 35.0382 136.244 48.7535 127.797C62.4689 119.384 80.4079 123.674 88.855 137.356Z" fill="#FFB000"/>
<path d="M129.507 104.591C133.697 115.16 121.723 109.926 111.141 114.082C100.571 118.272 95.3927 130.302 91.2253 119.721C87.0354 109.151 92.225 97.1884 102.795 92.9986C113.365 88.8089 125.328 94.0095 129.507 104.591Z" fill="#FFBC00"/>
<g opacity="0.49">
<path d="M186.099 64.0074C191.94 78.7669 175.214 71.4771 160.488 77.3179C145.739 83.1251 138.539 99.884 132.72 85.1245C126.89 70.3875 134.124 53.7072 148.873 47.8551C163.61 42.0479 180.302 49.2704 186.11 64.0074H186.099Z" fill="#FFBC00"/>
</g>
<g opacity="0.18">
<path d="M214.237 307.034C213.339 288.219 229.346 302.81 248.161 301.934C266.976 301.024 281.511 284.973 282.41 303.754C283.308 322.602 268.773 338.586 249.958 339.496C231.143 340.372 215.158 325.848 214.249 307.023L214.237 307.034Z" fill="#FFB000"/>
</g>
<g opacity="0.28">
<path d="M95.7302 294.161C97.2017 275.369 111.22 291.859 130.024 293.353C148.806 294.768 165.228 280.649 163.757 299.463C162.308 318.255 145.885 332.273 127.093 330.813C108.311 329.364 94.2475 312.942 95.719 294.15L95.7302 294.161Z" fill="#FFB000"/>
</g>
<g opacity="0.28">
<path d="M322.129 264.362C316.052 253.477 329.812 257.398 340.674 251.321C351.537 245.278 355.389 231.484 361.455 242.335C367.532 253.219 363.657 266.934 352.783 273.011C341.921 279.087 328.206 275.212 322.118 264.362H322.129Z" fill="#FFB000"/>
</g>
<g opacity="0.16">
<path d="M382.405 222.262C374.126 213.512 387.976 213.95 396.727 205.672C405.477 197.393 405.848 183.544 414.127 192.294C422.405 201.044 422.001 214.86 413.251 223.138C404.5 231.417 390.684 231.046 382.405 222.262Z" fill="#FFB000"/>
</g>
<g opacity="0.18">
<path d="M43.5417 276.931C50.2365 266.833 52.9886 280.514 63.1094 287.163C73.2415 293.858 86.9007 291.016 80.2059 301.114C73.5336 311.246 59.9193 314.054 49.7984 307.36C39.6663 300.71 36.8581 287.051 43.5529 276.919L43.5417 276.931Z" fill="#FFB000"/>
</g>
<path d="M379.057 140.029C366.319 150.363 368.296 131.582 357.906 118.844C347.538 106.107 328.734 104.22 341.483 93.8409C354.221 83.4734 372.969 85.3941 383.348 98.1318C393.716 110.903 391.818 129.628 379.057 140.029Z" fill="#FFB000"/>
<path d="M89.6306 120.9C86.9796 118.26 82.6999 114.621 76.3308 111.914C70.0291 109.173 61.5483 107.522 52.2924 109.106C47.6981 109.881 42.9803 111.51 38.5096 113.97C34.0501 116.429 29.8603 119.743 26.277 123.832C22.7274 127.92 19.9753 132.514 18.0994 137.21C16.2123 141.938 15.1564 146.768 14.8194 151.396C14.1904 159.91 15.9315 167.582 18.5375 173.558C19.5372 172.985 20.537 172.48 21.5142 172.042C19.8068 166.302 18.9643 159.338 20.0315 151.935C21.1435 143.724 24.6931 135.008 30.9386 127.909C37.1504 120.743 45.328 116.081 53.3371 114.194C61.3798 112.273 69.153 112.981 75.2637 114.801C81.453 116.62 86.0248 119.462 88.9791 121.63C91.9558 123.798 93.4048 125.281 93.4273 125.281C93.4161 125.281 92.2591 123.551 89.6306 120.889V120.9Z" fill="#181415"/>
<path d="M144.413 91.1678C144.413 91.1678 149.872 77.1833 164.599 72.6229C179.336 68.0626 193.254 76.2735 193.254 76.2735C193.254 76.2735 181.122 72.724 167.104 76.9475C154.837 80.6654 144.413 91.1678 144.413 91.1678Z" fill="#FFDA24"/>
<path d="M164.442 69.3429C168.632 68.0624 172.889 67.8265 176.618 68.2645C180.37 68.7363 183.583 69.882 186.065 71.1064C188.57 72.3532 190.356 73.7123 191.524 74.6895C192.693 75.6668 193.243 76.307 193.265 76.2733C193.243 76.3407 190.221 74.6895 185.189 73.5326C182.684 72.9597 179.685 72.5891 176.371 72.6227C173.091 72.6564 169.53 73.1956 165.947 74.2739C158.769 76.4418 153.074 80.6315 149.581 84.4056C146.065 88.191 144.481 91.235 144.425 91.1676C144.447 91.2013 144.537 90.3589 144.964 88.8986C145.391 87.4496 146.132 85.3155 147.491 82.8893C148.862 80.4855 150.884 77.7223 153.726 75.2849C156.568 72.78 160.252 70.6234 164.431 69.3429H164.442Z" fill="#181415"/>
<path d="M428.516 208.379C429.223 193.305 418.429 180.197 403.5 176.726C411.52 174.535 417.609 167.369 418.013 158.585C418.518 147.667 410.071 138.412 399.175 137.906C398.265 137.872 397.367 137.906 396.491 137.974C401.253 131.616 404.264 123.787 404.668 115.205C405.713 92.4707 388.145 73.1733 365.387 72.095C358.714 71.8254 352.323 73.1059 346.617 75.6781C343.438 69.8372 337.394 65.7486 330.25 65.4116C327.801 65.3106 325.454 65.6475 323.252 66.3552C321.578 60.548 318.366 55.1339 313.637 50.7757C302.584 40.644 286.509 39.2624 273.749 46.2153C270.323 17.1007 251.833 5.30655 226.728 4.13837C205.149 3.13868 184.514 16.0785 174.708 35.0165C170.979 33.9382 167.036 33.2642 162.97 33.0733C135.146 31.7815 111.545 53.2693 110.231 81.081C100.818 80.8114 91.1241 84.9 84.3169 92.9762C79.1161 99.1653 76.51 106.624 76.4089 113.891C72.3763 112.375 68.0292 111.454 63.5023 111.251C39.2056 110.139 18.5819 129.628 17.4137 154.8C17.0767 162 18.3798 168.852 20.9633 175.075C13.1901 179.803 7.83205 188.25 7.38274 198.011C6.91095 208.379 11.9995 217.679 20.0198 223.049C10.5616 226.901 3.76574 235.651 3.29396 246.12C2.61998 260.722 14.4819 273.112 29.7699 273.864C31.3201 273.932 32.8477 273.864 34.3305 273.696C31.2751 278.324 29.3992 283.828 29.1072 289.781C28.2984 307.382 41.9127 322.355 59.5484 323.197C73.5221 323.804 85.7997 315.391 90.7197 303.091C91.1465 323.737 107.49 340.765 128.406 341.742C146.165 342.585 161.723 331.543 167.452 315.627C168.025 326.107 176.663 334.688 187.626 335.194C197.915 335.699 206.801 328.904 209.137 319.513C213.215 337.115 228.547 350.627 247.486 351.503C270.278 352.548 289.621 334.947 290.665 312.145C290.845 308.292 290.497 304.54 289.654 300.957C293.541 305.383 299.146 308.326 305.538 308.595C317.905 309.202 328.397 299.609 328.97 287.242C329.015 286.097 328.981 284.94 328.846 283.828C331.857 285.074 335.137 285.849 338.563 286.029C351.84 286.636 363.41 278.088 367.195 265.957C370.318 267.776 373.991 268.933 377.923 269.102C390.2 269.675 400.613 260.857 401.152 249.4C401.355 245.21 400.175 241.256 398.007 237.875C414.463 236.898 427.774 224.363 428.516 208.379Z" fill="#FF9A00"/>
</svg>
