<svg width="248" height="243" viewBox="0 0 248 243" fill="none" xmlns="http://www.w3.org/2000/svg">
<path d="M81.5705 138.281L240.747 64.6921L247.22 66.5571L104.132 188.736L81.5705 138.281Z" fill="#FFFFFB"/>
<path d="M217.972 92.4809C198.248 108.955 172.275 129.636 157.405 142.173C130.822 164.304 110.212 183.395 110.212 183.395C110.212 183.395 132.542 166.307 159.125 144.176C173.918 131.82 198.926 109.881 218.001 92.92C217.715 92.5862 218.001 92.92 218.154 92.5571L217.972 92.4809Z" fill="#181415"/>
<path d="M203.4 81.45C180.71 91.7703 153.823 103.956 137.908 111.359C106.852 125.848 82.2176 138.767 82.2176 138.767C82.2176 138.767 107.98 128.243 139.037 113.754C154.77 106.275 181.055 92.9823 203.61 81.9653C203.323 81.6314 203.686 81.7838 203.4 81.45Z" fill="#181415"/>
<path d="M88.0381 146.761L142.412 119.44L90.5235 151.006L88.0381 146.761Z" fill="#181415"/>
<path d="M92.9541 154.374L129.628 134.132L95.4396 158.619L92.9541 154.374Z" fill="#181415"/>
<path d="M95.2531 165.158L152.853 126.599L97.1073 167.857L95.2531 165.158Z" fill="#181415"/>
<path d="M98.9417 175.674L172.173 122.763L100.977 178.449L98.9417 175.674Z" fill="#181415"/>
<path d="M121.84 197.883C121.118 201.635 119.231 205.112 116.227 207.692C116.227 207.692 116.151 207.873 116.075 208.054C114.213 218.585 104.082 225.429 93.5522 223.567C93.3708 223.491 93.0079 223.339 92.8265 223.263C89.0528 230.215 79.7021 234.185 69.7927 232.371C67.387 232.001 65.3151 231.344 63.2142 230.248C59.7526 233.917 54.7525 235.659 49.8359 234.661C41.8931 233.246 36.6173 225.481 38.0326 217.538C38.4789 214.951 39.7271 212.487 41.4435 210.433C40.4783 209.174 39.8469 207.628 39.2156 206.082C38.0799 206.246 36.839 206.151 35.6742 205.875C28.3519 204.508 23.3918 197.515 24.6546 189.935C24.9776 188.15 25.7396 186.336 26.7883 184.855C24.4479 182.805 23.08 179.456 23.6497 176.067C24.0961 173.479 25.7072 171.168 27.9206 169.963C25.7979 165.87 25.1159 160.888 25.9614 156.334C27.3766 148.391 33.2984 141.914 40.98 139.377C41.1324 139.014 41.1034 138.575 41.0743 138.136C42.8597 127.787 53.0668 120.762 63.339 122.728C70.2985 123.944 75.9154 128.864 78.1069 135.334C78.985 135.276 79.9683 135.475 80.9516 135.675C88.2739 137.043 93.615 143.128 94.1846 150.411C97.6135 152.918 99.4023 157.298 98.5277 161.412C98.3753 161.775 98.1467 162.32 98.1758 162.759C100.182 165.095 101.006 168.216 100.512 171.424C100.284 171.968 100.055 172.512 100.008 173.133C102.367 174.123 104.573 175.477 106.293 177.48C106.837 177.708 107.352 177.498 107.896 177.727C117.185 179.493 123.502 188.336 121.84 197.883Z" fill="#181415"/>
<path d="M62.696 126.299C53.9514 124.761 45.7762 130.505 44.3138 139.069C44.1143 140.052 44.0199 141.293 44.0017 142.352C36.5959 143.724 30.5399 149.505 29.2009 157.266C28.1558 162.804 29.8502 168.425 33.1086 172.354C30.1876 172.195 27.4118 174.23 26.9945 177.257C26.501 180.464 28.6417 183.498 31.7731 184.173C32.136 184.325 32.3174 184.401 32.8326 184.191C30.4668 185.758 28.5981 188.175 28.1808 191.202C27.1357 196.739 30.844 202.138 36.5625 203.259C38.3477 203.582 40.3615 203.361 41.9073 202.729C42.2156 206.06 43.7359 209.047 46.1815 211.355C43.8157 212.922 42.0522 215.596 41.3773 218.728C40.285 224.886 44.3851 230.877 50.5427 231.969C55.4593 232.966 60.1438 230.452 62.4407 226.507C64.8282 227.937 67.5495 229.08 70.4995 229.679C80.2275 231.416 89.1101 227.037 91.0987 219.761C92.1872 220.218 93.2758 220.675 94.3353 220.694C103.08 222.232 111.436 216.564 112.975 207.819C113.204 207.274 113.175 206.835 113.222 206.215C115.998 204.179 117.914 201.142 118.559 197.571C120.004 190.067 114.938 182.817 107.253 181.297C106.528 180.992 105.468 180.974 104.59 181.032C102.66 178.514 99.6988 176.417 96.1284 175.771C95.5841 175.542 94.706 175.6 94.0855 175.553C95.6023 174.483 96.6509 173.002 97.0501 171.036C97.5726 168.267 96.2337 165.357 94.0276 164.003C94.4086 163.096 94.7896 162.189 95.1707 161.282C95.8166 157.711 93.9044 154.134 90.8202 152.838C91.1106 146.557 86.7528 140.671 80.4138 139.503C78.81 139.256 77.13 139.191 75.6605 139.641C74.5285 133.19 69.6845 127.953 62.9827 126.633L62.696 126.299Z" fill="white"/>
<path d="M76.7434 223.975C75.5787 223.699 74.4139 223.424 73.5068 223.043C72.9552 225.372 71.4203 227.502 69.4936 229.041C69.8564 229.193 70.0379 229.269 70.4007 229.422C79.9473 231.083 88.8299 226.703 90.9236 219.686C87.2806 223.278 82.0229 225.125 76.6672 224.156L76.7434 223.975Z" fill="#C0C0C0"/>
<path d="M62.699 126.3C57.3434 125.331 52.0856 127.178 48.4426 130.77C53.5224 132.904 56.9912 137.349 57.96 142.665C59.5347 142.472 61.1095 142.28 62.6371 142.708C68.9761 143.876 73.41 149.581 73.0435 156.043C76.3091 157.415 78.0399 160.916 77.3939 164.487C77.1944 165.47 76.8133 166.377 76.2509 167.208C78.6385 168.638 79.7959 171.472 79.2734 174.241C78.8742 176.207 77.8256 177.688 76.3088 178.758C76.9293 178.806 77.7312 178.929 78.3517 178.976C81.9221 179.622 84.7015 181.643 86.8133 184.237C87.6913 184.179 88.4933 184.303 89.4766 184.502C97.0565 185.765 102.046 193.196 100.601 200.7C99.9554 204.271 97.8581 207.232 95.2637 209.344C95.0351 209.888 95.2455 210.403 95.0169 210.948C94.4472 214.337 92.8651 217.087 90.7098 219.17C91.7983 219.627 92.7055 220.008 93.9464 220.103C102.691 221.641 111.048 215.973 112.586 207.228C112.815 206.683 112.786 206.244 112.833 205.624C115.609 203.588 117.525 200.551 118.171 196.98C119.615 189.476 114.55 182.226 106.864 180.706C106.139 180.401 105.079 180.383 104.201 180.441C102.271 177.923 99.3099 175.826 95.7395 175.18C95.1952 174.952 94.3171 175.01 93.6967 174.962C95.2134 173.892 96.262 172.411 96.6612 170.445C97.1838 167.676 95.8449 164.766 93.6388 163.412C94.0198 162.505 94.4008 161.598 94.7818 160.691C95.4277 157.12 93.5155 153.543 90.4313 152.247C90.7217 145.966 86.3639 140.081 80.025 138.912C78.4212 138.666 76.7412 138.6 75.2716 139.05C74.1396 132.599 69.2956 127.363 62.5938 126.042L62.699 126.3Z" fill="#C0C0C0"/>
<path d="M58.6256 124.804C63.4551 124.485 68.0669 126.208 71.0858 129.184C74.1809 131.978 75.654 135.585 76.1148 138.553C76.5756 141.521 76.1292 144.108 75.701 145.636C75.0914 147.087 74.7104 147.994 74.7104 147.994C74.7104 147.994 75.0914 147.087 75.3382 145.483C75.5849 143.88 75.6975 141.579 74.9029 138.897C74.1083 136.216 72.588 133.23 69.7033 130.951C67.0001 128.748 63.114 127.33 58.9811 127.515C54.8483 127.7 51.1943 129.794 48.8104 132.421C46.4264 135.048 45.2362 138.39 44.7899 140.977C44.4488 143.822 44.9567 146.17 45.4066 147.64C45.8566 149.109 46.3537 149.958 46.3537 149.958C46.3537 149.958 45.7804 149.291 45.149 147.745C44.4415 146.38 43.5707 143.88 43.5489 140.883C43.5272 137.886 44.507 134.029 47.1195 130.857C49.7321 127.686 53.9775 125.2 58.8832 124.699L58.6256 124.804Z" fill="#181415"/>
<path d="M40.8893 204.649C39.9605 201.27 40.3488 197.805 41.6732 195.16C42.8162 192.438 44.714 190.461 46.3831 189.027C48.2336 187.67 49.7794 187.039 50.9151 186.875C52.127 186.531 52.7475 186.578 52.7475 186.578C52.7475 186.578 50.066 187.373 47.243 190.029C45.8315 191.357 44.5543 193.382 43.7451 195.817C42.7545 198.175 42.7762 201.172 43.5708 203.854C44.2892 206.717 45.8567 209.083 47.729 210.723C49.6013 212.363 51.7021 213.459 53.5926 214.039C57.4497 215.019 60.0549 214.406 60.0549 214.406C60.0549 214.406 59.5397 214.616 58.3278 214.961C57.1158 215.306 55.5411 215.498 53.2406 215.385C51.0163 215.092 48.5816 214.283 46.1651 212.414C43.9299 210.621 41.7129 207.769 40.9655 204.467L40.8893 204.649Z" fill="#181415"/>
<path d="M43.6243 143.26C43.6243 143.26 43.5663 142.382 43.4321 141.685C40.6454 142.222 37.4486 143.227 34.778 145.521C31.1821 148.493 28.2176 153.01 27.6115 158.519C27.0817 163.845 28.9285 169.103 31.9002 172.699C34.8719 176.295 38.7109 178.334 42.0237 179.085C45.3365 179.836 48.2284 179.557 49.8794 179.183C51.7118 178.886 52.5609 178.388 52.5609 178.388C52.5609 178.388 51.6066 178.628 49.7742 178.926C48.018 179.042 45.2784 178.958 42.2994 177.921C39.3205 176.883 35.9206 174.815 33.4932 171.447C31.0657 168.08 29.5346 163.595 30.0172 158.889C30.4999 154.182 32.873 150.057 35.9536 147.295C38.2904 145.288 40.7614 143.978 43.3667 143.365L43.6243 143.26Z" fill="#181415"/>
<path d="M30.7914 173.301C30.7914 173.301 31.6405 172.804 31.8981 172.699C31.7167 172.623 31.43 172.289 31.3248 172.031C31.1434 171.955 30.7043 171.984 30.3705 172.271C29.2348 172.434 28.0519 173.218 26.898 174.441C25.9255 175.74 25.2397 177.373 25.461 179.387C25.7585 181.219 26.7527 182.917 28.0517 183.89C29.3507 184.862 30.7731 185.033 31.8326 185.051C34.2093 184.982 35.1055 183.864 35.1055 183.864C35.1055 183.864 33.7122 184.133 32.0032 183.628C30.2941 183.124 28.4218 181.484 28.1715 179.031C27.9212 176.578 29.1985 174.553 30.8966 173.559L30.7914 173.301Z" fill="#181415"/>
<path d="M40.457 202.12C38.8822 202.312 37.0208 202.171 35.2065 201.409C33.2109 200.571 31.3386 198.931 30.3154 196.793C29.1107 194.58 29.0418 192.203 29.5172 190.055C29.9926 187.907 31.1174 186.245 32.4527 185.098C35.1233 182.805 37.5762 182.555 37.5762 182.555C37.5762 182.555 37.0319 182.326 35.8962 182.489C34.7605 182.653 33.3671 182.921 31.669 183.915C29.9708 184.91 28.1493 186.706 27.2639 189.322C26.1971 191.862 26.324 195.117 27.9205 197.922C29.2594 200.832 31.8574 202.777 34.5497 203.481C36.803 204.214 38.9983 204.069 40.7255 203.513C40.6964 203.074 40.486 202.559 40.5332 201.939L40.457 202.12Z" fill="#181415"/>
<path d="M61.562 226.566C61.562 226.566 60.4081 227.788 59.7404 228.362C58.1475 229.614 55.7527 230.742 52.937 230.84C50.3027 231.014 47.3237 229.977 45.1357 227.564C43.053 225.408 41.8955 222.574 41.979 219.835C42.0625 217.095 43.0531 214.737 44.3594 213.151C44.5118 212.788 44.8456 212.501 45.1795 212.215C44.8166 212.062 44.53 211.728 44.4248 211.471C44.2724 211.834 43.7571 212.044 43.4233 212.331C41.6779 213.946 40.1721 216.515 39.86 219.799C39.5479 223.083 40.7634 226.795 43.4194 229.618C46.1516 232.259 49.9325 233.42 53.2635 233.112C56.5945 232.803 59.2179 231.13 60.7818 229.439C61.5256 228.685 62.0119 228.035 62.3167 227.309C62.1352 227.233 61.7724 227.081 61.591 227.005L61.562 226.566Z" fill="#181415"/>
<path d="M90.1129 219.562C89.5033 221.013 88.7123 222.388 87.5584 223.611C85.6607 225.589 82.6744 227.109 79.2962 228.038C72.6923 229.533 66.1429 227.85 62.275 225.372C58.3308 223.075 56.6581 220.451 56.6581 220.451C56.6581 220.451 57.7394 223.467 61.6363 226.384C63.5848 227.843 66.1538 229.349 69.3904 230.281C72.4456 231.137 76.1684 231.42 79.9856 230.462C83.7266 229.686 87.1229 227.697 89.3255 224.994C90.5555 223.589 91.4228 222.033 91.9272 220.324C91.3829 220.095 90.8386 219.866 90.2944 219.638L90.1129 219.562Z" fill="#181415"/>
<path d="M111.913 207.801C111.913 207.801 111.228 209.434 110.923 210.16C110.008 212.337 108.216 214.572 106.031 216.216C103.847 217.86 101.271 218.912 98.9232 219.42C96.3941 219.852 94.1698 219.558 92.3846 219.236C88.709 218.332 86.5791 216.797 86.5791 216.797C86.5791 216.797 88.0413 218.905 92.0326 220.582C94.0283 221.42 96.3578 221.971 99.2497 221.692C102.065 221.594 105.081 220.513 107.675 218.401C110.27 216.289 112.033 213.614 112.918 210.998C113.604 209.365 113.775 207.943 113.764 206.444C113.096 207.017 112.323 207.333 111.808 207.544L111.913 207.801Z" fill="#181415"/>
<path d="M119.862 191.929C120.743 195.928 119.506 199.89 117.59 202.927C115.569 205.707 112.869 207.561 110.369 208.432C107.869 209.303 105.75 209.267 104.509 209.173C103.087 209.002 102.361 208.697 102.361 208.697C102.361 208.697 103.163 208.821 104.48 208.733C105.797 208.646 107.811 208.425 109.767 207.325C111.904 206.302 114.165 204.477 115.67 201.908C117.176 199.339 117.927 196.026 117.18 192.724C116.614 189.498 114.655 186.541 112.42 184.748C110.003 182.879 107.387 181.994 105.163 181.7C102.862 181.588 100.848 181.809 99.5602 182.335C98.3482 182.68 97.4992 183.177 97.4992 183.177C97.4992 183.177 98.1668 182.604 99.2735 182.001C100.38 181.399 102.441 180.557 105.076 180.383C107.71 180.209 110.841 180.884 113.697 182.723C116.552 184.563 119.161 188.006 119.785 192.11L119.862 191.929Z" fill="#181415"/>
<path d="M92.6779 174.323C90.6641 174.544 89.1184 175.176 87.9355 175.96C85.5696 177.527 84.521 179.008 84.521 179.008C84.521 179.008 86.0377 177.937 88.4616 177.248C90.9616 176.377 94.474 176.145 97.9973 177.411C99.8115 178.173 101.55 179.116 102.772 180.27C102.772 180.27 103.211 180.241 103.469 180.136C103.908 180.107 104.423 179.896 104.862 179.867C104.862 179.867 105.044 179.944 105.225 180.02C104.833 179.428 104.623 178.913 104.155 178.503C102.827 177.092 101.06 175.709 98.9879 175.052C96.8108 174.138 94.6917 174.102 92.6779 174.323Z" fill="#181415"/>
<path d="M75.241 138.611C71.7867 139.721 70.4042 141.489 70.4042 141.489C70.4042 141.489 72.1785 140.313 75.5095 140.004C78.659 139.62 83.318 140.723 86.5473 144.213C88.162 145.959 89.0038 148.02 89.4827 149.928C89.5118 150.367 89.617 150.625 89.646 151.064C90.1903 151.293 90.8108 151.34 91.355 151.568C91.355 151.568 91.5364 151.645 91.7179 151.721C91.765 151.1 91.707 150.222 91.7542 149.602C91.5039 147.149 90.4516 144.572 88.5503 142.493C86.649 140.414 84.0038 139.09 81.6744 138.538C79.3449 137.987 77.0734 138.313 75.3462 138.869L75.241 138.611Z" fill="#181415"/>
<path d="M94.494 164.414L94.3416 164.777C95.4882 166.112 96.4352 168.431 96.065 170.837C95.8945 172.259 94.9982 173.377 94.3596 174.389C95.2377 174.331 96.2972 174.349 97.2806 174.549C98.1006 173.612 98.5578 172.524 98.7284 171.101C99.0513 169.316 98.7538 167.484 97.9701 166.301C97.1863 165.118 96.2502 164.298 95.4193 163.735C95.3431 163.917 95.1907 164.28 94.933 164.385L94.494 164.414Z" fill="#181415"/>
<path d="M95.3854 155.182C96.3796 156.88 96.6009 158.894 96.3542 160.498C96.1074 162.102 95.1349 163.401 94.6777 164.49C93.0376 166.362 91.4628 166.554 91.4628 166.554C91.4628 166.554 92.7219 165.589 93.4839 163.775C94.246 161.961 94.6633 158.934 93.2772 156.645C91.9674 154.174 89.3222 152.849 87.3556 152.45C85.3127 152.232 83.8432 152.682 83.8432 152.682C83.8432 152.682 84.9209 151.641 87.2685 151.133C88.4042 150.97 89.9028 150.959 91.5356 151.644C92.987 152.254 94.5726 153.56 95.5668 155.258L95.3854 155.182Z" fill="#181415"/>
</svg>
