<svg width="20" height="20" viewBox="0 0 20 20" fill="none" xmlns="http://www.w3.org/2000/svg">
<g id="bch.svg" clip-path="url(#clip0_12368_59701)">
<path id="Vector" d="M10 20C15.5228 20 20 15.5228 20 10C20 4.47715 15.5228 0 10 0C4.47715 0 0 4.47715 0 10C0 15.5228 4.47715 20 10 20Z" fill="#0AC18E"/>
<path id="Vector_2" d="M13.1202 6.24261C12.6177 5.10302 11.4629 4.85936 10.0491 5.0954L9.59485 3.33398L8.52377 3.61063L8.97044 5.36698C8.68877 5.43804 8.39944 5.49895 8.11259 5.58018L7.66589 3.83398L6.59484 4.11063L7.04914 5.87205C6.81819 5.93804 4.88672 6.43296 4.88672 6.43296L5.18114 7.58017C5.18114 7.58017 5.96794 7.35936 5.96032 7.37713C6.39687 7.26291 6.60245 7.48118 6.69889 7.68677L7.94762 12.5142C7.96285 12.6537 7.93747 12.8923 7.63798 12.9736C7.65574 12.9837 6.85879 13.1741 6.85879 13.1741L6.97554 14.5117C6.97554 14.5117 8.88927 14.0218 9.14052 13.9583L9.59994 15.7401L10.6709 15.4634L10.2116 13.669C10.506 13.6005 10.7928 13.5294 11.072 13.4558L11.5289 15.2401L12.5999 14.9634L12.1405 13.1842C13.7903 12.7832 14.9552 11.7426 14.7166 10.1512C14.5644 9.19182 13.5161 8.40507 12.6456 8.31621C13.1811 7.84159 13.4527 7.1487 13.1202 6.24261ZM12.6049 10.4431C12.8182 12.0192 10.6279 12.2122 9.90444 12.4025L9.27502 10.0447C10.0009 9.85423 12.2446 9.05482 12.6049 10.4431ZM11.2852 7.23245C11.5111 8.63348 9.63794 8.7959 9.03394 8.95073L8.46035 6.81113C9.06694 6.66139 10.8258 5.9355 11.2852 7.23245Z" fill="#E8EBF0"/>
</g>
<defs>
<clipPath id="clip0_12368_59701">
<rect width="20" height="20" fill="white"/>
</clipPath>
</defs>
</svg>
