<svg width="21" height="20" viewBox="0 0 21 20" fill="none" xmlns="http://www.w3.org/2000/svg">
<g clip-path="url(#clip0_12368_59710)">
<path d="M10.8304 0.00195312C16.3522 0.00195312 20.8288 4.47864 20.8288 10.0004C20.8288 15.5221 16.3519 19.9988 10.8304 19.9988C5.30892 19.9988 0.832031 15.5233 0.832031 10.0004C0.832031 4.47744 5.30812 0.00195312 10.8304 0.00195312Z" fill="#53AE94"/>
<path d="M12.0638 8.66763V7.1803H15.465V4.91406H6.20329V7.1803H9.60493V8.66646C6.84039 8.79344 4.76172 9.34094 4.76172 9.99683C4.76172 10.6527 6.84139 11.2002 9.60493 11.328V16.0923H12.0645V11.3276C14.8241 11.2002 16.8986 10.6531 16.8986 9.99783C16.8986 9.34252 14.8241 8.79544 12.0645 8.66804L12.0638 8.66763ZM12.0645 10.9241V10.9229C11.9951 10.9273 11.6386 10.9487 10.8447 10.9487C10.2101 10.9487 9.76349 10.9307 9.60618 10.9225V10.9245C7.16373 10.8163 5.34063 10.391 5.34063 9.8821C5.34063 9.37318 7.16393 8.94842 9.60618 8.84002V10.5008C9.76615 10.5117 10.2237 10.5387 10.8551 10.5387C11.6136 10.5387 11.995 10.5072 12.0649 10.5008V8.84002C14.5026 8.94858 16.3214 9.37435 16.3214 9.88143C16.3214 10.3886 14.5013 10.8144 12.0645 10.9229" fill="#E8EBF0"/>
</g>
<defs>
<clipPath id="clip0_12368_59710">
<rect width="20.83" height="19.9968" fill="white" transform="translate(0 0.00195312)"/>
</clipPath>
</defs>
</svg>
