<svg width="20" height="20" viewBox="0 0 20 20" fill="none" xmlns="http://www.w3.org/2000/svg">
<g clip-path="url(#clip0_12368_59719)">
<path d="M19.6986 12.4192C18.3629 17.7764 12.937 21.0368 7.57921 19.7008C2.22358 18.3652 -1.03673 12.9389 0.29952 7.58206C1.63452 2.22425 7.06046 -1.03638 12.4167 0.299248C17.7742 1.63487 21.0342 7.06175 19.6986 12.4192Z" fill="#F7931A"/>
<path d="M14.4091 8.57529C14.6082 7.24468 13.595 6.52938 12.2097 6.05218L12.6591 4.24968L11.5619 3.97625L11.1244 5.73125C10.8359 5.65937 10.5397 5.59156 10.2453 5.52437L10.6859 3.75781L9.5894 3.48438L9.13965 5.28625C8.9009 5.23187 8.66657 5.17813 8.43907 5.12156L8.44032 5.11593L6.92719 4.73813L6.63531 5.91C6.63531 5.91 7.44938 6.09656 7.43219 6.10812C7.87656 6.21906 7.95688 6.51312 7.94344 6.74625L7.43156 8.79971C7.46219 8.80746 7.50188 8.81871 7.54563 8.83621C7.50906 8.82721 7.47 8.81721 7.42969 8.80746L6.71219 11.684C6.65781 11.819 6.52 12.0215 6.20938 11.9447C6.22031 11.9606 5.41188 11.7456 5.41188 11.7456L4.86719 13.0015L6.295 13.3575C6.56063 13.424 6.82094 13.4937 7.07719 13.5594L6.62313 15.3825L7.71906 15.656L8.16875 13.8522C8.46815 13.9335 8.75874 14.0085 9.04315 14.079L8.59499 15.8744L9.69215 16.1478L10.1462 14.3281C12.0172 14.6822 13.4241 14.5394 14.0162 12.8472C14.4934 11.4847 13.9925 10.6987 13.0082 10.1862C13.725 10.021 14.265 9.54937 14.4091 8.57529ZM11.9022 12.0906C11.5632 13.4531 9.26907 12.7165 8.52532 12.5319L9.12782 10.1165C9.87157 10.3022 12.2566 10.6697 11.9022 12.0906ZM12.2416 8.55562C11.9322 9.79496 10.0228 9.16529 9.4034 9.01096L9.94965 6.82031C10.5691 6.97468 12.5637 7.26281 12.2416 8.55562Z" fill="#E8EBF0"/>
</g>
<defs>
<clipPath id="clip0_12368_59719">
<rect width="20" height="20" fill="white"/>
</clipPath>
</defs>
</svg>
