<svg width="202" height="202" viewBox="0 0 202 202" fill="none" xmlns="http://www.w3.org/2000/svg">
<g clip-path="url(#clip0_125_15)">
<path d="M169.25 200.806L167.525 201.964C150.862 178.718 138.192 161.314 126.885 149.064C115.35 136.563 105.718 130.109 95.6573 128.132C85.595 126.156 74.2349 128.487 58.8203 135.695C43.7108 142.756 25.388 154.072 1.1529 169.286L-0.00439453 167.562C23.2527 150.892 40.6641 138.217 52.9202 126.907C65.4273 115.369 71.8871 105.736 73.8678 95.6764C75.8484 85.6152 73.5209 74.2576 66.3183 58.8478C59.2605 43.7454 47.9515 25.4285 32.7451 1.2033L34.4697 0.0454102C51.1335 23.2922 63.803 40.696 75.1104 52.9465C86.6451 65.4463 96.2769 71.9002 106.338 73.8773C116.399 75.8531 127.76 73.522 143.175 66.3147C158.282 59.252 176.607 47.9377 200.842 32.7242L202 34.4481C178.743 51.1183 161.331 63.7922 149.075 75.1032C136.568 86.6414 130.108 96.2732 128.128 106.334C126.147 116.394 128.474 127.752 135.676 143.162C142.732 158.265 154.043 176.582 169.25 200.806ZM24.6084 152.291C37.4487 144.497 48.328 138.309 57.9448 133.813C73.784 126.409 85.5388 124.027 96.0616 126.094C106.584 128.162 116.562 134.81 128.416 147.655C135.612 155.453 143.338 165.293 152.265 177.366C144.474 164.53 138.289 153.656 133.797 144.042C126.398 128.209 124.02 116.456 126.092 105.934C128.163 95.412 134.816 85.4346 147.669 73.577C155.471 66.3793 165.316 58.6504 177.394 49.7198C164.553 57.5142 153.674 63.7025 144.058 68.1984C128.218 75.6031 116.462 77.9833 105.94 75.9165C95.4169 73.8497 85.4407 67.2021 73.5867 54.3566C66.3901 46.5583 58.6648 36.7178 49.737 24.6455C57.5286 37.4805 63.7121 48.3557 68.2057 57.9687C75.6044 73.8019 77.981 85.5554 75.9094 96.077C73.8391 106.599 67.1855 116.577 54.334 128.435C46.5313 135.633 36.6863 143.361 24.6084 152.291Z" fill="white"/>
<path fill-rule="evenodd" clip-rule="evenodd" d="M97.9634 101.035H97.9383V117.667H89.7119V101.035H87.1655V94.222H89.7119V94.0091C89.7119 91.0034 90.5886 88.7047 92.3432 87.1199C94.1229 85.5016 96.6777 84.6931 99.9907 84.6931C100.655 84.6931 101.174 84.7099 101.541 84.7362V91.7103C101.32 91.6852 101.012 91.6673 100.621 91.6673C99.7264 91.6673 99.071 91.8802 98.6535 92.2976C98.2361 92.6899 97.9981 93.2855 97.9467 94.1718H97.9718H114.799V94.222H114.834V117.658H106.642V101.018H97.9718V101.026L97.9634 101.035Z" fill="white"/>
<path d="M110.725 92.5368C112.988 92.5368 114.822 90.702 114.822 88.4403C114.822 86.1774 112.988 84.3439 110.725 84.3439C108.463 84.3439 106.63 86.1774 106.63 88.4403C106.63 90.702 108.463 92.5368 110.725 92.5368Z" fill="white"/>
</g>
<defs>
<clipPath id="clip0_125_15">
<rect width="202" height="202" fill="white"/>
</clipPath>
</defs>
</svg>
