<svg width="115" height="114" viewBox="0 0 115 114" fill="none" xmlns="http://www.w3.org/2000/svg">
<path d="M58.6517 57.1064L57.6458 56.6037C57.9029 56.0898 58.1529 55.5773 58.3946 55.0689L57.6515 55.4579C57.6051 55.368 52.9244 46.349 50.6037 35.1619C49.2368 28.5707 48.9404 22.5215 49.7229 17.18C50.7076 10.4624 53.409 4.8555 57.7526 0.515189L58.2035 0.0644531L58.5941 0.568548C58.7711 0.797429 62.946 6.27233 65.0729 16.0215C66.3203 21.7365 66.5914 27.7324 65.8792 33.8434C64.99 41.4709 62.5597 49.2964 58.6531 57.1064H58.6517ZM58.0799 1.78598C49.109 11.2263 49.6386 24.9662 51.698 34.9091C53.7982 45.0487 57.8636 53.3839 58.5477 54.7446C66.3035 38.2202 65.823 24.7906 63.987 16.3206C62.2872 8.48391 59.1574 3.37832 58.0799 1.78598Z" fill="white"/>
<path d="M57.4701 113.438L57.0192 112.988C52.677 108.647 49.9756 103.04 48.9895 96.3229C48.2056 90.9814 48.502 84.9322 49.8703 78.341C52.191 67.1525 56.8717 58.1349 56.918 58.045L57.6612 58.4339C57.4196 57.9256 57.1709 57.4131 56.9124 56.8992L57.9182 56.3965C61.8249 64.2065 64.2566 72.0334 65.1444 79.6595C65.8566 85.7705 65.5855 91.7677 64.3381 97.4827C62.2112 107.233 58.0362 112.707 57.8592 112.936L57.4687 113.44L57.4701 113.438ZM57.8157 58.7583C57.1316 60.1175 53.0661 68.4527 50.966 78.5937C48.9066 88.5367 48.377 102.275 57.3479 111.717C58.4254 110.126 61.5552 105.02 63.255 97.1822C65.0924 88.7122 65.5729 75.2841 57.8157 58.7583Z" fill="white"/>
<path d="M87.6055 64.7134C85.4267 64.7134 83.2254 64.5842 81.0073 64.3258C73.3766 63.437 65.5463 61.0078 57.7344 57.1028L58.2373 56.0973C58.7514 56.3543 59.2642 56.6043 59.7727 56.8458L59.3836 56.103C59.4735 56.0566 68.4964 51.3779 79.6882 49.0582C86.2822 47.6919 92.334 47.3957 97.6778 48.1778C104.398 49.1621 110.007 51.8623 114.35 56.2041L114.801 56.6548L114.296 57.0452C114.067 57.2221 108.59 61.3953 98.8367 63.5213C95.1927 64.316 91.4335 64.7134 87.6041 64.7134H87.6055ZM60.0986 57.0003C76.63 64.7527 90.0653 64.2725 98.5389 62.4372C106.379 60.7382 111.487 57.6097 113.08 56.5327C103.63 47.56 89.8742 48.0949 79.9186 50.1577C69.7775 52.2597 61.4584 56.3164 60.1 57.0003H60.0986Z" fill="white"/>
<path d="M27.9465 64.7144C24.117 64.7144 20.3579 64.317 16.7139 63.5222C6.95911 61.3963 1.48188 57.2231 1.25431 57.0461L0.75 56.6558L1.20093 56.205C5.54309 51.8647 11.1524 49.1645 17.8728 48.1788C23.2166 47.3952 29.2697 47.6915 35.8624 49.0592C47.0556 51.3789 56.0771 56.0576 56.167 56.1039L55.7779 56.8468C56.2864 56.6052 56.7991 56.3553 57.3133 56.0983L57.8162 57.1037C50.0028 61.0087 42.1726 63.4394 34.5433 64.3268C32.3265 64.5852 30.1239 64.7144 27.945 64.7144H27.9465ZM2.47366 56.5336C4.06527 57.6106 9.17304 60.7391 17.0145 62.4382C25.4881 64.2749 38.922 64.7551 55.4548 57.0012C54.0949 56.3174 45.7562 52.2523 35.6109 50.1545C25.6637 48.0959 11.9194 47.5665 2.47366 56.5336Z" fill="white"/>
</svg>
