<svg width="201" height="194" viewBox="0 0 201 194" fill="none" xmlns="http://www.w3.org/2000/svg">
<path d="M83.632 193.237C83.508 193.237 83.3839 193.227 83.2598 193.207C80.1582 192.686 79.5582 186.407 78.8391 176.202C78.5808 172.545 78.315 168.764 77.8466 165.914C77.1883 161.89 76.3958 161.419 76.2438 161.366C76.0843 161.31 75.1297 161.174 72.0332 163.968C69.8506 165.939 67.2529 168.766 64.7387 171.5C58.7987 177.964 54.7577 182.19 52.0384 182.193C51.6358 182.193 51.2611 182.099 50.9142 181.907C48.1848 180.393 49.7166 174.304 52.4384 164.497C53.4234 160.951 54.4412 157.281 54.9577 154.424C55.6869 150.38 55.0869 149.661 54.9577 149.56C54.8286 149.453 53.9829 149.013 50.1521 150.592C47.448 151.708 44.0602 153.49 40.7864 155.211C31.8208 159.923 26.2226 162.695 24.1844 160.369C22.1386 158.035 25.6378 152.852 31.5145 144.586C33.654 141.577 35.8669 138.467 37.3303 135.941C39.404 132.365 39.0799 131.471 38.9938 131.33C38.9077 131.188 38.2747 130.492 34.1654 130.654C31.2613 130.768 27.4861 131.264 23.8376 131.747C13.7402 133.079 7.49386 133.747 6.38487 130.829C5.2936 127.953 10.3575 124.355 18.7129 118.721C21.7892 116.646 24.9719 114.499 27.2481 112.634C30.4789 109.987 30.489 109.015 30.4586 108.848C30.4307 108.691 30.0915 107.841 26.2404 106.552C23.5135 105.641 19.8371 104.776 16.2822 103.938C6.28355 101.584 0.15625 99.9823 0.15625 96.8137C0.15625 93.645 6.28355 92.043 16.2822 89.6918C19.8371 88.8541 23.5135 87.9911 26.2404 87.0774C30.0915 85.7892 30.4307 84.9413 30.4586 84.7819C30.489 84.6149 30.4789 83.643 27.2481 80.9957C24.9719 79.1305 21.7892 76.9843 18.7129 74.909C10.3575 69.2727 5.2936 65.6739 6.38487 62.8013C7.49386 59.8807 13.7402 60.5488 23.8376 61.8826C27.4861 62.3634 31.2613 62.862 34.1654 62.9759C38.2773 63.1328 38.9102 62.4419 38.9938 62.3001C39.0799 62.1584 39.404 61.265 37.3303 57.6889C35.8669 55.1631 33.654 52.0527 31.5145 49.0435C25.6378 40.7802 22.1386 35.5969 24.1844 33.2609C26.2226 30.9351 31.8208 33.7039 40.7839 38.4189C44.0577 40.1399 47.4454 41.9216 50.1496 43.0377C53.9829 44.6195 54.8261 44.1766 54.9552 44.0703C55.0818 43.9666 55.6819 43.2503 54.9552 39.2059C54.4387 36.3461 53.4208 32.6789 52.4359 29.1331C49.7115 19.326 48.1822 13.2367 50.9117 11.7232C53.5955 10.2351 57.9151 14.7071 64.7361 22.1302C67.2478 24.866 69.8481 27.693 72.0306 29.6646C75.1247 32.4586 76.0818 32.322 76.2413 32.2663C76.3932 32.2132 77.1857 31.745 77.844 27.7183C78.3099 24.8686 78.5783 21.0875 78.8365 17.4304C79.5556 7.2259 80.1532 0.94676 83.2573 0.425401C86.2476 -0.0833046 88.8276 5.53778 92.7724 14.74C94.2435 18.1744 95.7651 21.7227 97.183 24.327C99.1985 28.0246 100.163 28.2118 100.335 28.2118C100.507 28.2118 101.472 28.0246 103.488 24.327C104.906 21.7253 106.427 18.1744 107.898 14.74C111.843 5.53525 114.418 -0.0807762 117.413 0.422867C120.515 0.944227 121.115 7.22337 121.834 17.4278C122.092 21.0849 122.358 24.866 122.827 27.7158C123.487 31.7399 124.277 32.2106 124.429 32.2638C124.589 32.3195 125.546 32.4561 128.64 29.662C130.822 27.6905 133.42 24.8635 135.935 22.1302C142.756 14.7071 147.073 10.2326 149.759 11.7232C152.488 13.2367 150.957 19.326 148.235 29.1331C147.25 32.6789 146.232 36.3486 145.715 39.2059C144.986 43.2503 145.586 43.9691 145.715 44.0703C145.845 44.1766 146.69 44.617 150.521 43.0377C153.225 41.9216 156.613 40.1399 159.887 38.4189C168.85 33.7039 174.448 30.9351 176.486 33.2609C178.532 35.5944 175.033 40.7776 169.156 49.0435C167.017 52.0527 164.804 55.1631 163.34 57.6889C161.267 61.265 161.591 62.1584 161.677 62.3001C161.763 62.4419 162.393 63.1354 166.505 62.9759C169.409 62.862 173.185 62.366 176.833 61.8826C186.93 60.5513 193.177 59.8807 194.286 62.8013C195.377 65.6764 190.313 69.2752 181.958 74.909C178.879 76.9843 175.699 79.1305 173.423 80.9957C170.192 83.643 170.182 84.6149 170.212 84.7819C170.24 84.9388 170.579 85.7892 174.43 87.0774C177.157 87.9885 180.834 88.8541 184.388 89.6918C194.387 92.0455 200.514 93.6476 200.514 96.8137C200.514 99.9798 194.387 101.584 184.388 103.938C180.834 104.773 177.16 105.639 174.43 106.55C170.579 107.838 170.24 108.686 170.212 108.845C170.182 109.012 170.192 109.984 173.423 112.632C175.699 114.497 178.881 116.643 181.958 118.718C190.313 124.355 195.377 127.953 194.286 130.826C193.177 133.747 186.93 133.079 176.833 131.745C173.185 131.264 169.409 130.765 166.505 130.651C162.393 130.489 161.76 131.185 161.677 131.327C161.591 131.469 161.267 132.362 163.34 135.938C164.804 138.464 167.017 141.575 169.156 144.584C175.033 152.847 178.532 158.03 176.486 160.366C174.448 162.695 168.85 159.923 159.884 155.208C156.61 153.487 153.223 151.706 150.519 150.59C146.685 149.008 145.842 149.451 145.713 149.557C145.586 149.661 144.986 150.377 145.713 154.421C146.229 157.281 147.247 160.948 148.232 164.494C150.957 174.301 152.486 180.391 149.756 181.904C147.07 183.395 142.753 178.92 135.932 171.497C133.42 168.764 130.82 165.934 128.637 163.965C125.543 161.171 124.586 161.308 124.427 161.364C124.275 161.417 123.482 161.885 122.824 165.912C122.358 168.761 122.09 172.542 121.832 176.2C121.113 186.404 120.515 192.683 117.411 193.204C117.287 193.225 117.163 193.235 117.039 193.235C114.195 193.235 111.676 187.71 107.896 178.887C106.425 175.453 104.903 171.905 103.485 169.3C101.472 165.603 100.507 165.415 100.333 165.415C100.158 165.415 99.1959 165.603 97.1805 169.3C95.7626 171.902 94.2409 175.453 92.7699 178.887C88.9897 187.71 86.4704 193.235 83.627 193.235L83.632 193.237ZM100.338 163.396C103.313 163.396 105.857 168.981 109.762 178.093C111.243 181.547 112.775 185.118 114.177 187.667C116.185 191.311 117.044 191.213 117.079 191.208C117.175 191.192 118.041 190.929 118.758 186.766C119.267 183.825 119.545 179.877 119.814 176.058C120.497 166.38 121.052 160.399 123.761 159.453C126.538 158.483 130.762 162.88 137.426 170.13C139.983 172.914 142.629 175.792 144.817 177.743C147.951 180.54 148.744 180.153 148.777 180.135C148.86 180.089 149.574 179.563 148.86 175.433C148.356 172.509 147.3 168.711 146.283 165.038C143.675 155.644 142.191 149.795 144.442 147.98C146.716 146.15 152.149 148.853 160.829 153.417C164.189 155.183 167.662 157.01 170.394 158.116C174.314 159.703 174.937 159.06 174.962 159.033C174.987 159.005 175.544 158.299 173.445 154.621C171.982 152.058 169.706 148.856 167.505 145.758C161.836 137.786 158.438 132.772 159.94 130.282C161.434 127.807 167.432 128.462 177.096 129.738C180.877 130.236 184.788 130.753 187.753 130.844C192.01 130.973 192.377 130.143 192.392 130.107C192.405 130.074 192.673 129.239 189.45 126.564C187.196 124.694 183.958 122.51 180.826 120.396C172.665 114.892 167.69 111.371 168.219 108.481C168.731 105.677 174.521 104.179 183.923 101.967C187.662 101.086 191.529 100.177 194.362 99.2003C198.372 97.8184 198.486 96.9124 198.486 96.8137C198.486 96.715 198.37 95.8115 194.362 94.4296C191.529 93.4527 187.662 92.5415 183.923 91.6633C174.519 89.4513 168.731 87.9531 168.219 85.1489C167.69 82.2561 172.665 78.7382 180.826 73.2336C183.958 71.1203 187.196 68.9361 189.45 67.0658C192.673 64.3907 192.405 63.5555 192.392 63.5226C192.379 63.4871 192.01 62.6545 187.753 62.7861C184.788 62.8772 180.879 63.3935 177.096 63.8921C167.432 65.1676 161.434 65.8232 159.94 63.348C158.436 60.8576 161.836 55.8439 167.505 47.8716C169.708 44.7764 171.984 41.5749 173.445 39.0086C175.544 35.3312 174.985 34.6251 174.962 34.5972C174.937 34.5694 174.314 33.9266 170.394 35.5134C167.662 36.6194 164.189 38.4467 160.829 40.2133C152.152 44.7764 146.716 47.4819 144.442 45.6521C142.188 43.8375 143.675 37.9886 146.283 28.594C147.303 24.9217 148.356 21.1229 148.86 18.1997C149.572 14.0693 148.86 13.5429 148.777 13.4974C148.744 13.4797 147.951 13.0924 144.817 15.8891C142.629 17.8404 139.983 20.7205 137.426 23.5019C131.377 30.0847 127.339 34.3113 124.569 34.3138C124.288 34.3138 124.019 34.2708 123.761 34.1797C121.052 33.2331 120.495 27.2552 119.814 17.5771C119.545 13.758 119.267 9.80992 118.758 6.86652C118.039 2.70323 117.175 2.44254 117.079 2.42483C117.044 2.4223 116.185 2.32359 114.177 5.96551C112.772 8.5141 111.243 12.0877 109.762 15.5398C105.855 24.6509 103.31 30.2365 100.338 30.2365C97.3653 30.2365 94.8182 24.6509 90.9114 15.5398C89.4302 12.0851 87.9009 8.5141 86.4957 5.96551C84.4879 2.32106 83.6346 2.4223 83.5941 2.42483C83.4979 2.44001 82.6319 2.70323 81.9154 6.86652C81.4064 9.80739 81.1305 13.758 80.8596 17.5771C80.1759 27.2552 79.6214 33.2356 76.9122 34.1797C74.1372 35.149 69.9114 30.7529 63.2473 23.5019C60.6901 20.718 58.0442 17.8404 55.8566 15.8891C52.722 13.0924 51.9296 13.4797 51.8966 13.4974C51.8131 13.5429 51.0991 14.0693 51.8105 18.1997C52.3144 21.1229 53.3702 24.9217 54.388 28.594C56.9959 37.9886 58.4797 43.8375 56.2288 45.6521C53.9576 47.4819 48.5215 44.7789 39.842 40.2158C36.4821 38.4492 33.0083 36.622 30.2763 35.516C26.3568 33.9291 25.734 34.5719 25.7087 34.5998C25.6833 34.6276 25.1263 35.3338 27.2253 39.0111C28.6888 41.5749 30.965 44.7764 33.1652 47.8742C38.8343 55.8464 42.2322 60.8601 40.7307 63.3505C39.2369 65.8257 33.2387 65.1702 23.5742 63.8946C19.794 63.396 15.8822 62.8798 12.9172 62.7886C8.66104 62.6545 8.29395 63.4897 8.28129 63.5251C8.26863 63.558 8.00022 64.3932 11.2234 67.0683C13.4768 68.9386 16.7152 71.1228 19.8472 73.2361C28.0077 78.7407 32.983 82.2611 32.4538 85.1514C31.9423 87.9556 26.1518 89.4539 16.7507 91.6659C13.011 92.5466 9.14468 93.4552 6.31143 94.4321C2.30083 95.814 2.18688 96.72 2.18688 96.8162C2.18688 96.9124 2.30336 97.8184 6.31143 99.2028C9.14468 100.18 13.011 101.091 16.7507 101.969C26.1543 104.181 31.9423 105.679 32.4538 108.484C32.983 111.376 28.0077 114.894 19.8472 120.399C16.7152 122.512 13.4768 124.696 11.2234 126.567C8.00022 129.242 8.26863 130.077 8.28129 130.11C8.29395 130.145 8.66104 130.98 12.9198 130.846C15.8847 130.755 19.794 130.239 23.5768 129.74C33.2412 128.465 39.2394 127.809 40.7333 130.284C42.2372 132.775 38.8368 137.788 33.1678 145.761C30.965 148.856 28.6888 152.058 27.2278 154.624C25.1288 158.301 25.6884 159.007 25.7112 159.035C25.7365 159.063 26.3594 159.706 30.2788 158.119C33.0108 157.013 36.4846 155.186 39.8445 153.419C48.5215 148.856 53.9576 146.153 56.2313 147.983C58.4847 149.797 56.9985 155.646 54.3906 165.041C53.3702 168.713 52.3169 172.512 51.8131 175.435C51.1016 179.566 51.8131 180.092 51.8966 180.138C51.9296 180.155 52.722 180.543 55.8566 177.746C58.0442 175.795 60.6901 172.914 63.2473 170.133C69.9114 162.882 74.1347 158.486 76.9122 159.455C79.6214 160.402 80.1785 166.38 80.8596 176.058C81.128 179.877 81.4064 183.825 81.9154 186.768C82.6344 190.932 83.4979 191.192 83.5941 191.21C83.6295 191.215 84.4879 191.311 86.4957 187.669C87.9009 185.121 89.4302 181.547 90.9114 178.095C94.8182 168.981 97.3628 163.398 100.338 163.398V163.396Z" fill="#CCE0EC"/>
</svg>
