<svg width="253" height="277" viewBox="0 0 253 277" fill="none" xmlns="http://www.w3.org/2000/svg">
<path d="M115.898 276.217H113.528C112.526 243.589 111.592 219.04 108.671 200.239C105.692 181.057 100.673 168.815 92.396 160.542C84.1194 152.269 71.872 147.251 52.6814 144.274C33.8731 141.353 9.313 140.42 -23.3281 139.419V137.049C9.313 136.048 33.8731 135.115 52.6814 132.195C71.872 129.218 84.1194 124.2 92.396 115.927C100.673 107.654 105.692 95.4116 108.671 76.2292C111.59 57.4289 112.526 32.8792 113.528 0.251953H115.898C116.9 32.8792 117.833 57.4289 120.755 76.2292C123.733 95.4116 128.753 107.654 137.03 115.927C145.306 124.2 157.554 129.218 176.744 132.195C195.553 135.112 220.113 136.048 252.754 137.049V139.419C220.113 140.42 195.553 141.353 176.744 144.274C157.554 147.251 145.306 152.269 137.03 160.542C128.753 168.815 123.733 181.057 120.755 200.239C117.833 219.04 116.9 243.589 115.898 276.217Z" fill="white"/>
</svg>
