<svg width="36" height="34" viewBox="0 0 36 34" fill="none" xmlns="http://www.w3.org/2000/svg">
<path d="M35.3931 1.1452L35.1377 0.846218C30.9149 4.23496 28.4785 6.11256 25.7927 7.7695C23.0526 9.4605 20.9678 10.1463 19.0327 9.99376C17.0977 9.84122 13.7355 8.72634 11.2926 6.62677C8.89795 4.56935 9.38188 5.37413 5.73905 1.36534L5.44019 1.62064C8.83049 5.84515 8.11121 5.2414 9.76916 7.92812C11.4612 10.6691 12.7973 13.5147 12.6456 15.4498C12.4939 17.3849 9.97005 20.636 7.87165 23.0782C5.81505 25.4717 4.34046 26.9356 0.333473 30.577L0.588874 30.876C4.81168 27.4873 6.48771 26.2592 9.17356 24.6022C11.9137 22.9112 15.5192 20.9264 17.4542 21.079C19.3893 21.2315 21.9911 22.9959 24.434 25.0955C26.8283 27.1532 28.9428 29.3895 32.5856 33.3983L32.8845 33.143C29.4942 28.9185 27.6154 26.4808 25.9574 23.7941C24.2654 21.0531 23.6896 17.558 23.8413 15.6229C23.993 13.6878 24.9962 11.7358 27.0946 9.29357C29.1509 6.89964 31.3861 4.78659 35.3931 1.1452Z" fill="black"/>
</svg>
