<svg width="256" height="255" viewBox="0 0 256 255" fill="none" xmlns="http://www.w3.org/2000/svg">
<path d="M71.439 243.326L93.7619 163.028L14.2351 188.015L79.5075 136.187L0.461235 109.667L83.7534 106.105L35.3801 38.2062L104.876 84.2706L105.654 0.92753L134.811 79.0219L184.441 12.0677L162.118 92.3655L241.647 67.3758L176.374 119.204L255.42 145.724L172.128 149.286L220.502 217.185L151.006 171.121L150.228 254.464L121.071 176.369L71.4403 243.323L71.439 243.326ZM97.2674 159.405L77.235 231.465L121.774 171.38L147.939 241.464L148.636 166.668L211.003 208.007L167.593 147.073L242.34 143.875L171.403 120.076L229.982 73.5641L158.613 95.989L178.645 23.9292L134.106 84.0141L107.941 13.9302L107.244 88.7254L44.8774 47.3867L88.2875 108.321L13.5399 111.519L84.4772 135.318L25.8988 181.83L97.2674 159.405Z" fill="#CCE0EC"/>
</svg>
