<svg width="158" height="158" viewBox="0 0 158 158" fill="none" xmlns="http://www.w3.org/2000/svg">
<path d="M147.793 115.106C143.126 117.4 137.081 118.528 130.001 118.394C119.497 118.196 107.471 115.292 94.2436 109.764C90.5424 123.615 85.4959 134.91 79.2368 143.348C73.5889 150.963 67.2833 155.73 61.0027 157.13C55.0912 158.449 49.7018 156.612 45.826 151.96C41.7104 147.017 39.6291 139.396 39.8116 129.918C40.0145 119.416 42.922 107.393 48.4557 94.1673C34.6021 90.4718 23.3062 85.4303 14.8683 79.1757C7.25276 73.5318 2.48733 67.2295 1.08907 60.951C-0.22893 55.0415 1.61057 49.6529 6.26526 45.7765C11.2106 41.6603 18.8351 39.5769 28.3147 39.7563C38.8194 39.9556 50.8449 42.8583 64.0721 48.386C67.7733 34.5348 72.8199 23.2401 79.0789 14.8023C84.7268 7.18684 91.0324 2.42054 97.313 1.02053C103.225 -0.299119 108.614 1.53808 112.49 6.19026C116.605 11.133 118.687 18.7548 118.504 28.232C118.303 38.7332 115.394 50.7574 109.86 63.983C123.714 67.6785 135.01 72.72 143.447 78.9746C151.063 84.6185 155.828 90.9208 157.227 97.1993C158.545 103.109 156.705 108.497 152.05 112.374C150.798 113.416 149.375 114.328 147.793 115.106ZM93.2456 107.734L94.035 108.068C123.763 120.683 143.007 117.976 151.103 111.235C155.31 107.733 156.971 102.863 155.78 97.5226C153.489 87.2442 139.907 73.3551 108.658 65.1988L107.829 64.9814L108.163 64.1921C120.791 34.4675 118.091 15.2295 111.35 7.13818C107.849 2.93309 102.978 1.27402 97.6359 2.46661C87.354 4.7609 73.4567 18.3436 65.2878 49.5872L65.0701 50.4161L64.2807 50.0822C34.5526 37.4676 15.3096 40.1755 7.21306 46.9154C3.00569 50.4172 1.34454 55.287 2.53564 60.6277C4.82706 70.9061 18.4086 84.7952 49.6575 92.9515L50.4867 93.1689L50.1524 93.9582C37.5244 123.683 40.2249 142.921 46.9655 151.012C50.4668 155.217 55.3373 156.876 60.6798 155.684C70.9617 153.389 84.859 139.807 93.0279 108.563L93.2456 107.734Z" fill="#CCE0EC"/>
</svg>
