<svg width="42" height="39" viewBox="0 0 42 39" fill="none" xmlns="http://www.w3.org/2000/svg">
<path d="M8.7157 38.453C8.2665 38.453 7.89049 38.1915 7.73454 37.7702L6.03822 33.1878C5.95163 32.9538 5.76745 32.7697 5.53305 32.6831L0.94875 30.9875C0.527299 30.8316 0.265625 30.4558 0.265625 30.0068C0.265625 29.5578 0.527299 29.1819 0.94875 29.026L5.53305 27.3304C5.76721 27.2439 5.95139 27.0598 6.03798 26.8257L7.7343 22.2434C7.89025 21.8221 8.26626 21.5605 8.71546 21.5605C9.16465 21.5605 9.54066 21.8221 9.69661 22.2434L11.3929 26.8257C11.4795 27.0598 11.6637 27.2439 11.8981 27.3307L16.4824 29.0263C16.9039 29.1822 17.1655 29.5578 17.1655 30.007C17.1655 30.4563 16.9039 30.8319 16.4824 30.9878L11.8981 32.6834C11.6639 32.7699 11.4798 32.954 11.3932 33.1881L9.69685 37.7704C9.5409 38.1917 9.16489 38.4533 8.7157 38.4533V38.453Z" fill="black"/>
<path d="M33.5594 17.789C33.1102 17.789 32.7342 17.5274 32.5783 17.1061L30.882 12.5238C30.7954 12.2897 30.6112 12.1056 30.3768 12.0191L25.7925 10.3235C25.371 10.1676 25.1094 9.79173 25.1094 9.34272C25.1094 8.89372 25.371 8.51787 25.7925 8.36199L30.3768 6.66638C30.611 6.57983 30.7951 6.39574 30.8817 6.16167L32.5781 1.57932C32.734 1.15805 33.11 0.896484 33.5592 0.896484C34.0084 0.896484 34.3844 1.15805 34.5404 1.57932L36.2367 6.16167C36.3233 6.39574 36.5075 6.57983 36.7419 6.66662L41.3262 8.36223C41.7476 8.51811 42.0093 8.89372 42.0093 9.34296C42.0093 9.79221 41.7476 10.1678 41.3262 10.3237L36.7419 12.0193C36.5077 12.1059 36.3235 12.29 36.2369 12.524L34.5406 17.1064C34.3846 17.5276 34.0086 17.7892 33.5594 17.7892V17.789Z" fill="black"/>
</svg>
