<svg width="424" height="47" viewBox="0 0 424 47" fill="none" xmlns="http://www.w3.org/2000/svg">
<path d="M1 1C5.79 1 5.79003 45.459 10.59 45.459C15.39 45.459 15.39 1 20.18 1C24.97 1 24.97 45.459 29.77 45.459C34.57 45.459 34.56 1 39.36 1C44.16 1 44.15 45.459 48.95 45.459C53.75 45.459 53.75 1 58.54 1C63.33 1 63.33 45.459 68.13 45.459C72.93 45.459 72.93 1 77.72 1C82.51 1 82.52 45.459 87.31 45.459C92.1 45.459 92.11 1 96.9 1C101.69 1 101.7 45.459 106.49 45.459C111.28 45.459 111.29 1 116.08 1C120.87 1 120.88 45.459 125.68 45.459C130.48 45.459 130.48 1 135.27 1C140.06 1 140.07 45.459 144.86 45.459C149.65 45.459 149.66 1 154.45 1C159.24 1 159.25 45.459 164.04 45.459C168.83 45.459 168.84 1 173.63 1C178.42 1 178.43 45.459 183.23 45.459C188.03 45.459 188.03 1 192.82 1C197.61 1 197.62 45.459 202.42 45.459C207.22 45.459 207.22 1 212.02 1" stroke="#A7CBE0" stroke-width="2" stroke-miterlimit="10"/>
<path d="M423.02 1C418.23 1 418.23 45.459 413.43 45.459C408.63 45.459 408.63 1 403.84 1C399.05 1 399.05 45.459 394.25 45.459C389.45 45.459 389.46 1 384.66 1C379.86 1 379.87 45.459 375.07 45.459C370.27 45.459 370.27 1 365.48 1C360.69 1 360.69 45.459 355.89 45.459C351.09 45.459 351.09 1 346.3 1C341.51 1 341.5 45.459 336.71 45.459C331.92 45.459 331.91 1 327.12 1C322.33 1 322.32 45.459 317.53 45.459C312.74 45.459 312.73 1 307.94 1C303.15 1 303.14 45.459 298.34 45.459C293.54 45.459 293.54 1 288.75 1C283.96 1 283.95 45.459 279.16 45.459C274.37 45.459 274.36 1 269.57 1C264.78 1 264.769 45.459 259.979 45.459C255.189 45.459 255.18 1 250.39 1C245.6 1 245.589 45.459 240.789 45.459C235.989 45.459 235.99 1 231.2 1C226.41 1 226.399 45.459 221.599 45.459C216.799 45.459 216.8 1 212 1" stroke="#A7CBE0" stroke-width="2" stroke-miterlimit="10"/>
</svg>
