<svg width="108" height="108" viewBox="0 0 108 108" fill="none" xmlns="http://www.w3.org/2000/svg">
<path d="M90.1461 107.078L89.2347 107.689C80.4283 95.404 73.733 86.2066 67.7572 79.7327C61.6611 73.1265 56.5713 69.7155 51.254 68.6711C45.9366 67.6266 39.9328 68.8587 31.7864 72.6674C23.8015 76.399 14.1183 82.3795 1.31061 90.4194L0.698986 89.5084C12.9898 80.6986 22.1914 74.0007 28.6686 68.0233C35.2783 61.9256 38.6919 56.8353 39.7386 51.5184C40.7853 46.2015 39.5554 40.1991 35.7493 32.0556C32.019 24.0742 26.0426 14.3941 18.0064 1.59166L18.9178 0.979781C27.7242 13.2652 34.4195 22.4627 40.3953 28.9365C46.4914 35.5427 51.5812 38.9537 56.8985 39.9981C62.2159 41.0426 68.2197 39.8106 76.3661 36.0018C84.3502 32.269 94.0342 26.2898 106.842 18.2498L107.453 19.1608C95.1627 27.9706 85.9611 34.6685 79.4838 40.6459C72.8742 46.7436 69.4606 51.8339 68.4139 57.1508C67.3672 62.4677 68.5971 68.4701 72.4032 76.6136C76.1323 84.5958 82.1099 94.2751 90.1461 107.078ZM13.7063 81.4384C20.4921 77.319 26.2416 74.0489 31.3237 71.6729C39.6943 67.7599 45.9069 66.5017 51.468 67.594C57.029 68.6863 62.3014 72.1994 68.5662 78.988C72.3693 83.1092 76.4522 88.3096 81.1701 94.6896C77.0526 87.9066 73.7842 82.1593 71.4099 77.0789C67.4996 68.7112 66.2436 62.5001 67.3382 56.9395C68.4329 51.3789 71.9487 46.1061 78.7409 39.8395C82.8642 36.0355 88.0671 31.9511 94.45 27.2315C87.6642 31.351 81.9147 34.6211 76.8326 36.9971C68.462 40.9101 62.2494 42.1683 56.6883 41.076C51.1273 39.9837 45.8549 36.4706 39.5901 29.6819C35.787 25.5607 31.7041 20.3603 26.9862 13.9803C31.1037 20.7634 34.372 26.5107 36.7464 31.591C40.6567 39.9587 41.9127 46.1699 40.818 51.7304C39.7234 57.291 36.2076 62.5639 29.4154 68.8304C25.2921 72.6345 20.0892 76.7188 13.7063 81.4384Z" fill="#CCE0EC"/>
</svg>
