<svg width="17" height="18" viewBox="0 0 17 18" fill="none" xmlns="http://www.w3.org/2000/svg">
<path d="M8.51257 17.8075C8.06337 17.8075 7.68737 17.546 7.53142 17.1247L5.83509 12.5423C5.7485 12.3083 5.56433 12.1242 5.32992 12.0376L0.745625 10.342C0.324174 10.1861 0.0625 9.81028 0.0625 9.36128C0.0625 8.91227 0.324174 8.53643 0.745625 8.38054L5.32992 6.68494C5.56409 6.59839 5.74826 6.41429 5.83485 6.18022L7.53118 1.59787C7.68713 1.1766 8.06313 0.915039 8.51233 0.915039C8.96153 0.915039 9.33753 1.1766 9.49349 1.59787L11.1898 6.18022C11.2764 6.41429 11.4606 6.59839 11.695 6.68517L16.2793 8.38078C16.7007 8.53666 16.9624 8.91227 16.9624 9.36152C16.9624 9.81076 16.7007 10.1864 16.2793 10.3423L11.695 12.0379C11.4608 12.1244 11.2766 12.3085 11.1901 12.5426L9.49372 17.1249C9.33777 17.5462 8.96177 17.8078 8.51257 17.8078V17.8075Z" fill="black"/>
</svg>
