<svg width="556" height="1351" viewBox="0 0 556 1351" fill="none" xmlns="http://www.w3.org/2000/svg">
<path d="M285.441 1037.96C281.437 1063.72 280.149 1097.33 278.779 1141.89H276.493C275.123 1097.33 273.836 1063.72 269.831 1037.96C265.734 1011.57 258.816 994.631 247.338 983.158C235.86 971.685 218.914 964.769 192.514 960.674C166.737 956.672 133.121 955.385 88.5391 954.015V951.73C133.121 950.361 166.737 949.074 192.514 945.072C218.914 940.976 235.86 934.061 247.338 922.588C258.816 911.115 265.734 894.175 269.831 867.787C273.832 842.021 275.123 808.419 276.493 763.856H278.779C280.149 808.419 281.437 842.021 285.441 867.787C289.538 894.175 296.457 911.115 307.935 922.588C319.412 934.061 336.359 940.976 362.759 945.072C388.535 949.07 422.152 950.361 466.733 951.73V954.015C422.152 955.385 388.535 956.672 362.759 960.674C336.359 964.769 319.412 971.685 307.935 983.158C296.457 994.631 289.538 1011.57 285.441 1037.96Z" fill="#ED936D" stroke="#ED936D"/>
<path d="M84.3147 572.516L84.3147 573.515C115.835 574.955 142.037 576.9 164.048 580.315C200.302 585.941 223.472 595.53 239.298 611.348C255.123 627.167 264.716 650.322 270.344 686.566C273.76 708.568 275.712 734.758 277.147 766.265L278.146 766.265C279.586 734.758 281.532 708.568 284.948 686.566C290.577 650.327 300.169 627.167 315.995 611.348C331.82 595.53 354.985 585.941 391.245 580.315C413.256 576.9 439.457 574.949 470.978 573.515L470.978 572.516C439.457 571.077 413.256 569.131 391.245 565.716C354.99 560.091 331.82 550.502 315.995 534.683C300.169 518.864 290.577 495.71 284.948 459.466C281.532 437.464 279.58 411.274 278.146 379.766L277.147 379.766C275.707 411.274 273.76 437.464 270.344 459.466C264.716 495.704 255.123 518.864 239.298 534.683C223.472 550.502 200.308 560.091 164.048 565.716C142.036 569.131 115.835 571.082 84.3147 572.516ZM288.27 687.078C282.9 721.63 281.176 766.707 279.338 826.519H275.944C274.106 766.707 272.382 721.63 267.012 687.078C261.523 651.723 252.258 629.062 236.911 613.722C221.565 598.382 198.894 589.121 163.525 583.634C128.957 578.267 83.8614 576.544 24.0234 574.707V571.314C83.8614 569.477 128.957 567.754 163.525 562.386C198.894 556.899 221.565 547.638 236.911 532.299C252.258 516.959 261.523 494.297 267.012 458.943C272.376 424.39 274.106 379.313 275.944 319.501H279.338C281.176 379.313 282.9 424.39 288.27 458.943C293.759 494.297 303.024 516.959 318.37 532.299C333.716 547.638 356.387 556.899 391.757 562.386C426.324 567.748 471.42 569.477 531.258 571.314V574.707C471.42 576.544 426.324 578.267 391.757 583.634C356.387 589.121 333.716 598.382 318.37 613.722C303.024 629.062 293.759 651.723 288.27 687.078Z" fill="#ED936D" stroke="#ED936D"/>
<path d="M277.197 19.1926V373.218" stroke="#ED936D" stroke-width="7"/>
<mask id="mask0_73_24" style="mask-type:alpha" maskUnits="userSpaceOnUse" x="1" y="0" width="447" height="220">
<rect x="30.906" y="1.16695" width="427.568" height="120.871" transform="rotate(13.5502 30.906 1.16695)" fill="#D9D9D9" stroke="#ED936D"/>
</mask>
<g mask="url(#mask0_73_24)">
<mask id="path-5-inside-1_73_24" fill="white">
<path d="M281.745 193.496C281.517 165.125 271.778 137.651 254.088 115.47C236.397 93.2886 211.778 77.6826 184.169 71.1489C156.56 64.6153 127.557 67.5317 101.801 79.4315C76.0458 91.3313 55.0264 111.527 42.1064 136.786L154.974 194.517L281.745 193.496Z"/>
</mask>
<path d="M281.745 193.496C281.517 165.125 271.778 137.651 254.088 115.47C236.397 93.2886 211.778 77.6826 184.169 71.1489C156.56 64.6153 127.557 67.5317 101.801 79.4315C76.0458 91.3313 55.0264 111.527 42.1064 136.786L154.974 194.517L281.745 193.496Z" stroke="#ED936D" stroke-width="14" mask="url(#path-5-inside-1_73_24)"/>
</g>
<mask id="mask1_73_24" style="mask-type:alpha" maskUnits="userSpaceOnUse" x="108" y="0" width="446" height="220">
<rect x="-0.368934" y="0.603231" width="427.568" height="120.871" transform="matrix(-0.972165 0.234297 0.234297 0.972165 523.86 0.666952)" fill="#D9D9D9" stroke="#ED936D"/>
</mask>
<g mask="url(#mask1_73_24)">
<mask id="path-7-inside-2_73_24" fill="white">
<path d="M273.52 193.496C273.749 165.125 283.487 137.651 301.178 115.47C318.868 93.2886 343.488 77.6826 371.097 71.1489C398.706 64.6153 427.709 67.5317 453.464 79.4315C479.22 91.3313 500.239 111.527 513.159 136.786L400.292 194.517L273.52 193.496Z"/>
</mask>
<path d="M273.52 193.496C273.749 165.125 283.487 137.651 301.178 115.47C318.868 93.2886 343.488 77.6826 371.097 71.1489C398.706 64.6153 427.709 67.5317 453.464 79.4315C479.22 91.3313 500.239 111.527 513.159 136.786L400.292 194.517L273.52 193.496Z" stroke="#ED936D" stroke-width="14" mask="url(#path-7-inside-2_73_24)"/>
</g>
<path d="M281.685 1350.79C277.966 1350.79 274.853 1348.62 273.562 1345.13L259.518 1307.2C258.801 1305.26 257.276 1303.74 255.336 1303.02L217.382 1288.98C213.893 1287.69 211.727 1284.58 211.727 1280.86C211.727 1277.14 213.893 1274.03 217.382 1272.74L255.336 1258.7C257.274 1257.99 258.799 1256.46 259.516 1254.53L273.56 1216.59C274.851 1213.1 277.964 1210.93 281.683 1210.93C285.402 1210.93 288.515 1213.1 289.806 1216.59L303.85 1254.53C304.567 1256.46 306.092 1257.99 308.032 1258.71L345.986 1272.74C349.475 1274.03 351.642 1277.14 351.642 1280.86C351.642 1284.58 349.475 1287.69 345.986 1288.98L308.032 1303.02C306.094 1303.74 304.569 1305.26 303.852 1307.2L289.808 1345.14C288.517 1348.62 285.404 1350.79 281.685 1350.79V1350.79ZM281.685 1212.52C279.303 1212.52 276.309 1213.73 275.047 1217.14L261.003 1255.07C260.126 1257.45 258.261 1259.31 255.886 1260.19L217.933 1274.23C214.527 1275.49 213.313 1278.48 213.313 1280.86C213.313 1283.24 214.527 1286.24 217.933 1287.5L255.886 1301.53C258.261 1302.41 260.126 1304.28 261.003 1306.65L275.047 1344.59C276.309 1347.99 279.303 1349.2 281.685 1349.2C284.067 1349.2 287.061 1347.99 288.323 1344.59L302.367 1306.65C303.244 1304.28 305.11 1302.41 307.484 1301.53L345.437 1287.5C348.845 1286.24 350.057 1283.24 350.057 1280.86C350.057 1278.48 348.843 1275.49 345.437 1274.23L307.484 1260.19C305.11 1259.31 303.244 1257.45 302.367 1255.07L288.323 1217.14C287.061 1213.73 284.067 1212.52 281.685 1212.52V1212.52Z" fill="#ED936D"/>
</svg>
