<svg width="53" height="56" viewBox="0 0 53 56" fill="none" xmlns="http://www.w3.org/2000/svg">
<path d="M10.6857 34.3398C10.2471 34.3403 9.82651 34.5087 9.51632 34.8082C9.20614 35.1076 9.03169 35.5137 9.03125 35.9372V38.3332C9.03548 38.5424 9.1245 38.7415 9.27918 38.888C9.43386 39.0344 9.64187 39.1165 9.85852 39.1165C10.0752 39.1165 10.2832 39.0344 10.4378 38.888C10.5925 38.7415 10.6815 38.5423 10.6857 38.3332V35.9372H13.1675C13.3869 35.9372 13.5973 35.8531 13.7524 35.7033C13.9076 35.5535 13.9947 35.3503 13.9947 35.1385C13.9947 34.9267 13.9076 34.7236 13.7524 34.5738C13.5973 34.424 13.3869 34.3398 13.1675 34.3398H10.6857Z" fill="#2B3544"/>
<path d="M14.9141 43.1253C14.9141 47.9696 18.2542 51.9107 22.3593 51.9107C32.2328 51.4414 32.229 34.807 22.3592 34.3398C18.2542 34.3398 14.9141 38.281 14.9141 43.1253ZM28.15 43.1253C28.15 47.0886 25.5524 50.3134 22.3593 50.3134C14.6971 49.9832 14.7 36.2655 22.3594 35.9372C25.5524 35.9372 28.15 39.1619 28.15 43.1253Z" fill="#2B3544"/>
<path d="M27.0229 18.5565C31.3564 18.5565 34.8818 15.1129 34.8818 10.8798C34.8818 6.64676 31.3564 3.20312 27.0229 3.20312C22.6894 3.20312 19.1641 6.64676 19.1641 10.8798C19.1641 15.1129 22.6894 18.5565 27.0229 18.5565ZM27.0229 4.54208C30.6004 4.54208 33.511 7.38528 33.511 10.8798C33.511 14.3744 30.6004 17.2176 27.0229 17.2176C23.4455 17.2176 20.5348 14.3744 20.5348 10.8798C20.5348 7.38528 23.4455 4.54208 27.0229 4.54208Z" fill="#2B3544"/>
<path d="M17.7926 10.88C17.7926 5.90877 21.933 1.86435 27.0222 1.86435C32.1114 1.86435 36.2518 5.90877 36.2518 10.88C36.2518 15.8512 32.1114 19.8957 27.0222 19.8957C25.0061 19.8957 23.091 19.2722 21.4839 18.093C21.1812 17.8708 20.7518 17.9305 20.5244 18.2261C20.297 18.5215 20.3577 18.9413 20.6604 19.1634C22.507 20.5184 24.7066 21.2346 27.0222 21.2346C32.8671 21.2346 37.6225 16.5898 37.6225 10.88C37.6225 5.17025 32.8671 0.525391 27.0222 0.525391C21.1773 0.525391 16.4219 5.17025 16.4219 10.88C16.4219 13.0994 17.1304 15.2156 18.4708 17.0002C18.6946 17.2983 19.1237 17.3625 19.4286 17.1438C19.7338 16.9252 19.7998 16.5061 19.576 16.2079C18.4091 14.6549 17.7926 12.8124 17.7926 10.88Z" fill="#2B3544"/>
<path d="M24.9397 13.9173H24.6463C24.2679 13.9173 23.9609 14.2172 23.9609 14.5868C23.9609 14.9568 24.2679 15.2563 24.6463 15.2563H24.9397V15.5213C24.9397 15.8912 25.2467 16.1908 25.6251 16.1908C26.0035 16.1908 26.3105 15.8912 26.3105 15.5213V15.2563H27.1904V15.5213C27.1904 15.8912 27.4974 16.1908 27.8757 16.1908C28.2545 16.1908 28.5611 15.8912 28.5611 15.5213V15.0349C29.4578 14.6402 30.0835 13.7597 30.0835 12.7388V12.7276C30.0835 11.9978 29.7637 11.3398 29.254 10.8796C29.7637 10.4193 30.0835 9.76132 30.0835 9.03152V9.02036C30.0835 7.99941 29.4578 7.11897 28.5611 6.72426V6.23784C28.5611 5.86788 28.2545 5.56836 27.8757 5.56836C27.4974 5.56836 27.1904 5.86788 27.1904 6.23784V6.50284H26.3105V6.23784C26.3105 5.86788 26.0035 5.56836 25.6251 5.56836C25.2467 5.56836 24.9397 5.86788 24.9397 6.23784V6.50284H24.6463C24.2679 6.50284 23.9609 6.80236 23.9609 7.17232C23.9609 7.54193 24.2679 7.8418 24.6463 7.8418H24.9397V13.9173ZM28.7128 12.7276V12.7388C28.7128 13.3887 28.1713 13.9173 27.5059 13.9173H26.3105V11.549H27.5059C28.1713 11.549 28.7128 12.078 28.7128 12.7276ZM28.7128 9.03152C28.7128 9.68113 28.1713 10.2101 27.5059 10.2101H26.3105V7.8418H27.5059C28.1713 7.8418 28.7128 8.37041 28.7128 9.02036V9.03152Z" fill="#2B3544"/>
<rect x="6.41406" y="32.0508" width="33.7223" height="22.1482" rx="2" stroke="#2B3544" stroke-width="2"/>
<path d="M9.97656 31.5427V30.7461C9.97656 29.0892 11.3197 27.7461 12.9766 27.7461H40.8198C42.4766 27.7461 43.8198 29.0892 43.8198 30.7461V50.1968C43.8198 51.8536 42.4766 53.1968 40.8198 53.1968H40.0495" stroke="#2B3544" stroke-width="2"/>
<path d="M38.7508 14.2736C38.517 14.3255 38.3863 14.571 38.477 14.7878L41.1855 21.2844C41.3099 21.5839 41.7385 21.6039 41.8916 21.3165L42.7453 19.7134C44.9542 21.0058 46.2034 23.4819 45.8766 25.9939C45.8311 26.3437 46.2571 26.5606 46.5248 26.3236C50.1778 23.0855 49.5429 17.3087 45.3196 14.8793L46.1835 13.2571C46.3363 12.9703 46.0743 12.6382 45.7512 12.7108L38.7508 14.2736ZM44.4535 14.8567C44.3542 15.0433 44.4285 15.2729 44.6193 15.3698C48.2826 17.2312 49.2725 21.9039 46.7049 25.0298C46.6417 22.46 45.147 20.0631 42.7647 18.8526C42.5739 18.7557 42.3387 18.828 42.2394 19.0145L41.5891 20.2357L39.3712 14.9155L45.1038 13.6357L44.4535 14.8567Z" fill="#2B3544" stroke="#2B3544"/>
<path d="M5.7898 26.9499C5.95286 27.1216 6.23592 27.1091 6.38255 26.9238L10.7825 21.3802C10.9855 21.125 10.7886 20.7525 10.4573 20.7671L8.60923 20.8482C8.6481 18.3333 10.2164 16.037 12.6059 15.0552C12.9387 14.9185 12.9175 14.4497 12.5734 14.342C7.87462 12.8753 3.07395 16.3054 3.03655 21.0928L1.16644 21.1749C0.835804 21.1894 0.672748 21.5772 0.898907 21.814L5.7898 26.9499ZM3.45032 21.8363C3.66537 21.8269 3.83158 21.6491 3.82192 21.4392C3.63652 17.4097 7.28104 14.2325 11.3369 14.8377C9.09141 16.1782 7.71624 18.6425 7.8368 21.2629C7.84646 21.4728 8.02833 21.6354 8.24337 21.6259L9.65107 21.5641L6.04789 26.1039L2.0427 21.8981L3.45032 21.8363Z" fill="#2B3544" stroke="#2B3544"/>
</svg>
