<svg width="34" height="35" viewBox="0 0 34 35" fill="none" xmlns="http://www.w3.org/2000/svg">
<g id="Group 1533210097">
<g id="Subtract">
<path fill-rule="evenodd" clip-rule="evenodd" d="M18.7993 33.9778C18.8585 33.9976 18.9178 33.9976 18.9573 33.9976C19.0268 33.9976 19.0669 33.9878 19.119 33.9751C19.141 33.9698 19.165 33.9639 19.1944 33.958C33.4271 28.6754 33.3181 20.0118 33.1799 9.03423L33.1796 9.01261C33.1796 8.45794 33.1749 7.88891 33.17 7.31024C33.165 6.71161 33.1599 6.10265 33.1599 5.48858C33.1599 5.2312 32.9426 4.99363 32.666 4.99363C24.518 4.99363 19.8055 0.748701 19.3829 0.368073C19.365 0.351918 19.3548 0.342724 19.3524 0.341112C19.1548 0.143132 18.8585 0.143132 18.661 0.341112C18.6586 0.342724 18.6484 0.351918 18.6305 0.368074C18.2079 0.748711 13.4954 4.99363 5.34734 4.99363C5.0708 4.99363 4.85351 5.2312 4.85351 5.48858C4.85351 6.69625 4.85351 7.86433 4.83376 9.01261C4.79633 11.33 4.76241 13.5448 4.86506 15.6465H5.82982C5.72475 13.5794 5.75243 11.3752 5.78191 9.03241C5.78191 8.54467 5.79151 8.05212 5.80124 7.5524C5.81125 7.03791 5.82142 6.51581 5.82142 5.98353C13.2486 5.82514 17.7524 2.4199 18.9573 1.35081C20.2018 2.4199 24.7253 5.82514 32.1525 5.98353C32.1525 6.51581 32.1575 7.03791 32.1626 7.5524C32.1674 8.05212 32.1722 8.54467 32.1722 9.03241C32.3302 20.0203 32.429 27.9592 18.9968 33.0077C16.44 32.0482 14.3728 30.9842 12.7023 29.8147H11.0755C13.0073 31.3746 15.5241 32.7668 18.7993 33.9778Z" fill="#2B3544"/>
<path d="M18.7993 33.9778L18.7472 34.1186L18.7518 34.1201L18.7993 33.9778ZM19.119 33.9751L19.0835 33.8294L19.0834 33.8294L19.119 33.9751ZM19.1944 33.958L19.2238 34.1051L19.2354 34.1028L19.2465 34.0986L19.1944 33.958ZM33.1799 9.03423L33.3299 9.03234V9.03232L33.1799 9.03423ZM33.1796 9.01261H33.0296L33.0296 9.01452L33.1796 9.01261ZM33.17 7.31024L33.32 7.30898L33.17 7.31024ZM19.3829 0.368073L19.2825 0.479523L19.2825 0.479524L19.3829 0.368073ZM19.3524 0.341112L19.2462 0.447058L19.2567 0.457576L19.269 0.465832L19.3524 0.341112ZM18.661 0.341112L18.7444 0.465831L18.7567 0.457576L18.7672 0.447057L18.661 0.341112ZM18.6305 0.368074L18.7309 0.479526L18.7309 0.479525L18.6305 0.368074ZM4.83376 9.01261L4.68378 9.01003L4.68378 9.01019L4.83376 9.01261ZM4.86506 15.6465L4.71524 15.6538L4.72221 15.7965H4.86506V15.6465ZM5.82982 15.6465V15.7965H5.98764L5.97963 15.6389L5.82982 15.6465ZM5.78191 9.03241L5.93191 9.0343V9.03241H5.78191ZM5.80124 7.5524L5.95121 7.55532L5.80124 7.5524ZM5.82142 5.98353L5.81822 5.83356L5.67142 5.83669V5.98353H5.82142ZM18.9573 1.35081L19.0551 1.23703L18.9557 1.15169L18.8578 1.2386L18.9573 1.35081ZM32.1525 5.98353H32.3025V5.83669L32.1557 5.83356L32.1525 5.98353ZM32.1626 7.5524L32.0126 7.55386V7.55386L32.1626 7.5524ZM32.1722 9.03241H32.0222L32.0222 9.03457L32.1722 9.03241ZM18.9968 33.0077L18.9441 33.1482L18.9969 33.1679L19.0496 33.1481L18.9968 33.0077ZM12.7023 29.8147L12.7883 29.6918L12.7496 29.6647H12.7023V29.8147ZM11.0755 29.8147V29.6647H10.6509L10.9812 29.9314L11.0755 29.8147ZM18.9573 33.8476C18.9166 33.8476 18.8802 33.8467 18.8468 33.8355L18.7518 34.1201C18.8369 34.1485 18.919 34.1476 18.9573 34.1476V33.8476ZM19.0834 33.8294C19.0341 33.8414 19.0082 33.8476 18.9573 33.8476V34.1476C19.0453 34.1476 19.0997 34.1342 19.1545 34.1209L19.0834 33.8294ZM19.1649 33.8109C19.1322 33.8175 19.1054 33.824 19.0835 33.8294L19.1545 34.1209C19.1765 34.1155 19.1979 34.1103 19.2238 34.1051L19.1649 33.8109ZM33.0299 9.03611C33.0991 14.5333 33.1581 19.41 31.4376 23.5745C29.7231 27.7244 26.2307 31.1864 19.1422 33.8174L19.2465 34.0986C26.3907 31.447 29.9602 27.936 31.7148 23.689C33.4634 19.4566 33.3989 14.5128 33.3299 9.03234L33.0299 9.03611ZM33.0296 9.01452L33.0299 9.03613L33.3299 9.03232L33.3296 9.0107L33.0296 9.01452ZM33.02 7.3115C33.0249 7.89029 33.0296 8.45867 33.0296 9.01261H33.3296C33.3296 8.4572 33.3249 7.88753 33.32 7.30898L33.02 7.3115ZM33.0099 5.48858C33.0099 6.10338 33.015 6.71296 33.02 7.3115L33.32 7.30898C33.315 6.71025 33.3099 6.10192 33.3099 5.48858H33.0099ZM32.666 5.14363C32.8556 5.14363 33.0099 5.30982 33.0099 5.48858H33.3099C33.3099 5.15259 33.0296 4.84363 32.666 4.84363V5.14363ZM19.2825 0.479524C19.7164 0.870331 24.4637 5.14363 32.666 5.14363V4.84363C24.5723 4.84363 19.8946 0.627071 19.4833 0.256622L19.2825 0.479524ZM19.269 0.465832C19.266 0.463771 19.2636 0.462052 19.2625 0.461206C19.2613 0.460248 19.2603 0.45949 19.2598 0.459072C19.2588 0.458268 19.2582 0.45781 19.2585 0.457982C19.2588 0.458309 19.26 0.459302 19.2623 0.461353C19.2669 0.465398 19.2734 0.471269 19.2825 0.479523L19.4833 0.256623C19.4746 0.248722 19.467 0.241918 19.4614 0.236924C19.4608 0.236404 19.4478 0.224447 19.4357 0.216391L19.269 0.465832ZM18.7672 0.447057C18.9061 0.307817 19.1073 0.307817 19.2462 0.447058L19.4586 0.235165C19.2024 -0.0215524 18.811 -0.0215528 18.5548 0.235166L18.7672 0.447057ZM18.7309 0.479525C18.74 0.47127 18.7465 0.465399 18.7511 0.461355C18.7534 0.459303 18.7546 0.45831 18.7549 0.457983C18.7551 0.45781 18.7546 0.458268 18.7536 0.459073C18.7531 0.45949 18.7521 0.460248 18.7509 0.461206C18.7497 0.462052 18.7474 0.46377 18.7444 0.465831L18.5777 0.216392C18.5656 0.224446 18.5526 0.236401 18.552 0.236923C18.5464 0.241918 18.5388 0.248722 18.5301 0.256624L18.7309 0.479525ZM5.34734 5.14363C13.5497 5.14363 18.297 0.870341 18.7309 0.479526L18.5301 0.256623C18.1188 0.627081 13.4411 4.84363 5.34734 4.84363V5.14363ZM5.00351 5.48858C5.00351 5.30982 5.1578 5.14363 5.34734 5.14363V4.84363C4.98379 4.84363 4.70351 5.15259 4.70351 5.48858H5.00351ZM4.98374 9.01519C5.00352 7.8654 5.00351 6.69601 5.00351 5.48858H4.70351C4.70351 6.69649 4.70351 7.86326 4.68378 9.01003L4.98374 9.01519ZM5.01488 15.6392C4.91251 13.5431 4.9463 11.3334 4.98374 9.01503L4.68378 9.01019C4.64637 11.3267 4.61231 13.5464 4.71524 15.6538L5.01488 15.6392ZM4.86506 15.7965H5.82982V15.4965H4.86506V15.7965ZM5.63193 9.03052C5.60246 11.3722 5.57465 13.5814 5.68001 15.6541L5.97963 15.6389C5.87484 13.5774 5.90241 11.3782 5.9319 9.0343L5.63193 9.03052ZM5.65126 7.54948C5.64154 8.04894 5.63191 8.54296 5.63191 9.03241H5.93191C5.93191 8.54638 5.94147 8.0553 5.95121 7.55532L5.65126 7.54948ZM5.67142 5.98353C5.67142 6.51412 5.66129 7.03477 5.65126 7.54948L5.95121 7.55532C5.96122 7.04105 5.97142 6.51751 5.97142 5.98353H5.67142ZM18.8578 1.2386C17.6702 2.29227 13.1992 5.67616 5.81822 5.83356L5.82462 6.13349C13.2981 5.97412 17.8345 2.54752 19.0569 1.46301L18.8578 1.2386ZM32.1557 5.83356C24.7749 5.67617 20.2837 2.29252 19.0551 1.23703L18.8596 1.46459C20.1199 2.54728 24.6756 5.97412 32.1493 6.13349L32.1557 5.83356ZM32.3125 7.55094C32.3075 7.03634 32.3025 6.51497 32.3025 5.98353H32.0025C32.0025 6.51666 32.0076 7.03948 32.0126 7.55386L32.3125 7.55094ZM32.3222 9.03241C32.3222 8.54381 32.3174 8.05053 32.3125 7.55094L32.0126 7.55386C32.0174 8.05371 32.0222 8.54552 32.0222 9.03241H32.3222ZM19.0496 33.1481C25.7924 30.6139 29.1649 27.3428 30.8197 23.3042C32.4682 19.2809 32.4011 14.5153 32.3222 9.03025L32.0222 9.03457C32.1014 14.5374 32.1627 19.2352 30.542 23.1905C28.9277 27.1304 25.6335 30.3531 18.944 32.8673L19.0496 33.1481ZM12.6163 29.9376C14.2993 31.1158 16.3783 32.1852 18.9441 33.1482L19.0495 32.8673C16.5018 31.9111 14.4463 30.8526 12.7883 29.6918L12.6163 29.9376ZM12.7023 29.6647H11.0755V29.9647H12.7023V29.6647ZM18.8513 33.8371C15.5874 32.6302 13.0859 31.2453 11.1697 29.698L10.9812 29.9314C12.9287 31.5039 15.4607 32.9033 18.7473 34.1185L18.8513 33.8371Z" fill="#2B3544"/>
</g>
<g id="Group 1533210096">
<g id="Group">
<path id="Vector" fill-rule="evenodd" clip-rule="evenodd" d="M9.48097 19.6637H3.96629C3.76204 19.6637 3.60156 19.5238 3.60156 19.3457V17.883C3.60156 16.3821 5.00212 15.1484 6.70904 15.1484C8.43056 15.1484 9.83111 16.3821 9.83111 17.883V19.3585C9.8457 19.5238 9.68522 19.6637 9.48097 19.6637ZM4.30184 19.0405H9.14542V17.883C9.14542 16.7129 8.05124 15.7589 6.73822 15.7589C5.39602 15.7589 4.33102 16.7129 4.33102 17.883V19.0405H4.30184Z" fill="#2B3544" stroke="#2B3544" stroke-width="0.299941"/>
</g>
<path id="Rectangle 22487" d="M0.898438 19.6644H12.5312V27.5339C12.5312 28.6385 11.6358 29.5339 10.5312 29.5339H2.89844C1.79387 29.5339 0.898438 28.6385 0.898438 27.5339V19.6644Z" fill="#2B3544" stroke="#2B3544"/>
<g id="Group_2">
<path id="Vector_2" fill-rule="evenodd" clip-rule="evenodd" d="M7.42333 26.9514H5.99887C5.72569 26.9514 5.51105 26.7813 5.51105 26.597V24.7402C5.06225 24.485 4.78906 24.074 4.78906 23.6346C4.78906 22.8692 5.64764 22.2455 6.70134 22.2455C7.77456 22.2455 8.63314 22.8692 8.63314 23.6346C8.63314 24.074 8.35996 24.485 7.89164 24.7402V26.597C7.89164 26.7813 7.677 26.9514 7.42333 26.9514ZM6.4867 26.2568H6.95501V24.5843C6.95501 24.4709 7.03307 24.3433 7.18917 24.2866C7.52089 24.159 7.677 23.9322 7.677 23.6629C7.677 23.266 7.24771 22.9542 6.70134 22.9542C6.17449 22.9542 5.72569 23.266 5.72569 23.6629C5.72569 23.9181 5.92082 24.159 6.21352 24.2866C6.35011 24.3433 6.46719 24.4709 6.46719 24.5843V26.2568H6.4867Z" fill="white"/>
</g>
</g>
</g>
</svg>
