<svg width="46" height="47" viewBox="0 0 46 47" fill="none" xmlns="http://www.w3.org/2000/svg">
<g id="Leadership">
<g id="Group">
<path id="Vector" d="M12.52 15.7138L12.3053 17.145C12.2337 17.5028 12.52 17.8606 12.8778 17.9322L13.2356 18.0038L11.9475 20.2222C11.6612 20.6516 12.0191 21.2956 12.52 21.2956L13.7366 21.3672L14.3806 22.3691C14.6669 22.7984 15.3825 22.7984 15.5972 22.2975L17.1 19.6497L18.6028 22.2975C18.8175 22.7269 19.5331 22.7984 19.8193 22.3691L20.4634 21.3672L21.68 21.2956C22.1093 21.2956 22.3956 20.9378 22.324 20.5084C22.3956 20.3653 21.0359 18.1469 20.9643 17.9322H21.4653C21.8231 17.8606 22.1093 17.5028 22.0378 17.145L21.8231 15.7138L22.825 14.7119C23.1112 14.4257 23.1112 13.9963 22.825 13.71L21.8231 12.7082L22.0378 11.2769C22.1093 10.9191 21.8231 10.5613 21.4653 10.4897L20.1056 10.275L19.4615 9.05849C19.2468 8.70068 18.889 8.55755 18.5312 8.77224L17.1715 9.34474L15.8834 8.70068C15.5256 8.55756 15.0962 8.70068 14.9531 8.98693L14.309 10.275L12.9494 10.4897C12.5916 10.5613 12.3053 10.9191 12.3769 11.2769L12.5916 12.7082L11.5897 13.71C11.3034 13.9963 11.3034 14.4257 11.5897 14.7119L12.52 15.7138ZM15.0247 20.6516C14.8815 20.3653 14.5953 20.0075 14.2375 20.0075H13.8081L14.5237 18.7194C14.7384 19.0772 14.9531 19.7928 15.454 19.8644L15.0247 20.6516ZM20.1771 20.0075C19.8193 20.0075 19.6047 20.3653 19.39 20.6516L18.889 19.7928C19.39 19.7928 19.6047 19.0056 19.8193 18.6478L20.535 19.9359L20.1771 20.0075ZM13.8081 13.4238C14.1659 13.066 13.8797 12.2072 13.8797 11.7779C14.3806 11.6347 15.2394 11.7063 15.454 11.2054L15.955 10.275C16.3844 10.4182 17.1 10.9907 17.5293 10.776L18.4597 10.275C18.7459 10.7044 18.9606 11.5632 19.4615 11.5632L20.535 11.7779L20.3918 12.8513C20.2487 13.3522 21.0359 13.8532 21.3221 14.211C21.0359 14.5688 20.2487 15.0697 20.3918 15.5707L20.535 16.6441C20.034 16.7872 19.1753 16.7156 18.9606 17.2166L18.4597 18.1469C18.0303 18.0038 17.3147 17.4313 16.8853 17.646L15.955 18.1469C15.6687 17.7175 15.454 16.8588 14.9531 16.8588L13.8797 16.6441L14.0228 15.5707C14.1659 15.0697 13.3787 14.5688 13.0925 14.211L13.8081 13.4238Z" fill="#2B3544"/>
<path id="Vector_2" d="M38.9271 12.1362C38.9271 11.993 38.8555 11.7784 38.7124 11.7068L31.0552 4.04965C30.9121 3.90652 30.6974 3.83496 30.5543 3.83496H7.58281C7.15344 3.83496 6.86719 4.12121 6.86719 4.55058V42.1713C6.86719 42.8139 7.25604 43.4089 7.94628 43.4089H37.951C38.5018 43.4089 38.9149 42.979 38.9149 42.3517C38.9149 42.3517 38.9271 12.2077 38.9271 12.1362ZM31.2699 6.26807L36.4939 11.4921H31.2699V6.26807ZM37.4958 42.0492H8.29843V5.2662H29.8386V11.4921C29.8386 12.6106 30.8405 12.9234 31.2699 12.9234H37.4958V42.0492Z" fill="#2B3544"/>
<path id="Vector_3" d="M10.7266 29.3826C10.7266 29.812 11.0128 30.0982 11.4422 30.0982H34.4136C34.843 30.0982 35.1293 29.812 35.1293 29.3826C35.1293 28.9532 34.843 28.667 34.4136 28.667H11.4422C11.0128 28.667 10.7266 28.9532 10.7266 29.3826Z" fill="#2B3544"/>
<path id="Vector_4" d="M28.6227 31.8857H11.4477C10.5174 31.8857 10.5174 33.317 11.4477 33.317H28.6227C29.553 33.317 29.553 31.8857 28.6227 31.8857Z" fill="#2B3544"/>
<path id="Vector_5" d="M23.7541 35.1055H11.2577C10.5808 35.1055 10.5808 36.5367 11.2577 36.5367H23.7541C24.4309 36.5367 24.4309 35.1055 23.7541 35.1055Z" fill="#2B3544"/>
</g>
</g>
</svg>
