<svg width="36" height="35" viewBox="0 0 36 35" fill="none" xmlns="http://www.w3.org/2000/svg">
<g clip-path="url(#clip0_1043_50408)">
<path d="M10.0396 22.5C9.00421 22.5 7.9921 22.7999 7.13123 23.3618C6.27036 23.9237 5.59939 24.7223 5.20317 25.6567C4.80696 26.5911 4.70329 27.6192 4.90528 28.6112C5.10727 29.6031 5.60584 30.5142 6.33795 31.2294C7.07007 31.9445 8.00283 32.4315 9.0183 32.6288C10.0338 32.8262 11.0863 32.7249 12.0429 32.3379C12.9994 31.9508 13.817 31.2954 14.3922 30.4545C14.9674 29.6136 15.2745 28.6249 15.2745 27.6136C15.2728 26.2579 14.7207 24.9582 13.7393 23.9996C12.758 23.0409 11.4274 22.5017 10.0396 22.5ZM10.0396 31.5908C9.2343 31.5908 8.4471 31.3575 7.77753 30.9205C7.10796 30.4835 6.5861 29.8623 6.27793 29.1356C5.96976 28.4088 5.88913 27.6091 6.04623 26.8376C6.20334 26.0661 6.59112 25.3575 7.16054 24.8012C7.72996 24.245 8.45544 23.8662 9.24525 23.7128C10.0351 23.5593 10.8537 23.6381 11.5977 23.9391C12.3417 24.2401 12.9776 24.7499 13.425 25.4039C13.8724 26.058 14.1112 26.8269 14.1112 27.6136C14.1101 28.6682 13.6808 29.6793 12.9175 30.4251C12.1542 31.1709 11.1192 31.5905 10.0396 31.5919V31.5908Z" fill="#2B3544"/>
<path d="M27.4862 20.2278C26.4925 20.2273 25.5086 20.4193 24.5913 20.7925L23.0016 18.6823L30.4137 9.07681C31.3236 7.87443 31.7128 6.37064 31.4972 4.89027C31.2816 3.40991 30.4785 2.07181 29.2614 1.16502C29.2457 1.15422 29.2311 1.14229 29.2143 1.13036C28.965 0.951383 28.6532 0.876241 28.3473 0.921396C28.0413 0.966552 27.7662 1.12832 27.5822 1.37126L25.7412 3.81156V2.61272C25.7412 2.16065 25.5574 1.7271 25.2301 1.40744C24.9029 1.08779 24.4591 0.908203 23.9963 0.908203H1.8934C1.43061 0.908203 0.986769 1.08779 0.659525 1.40744C0.332281 1.7271 0.148438 2.16065 0.148438 2.61272L0.148438 13.9762C0.148438 14.4282 0.332281 14.8618 0.659525 15.1814C0.986769 15.5011 1.43061 15.6807 1.8934 15.6807H12.2073L14.524 18.6806L12.9315 20.792C11.2722 20.1155 9.42114 20.0361 7.70764 20.5679C5.99413 21.0998 4.52941 22.2083 3.57421 23.6962C2.61901 25.184 2.2353 26.9548 2.4914 28.6931C2.74749 30.4314 3.62677 32.0246 4.97271 33.189C6.31865 34.3534 8.04392 35.0135 9.84141 35.0518C11.6389 35.0901 13.392 34.504 14.7886 33.398C16.1852 32.292 17.1347 30.7378 17.4681 29.012C17.8015 27.2862 17.4972 25.5009 16.6093 23.9737L17.4713 22.9601C17.5437 22.8726 17.6373 22.8041 17.7436 22.7609C17.85 22.7176 17.9657 22.701 18.0803 22.7124C18.1398 22.716 18.1985 22.7276 18.2548 22.747C18.3949 22.7917 18.5403 22.8188 18.6875 22.8277C18.9991 22.8624 19.3144 22.8127 19.599 22.684C19.6158 22.6783 19.6321 22.6715 19.6484 22.6647L20.903 23.9925C20.0896 25.406 19.7754 27.0418 20.0087 28.6472C20.2421 30.2526 21.0101 31.7383 22.1942 32.8747C23.3782 34.0112 24.9124 34.7352 26.5597 34.9349C28.2071 35.1347 29.8759 34.799 31.3085 33.9798C32.741 33.1605 33.8575 31.9033 34.4856 30.4024C35.1137 28.9014 35.2183 27.2402 34.7834 25.6753C34.3484 24.1105 33.3981 22.7291 32.0792 21.7444C30.7603 20.7598 29.1462 20.2268 27.4862 20.2278ZM24.5779 2.61442V4.88711C23.8069 4.88621 23.0677 4.58662 22.5225 4.05405C21.9773 3.52148 21.6706 2.79942 21.6696 2.04625H23.9963C24.1502 2.04625 24.2979 2.10588 24.4069 2.21206C24.516 2.31825 24.5775 2.46233 24.5779 2.61272V2.61442ZM1.31175 2.61442C1.31175 2.46374 1.37303 2.31922 1.48211 2.21267C1.59119 2.10611 1.73914 2.04625 1.8934 2.04625H4.22002C4.21909 2.79942 3.91239 3.52148 3.36718 4.05405C2.82198 4.58662 2.08278 4.88621 1.31175 4.88711V2.61442ZM1.31175 13.9779V11.7052C2.08274 11.7062 2.82184 12.0059 3.36701 12.5384C3.91219 13.0709 4.21894 13.7929 4.22002 14.546H1.8934C1.81697 14.546 1.74128 14.5313 1.67068 14.5027C1.60007 14.4741 1.53592 14.4322 1.4819 14.3794C1.42788 14.3266 1.38505 14.2639 1.35585 14.1949C1.32666 14.1259 1.31167 14.052 1.31175 13.9773V13.9779ZM1.31175 10.5688V6.02346C2.39117 6.0221 3.42599 5.60264 4.18926 4.85707C4.95253 4.11149 5.38194 3.10066 5.38333 2.04625H20.5063C20.5079 3.01904 20.874 3.95761 21.5355 4.68478C22.197 5.41196 23.1081 5.87744 24.0969 5.99334L17.644 14.5455H5.38333C5.38209 13.491 4.95275 12.48 4.18946 11.7343C3.42618 10.9886 2.39127 10.5691 1.31175 10.5677V10.5688ZM13.6643 15.6824H16.7872L15.2441 17.7278L13.6643 15.6824ZM10.0366 33.865C8.77112 33.865 7.53409 33.4985 6.48191 32.8117C5.42973 32.125 4.60966 31.1489 4.1254 30.0069C3.64113 28.8648 3.51443 27.6082 3.7613 26.3958C4.00818 25.1835 4.61755 24.0699 5.51235 23.1958C6.40716 22.3217 7.5472 21.7265 8.78833 21.4853C10.0295 21.2442 11.3159 21.3679 12.485 21.841C13.6542 22.314 14.6534 23.1151 15.3565 24.1429C16.0595 25.1707 16.4348 26.379 16.4348 27.6151C16.4328 29.2721 15.758 30.8607 14.5586 32.0323C13.3591 33.204 11.7329 33.8631 10.0366 33.865ZM19.1685 21.63C19.0755 21.673 18.9755 21.7001 18.8731 21.7101C18.844 21.705 18.8147 21.7016 18.7852 21.6999C18.7293 21.6982 18.6739 21.6888 18.6206 21.6721C18.4672 21.621 18.3073 21.5906 18.1454 21.5817C17.8489 21.5609 17.5515 21.6098 17.2783 21.7242C17.0051 21.8387 16.7639 22.0154 16.5749 22.2397L15.9305 22.9976C15.3827 22.3343 14.7224 21.7677 13.9784 21.3226L28.525 2.04852L28.5337 2.05477C29.5153 2.77632 30.1656 3.84719 30.3433 5.03456C30.5209 6.22194 30.2116 7.42981 29.4824 8.39558L19.439 21.4113C19.3742 21.4961 19.2917 21.5666 19.197 21.6181L19.1685 21.63ZM20.5122 21.9084L22.2705 19.6306L23.5455 21.3232C22.7899 21.7748 22.1206 22.3516 21.5679 23.0277L20.5122 21.9084ZM27.4862 33.865C26.2207 33.865 24.9837 33.4985 23.9315 32.8117C22.8794 32.125 22.0593 31.1489 21.575 30.0069C21.0908 28.8648 20.9641 27.6082 21.2109 26.3958C21.4578 25.1835 22.0672 24.0699 22.962 23.1958C23.8568 22.3217 24.9968 21.7265 26.238 21.4853C27.4791 21.2442 28.7656 21.3679 29.9347 21.841C31.1038 22.314 32.1031 23.1151 32.8061 24.1429C33.5091 25.1707 33.8844 26.379 33.8844 27.6151C33.8824 29.2721 33.2076 30.8607 32.0082 32.0323C30.8087 33.204 29.1825 33.8631 27.4862 33.865Z" fill="#2B3544"/>
<path d="M27.4849 22.5C26.4495 22.5 25.4374 22.7999 24.5765 23.3618C23.7157 23.9237 23.0447 24.7223 22.6485 25.6567C22.2523 26.5911 22.1486 27.6192 22.3506 28.6112C22.5526 29.6031 23.0512 30.5142 23.7833 31.2294C24.5154 31.9445 25.4481 32.4315 26.4636 32.6288C27.4791 32.8262 28.5316 32.7249 29.4882 32.3379C30.4447 31.9508 31.2623 31.2954 31.8375 30.4545C32.4128 29.6136 32.7198 28.6249 32.7198 27.6136C32.7181 26.2579 32.166 24.9582 31.1846 23.9996C30.2033 23.0409 28.8727 22.5017 27.4849 22.5ZM27.4849 31.5908C26.6796 31.5908 25.8924 31.3575 25.2228 30.9205C24.5533 30.4835 24.0314 29.8623 23.7232 29.1356C23.4151 28.4088 23.3344 27.6091 23.4915 26.8376C23.6486 26.0661 24.0364 25.3575 24.6058 24.8012C25.1753 24.245 25.9008 23.8662 26.6906 23.7128C27.4804 23.5593 28.299 23.6381 29.043 23.9391C29.787 24.2401 30.4229 24.7499 30.8703 25.4039C31.3177 26.058 31.5565 26.8269 31.5565 27.6136C31.5554 28.6682 31.1261 29.6793 30.3628 30.4251C29.5995 31.1709 28.5645 31.5905 27.4849 31.5919V31.5908Z" fill="#2B3544"/>
<path d="M12.9423 3.74902C12.022 3.74902 11.1223 4.01561 10.3571 4.51506C9.59188 5.01451 8.99546 5.7244 8.64327 6.55496C8.29108 7.38552 8.19893 8.29944 8.37848 9.18116C8.55802 10.0629 9.0012 10.8728 9.65196 11.5085C10.3027 12.1442 11.1319 12.5771 12.0345 12.7524C12.9371 12.9278 13.8727 12.8378 14.723 12.4938C15.5733 12.1498 16.3 11.5672 16.8113 10.8197C17.3226 10.0722 17.5955 9.19339 17.5955 8.2944C17.594 7.08935 17.1032 5.93409 16.2309 5.08199C15.3586 4.2299 14.1759 3.75053 12.9423 3.74902ZM12.9423 11.7034C12.2521 11.7034 11.5773 11.5035 11.0034 11.1289C10.4295 10.7543 9.98217 10.2219 9.71803 9.59898C9.45388 8.97606 9.38477 8.29062 9.51943 7.62933C9.65409 6.96804 9.98647 6.36061 10.4745 5.88385C10.9626 5.40709 11.5845 5.08241 12.2614 4.95087C12.9384 4.81933 13.6401 4.88684 14.2778 5.14487C14.9155 5.40289 15.4606 5.83983 15.8441 6.40044C16.2275 6.96106 16.4322 7.62016 16.4322 8.2944C16.4315 9.19835 16.0635 10.0651 15.4092 10.7043C14.7549 11.3436 13.8677 11.7025 12.9423 11.7034Z" fill="#2B3544"/>
</g>
<defs>
<clipPath id="clip0_1043_50408">
<rect width="34.8993" height="34.0903" fill="white" transform="translate(0.148438 0.880859)"/>
</clipPath>
</defs>
</svg>
