<svg width="55" height="53" viewBox="0 0 55 53" fill="none" xmlns="http://www.w3.org/2000/svg">
<g id="Frame">
<g id="Layer 2">
<path id="Vector" d="M10.219 15.5828C9.77155 15.5832 9.34251 15.755 9.02609 16.0605C8.70966 16.366 8.5317 16.7802 8.53125 17.2123V19.6565C8.53556 19.8699 8.62637 20.073 8.78417 20.2224C8.94197 20.3718 9.15416 20.4555 9.37517 20.4555C9.59618 20.4555 9.80837 20.3718 9.96616 20.2224C10.1239 20.073 10.2147 19.8698 10.219 19.6565V17.2123H12.7507C12.9745 17.2123 13.1892 17.1264 13.3475 16.9736C13.5057 16.8208 13.5946 16.6136 13.5946 16.3975C13.5946 16.1814 13.5057 15.9742 13.3475 15.8214C13.1892 15.6686 12.9745 15.5828 12.7507 15.5828H10.219Z" fill="#2B3544"/>
<path id="Vector_2" d="M16.125 24.545C16.125 29.4868 19.5323 33.5073 23.7201 33.5073C33.7922 33.0285 33.7884 16.0593 23.72 15.5828C19.5323 15.5828 16.125 19.6032 16.125 24.545ZM29.6273 24.545C29.6273 28.5881 26.9774 31.8778 23.7201 31.8778C15.9037 31.541 15.9066 17.5471 23.7202 17.2123C26.9774 17.2123 29.6273 20.5019 29.6273 24.545Z" fill="#2B3544"/>
<path id="Vector_3" d="M1.78125 37.1741C1.7822 37.9301 2.09369 38.6549 2.6474 39.1895C3.20111 39.7241 3.95182 40.0248 4.73489 40.0257H12.33C12.753 40.0257 13.1711 39.9376 13.5556 39.7675C13.9402 39.5974 14.2823 39.3492 14.5586 39.0399C14.8349 38.7306 15.0388 38.3675 15.1566 37.9752C15.2743 37.5829 15.3031 37.1707 15.2409 36.7667H30.7436C30.9646 36.7625 31.175 36.6749 31.3298 36.5225C31.4845 36.3702 31.5712 36.1653 31.5712 35.9519C31.5712 35.7386 31.4845 35.5337 31.3298 35.3814C31.175 35.229 30.9645 35.1414 30.7436 35.1372H14.3905C14.6691 34.8705 14.8902 34.5532 15.041 34.2036C15.1919 33.854 15.2696 33.4791 15.2696 33.1003C15.2696 32.7216 15.1919 32.3466 15.041 31.997C14.8902 31.6474 14.6691 31.3301 14.3905 31.0635C14.8035 30.6652 15.0856 30.1582 15.2015 29.6059C15.3173 29.0535 15.2617 28.4805 15.0417 27.9585C14.8217 27.4365 14.447 26.9889 13.9646 26.6716C13.4822 26.3543 12.9135 26.1816 12.3299 26.175L6.84463 26.1749V13.9537H40.6005V22.1338C40.6005 22.3499 40.6894 22.5571 40.8477 22.7099C41.0059 22.8627 41.2206 22.9485 41.4444 22.9485C41.6682 22.9485 41.8828 22.8627 42.0411 22.7099C42.1994 22.5571 42.2883 22.3499 42.2883 22.1338V13.9537C42.2878 13.5217 42.1099 13.1074 41.7934 12.8019C41.477 12.4964 41.048 12.3246 40.6005 12.3242H10.2202V10.6947H43.9761V22.3618C43.9795 22.5757 44.0699 22.7797 44.2278 22.9298C44.3857 23.0799 44.5984 23.164 44.82 23.164C45.0416 23.164 45.2543 23.0798 45.4121 22.9297C45.57 22.7796 45.6604 22.5756 45.6639 22.3617V10.6947C45.6634 10.2626 45.4855 9.84843 45.169 9.54293C44.8526 9.23743 44.4236 9.06562 43.9761 9.06519H10.2202C9.77272 9.06562 9.34368 9.23743 9.02726 9.54293C8.71083 9.84843 8.53287 10.2626 8.53242 10.6947V12.3242H6.84463C6.39714 12.3246 5.9681 12.4964 5.65167 12.8019C5.33525 13.1074 5.15728 13.5217 5.15684 13.9537V26.1749C4.54025 26.0992 3.91457 26.2115 3.36739 26.4961C2.8202 26.7808 2.37891 27.2235 2.10529 27.7623C1.83166 28.3011 1.73942 28.909 1.84145 29.501C1.94349 30.0929 2.23471 30.6392 2.67434 31.0635C2.39579 31.3301 2.17469 31.6474 2.02381 31.997C1.87292 32.3466 1.79524 32.7216 1.79524 33.1003C1.79524 33.4791 1.87292 33.854 2.02381 34.2036C2.17469 34.5532 2.39579 34.8705 2.67434 35.1372C2.39192 35.4018 2.16736 35.7184 2.01396 36.0682C1.86055 36.4181 1.78142 36.7942 1.78125 37.1741ZM3.46904 29.0266C3.46941 28.7026 3.60289 28.3919 3.8402 28.1628C4.07752 27.9337 4.39928 27.8048 4.73489 27.8044H12.33C12.6657 27.8044 12.9877 27.9332 13.225 28.1624C13.4624 28.3916 13.5958 28.7024 13.5958 29.0266C13.5958 29.3507 13.4624 29.6616 13.225 29.8908C12.9877 30.1199 12.6657 30.2487 12.33 30.2487H4.73489C4.39928 30.2483 4.07752 30.1195 3.8402 29.8904C3.60289 29.6612 3.46941 29.3506 3.46904 29.0266ZM3.46904 33.1003C3.46941 32.7763 3.60289 32.4657 3.8402 32.2365C4.07752 32.0074 4.39928 31.8786 4.73489 31.8782H12.33C12.6657 31.8782 12.9877 32.007 13.225 32.2362C13.4624 32.4653 13.5958 32.7762 13.5958 33.1003C13.5958 33.4245 13.4624 33.7353 13.225 33.9645C12.9877 34.1937 12.6657 34.3225 12.33 34.3225H4.73489C4.39928 34.3221 4.07752 34.1932 3.8402 33.9641C3.60289 33.735 3.46941 33.4243 3.46904 33.1003ZM12.33 35.952C12.6625 35.9567 12.9797 36.0875 13.2132 36.3162C13.4466 36.5449 13.5774 36.853 13.5774 37.1741C13.5774 37.4952 13.4465 37.8034 13.2131 38.032C12.9797 38.2607 12.6624 38.3915 12.3299 38.3962H4.73489C4.40237 38.3915 4.08511 38.2607 3.85169 38.032C3.61827 37.8033 3.48742 37.4951 3.48743 37.1741C3.48743 36.853 3.6183 36.5448 3.85173 36.3161C4.08517 36.0875 4.40243 35.9566 4.73495 35.952H12.33Z" fill="#2B3544"/>
<path id="Vector_4" d="M42.283 23.7312C39.5982 23.7342 37.0242 24.7652 35.1257 26.5981C33.2272 28.431 32.1593 30.9161 32.1562 33.5082C32.7127 46.4787 51.8554 46.475 52.4098 33.5081C52.4067 30.916 51.3388 28.431 49.4403 26.5981C47.5418 24.7652 44.9678 23.7342 42.283 23.7312ZM42.283 41.6557C40.0456 41.6533 37.9006 40.7941 36.3185 39.2667C34.7364 37.7393 33.8465 35.6683 33.844 33.5082C34.3074 22.6994 50.2603 22.7025 50.722 33.5083C50.7195 35.6684 49.8295 37.7393 48.2475 39.2667C46.6654 40.7942 44.5204 41.6533 42.283 41.6557Z" fill="#2B3544"/>
<path id="Vector_5" d="M46.2582 29.673C46.1799 29.5974 46.0868 29.5373 45.9845 29.4964C45.8821 29.4554 45.7723 29.4343 45.6615 29.4343C45.5507 29.4343 45.441 29.4554 45.3386 29.4964C45.2362 29.5373 45.1432 29.5974 45.0649 29.673L42.286 32.356L39.507 29.673C39.3484 29.5218 39.1343 29.4373 38.9115 29.438C38.6886 29.4387 38.4751 29.5245 38.3175 29.6766C38.1599 29.8288 38.071 30.0349 38.0703 30.2501C38.0696 30.4653 38.1571 30.672 38.3138 30.8251L41.0927 33.5081L38.3137 36.191C38.1571 36.3441 38.0696 36.5508 38.0703 36.766C38.071 36.9812 38.1599 37.1874 38.3175 37.3395C38.4751 37.4916 38.6886 37.5774 38.9115 37.5781C39.1343 37.5788 39.3484 37.4943 39.507 37.3431L42.286 34.6602L45.0649 37.3431C45.2235 37.4943 45.4376 37.5788 45.6605 37.5781C45.8833 37.5774 46.0969 37.4917 46.2545 37.3395C46.4121 37.1873 46.5009 36.9812 46.5016 36.766C46.5023 36.5508 46.4148 36.3441 46.2582 36.191L43.4793 33.5081L46.2582 30.8251C46.3366 30.7494 46.3988 30.6596 46.4412 30.5608C46.4836 30.462 46.5054 30.356 46.5054 30.249C46.5054 30.1421 46.4836 30.0361 46.4412 29.9373C46.3987 29.8385 46.3366 29.7487 46.2582 29.673Z" fill="#2B3544"/>
</g>
<path id="&#226;&#130;&#172;" d="M24.6914 27.6032C24.9035 27.6032 25.1076 27.5898 25.3036 27.563C25.4997 27.5323 25.6878 27.4863 25.8678 27.425L26.0599 28.6667C25.8238 28.7204 25.5777 28.7625 25.3216 28.7932C25.0655 28.8238 24.8075 28.8392 24.5474 28.8392C24.0472 28.8392 23.589 28.7721 23.1729 28.638C22.7567 28.5038 22.3946 28.3007 22.0865 28.0286C21.7824 27.7565 21.5463 27.4173 21.3782 27.0111C21.2102 26.6049 21.1261 26.1335 21.1261 25.5969V23.6309C21.1261 23.0714 21.2102 22.5808 21.3782 22.1593C21.5463 21.7377 21.7864 21.3851 22.0985 21.1015C22.4146 20.8179 22.7867 20.6052 23.2149 20.4634C23.647 20.3216 24.1232 20.2507 24.6434 20.2507C24.8835 20.2507 25.1196 20.268 25.3516 20.3025C25.5877 20.3331 25.8238 20.3753 26.0599 20.4289L25.8678 21.6764C25.6998 21.6227 25.5157 21.5787 25.3156 21.5442C25.1156 21.5097 24.9155 21.4924 24.7154 21.4924C24.4153 21.4924 24.1452 21.5346 23.9051 21.6189C23.665 21.6994 23.461 21.8259 23.2929 21.9983C23.1248 22.1669 22.9968 22.3854 22.9088 22.6537C22.8247 22.9219 22.7827 23.2438 22.7827 23.6194V25.5969C22.7827 25.9649 22.8267 26.2772 22.9148 26.534C23.0068 26.7869 23.1368 26.9939 23.3049 27.1548C23.473 27.3119 23.675 27.4269 23.9111 27.4997C24.1472 27.5687 24.4073 27.6032 24.6914 27.6032ZM24.8535 23.3377V24.154H20.0938V23.3377H24.8535ZM24.8535 24.8956V25.7177H20.0938V24.8956H24.8535Z" fill="#2B3544"/>
</g>
</svg>
