<svg width="50" height="49" viewBox="0 0 50 49" fill="none" xmlns="http://www.w3.org/2000/svg">
<g clip-path="url(#clip0_1043_50451)">
<path d="M29.8984 5.64258H31.327V7.03798H29.8984V5.64258Z" fill="#2B3544"/>
<path d="M27.0469 4.24609H28.4754V5.64159H27.0469V4.24609Z" fill="#2B3544"/>
<path d="M43.3787 30.8963C44.5753 28.1938 45.1825 25.3203 45.1825 22.3378C45.1825 16.5605 42.8792 11.129 38.6972 7.04394C34.5152 2.95885 28.9549 0.708984 23.0405 0.708984C16.4725 0.708984 10.2837 3.53301 6.06091 8.45693L7.15601 9.35306C7.82285 8.57545 8.54329 7.85523 9.30784 7.19288C9.74182 8.06222 10.6249 8.63155 11.6925 8.63155H23.7829C24.4588 8.63155 25.0088 9.16868 25.0088 9.82899C25.0088 10.4893 24.4589 11.0264 23.7829 11.0264H20.7433C19.2797 11.0264 18.0889 12.1896 18.0889 13.6194C18.0889 15.0491 19.2797 16.2122 20.7433 16.2122C21.4193 16.2122 21.9692 16.7494 21.9692 17.4097C21.9692 18.07 21.4193 18.6071 20.7433 18.6071H18.8355C17.3718 18.6071 16.1811 19.7702 16.1811 21.2V27.9194C16.1811 29.2763 15.051 30.3803 13.6618 30.3803C12.2727 30.3803 11.1425 29.2763 11.1425 27.9194V24.2645C11.1425 22.8347 9.95181 21.6716 8.48815 21.6716H6.7865C5.32284 21.6716 4.13203 22.8347 4.13203 24.2645V26.128C4.13203 26.4167 4.13127 27.1264 2.95388 27.2907C2.54114 25.6873 2.32696 24.026 2.32696 22.3378C2.32696 18.0337 3.69319 13.9237 6.27795 10.4516L5.12257 9.63094C2.35914 13.343 0.898438 17.7369 0.898438 22.3378C0.898438 27.8636 3.03121 33.1232 6.90393 37.1472C10.6054 40.9934 15.5531 43.3622 20.8977 43.8637V46.2458C20.8977 47.3999 21.8589 48.3389 23.0405 48.3389H42.5159V46.9435H23.0405C22.6467 46.9435 22.3262 46.6305 22.3262 46.2458V43.9192H48.23V46.2458C48.23 46.6305 47.9096 46.9435 47.5157 46.9435H43.9445V48.3389H47.5157C48.6972 48.3389 49.6585 47.3999 49.6585 46.2458V30.8963H43.3787ZM48.23 39.733H22.3262V32.2917H48.23V39.733ZM41.8121 30.8963H32.3446V30.6983C32.3446 29.2686 31.1539 28.1055 29.6902 28.1055H27.8887C26.4995 28.1055 25.3693 27.0015 25.3693 25.6446C25.3693 24.2876 26.4995 23.1837 27.8887 23.1837H32.8274C34.2911 23.1837 35.4818 22.0206 35.4818 20.5908V18.7272C35.4818 18.0669 36.0317 17.5298 36.7077 17.5298C37.3836 17.5298 37.9335 18.0669 37.9335 18.7272C37.9335 20.157 39.1242 21.3202 40.5879 21.3202H43.7283C43.7453 21.6579 43.754 21.9972 43.754 22.3378C43.754 25.3326 43.0998 28.2093 41.8121 30.8963ZM7.94475 36.1916C5.83987 34.0043 4.28574 31.4265 3.35187 28.6368C4.75125 28.3696 5.56055 27.474 5.56055 26.1282V24.2647C5.56055 23.6044 6.11043 23.0672 6.7865 23.0672H8.48825C9.16422 23.0672 9.71411 23.6044 9.71411 24.2647V27.9196C9.71411 30.0459 11.4851 31.7759 13.6619 31.7759C15.8387 31.7759 17.6097 30.0459 17.6097 27.9196V21.2001C17.6097 20.5398 18.1596 20.0026 18.8356 20.0026H20.7434C22.2071 20.0026 23.3978 18.8395 23.3978 17.4098C23.3978 15.98 22.2071 14.8169 20.7434 14.8169C20.0674 14.8169 19.5176 14.2798 19.5176 13.6195C19.5176 12.9591 20.0674 12.4219 20.7434 12.4219H23.783C25.2467 12.4219 26.4374 11.2588 26.4374 9.82908C26.4374 8.39935 25.2467 7.23623 23.783 7.23623H11.6925C11.076 7.23623 10.6049 6.83566 10.4802 6.24828C14.0561 3.58017 18.4491 2.10439 23.0405 2.10439C28.5733 2.10439 33.7749 4.20904 37.6872 8.03059C41.011 11.2775 43.0652 15.4336 43.6082 19.9247H40.588C39.912 19.9247 39.3621 19.3875 39.3621 18.7271C39.3621 17.2974 38.1714 16.1343 36.7078 16.1343C35.2441 16.1343 34.0534 17.2974 34.0534 18.7271V20.5907C34.0534 21.251 33.5035 21.7882 32.8275 21.7882H27.8888C25.712 21.7882 23.9409 23.5182 23.9409 25.6445C23.9409 27.7709 25.7119 29.5008 27.8888 29.5008H29.6903C30.3663 29.5008 30.9162 30.0379 30.9162 30.6982V30.8962H20.8977V42.4612C15.9513 41.9648 11.3759 39.7568 7.94475 36.1916ZM22.3262 42.5238V41.1284H48.23V42.5238H22.3262Z" fill="#2B3544"/>
<path d="M43.2287 37.8738H44.6572C45.8387 37.8738 46.8 36.9348 46.8 35.7807C46.8 34.6265 45.8387 33.6875 44.6572 33.6875H43.2287C42.0472 33.6875 41.0859 34.6265 41.0859 35.7806C41.0859 36.9348 42.0472 37.8738 43.2287 37.8738ZM43.2287 35.0829H44.6572C45.0511 35.0829 45.3715 35.3959 45.3715 35.7807C45.3715 36.1655 45.0511 36.4784 44.6572 36.4784H43.2287C42.8348 36.4784 42.5145 36.1654 42.5145 35.7806C42.5145 35.3959 42.8348 35.0829 43.2287 35.0829Z" fill="#2B3544"/>
<path d="M28.0391 36.4785H29.4676V37.8739H28.0391V36.4785Z" fill="#2B3544"/>
<path d="M23.7578 36.4785H26.6148V37.8739H23.7578V36.4785Z" fill="#2B3544"/>
<path d="M23.7578 33.6875H29.4719V35.0829H23.7578V33.6875Z" fill="#2B3544"/>
<path d="M30.8984 36.4785H33.7555V37.8739H30.8984V36.4785Z" fill="#2B3544"/>
<path d="M35.1797 36.4785H36.6082V37.8739H35.1797V36.4785Z" fill="#2B3544"/>
</g>
<defs>
<clipPath id="clip0_1043_50451">
<rect width="48.7601" height="47.6299" fill="white" transform="translate(0.898438 0.708984)"/>
</clipPath>
</defs>
</svg>
