<svg width="55" height="53" viewBox="0 0 55 53" fill="none" xmlns="http://www.w3.org/2000/svg">
<path d="M10.4378 16.3438C9.9903 16.3442 9.56126 16.516 9.24484 16.8215C8.92841 17.127 8.75045 17.5412 8.75 17.9733V20.4175C8.75431 20.6308 8.84512 20.834 9.00292 20.9834C9.16072 21.1328 9.37291 21.2165 9.59392 21.2165C9.81493 21.2165 10.0271 21.1328 10.1849 20.9834C10.3427 20.834 10.4335 20.6308 10.4378 20.4175V17.9733H12.9695C13.1933 17.9733 13.4079 17.8874 13.5662 17.7346C13.7245 17.5818 13.8134 17.3746 13.8134 17.1585C13.8134 16.9424 13.7245 16.7352 13.5662 16.5824C13.4079 16.4296 13.1933 16.3438 12.9695 16.3438H10.4378Z" fill="#2B3544"/>
<path d="M16.3438 25.306C16.3438 30.2478 19.7511 34.2683 23.9388 34.2683C34.011 33.7894 34.0071 16.8203 23.9388 16.3438C19.7511 16.3438 16.3438 20.3642 16.3438 25.306ZM29.8461 25.306C29.8461 29.3491 27.1961 32.6388 23.9388 32.6388C16.1225 32.3019 16.1254 18.3081 23.9389 17.9733C27.1961 17.9733 29.8461 21.2629 29.8461 25.306Z" fill="#2B3544"/>
<path d="M2 37.9351C2.00095 38.6911 2.31244 39.4159 2.86615 39.9505C3.41986 40.485 4.17057 40.7858 4.95364 40.7867H12.5487C12.9717 40.7867 13.3898 40.6986 13.7744 40.5285C14.159 40.3584 14.5011 40.1102 14.7774 39.8009C15.0536 39.4916 15.2576 39.1284 15.3753 38.7362C15.4931 38.3439 15.5219 37.9317 15.4597 37.5277H30.9624C31.1833 37.5235 31.3938 37.4359 31.5485 37.2835C31.7033 37.1312 31.79 36.9263 31.79 36.7129C31.7899 36.4995 31.7033 36.2947 31.5485 36.1423C31.3938 35.99 31.1833 35.9023 30.9623 35.8982H14.6093C14.8878 35.6315 15.1089 35.3142 15.2598 34.9646C15.4107 34.615 15.4884 34.24 15.4884 33.8613C15.4884 33.4826 15.4107 33.1076 15.2598 32.758C15.1089 32.4084 14.8878 32.0911 14.6093 31.8244C15.0223 31.4262 15.3044 30.9192 15.4202 30.3669C15.5361 29.8145 15.4805 29.2415 15.2605 28.7195C15.0404 28.1975 14.6657 27.7499 14.1833 27.4326C13.7009 27.1153 13.1323 26.9426 12.5486 26.936L7.06338 26.9359V14.7147H40.8192V22.8948C40.8192 23.1109 40.9081 23.3181 41.0664 23.4709C41.2247 23.6237 41.4393 23.7095 41.6631 23.7095C41.8869 23.7095 42.1016 23.6237 42.2599 23.4709C42.4181 23.3181 42.507 23.1109 42.507 22.8948V14.7147C42.5066 14.2826 42.3286 13.8684 42.0122 13.5629C41.6958 13.2574 41.2667 13.0856 40.8192 13.0852H10.439V11.4557H44.1948V23.1228C44.1983 23.3367 44.2887 23.5407 44.4466 23.6908C44.6045 23.8408 44.8172 23.925 45.0387 23.925C45.2603 23.925 45.473 23.8408 45.6309 23.6907C45.7888 23.5406 45.8792 23.3366 45.8826 23.1227V11.4557C45.8822 11.0236 45.7042 10.6094 45.3878 10.3039C45.0714 9.99842 44.6423 9.8266 44.1948 9.82617H10.439C9.99147 9.8266 9.56243 9.99842 9.24601 10.3039C8.92958 10.6094 8.75162 11.0236 8.75117 11.4557V13.0852H7.06338C6.61589 13.0856 6.18685 13.2574 5.87042 13.5629C5.554 13.8684 5.37603 14.2826 5.37559 14.7147V26.9359C4.759 26.8602 4.13332 26.9725 3.58614 27.2571C3.03895 27.5418 2.59766 27.9845 2.32404 28.5233C2.05041 29.0621 1.95817 29.67 2.0602 30.262C2.16224 30.8539 2.45346 31.4002 2.89309 31.8244C2.61454 32.0911 2.39344 32.4084 2.24256 32.758C2.09167 33.1076 2.01399 33.4826 2.01399 33.8613C2.01399 34.24 2.09167 34.615 2.24256 34.9646C2.39344 35.3142 2.61454 35.6315 2.89309 35.8982C2.61067 36.1628 2.38611 36.4794 2.23271 36.8292C2.0793 37.1791 2.00017 37.5551 2 37.9351ZM3.68779 29.7876C3.68816 29.4635 3.82164 29.1529 4.05895 28.9238C4.29627 28.6947 4.61803 28.5658 4.95364 28.5654H12.5487C12.8844 28.5654 13.2064 28.6942 13.4438 28.9234C13.6812 29.1526 13.8145 29.4634 13.8145 29.7876C13.8145 30.1117 13.6812 30.4225 13.4438 30.6517C13.2064 30.8809 12.8844 31.0097 12.5487 31.0097H4.95364C4.61803 31.0093 4.29627 30.8805 4.05895 30.6513C3.82164 30.4222 3.68816 30.1116 3.68779 29.7876ZM3.68779 33.8613C3.68816 33.5373 3.82164 33.2267 4.05895 32.9975C4.29627 32.7684 4.61803 32.6395 4.95364 32.6392H12.5487C12.8844 32.6392 13.2064 32.7679 13.4438 32.9971C13.6812 33.2263 13.8145 33.5372 13.8145 33.8613C13.8145 34.1854 13.6812 34.4963 13.4438 34.7255C13.2064 34.9547 12.8844 35.0834 12.5487 35.0834H4.95364C4.61803 35.0831 4.29627 34.9542 4.05895 34.7251C3.82164 34.496 3.68816 34.1853 3.68779 33.8613ZM12.5487 36.7129C12.8812 36.7176 13.1985 36.8485 13.4319 37.0772C13.6653 37.3058 13.7962 37.614 13.7962 37.9351C13.7962 38.2562 13.6653 38.5643 13.4319 38.793C13.1984 39.0217 12.8812 39.1525 12.5486 39.1572H4.95364C4.62112 39.1525 4.30386 39.0217 4.07044 38.793C3.83702 38.5643 3.70617 38.2561 3.70618 37.935C3.70618 37.614 3.83705 37.3058 4.07048 37.0771C4.30392 36.8484 4.62118 36.7176 4.9537 36.7129H12.5487Z" fill="#2B3544"/>
<path d="M42.5018 24.4922C39.8169 24.4952 37.2429 25.5262 35.3445 27.3591C33.446 29.192 32.3781 31.6771 32.375 34.2692C32.9314 47.2397 52.0742 47.236 52.6285 34.2691C52.6254 31.677 51.5575 29.1919 49.659 27.3591C47.7606 25.5262 45.1866 24.4952 42.5018 24.4922ZM42.5018 42.4167C40.2644 42.4143 38.1193 41.5551 36.5373 40.0277C34.9552 38.5003 34.0653 36.4293 34.0628 34.2692C34.5262 23.4604 50.479 23.4635 50.9407 34.2693C50.9382 36.4294 50.0483 38.5003 48.4662 40.0277C46.8842 41.5551 44.7391 42.4143 42.5018 42.4167Z" fill="#2B3544"/>
<path d="M46.4769 30.434C46.3986 30.3583 46.3056 30.2983 46.2032 30.2573C46.1008 30.2164 45.9911 30.1953 45.8803 30.1953C45.7695 30.1953 45.6597 30.2164 45.5574 30.2573C45.455 30.2983 45.362 30.3583 45.2836 30.434L42.5047 33.1169L39.7258 30.434C39.5672 30.2828 39.3531 30.1983 39.1302 30.199C38.9073 30.1997 38.6938 30.2854 38.5362 30.4376C38.3786 30.5898 38.2898 30.7959 38.2891 31.0111C38.2884 31.2263 38.3759 31.433 38.5325 31.5861L41.3114 34.269L38.5324 36.952C38.3759 37.1051 38.2884 37.3118 38.2891 37.527C38.2898 37.7422 38.3786 37.9483 38.5362 38.1005C38.6938 38.2526 38.9074 38.3384 39.1302 38.3391C39.3531 38.3398 39.5672 38.2553 39.7258 38.1041L42.5047 35.4211L45.2837 38.1041C45.4423 38.2553 45.6564 38.3398 45.8792 38.3391C46.1021 38.3384 46.3156 38.2526 46.4732 38.1005C46.6308 37.9483 46.7197 37.7422 46.7204 37.527C46.721 37.3118 46.6335 37.1051 46.4769 36.952L43.698 34.269L46.477 31.5861C46.5554 31.5104 46.6175 31.4206 46.6599 31.3218C46.7024 31.223 46.7242 31.117 46.7242 31.01C46.7242 30.903 46.7023 30.7971 46.6599 30.6983C46.6175 30.5994 46.5553 30.5096 46.4769 30.434Z" fill="#2B3544"/>
<path d="M24.9102 28.3642C25.1222 28.3642 25.3263 28.3508 25.5224 28.324C25.7185 28.2933 25.9065 28.2473 26.0866 28.186L26.2787 29.4277C26.0426 29.4813 25.7965 29.5235 25.5404 29.5542C25.2843 29.5848 25.0262 29.6001 24.7661 29.6001C24.2659 29.6001 23.8078 29.5331 23.3916 29.3989C22.9755 29.2648 22.6133 29.0617 22.3052 28.7896C22.0011 28.5175 21.765 28.1783 21.597 27.7721C21.4289 27.3659 21.3449 26.8945 21.3449 26.3579V24.3919C21.3449 23.8324 21.4289 23.3418 21.597 22.9203C21.765 22.4987 22.0051 22.1461 22.3172 21.8625C22.6333 21.5789 23.0055 21.3662 23.4336 21.2244C23.8658 21.0826 24.342 21.0117 24.8621 21.0117C25.1022 21.0117 25.3383 21.029 25.5704 21.0635C25.8065 21.0941 26.0426 21.1363 26.2787 21.1899L26.0866 22.4374C25.9185 22.3837 25.7345 22.3396 25.5344 22.3052C25.3343 22.2707 25.1342 22.2534 24.9342 22.2534C24.6341 22.2534 24.364 22.2956 24.1239 22.3799C23.8838 22.4604 23.6797 22.5868 23.5117 22.7593C23.3436 22.9279 23.2155 23.1464 23.1275 23.4146C23.0435 23.6829 23.0015 24.0048 23.0015 24.3804V26.3579C23.0015 26.7258 23.0455 27.0382 23.1335 27.295C23.2256 27.5479 23.3556 27.7548 23.5237 27.9158C23.6917 28.0729 23.8938 28.1879 24.1299 28.2607C24.366 28.3297 24.6261 28.3642 24.9102 28.3642ZM25.0722 24.0987V24.915H20.3125V24.0987H25.0722ZM25.0722 25.6566V26.4787H20.3125V25.6566H25.0722Z" fill="#2B3544"/>
</svg>
