<svg width="34" height="35" viewBox="0 0 34 35" fill="none" xmlns="http://www.w3.org/2000/svg">
<path fill-rule="evenodd" clip-rule="evenodd" d="M19.018 34.0448C19.0773 34.0646 19.1366 34.0646 19.1761 34.0646C19.2455 34.0646 19.2857 34.0548 19.3377 34.0421C19.3597 34.0368 19.3838 34.0309 19.4131 34.0251C33.6458 28.7544 33.5368 20.1104 33.3987 9.15756L33.3984 9.136C33.3984 8.58258 33.3936 8.01484 33.3888 7.43747C33.3837 6.84019 33.3786 6.23261 33.3786 5.61992C33.3786 5.36313 33.1613 5.12609 32.8848 5.12609C24.7368 5.12609 20.0242 0.890756 19.6017 0.510987C19.5837 0.494868 19.5735 0.485695 19.5711 0.484087C19.3736 0.286554 19.0773 0.286554 18.8798 0.484087C18.8774 0.485695 18.8671 0.494869 18.8492 0.510989C18.4266 0.890766 13.7141 5.12609 5.56609 5.12609C5.28955 5.12609 5.07226 5.36313 5.07226 5.61992C5.07226 6.82487 5.07226 7.99031 5.05251 9.136C5.01508 11.4482 4.98116 13.6579 5.08381 15.7549H6.04857C5.9435 13.6924 5.97118 11.4932 6.00066 9.15575C6.00066 8.66911 6.01026 8.17768 6.01999 7.67909C6.03 7.16576 6.04017 6.64484 6.04017 6.11375C13.4674 5.95573 17.9711 2.55817 19.1761 1.4915C20.4205 2.55817 24.944 5.95573 32.3712 6.11375C32.3712 6.64484 32.3763 7.16576 32.3813 7.67909C32.3862 8.17768 32.391 8.66911 32.391 9.15575C32.549 20.1188 32.6478 28.0398 19.2156 33.0769C16.6588 32.1195 14.5915 31.058 12.9211 29.8911H11.2942C13.226 31.4474 15.7428 32.8365 19.018 34.0448Z" fill="#2B3544"/>
<path d="M19.018 34.0448L18.9661 34.1856L18.9706 34.1871L19.018 34.0448ZM19.3377 34.0421L19.3023 33.8964L19.3023 33.8964L19.3377 34.0421ZM19.4131 34.0251L19.4425 34.1721L19.4541 34.1698L19.4652 34.1657L19.4131 34.0251ZM33.3987 9.15756L33.5486 9.15567V9.15565L33.3987 9.15756ZM33.3984 9.136H33.2484L33.2484 9.13791L33.3984 9.136ZM33.3888 7.43747L33.5388 7.43621L33.3888 7.43747ZM19.6017 0.510987L19.5014 0.62255L19.5014 0.622551L19.6017 0.510987ZM19.5711 0.484087L19.4651 0.590153L19.4756 0.600655L19.4879 0.608894L19.5711 0.484087ZM18.8798 0.484087L18.963 0.608893L18.9753 0.600654L18.9858 0.590153L18.8798 0.484087ZM18.8492 0.510989L18.9495 0.622553L18.9495 0.622552L18.8492 0.510989ZM5.05251 9.136L4.90253 9.13341L4.90253 9.13357L5.05251 9.136ZM5.08381 15.7549L4.93399 15.7622L4.94097 15.9049H5.08381V15.7549ZM6.04857 15.7549V15.9049H6.20641L6.19838 15.7473L6.04857 15.7549ZM6.00066 9.15575L6.15066 9.15764V9.15575H6.00066ZM6.01999 7.67909L6.16996 7.68202L6.01999 7.67909ZM6.04017 6.11375L6.03698 5.96379L5.89017 5.96691V6.11375H6.04017ZM19.1761 1.4915L19.2737 1.37761L19.1745 1.29258L19.0766 1.37919L19.1761 1.4915ZM32.3712 6.11375H32.5212V5.96691L32.3744 5.96379L32.3712 6.11375ZM32.3813 7.67909L32.2313 7.68055V7.68055L32.3813 7.67909ZM32.391 9.15575H32.241L32.241 9.15791L32.391 9.15575ZM19.2156 33.0769L19.163 33.2174L19.2156 33.2371L19.2682 33.2174L19.2156 33.0769ZM12.9211 29.8911L13.0069 29.7681L12.9683 29.7411H12.9211V29.8911ZM11.2942 29.8911V29.7411H10.8689L11.2001 30.0079L11.2942 29.8911ZM19.1761 33.9146C19.1354 33.9146 19.0989 33.9136 19.0655 33.9025L18.9706 34.1871C19.0557 34.2155 19.1377 34.2146 19.1761 34.2146V33.9146ZM19.3023 33.8964C19.253 33.9084 19.227 33.9146 19.1761 33.9146V34.2146C19.264 34.2146 19.3184 34.2012 19.3732 34.1879L19.3023 33.8964ZM19.3837 33.878C19.351 33.8845 19.3243 33.891 19.3023 33.8964L19.3732 34.1879C19.3952 34.1825 19.4166 34.1773 19.4425 34.1721L19.3837 33.878ZM33.2487 9.15946C33.3178 14.6442 33.3769 19.5098 31.6564 23.6647C29.9419 27.8051 26.4496 31.2593 19.361 33.8844L19.4652 34.1657C26.6093 31.5201 30.1789 28.017 31.9335 23.7795C33.6822 19.5565 33.6176 14.6237 33.5486 9.15567L33.2487 9.15946ZM33.2484 9.13791L33.2487 9.15947L33.5486 9.15565L33.5484 9.13409L33.2484 9.13791ZM33.2388 7.43873C33.2436 8.01622 33.2484 8.58332 33.2484 9.136H33.5484C33.5484 8.58184 33.5436 8.01346 33.5388 7.43621L33.2388 7.43873ZM33.2286 5.61992C33.2286 6.23335 33.2337 6.84155 33.2388 7.43873L33.5388 7.43621C33.5337 6.83883 33.5286 6.23188 33.5286 5.61992H33.2286ZM32.8848 5.27609C33.0747 5.27609 33.2286 5.44207 33.2286 5.61992H33.5286C33.5286 5.28419 33.248 4.97609 32.8848 4.97609V5.27609ZM19.5014 0.622551C19.9353 1.01251 24.6826 5.27609 32.8848 5.27609V4.97609C24.7909 4.97609 20.1132 0.769005 19.7019 0.399423L19.5014 0.622551ZM19.4879 0.608894C19.4848 0.606838 19.4825 0.605123 19.4814 0.604278C19.4801 0.603322 19.4792 0.602566 19.4787 0.602148C19.4777 0.601345 19.4771 0.600888 19.4773 0.601059C19.4777 0.601385 19.4789 0.602375 19.4812 0.604422C19.4857 0.608457 19.4922 0.614314 19.5014 0.62255L19.7019 0.399424C19.6932 0.391541 19.6856 0.384752 19.68 0.379769C19.6794 0.379251 19.6664 0.367317 19.6543 0.35928L19.4879 0.608894ZM18.9858 0.590153C19.1248 0.451199 19.3261 0.451199 19.4651 0.590153L19.6772 0.378021C19.4211 0.12191 19.0298 0.12191 18.7737 0.378021L18.9858 0.590153ZM18.9495 0.622552C18.9586 0.614316 18.9652 0.608458 18.9697 0.604423C18.972 0.602377 18.9732 0.601386 18.9736 0.60106C18.9738 0.600889 18.9732 0.601346 18.9722 0.602149C18.9717 0.602566 18.9708 0.603322 18.9695 0.604278C18.9684 0.605123 18.9661 0.606837 18.963 0.608893L18.7966 0.359281C18.7845 0.367317 18.7715 0.379248 18.7709 0.379769C18.7653 0.384753 18.7577 0.391542 18.7489 0.399426L18.9495 0.622552ZM5.56609 5.27609C13.7683 5.27609 18.5156 1.01252 18.9495 0.622553L18.7489 0.399425C18.3377 0.769015 13.66 4.97609 5.56609 4.97609V5.27609ZM5.22226 5.61992C5.22226 5.44207 5.37624 5.27609 5.56609 5.27609V4.97609C5.20286 4.97609 4.92226 5.28419 4.92226 5.61992H5.22226ZM5.20249 9.13858C5.22227 7.99138 5.22226 6.82463 5.22226 5.61992H4.92226C4.92226 6.82511 4.92226 7.98924 4.90253 9.13341L5.20249 9.13858ZM5.23363 15.7475C5.13126 13.6563 5.16505 11.4515 5.20249 9.13843L4.90253 9.13357C4.86512 11.4448 4.83106 13.6595 4.93399 15.7622L5.23363 15.7475ZM5.08381 15.9049H6.04857V15.6049H5.08381V15.9049ZM5.85068 9.15386C5.82121 11.4903 5.7934 13.6944 5.89876 15.7625L6.19838 15.7473C6.09359 13.6905 6.12116 11.4962 6.15065 9.15764L5.85068 9.15386ZM5.87001 7.67616C5.86029 8.17449 5.85066 8.6674 5.85066 9.15575H6.15066C6.15066 8.67083 6.16022 8.18087 6.16996 7.68202L5.87001 7.67616ZM5.89017 6.11375C5.89017 6.64314 5.88004 7.16261 5.87001 7.67616L6.16996 7.68202C6.17997 7.1689 6.19017 6.64654 6.19017 6.11375H5.89017ZM19.0766 1.37919C17.8891 2.43045 13.4181 5.80674 6.03698 5.96379L6.04336 6.26372C13.5167 6.10471 18.0531 2.6859 19.2755 1.60382L19.0766 1.37919ZM32.3744 5.96379C24.9936 5.80675 20.5023 2.4307 19.2737 1.37761L19.0784 1.60539C20.3388 2.68565 24.8944 6.10471 32.368 6.26372L32.3744 5.96379ZM32.5313 7.67763C32.5263 7.16419 32.5212 6.64399 32.5212 6.11375H32.2212C32.2212 6.64569 32.2263 7.16733 32.2313 7.68055L32.5313 7.67763ZM32.541 9.15575C32.541 8.66826 32.5362 8.17609 32.5313 7.67763L32.2313 7.68055C32.2362 8.17927 32.241 8.66997 32.241 9.15575H32.541ZM19.2682 33.2174C26.0109 30.6888 29.3835 27.4252 31.0384 23.3955C32.6869 19.3812 32.6198 14.6262 32.541 9.15359L32.241 9.15791C32.3201 14.6483 32.3814 19.3354 30.7608 23.2816C29.1465 27.2125 25.8524 30.4279 19.1629 32.9365L19.2682 33.2174ZM12.8352 30.0141C14.5182 31.1897 16.5972 32.2566 19.163 33.2174L19.2682 32.9364C16.7204 31.9824 14.6649 30.9262 13.0069 29.7681L12.8352 30.0141ZM12.9211 29.7411H11.2942V30.0411H12.9211V29.7411ZM19.07 33.9041C15.8061 32.6999 13.3046 31.3181 11.3883 29.7743L11.2001 30.0079C13.1475 31.5768 15.6796 32.973 18.9661 34.1855L19.07 33.9041Z" fill="#2B3544"/>
<path fill-rule="evenodd" clip-rule="evenodd" d="M9.69972 19.763H4.18504C3.98079 19.763 3.82031 19.6234 3.82031 19.4457V17.9863C3.82031 16.4888 5.22087 15.2578 6.92779 15.2578C8.64931 15.2578 10.0499 16.4888 10.0499 17.9863V19.4584C10.0644 19.6234 9.90397 19.763 9.69972 19.763ZM4.52059 19.1411H9.36417V17.9863C9.36417 16.8188 8.26999 15.867 6.95697 15.867C5.61477 15.867 4.54977 16.8188 4.54977 17.9863V19.1411H4.52059Z" fill="#2B3544" stroke="#2B3544" stroke-width="0.299941"/>
<path d="M1.11719 19.7637H12.75V27.6108C12.75 28.7154 11.8546 29.6108 10.75 29.6108H3.11719C2.01262 29.6108 1.11719 28.7154 1.11719 27.6108V19.7637Z" fill="#2B3544" stroke="#2B3544"/>
<path fill-rule="evenodd" clip-rule="evenodd" d="M7.64208 27.0341H6.21762C5.94444 27.0341 5.7298 26.8644 5.7298 26.6806V24.8279C5.281 24.5734 5.00781 24.1632 5.00781 23.7248C5.00781 22.9611 5.86639 22.3389 6.92009 22.3389C7.99331 22.3389 8.85189 22.9611 8.85189 23.7248C8.85189 24.1632 8.57871 24.5734 8.11039 24.8279V26.6806C8.11039 26.8644 7.89575 27.0341 7.64208 27.0341ZM6.70545 26.3412H7.17376V24.6724C7.17376 24.5592 7.25182 24.4319 7.40792 24.3754C7.73964 24.2481 7.89575 24.0218 7.89575 23.7531C7.89575 23.3571 7.46646 23.046 6.92009 23.046C6.39324 23.046 5.94444 23.3571 5.94444 23.7531C5.94444 24.0077 6.13957 24.2481 6.43227 24.3754C6.56886 24.4319 6.68594 24.5592 6.68594 24.6724V26.3412H6.70545Z" fill="white"/>
</svg>
