<svg width="36" height="35" viewBox="0 0 36 35" fill="none" xmlns="http://www.w3.org/2000/svg">
<g id="Icons" clip-path="url(#clip0_12361_58994)">
<path id="Vector" d="M10.8208 21.739C9.78546 21.739 8.77335 22.0389 7.91248 22.6008C7.05161 23.1627 6.38064 23.9613 5.98442 24.8957C5.58821 25.8301 5.48454 26.8582 5.68653 27.8502C5.88852 28.8421 6.38709 29.7532 7.1192 30.4684C7.85132 31.1835 8.78408 31.6706 9.79955 31.8679C10.815 32.0652 11.8676 31.9639 12.8241 31.5769C13.7807 31.1898 14.5983 30.5344 15.1735 29.6935C15.7487 28.8526 16.0557 27.8639 16.0557 26.8526C16.054 25.4969 15.5019 24.1972 14.5206 23.2386C13.5392 22.2799 12.2087 21.7407 10.8208 21.739ZM10.8208 30.8298C10.0155 30.8298 9.22835 30.5965 8.55878 30.1595C7.88921 29.7225 7.36735 29.1013 7.05918 28.3746C6.75101 27.6478 6.67038 26.8482 6.82748 26.0767C6.98459 25.3051 7.37237 24.5965 7.94179 24.0403C8.51121 23.484 9.23669 23.1052 10.0265 22.9518C10.8163 22.7983 11.635 22.8771 12.379 23.1781C13.1229 23.4791 13.7588 23.9889 14.2062 24.6429C14.6536 25.297 14.8924 26.0659 14.8924 26.8526C14.8913 27.9072 14.4621 28.9183 13.6987 29.6641C12.9354 30.4099 11.9005 30.8296 10.8208 30.8309V30.8298Z" fill="#2B3544"/>
<path id="Vector_2" d="M28.2674 19.4667C27.2738 19.4663 26.2898 19.6582 25.3725 20.0315L23.7829 17.9213L31.1949 8.31577C32.1049 7.11338 32.4941 5.60959 32.2785 4.12923C32.0629 2.64887 31.2598 1.31076 30.0426 0.40397C30.0269 0.393174 30.0124 0.381243 29.9955 0.369311C29.7462 0.190335 29.4344 0.115193 29.1285 0.160349C28.8226 0.205504 28.5475 0.367275 28.3634 0.610216L26.5225 3.05052V1.85167C26.5225 1.39961 26.3386 0.966056 26.0114 0.646397C25.6841 0.326738 25.2403 0.147156 24.7775 0.147156H2.67465C2.21186 0.147156 1.76802 0.326738 1.44078 0.646397C1.11353 0.966056 0.929688 1.39961 0.929688 1.85167L0.929688 13.2151C0.929688 13.6672 1.11353 14.1007 1.44078 14.4204C1.76802 14.7401 2.21186 14.9196 2.67465 14.9196H12.9885L15.3053 17.9196L13.7127 20.0309C12.0535 19.3545 10.2024 19.2751 8.48889 19.8069C6.77538 20.3387 5.31066 21.4472 4.35546 22.9351C3.40026 24.423 3.01655 26.1937 3.27265 27.932C3.52874 29.6704 4.40802 31.2636 5.75396 32.428C7.0999 33.5924 8.82517 34.2525 10.6227 34.2907C12.4202 34.329 14.1732 33.743 15.5698 32.637C16.9665 31.531 17.916 29.9767 18.2494 28.251C18.5828 26.5252 18.2784 24.7398 17.3905 23.2127L18.2525 22.1991C18.3249 22.1116 18.4186 22.0431 18.5249 21.9998C18.6312 21.9566 18.7469 21.9399 18.8615 21.9513C18.921 21.9549 18.9798 21.9666 19.036 21.986C19.1762 22.0306 19.3216 22.0577 19.4688 22.0667C19.7803 22.1013 20.0956 22.0516 20.3802 21.9229C20.3971 21.9172 20.4134 21.9104 20.4296 21.9036L21.6843 23.2314C20.8709 24.6449 20.5566 26.2807 20.79 27.8861C21.0233 29.4915 21.7914 30.9772 22.9754 32.1137C24.1594 33.2501 25.6936 33.9742 27.341 34.1739C28.9883 34.3736 30.6572 34.0379 32.0897 33.2187C33.5222 32.3995 34.6388 31.1423 35.2668 29.6413C35.8949 28.1404 35.9996 26.4792 35.5646 24.9143C35.1297 23.3494 34.1794 21.968 32.8604 20.9834C31.5415 19.9988 29.9274 19.4658 28.2674 19.4667ZM25.3592 1.85338V4.12607C24.5881 4.12516 23.8489 3.82557 23.3037 3.293C22.7585 2.76043 22.4518 2.03837 22.4509 1.2852H24.7775C24.9315 1.2852 25.0792 1.34483 25.1882 1.45102C25.2972 1.5572 25.3587 1.70128 25.3592 1.85167V1.85338ZM2.093 1.85338C2.093 1.70269 2.15428 1.55817 2.26336 1.45162C2.37244 1.34507 2.52039 1.2852 2.67465 1.2852H5.00127C5.00034 2.03837 4.69364 2.76043 4.14843 3.293C3.60323 3.82557 2.86403 4.12516 2.093 4.12607V1.85338ZM2.093 13.2168V10.9441C2.86399 10.9452 3.60309 11.2448 4.14826 11.7774C4.69344 12.3099 5.00019 13.0319 5.00127 13.785H2.67465C2.59822 13.785 2.52253 13.7703 2.45193 13.7417C2.38132 13.7131 2.31717 13.6712 2.26315 13.6184C2.20913 13.5656 2.1663 13.5029 2.1371 13.4339C2.10791 13.3649 2.09292 13.2909 2.093 13.2163V13.2168ZM2.093 9.80779V5.26241C3.17242 5.26106 4.20724 4.8416 4.97051 4.09602C5.73378 3.35044 6.16319 2.33961 6.16458 1.2852H21.2876C21.2892 2.25799 21.6552 3.19656 22.3167 3.92374C22.9782 4.65092 23.8894 5.11639 24.8781 5.2323L18.4253 13.7844H6.16458C6.16334 12.7299 5.734 11.7189 4.97071 10.9732C4.20743 10.2275 3.17252 9.808 2.093 9.80665V9.80779ZM14.4456 14.9213H17.5685L16.0254 16.9668L14.4456 14.9213ZM10.8178 33.104C9.55237 33.104 8.31534 32.7374 7.26316 32.0507C6.21098 31.3639 5.39091 30.3878 4.90665 29.2458C4.42238 28.1038 4.29568 26.8472 4.54255 25.6348C4.78943 24.4224 5.3988 23.3088 6.2936 22.4347C7.18841 21.5607 8.32845 20.9654 9.56958 20.7243C10.8107 20.4831 12.0972 20.6069 13.2663 21.0799C14.4354 21.553 15.4347 22.354 16.1377 23.3818C16.8408 24.4096 17.216 25.618 17.216 26.8541C17.214 28.5111 16.5393 30.0996 15.3398 31.2713C14.1403 32.4429 12.5141 33.102 10.8178 33.104ZM19.9498 20.869C19.8567 20.912 19.7568 20.9391 19.6543 20.9491C19.6253 20.9439 19.5959 20.9405 19.5665 20.9388C19.5105 20.9371 19.4551 20.9278 19.4019 20.911C19.2484 20.8599 19.0885 20.8295 18.9267 20.8207C18.6301 20.7998 18.3328 20.8487 18.0596 20.9632C17.7863 21.0777 17.5451 21.2544 17.3562 21.4786L16.7117 22.2366C16.1639 21.5732 15.5037 21.0067 14.7597 20.5616L29.3063 1.28748L29.315 1.29373C30.2966 2.01527 30.9469 3.08614 31.1245 4.27352C31.3022 5.46089 30.9928 6.66877 30.2637 7.63453L20.2203 20.6502C20.1554 20.7351 20.073 20.8055 19.9783 20.857L19.9498 20.869ZM21.2934 21.1474L23.0517 18.8696L24.3267 20.5622C23.5711 21.0137 22.9019 21.5905 22.3491 22.2667L21.2934 21.1474ZM28.2674 33.104C27.002 33.104 25.765 32.7374 24.7128 32.0507C23.6606 31.3639 22.8405 30.3878 22.3563 29.2458C21.872 28.1038 21.7453 26.8472 21.9922 25.6348C22.2391 24.4224 22.8484 23.3088 23.7432 22.4347C24.638 21.5607 25.7781 20.9654 27.0192 20.7243C28.2603 20.4831 29.5468 20.6069 30.7159 21.0799C31.885 21.553 32.8843 22.354 33.5873 23.3818C34.2904 24.4096 34.6656 25.618 34.6656 26.8541C34.6636 28.5111 33.9889 30.0996 32.7894 31.2713C31.59 32.4429 29.9637 33.102 28.2674 33.104Z" fill="#2B3544"/>
<path id="Vector_3" d="M28.2661 21.739C27.2308 21.739 26.2187 22.0389 25.3578 22.6008C24.4969 23.1627 23.826 23.9613 23.4297 24.8957C23.0335 25.8301 22.9298 26.8582 23.1318 27.8502C23.3338 28.8421 23.8324 29.7532 24.5645 30.4684C25.2966 31.1835 26.2294 31.6706 27.2449 31.8679C28.2603 32.0652 29.3129 31.9639 30.2694 31.5769C31.226 31.1898 32.0436 30.5344 32.6188 29.6935C33.194 28.8526 33.501 27.8639 33.501 26.8526C33.4993 25.4969 32.9473 24.1972 31.9659 23.2386C30.9845 22.2799 29.654 21.7407 28.2661 21.739ZM28.2661 30.8298C27.4609 30.8298 26.6737 30.5965 26.0041 30.1595C25.3345 29.7225 24.8127 29.1013 24.5045 28.3746C24.1963 27.6478 24.1157 26.8482 24.2728 26.0767C24.4299 25.3051 24.8177 24.5965 25.3871 24.0403C25.9565 23.484 26.682 23.1052 27.4718 22.9518C28.2616 22.7983 29.0803 22.8771 29.8243 23.1781C30.5683 23.4791 31.2041 23.9889 31.6515 24.6429C32.0989 25.297 32.3377 26.0659 32.3377 26.8526C32.3366 27.9072 31.9074 28.9183 31.1441 29.6641C30.3808 30.4099 29.3458 30.8296 28.2661 30.8309V30.8298Z" fill="#2B3544"/>
<path id="Vector_4" d="M13.7235 2.98804C12.8032 2.98804 11.9036 3.25462 11.1384 3.75407C10.3731 4.25352 9.77671 4.96341 9.42452 5.79397C9.07233 6.62453 8.98018 7.53846 9.15973 8.42017C9.33927 9.30189 9.78245 10.1118 10.4332 10.7475C11.084 11.3832 11.9131 11.8161 12.8157 11.9915C13.7184 12.1668 14.654 12.0768 15.5043 11.7328C16.3545 11.3888 17.0813 10.8062 17.5926 10.0587C18.1039 9.31121 18.3768 8.43241 18.3768 7.53341C18.3752 6.32837 17.8845 5.17311 17.0122 4.32101C16.1399 3.46891 14.9572 2.98954 13.7235 2.98804ZM13.7235 10.9424C13.0333 10.9424 12.3586 10.7425 11.7846 10.3679C11.2107 9.99333 10.7634 9.46091 10.4993 8.838C10.2351 8.21508 10.166 7.52963 10.3007 6.86835C10.4353 6.20706 10.7677 5.59963 11.2558 5.12286C11.7439 4.6461 12.3657 4.32142 13.0427 4.18989C13.7197 4.05835 14.4214 4.12586 15.0591 4.38388C15.6968 4.6419 16.2418 5.07884 16.6253 5.63946C17.0088 6.20007 17.2135 6.85917 17.2135 7.53341C17.2127 8.43737 16.8448 9.30409 16.1905 9.94334C15.5362 10.5826 14.649 10.9415 13.7235 10.9424Z" fill="#2B3544"/>
</g>
<defs>
<clipPath id="clip0_12361_58994">
<rect width="34.8993" height="34.0903" fill="white" transform="translate(0.929688 0.119873)"/>
</clipPath>
</defs>
</svg>
