<svg width="53" height="53" viewBox="0 0 53 53" fill="none" xmlns="http://www.w3.org/2000/svg">
<g id="Group 1533210062">
<path id="Vector" d="M10.467 34.6896C10.0283 34.69 9.60776 34.8588 9.29757 35.159C8.98739 35.4591 8.81294 35.8661 8.8125 36.2906V38.692C8.81673 38.9016 8.90575 39.1013 9.06043 39.248C9.21511 39.3948 9.42312 39.477 9.63977 39.477C9.85642 39.477 10.0644 39.3948 10.2191 39.248C10.3738 39.1012 10.4628 38.9016 10.467 38.692V36.2906H12.9487C13.1681 36.2906 13.3786 36.2062 13.5337 36.0561C13.6888 35.906 13.776 35.7024 13.776 35.4901C13.776 35.2778 13.6888 35.0742 13.5337 34.9241C13.3786 34.7739 13.1681 34.6896 12.9487 34.6896H10.467Z" fill="#2B3544"/>
<path id="Vector_2" d="M14.6953 43.4949C14.6953 48.3502 18.0354 52.3003 22.1405 52.3003C32.014 51.8298 32.0102 35.1578 22.1405 34.6896C18.0354 34.6896 14.6953 38.6397 14.6953 43.4949ZM27.9313 43.4949C27.9313 47.4673 25.3336 50.6993 22.1405 50.6993C14.4784 50.3684 14.4812 36.6196 22.1406 36.2906C25.3336 36.2906 27.9313 39.5226 27.9313 43.4949Z" fill="#2B3544"/>
<g id="Group 1533210033">
<path id="Vector_3" d="M26.8042 18.8705C31.1377 18.8705 34.663 15.4191 34.663 11.1765C34.663 6.93381 31.1377 3.48238 26.8042 3.48238C22.4707 3.48238 18.9453 6.93381 18.9453 11.1765C18.9453 15.4191 22.4707 18.8705 26.8042 18.8705ZM26.8042 4.82437C30.3816 4.82437 33.2923 7.674 33.2923 11.1765C33.2923 14.6789 30.3816 17.5285 26.8042 17.5285C23.2267 17.5285 20.316 14.6789 20.316 11.1765C20.316 7.674 23.2267 4.82437 26.8042 4.82437Z" fill="#2B3544"/>
<path id="Vector_4" d="M17.5739 11.1766C17.5739 6.19415 21.7142 2.14057 26.8034 2.14057C31.8926 2.14057 36.033 6.19415 36.033 11.1766C36.033 16.1591 31.8926 20.2127 26.8034 20.2127C24.7873 20.2127 22.8722 19.5878 21.2652 18.4059C20.9625 18.1833 20.5331 18.2431 20.3057 18.5394C20.0783 18.8354 20.139 19.2562 20.4417 19.4788C22.2882 20.8369 24.4878 21.5547 26.8034 21.5547C32.6483 21.5547 37.4038 16.8993 37.4038 11.1766C37.4038 5.45396 32.6483 0.798584 26.8034 0.798584C20.9586 0.798584 16.2031 5.45396 16.2031 11.1766C16.2031 13.4011 16.9117 15.522 18.2521 17.3107C18.4759 17.6095 18.905 17.6738 19.2098 17.4546C19.515 17.2355 19.581 16.8154 19.3572 16.5166C18.1903 14.9601 17.5739 13.1134 17.5739 11.1766Z" fill="#2B3544"/>
<path id="Vector_5" d="M24.721 14.2208H24.4276C24.0492 14.2208 23.7422 14.5214 23.7422 14.8918C23.7422 15.2626 24.0492 15.5628 24.4276 15.5628H24.721V15.8284C24.721 16.1992 25.028 16.4994 25.4063 16.4994C25.7847 16.4994 26.0917 16.1992 26.0917 15.8284V15.5628H26.9716V15.8284C26.9716 16.1992 27.2786 16.4994 27.657 16.4994C28.0357 16.4994 28.3423 16.1992 28.3423 15.8284V15.3409C29.239 14.9453 29.8648 14.0629 29.8648 13.0396V13.0284C29.8648 12.297 29.5449 11.6375 29.0352 11.1762C29.5449 10.7149 29.8648 10.0554 29.8648 9.32397V9.31279C29.8648 8.28952 29.239 7.40709 28.3423 7.01148V6.52396C28.3423 6.15317 28.0357 5.85297 27.657 5.85297C27.2786 5.85297 26.9716 6.15317 26.9716 6.52396V6.78956H26.0917V6.52396C26.0917 6.15317 25.7847 5.85297 25.4063 5.85297C25.028 5.85297 24.721 6.15317 24.721 6.52396V6.78956H24.4276C24.0492 6.78956 23.7422 7.08976 23.7422 7.46056C23.7422 7.831 24.0492 8.13155 24.4276 8.13155H24.721V14.2208ZM28.4941 13.0284V13.0396C28.4941 13.691 27.9525 14.2208 27.2872 14.2208H26.0917V11.8472H27.2872C27.9525 11.8472 28.4941 12.3773 28.4941 13.0284ZM28.4941 9.32397C28.4941 9.97504 27.9525 10.5052 27.2872 10.5052H26.0917V8.13155H27.2872C27.9525 8.13155 28.4941 8.66136 28.4941 9.31279V9.32397Z" fill="#2B3544"/>
</g>
<rect id="Rectangle 22432" x="6.19531" y="27.2899" width="33.7223" height="22.1482" rx="2" stroke="#2B3544" stroke-width="2"/>
<path id="Vector 1544" d="M9.75781 26.7818V25.9852C9.75781 24.3283 11.101 22.9852 12.7578 22.9852H40.601C42.2579 22.9852 43.601 24.3283 43.601 25.9852V45.4358C43.601 47.0927 42.2579 48.4358 40.601 48.4358H39.8307" stroke="#2B3544" stroke-width="2"/>
<path id="Vector_6" d="M38.5321 14.578C38.2982 14.6299 38.1675 14.876 38.2583 15.0933L40.9667 21.6046C41.0911 21.9047 41.5198 21.9248 41.6728 21.6368L42.5265 20.03C44.7355 21.3254 45.9847 23.8071 45.6579 26.3247C45.6123 26.6753 46.0384 26.8927 46.3061 26.6552C49.959 23.4098 49.3242 17.6199 45.1009 15.185L45.9648 13.5591C46.1175 13.2716 45.8556 12.9388 45.5324 13.0116L38.5321 14.578ZM44.2348 15.1624C44.1354 15.3494 44.2097 15.5795 44.4006 15.6766C48.0638 17.5423 49.0538 22.2255 46.4861 25.3585C46.423 22.7828 44.9282 20.3806 42.5459 19.1673C42.3551 19.0701 42.12 19.1426 42.0207 19.3296L41.3704 20.5535L39.1524 15.2213L44.885 13.9386L44.2348 15.1624Z" fill="#2B3544" stroke="#2B3544"/>
<path id="Vector_7" d="M5.57105 27.2829C5.73411 27.455 6.01717 27.4425 6.1638 27.2568L10.5637 21.7006C10.7668 21.4448 10.5698 21.0715 10.2386 21.0861L8.39048 21.1674C8.42935 18.6468 9.99768 16.3453 12.3871 15.3613C12.7199 15.2243 12.6987 14.7544 12.3547 14.6465C7.65587 13.1765 2.8552 16.6143 2.8178 21.4125L0.947686 21.4948C0.617054 21.5094 0.453998 21.898 0.680157 22.1354L5.57105 27.2829ZM3.23157 22.1578C3.44662 22.1483 3.61283 21.9701 3.60317 21.7597C3.41777 17.7212 7.06229 14.5367 11.1181 15.1434C8.87266 16.4869 7.49749 18.9567 7.61805 21.5831C7.62771 21.7934 7.80958 21.9564 8.02462 21.9469L9.43232 21.885L5.82914 26.435L1.82395 22.2197L3.23157 22.1578Z" fill="#2B3544" stroke="#2B3544"/>
</g>
</svg>
