<svg width="49" height="49" viewBox="0 0 49 49" fill="none" xmlns="http://www.w3.org/2000/svg">
<g clip-path="url(#clip0_12361_59041)">
<path d="M29 5.88159H30.4285V7.277H29V5.88159Z" fill="#2B3544"/>
<path d="M26.1484 4.48511H27.577V5.88061H26.1484V4.48511Z" fill="#2B3544"/>
<path d="M42.4802 31.1353C43.6768 28.4329 44.2841 25.5593 44.2841 22.5768C44.2841 16.7995 41.9808 11.3681 37.7988 7.28296C33.6167 3.19786 28.0565 0.947998 22.142 0.947998C15.5741 0.947998 9.38527 3.77202 5.16247 8.69595L6.25758 9.59208C6.92441 8.81446 7.64486 8.09425 8.4094 7.43189C8.84338 8.30123 9.72649 8.87056 10.7941 8.87056H22.8845C23.5604 8.87056 24.1103 9.4077 24.1103 10.068C24.1103 10.7283 23.5605 11.2654 22.8845 11.2654H19.8449C18.3812 11.2654 17.1905 12.4287 17.1905 13.8584C17.1905 15.2881 18.3812 16.4512 19.8449 16.4512C20.5209 16.4512 21.0707 16.9884 21.0707 17.6487C21.0707 18.309 20.5209 18.8461 19.8449 18.8461H17.937C16.4734 18.8461 15.2827 20.0093 15.2827 21.439V28.1584C15.2827 29.5153 14.1525 30.6193 12.7633 30.6193C11.3742 30.6193 10.2441 29.5153 10.2441 28.1584V24.5035C10.2441 23.0738 9.05338 21.9106 7.58972 21.9106H5.88807C4.42441 21.9106 3.23359 23.0738 3.23359 24.5035V26.367C3.23359 26.6557 3.23283 27.3654 2.05545 27.5298C1.6427 25.9263 1.42852 24.2651 1.42852 22.5768C1.42852 18.2727 2.79475 14.1627 5.37951 10.6906L4.22413 9.86995C1.46071 13.582 0 17.976 0 22.5768C0 28.1026 2.13278 33.3622 6.00549 37.3863C9.70697 41.2325 14.6547 43.6012 19.9993 44.1027V46.4848C19.9993 47.6389 20.9605 48.5779 22.142 48.5779H41.6175V47.1825H22.142C21.7482 47.1825 21.4278 46.8695 21.4278 46.4848V44.1583H47.3316V46.4848C47.3316 46.8695 47.0112 47.1825 46.6173 47.1825H43.0461V48.5779H46.6173C47.7988 48.5779 48.7601 47.6389 48.7601 46.4848V31.1353H42.4802ZM47.3316 39.972H21.4278V32.5307H47.3316V39.972ZM40.9136 31.1353H31.4462V30.9373C31.4462 29.5076 30.2554 28.3445 28.7918 28.3445H26.9902C25.601 28.3445 24.4709 27.2405 24.4709 25.8836C24.4709 24.5266 25.601 23.4227 26.9902 23.4227H31.929C33.3927 23.4227 34.5834 22.2596 34.5834 20.8298V18.9662C34.5834 18.3059 35.1333 17.7688 35.8092 17.7688C36.4852 17.7688 37.0351 18.3059 37.0351 18.9662C37.0351 20.396 38.2258 21.5592 39.6895 21.5592H42.8298C42.8469 21.897 42.8555 22.2362 42.8555 22.5768C42.8555 25.5716 42.2014 28.4483 40.9136 31.1353ZM7.04631 36.4306C4.94143 34.2433 3.3873 31.6656 2.45343 28.8759C3.85281 28.6086 4.66211 27.713 4.66211 26.3672V24.5037C4.66211 23.8434 5.212 23.3062 5.88807 23.3062H7.58981C8.26579 23.3062 8.81567 23.8434 8.81567 24.5037V28.1586C8.81567 30.2849 10.5867 32.0149 12.7634 32.0149C14.9403 32.0149 16.7113 30.2849 16.7113 28.1586V21.4391C16.7113 20.7788 17.2612 20.2416 17.9371 20.2416H19.845C21.3086 20.2416 22.4993 19.0785 22.4993 17.6488C22.4993 16.2191 21.3086 15.0559 19.845 15.0559C19.169 15.0559 18.6191 14.5188 18.6191 13.8585C18.6191 13.1981 19.169 12.6609 19.845 12.6609H22.8846C24.3482 12.6609 25.5389 11.4978 25.5389 10.0681C25.5389 8.63836 24.3482 7.47525 22.8846 7.47525H10.7941C10.1775 7.47525 9.70649 7.07467 9.58174 6.4873C13.1577 3.81919 17.5507 2.3434 22.142 2.3434C27.6749 2.3434 32.8765 4.44805 36.7887 8.2696C40.1126 11.5165 42.1668 15.6726 42.7097 20.1637H39.6896C39.0136 20.1637 38.4637 19.6265 38.4637 18.9661C38.4637 17.5364 37.273 16.3733 35.8093 16.3733C34.3457 16.3733 33.155 17.5364 33.155 18.9661V20.8298C33.155 21.4901 32.6051 22.0272 31.9291 22.0272H26.9903C24.8135 22.0272 23.0425 23.7572 23.0425 25.8835C23.0425 28.0099 24.8135 29.7398 26.9903 29.7398H28.7919C29.4678 29.7398 30.0177 30.2769 30.0177 30.9372V31.1352H19.9993V42.7002C15.0529 42.2038 10.4774 39.9958 7.04631 36.4306ZM21.4278 42.7628V41.3674H47.3316V42.7628H21.4278Z" fill="#2B3544"/>
<path d="M42.3303 38.1128H43.7588C44.9403 38.1128 45.9016 37.1738 45.9016 36.0197C45.9016 34.8655 44.9403 33.9265 43.7588 33.9265H42.3303C41.1488 33.9265 40.1875 34.8655 40.1875 36.0196C40.1875 37.1738 41.1488 38.1128 42.3303 38.1128ZM42.3303 35.3219H43.7588C44.1527 35.3219 44.4731 35.635 44.4731 36.0197C44.4731 36.4045 44.1527 36.7174 43.7588 36.7174H42.3303C41.9364 36.7174 41.616 36.4044 41.616 36.0196C41.616 35.6349 41.9364 35.3219 42.3303 35.3219Z" fill="#2B3544"/>
<path d="M27.1406 36.7175H28.5691V38.1129H27.1406V36.7175Z" fill="#2B3544"/>
<path d="M22.8594 36.7175H25.7164V38.1129H22.8594V36.7175Z" fill="#2B3544"/>
<path d="M22.8594 33.9265H28.5734V35.3219H22.8594V33.9265Z" fill="#2B3544"/>
<path d="M30 36.7175H32.857V38.1129H30V36.7175Z" fill="#2B3544"/>
<path d="M34.2812 36.7175H35.7098V38.1129H34.2812V36.7175Z" fill="#2B3544"/>
</g>
<defs>
<clipPath id="clip0_12361_59041">
<rect width="48.7601" height="47.6299" fill="white" transform="translate(0 0.947998)"/>
</clipPath>
</defs>
</svg>
