<svg width="47" height="46" viewBox="0 0 47 46" fill="none" xmlns="http://www.w3.org/2000/svg">
<path d="M13.3716 15.122L13.1569 16.5532C13.0853 16.911 13.3716 17.2688 13.7294 17.3404L14.0872 17.412L12.7991 19.6304C12.5128 20.0598 12.8706 20.7038 13.3716 20.7038L14.5881 20.7754L15.2322 21.7773C15.5184 22.2066 16.234 22.2066 16.4487 21.7057L17.9515 19.0579L19.4543 21.7057C19.669 22.1351 20.3847 22.2066 20.6709 21.7773L21.315 20.7754L22.5315 20.7038C22.9609 20.7038 23.2471 20.346 23.1756 19.9166C23.2471 19.7735 21.8875 17.5551 21.8159 17.3404H22.3168C22.6746 17.2688 22.9609 16.911 22.8893 16.5532L22.6746 15.122L23.6765 14.1201C23.9628 13.8339 23.9628 13.4045 23.6765 13.1182L22.6746 12.1164L22.8893 10.6851C22.9609 10.3273 22.6746 9.9695 22.3168 9.89794L20.9572 9.68325L20.3131 8.46669C20.0984 8.10888 19.7406 7.96576 19.3828 8.18044L18.0231 8.75294L16.735 8.10888C16.3772 7.96576 15.9478 8.10888 15.8047 8.39513L15.1606 9.68325L13.8009 9.89794C13.4431 9.9695 13.1569 10.3273 13.2284 10.6851L13.4431 12.1164L12.4412 13.1182C12.155 13.4045 12.155 13.8339 12.4412 14.1201L13.3716 15.122ZM15.8762 20.0598C15.7331 19.7735 15.4469 19.4157 15.089 19.4157H14.6597L15.3753 18.1276C15.59 18.4854 15.8047 19.201 16.3056 19.2726L15.8762 20.0598ZM21.0287 19.4157C20.6709 19.4157 20.4562 19.7735 20.2415 20.0598L19.7406 19.201C20.2415 19.201 20.4562 18.4138 20.6709 18.056L21.3865 19.3441L21.0287 19.4157ZM14.6597 12.832C15.0175 12.4742 14.7312 11.6154 14.7312 11.1861C15.2322 11.0429 16.0909 11.1145 16.3056 10.6136L16.8065 9.68325C17.2359 9.82638 17.9515 10.3989 18.3809 10.1842L19.3112 9.68325C19.5975 10.1126 19.8122 10.9714 20.3131 10.9714L21.3865 11.1861L21.2434 12.2595C21.1003 12.7604 21.8875 13.2614 22.1737 13.6192C21.8875 13.977 21.1003 14.4779 21.2434 14.9789L21.3865 16.0523C20.8856 16.1954 20.0268 16.1238 19.8122 16.6248L19.3112 17.5551C18.8818 17.412 18.1662 16.8395 17.7369 17.0542L16.8065 17.5551C16.5203 17.1257 16.3056 16.267 15.8047 16.267L14.7312 16.0523L14.8744 14.9789C15.0175 14.4779 14.2303 13.977 13.9441 13.6192L14.6597 12.832Z" fill="#2B3544"/>
<path d="M39.7786 11.5444C39.7786 11.4013 39.707 11.1866 39.5639 11.115L31.9068 3.45785C31.7636 3.31473 31.549 3.24316 31.4058 3.24316H8.43437C8.005 3.24316 7.71875 3.52941 7.71875 3.95879V41.5795C7.71875 42.2221 8.10761 42.8171 8.79784 42.8171H38.8025C39.3533 42.8171 39.7664 42.3872 39.7664 41.7599C39.7664 41.7599 39.7786 11.6159 39.7786 11.5444ZM32.1215 5.67628L37.3455 10.9003H32.1215V5.67628ZM38.3474 41.4574H9.14999V4.67441H30.6902V10.9003C30.6902 12.0188 31.6921 12.3316 32.1215 12.3316H38.3474V41.4574Z" fill="#2B3544"/>
<path d="M11.5781 28.7908C11.5781 29.2202 11.8644 29.5064 12.2937 29.5064H35.2652C35.6946 29.5064 35.9808 29.2202 35.9808 28.7908C35.9808 28.3614 35.6946 28.0752 35.2652 28.0752H12.2937C11.8644 28.0752 11.5781 28.3614 11.5781 28.7908Z" fill="#2B3544"/>
<path d="M29.4742 31.2939H12.2993C11.369 31.2939 11.369 32.7252 12.2993 32.7252H29.4742C30.4045 32.7252 30.4045 31.2939 29.4742 31.2939Z" fill="#2B3544"/>
<path d="M24.6056 34.5137H12.1092C11.4323 34.5137 11.4323 35.9449 12.1092 35.9449H24.6056C25.2825 35.9449 25.2825 34.5137 24.6056 34.5137Z" fill="#2B3544"/>
</svg>
