<svg width="24" height="28" viewBox="0 0 24 28" fill="none" xmlns="http://www.w3.org/2000/svg">
<path d="M17.0495 0.657715C15.6101 0.757277 13.9277 1.67865 12.9472 2.87845C12.0529 3.96688 11.3171 5.5835 11.604 7.15455C13.1767 7.20349 14.8018 6.26018 15.7434 5.04013C16.6243 3.90445 17.2908 2.29796 17.0495 0.657715Z" fill="black"/>
<path d="M22.738 9.71634C21.356 7.98328 19.4137 6.97754 17.5794 6.97754C15.1578 6.97754 14.1335 8.13685 12.4511 8.13685C10.7163 8.13685 9.39841 6.98091 7.30423 6.98091C5.24718 6.98091 3.05682 8.23809 1.66802 10.388C-0.28441 13.4153 0.0497133 19.1072 3.21376 23.9554C4.34606 25.6901 5.85805 27.6409 7.83579 27.6577C9.59585 27.6746 10.092 26.5288 12.4764 26.517C14.8608 26.5035 15.3131 27.6729 17.0697 27.6544C19.0492 27.6392 20.6438 25.4775 21.7761 23.7428C22.5878 22.4991 22.8899 21.873 23.5193 20.469C18.9412 18.7258 18.2071 12.2155 22.738 9.71634Z" fill="black"/>
</svg>
