<svg width="62" height="62" viewBox="0 0 62 62" fill="none" xmlns="http://www.w3.org/2000/svg">
<rect width="61.7676" height="61.7676" rx="10" fill="#FFDD00"/>
<path fill-rule="evenodd" clip-rule="evenodd" d="M27.3206 30.9185H27.2906V50.4485H17.6306V30.9185H14.6406V22.9185H17.6306V22.6685C17.6306 19.1385 18.6606 16.4385 20.7206 14.5785C22.8106 12.6785 25.8106 11.7285 29.7006 11.7285C30.4806 11.7285 31.0906 11.7485 31.5206 11.7785V19.9685C31.2606 19.9385 30.9006 19.9185 30.4406 19.9185C29.3906 19.9185 28.6206 20.1685 28.1306 20.6585C27.6406 21.1185 27.3606 21.8185 27.3006 22.8585H27.3306H47.0906V22.9185H47.1306V50.4385H37.5106V30.8985H27.3306V30.9085L27.3206 30.9185Z" fill="#181415"/>
<path d="M42.3022 20.9384C44.9587 20.9384 47.1122 18.7848 47.1122 16.1284C47.1122 13.4719 44.9587 11.3184 42.3022 11.3184C39.6457 11.3184 37.4922 13.4719 37.4922 16.1284C37.4922 18.7848 39.6457 20.9384 42.3022 20.9384Z" fill="#181415"/>
</svg>
