<svg width="359" height="342" viewBox="0 0 359 342" fill="none" xmlns="http://www.w3.org/2000/svg">
<g clip-path="url(#clip0_1043_50843)">
<path d="M298.408 77.2307C290.924 59.9996 274.138 51.02 258.804 54.8104C251.251 39.1021 234.56 32.1957 220.847 38.7939C215.427 41.6533 211.06 46.2929 208.458 51.5938C204.847 49.9959 200.844 49.7188 197.259 51.7168C190.881 54.8694 187.977 62.6653 190.191 70.0967C187.209 67.1048 182.961 66.002 179.054 67.798C177.856 68.1644 177.062 69.008 176.268 69.8515C165.267 53.0958 144.895 46.1142 128.076 54.5639C114.684 61.3641 106.947 75.7441 106.982 91.6506C100.855 85.1162 91.7973 82.7818 84.3043 86.576C74.9774 91.2315 70.902 102.99 74.5031 114.201C71.7738 112.934 68.5721 112.712 65.6228 114.215C62.434 115.792 60.2981 119.148 59.5236 122.688C54.065 120.154 47.9829 119.913 42.4813 122.497C32.039 127.794 27.8191 141.699 33.2671 153.847C35.6253 159.132 39.496 163.353 43.8327 165.63C41.9103 165.317 39.9124 165.628 37.9211 166.838C31.783 169.918 29.2825 178.191 32.4542 185.329C33.8351 188.21 35.8524 190.596 38.1028 192.01C30.2647 203.418 28.8626 219.764 35.2879 234.316C44.3996 255.254 66.3094 264.768 84.3267 255.952C87.2761 254.449 89.6644 252.817 92.1283 250.562C92.2922 251.112 92.4562 251.663 92.6202 252.213C95.1425 258.049 100.053 262.252 105.423 263.612C104.737 268.327 105.413 273.226 107.367 278.034C112.412 289.705 125.012 295.16 135.057 290.284C139.601 287.993 143.092 283.922 144.736 278.914C148.751 280.989 162.63 286.353 175.888 272.086C191.288 255.361 178.919 237.522 178.919 237.522C178.919 237.522 192.617 251.05 209.871 236.161C217.344 229.67 218.483 221.213 217.467 213.415C221.256 217.362 226.626 218.722 231.409 216.357C235.077 214.635 237.609 210.856 238.138 206.49C244.744 212.878 253.959 214.864 261.931 210.923C270.779 206.414 275.422 195.684 273.586 185.133C278.792 185.943 284.067 185.23 289.09 182.793C303.918 175.553 309.694 155.466 302.051 138.583C299.126 132.271 294.927 126.948 289.941 123.368C301.788 113.137 305.729 93.9113 298.408 77.2307Z" fill="white"/>
<path d="M270.093 77.7855C275.079 81.3655 279.435 86.3395 282.203 93.0006C289.688 110.232 283.831 130.043 269.324 137.485C264.301 139.923 259.026 140.636 253.82 139.826C255.656 150.376 251.013 161.106 242.165 165.615C234.193 169.556 224.978 167.57 218.372 161.182C217.761 165.273 215.55 169.254 211.643 171.05C206.86 173.414 201.489 172.054 197.701 168.108C198.875 175.557 197.578 184.363 190.105 190.854C172.851 205.743 159.153 192.215 159.153 192.215C159.153 192.215 171.44 209.778 156.122 226.778C143.104 240.972 128.985 235.682 124.97 233.607C123.326 238.614 119.835 242.686 115.291 244.977C105.246 249.852 92.7278 244.672 87.6013 232.726C85.407 227.992 84.7316 223.093 85.6571 218.305C80.287 216.945 75.6978 212.943 72.8541 206.905C72.6901 206.355 72.5261 205.805 72.3622 205.254C70.1378 207.436 67.51 209.141 64.5606 210.644C54.1183 215.941 42.0297 214.835 32.064 208.574C30.6855 217.104 31.7903 226.076 35.6114 234.517C44.723 255.455 66.6328 264.969 84.6502 256.153C87.5995 254.65 89.9878 253.019 92.4517 250.763C92.6157 251.314 92.7797 251.864 92.9436 252.415C95.4659 258.25 100.377 262.454 105.747 263.814C105.061 268.529 105.736 273.428 107.691 278.235C112.735 289.906 125.335 295.361 135.381 290.486C139.924 288.195 143.415 284.124 145.059 279.116C149.074 281.191 162.954 286.555 176.212 272.287C191.612 255.563 179.242 237.724 179.242 237.724C179.242 237.724 192.941 251.252 210.194 236.363C217.668 229.872 218.807 221.415 217.79 213.617C221.579 217.563 226.949 218.923 231.732 216.559C235.4 214.836 237.933 211.058 238.461 206.692C245.068 213.08 254.283 215.065 262.255 211.125C271.103 206.616 275.745 195.885 273.909 185.335C279.115 186.145 284.39 185.432 289.413 182.994C304.242 175.754 310.017 155.668 302.375 138.785C299.449 132.472 295.25 127.15 290.264 123.57C302.111 113.338 306.053 94.1129 298.732 77.4323C294.829 68.7158 288.701 62.1815 281.553 58.362C279.929 66.0667 276.06 73.2567 270.175 78.0607L270.093 77.7855Z" fill="white"/>
<path d="M28.4048 178.759C28.5298 173.915 30.6592 169.66 33.2806 167.056C36.2234 164.654 39.4187 163.977 42.1415 164.345C44.7823 164.438 46.7111 165.65 47.997 166.458C49.2829 167.266 49.7684 168.018 49.7684 168.018C49.7684 168.018 49.1254 167.614 47.764 167.43C46.4026 167.246 44.7198 166.86 42.5644 167.519C40.6485 168.105 38.3357 169.113 36.6723 171.424C34.9269 173.46 33.9884 176.45 34.0898 179.422C33.9518 182.468 35.1752 185.697 36.6316 187.954C38.3274 190.139 40.4203 191.901 42.5066 192.764C44.5929 193.627 46.4333 193.665 47.7127 193.574C48.9921 193.483 49.7106 193.263 49.7106 193.263C49.7106 193.263 49.0741 193.758 47.9587 194.4C46.7613 194.766 44.6879 195.701 42.2866 195.534C39.6458 195.441 36.3555 194.045 33.6952 191.255C31.035 188.465 28.8407 183.731 28.7262 178.961L28.4048 178.759Z" fill="#2D2D2D"/>
<path d="M62.2487 112.544C65.431 110.069 69.2692 109.795 72.3955 110.641C75.6038 111.761 78.1001 114.001 79.4744 115.983C80.9308 118.24 81.5047 120.167 81.6752 121.616C82.0852 122.993 81.7702 123.69 81.7702 123.69C81.7702 123.69 81.5242 122.864 80.7173 121.91C80.1498 120.882 78.9394 119.45 77.4896 118.092C76.0397 116.734 73.9533 115.87 71.7915 115.631C69.6296 115.391 67.2348 116.124 65.3254 117.609C63.416 119.094 62.2316 121.258 61.6081 123.551C60.9846 125.845 61.1616 128.193 61.8175 130.395C63.0474 134.523 65.2222 136.561 65.2222 136.561C65.2222 136.561 64.6612 136.432 63.3753 135.624C62.4109 135.019 60.7216 133.733 59.2652 131.476C57.8088 129.219 56.8249 125.916 57.0385 122.247C57.252 118.577 58.9844 114.744 62.1667 112.269L62.2487 112.544Z" fill="#2D2D2D"/>
<path d="M195.962 49.1111C200.266 46.8932 205.39 47.4278 209.405 49.5029C213.181 51.6512 215.766 55.065 217.229 58.2213C218.452 61.4509 218.951 64.0013 218.724 65.8725C218.737 67.6705 218.504 68.6427 218.504 68.6427C218.504 68.6427 218.258 67.817 218.006 66.0923C217.514 64.4409 216.858 62.239 215.162 60.0549C213.466 57.8709 211.209 55.5581 208.322 54.6394C205.354 53.4454 201.994 53.5722 199.045 55.0752C196.096 56.5782 193.796 59.3842 192.857 62.3742C191.68 65.4375 191.863 68.6849 192.443 71.5106C193.263 74.263 194.159 76.3916 195.13 77.8965C196.101 79.4014 196.825 80.0806 196.825 80.0806C196.825 80.0806 195.943 79.7499 194.575 78.6668C193.207 77.5837 191.354 75.7481 189.891 72.5918C188.428 69.4355 187.677 65.1604 188.445 60.7209C189.213 56.2814 192.301 51.7329 196.605 49.515L195.962 49.1111Z" fill="#2D2D2D"/>
<path d="M302.182 79.379C304.143 85.0858 305.064 90.8103 304.864 96.2775C304.663 101.745 303.58 106.881 301.451 111.137C297.835 120.051 291.395 125.626 285.414 128.356C279.434 131.087 274.077 131.525 270.553 131.101C267.03 130.678 265.026 130.089 265.026 130.089C265.026 130.089 266.948 130.402 270.465 129.927C273.742 129.525 278.935 128.537 283.951 125.2C288.968 121.863 294.128 116.38 296.95 108.309C299.854 100.513 300.262 90.4778 296.913 80.991C293.564 71.5042 287.109 63.8689 279.961 60.0494C272.731 55.9546 265.363 54.9053 259.452 56.1133C253.458 57.0461 248.996 59.6125 246.211 61.6659C243.426 63.7194 242.077 65.3333 242.077 65.3333C242.077 65.3333 243.104 63.5174 245.725 60.9135C248.347 58.3095 252.563 54.9175 258.789 53.0124C265.016 51.1074 273.417 51.2398 281.687 55.3168C285.942 57.3186 290.045 60.5679 293.595 64.5875C297.144 68.6071 300.22 73.6723 302.1 79.1038L302.182 79.379Z" fill="#2D2D2D"/>
<path d="M206.185 235.187C208.492 233.28 210.319 231.52 211.982 229.209C213.406 226.971 214.509 224.532 215.05 221.963C216.133 216.827 215.615 211.579 214.864 207.304C213.874 203.102 212.569 199.598 211.831 197.12C211.093 194.643 210.204 193.414 210.204 193.414C210.204 193.414 211.011 194.368 212.467 196.625C213.924 198.883 215.865 201.892 217.499 206.498C219.05 210.829 220.532 216.682 219.62 223.268C219.242 226.387 218.146 229.725 216.407 232.66C214.669 235.595 212.287 238.125 209.741 240.105C207.195 242.086 204.246 243.589 201.132 244.541C198.259 245.42 194.981 245.823 192.259 245.454C186.334 244.864 181.594 242.11 177.976 239.613C174.275 236.841 171.937 234.253 170.241 232.069C168.627 230.16 167.977 228.857 167.977 228.857C167.977 228.857 169.024 229.738 170.795 231.299C172.567 232.859 175.542 234.952 178.996 236.898C182.69 238.771 187.102 240.425 191.823 240.482C196.543 240.539 201.73 238.652 206.103 234.912L206.185 235.187Z" fill="#2D2D2D"/>
<path d="M266.178 212.026C263.153 214.152 259.8 215.178 256.523 215.58C253.245 215.982 249.962 215.485 246.993 214.291C241.137 212.179 236.706 207.828 233.875 203.589C231.284 199.276 230.375 195.35 229.877 192.799C229.618 190.175 229.687 188.653 229.687 188.653C229.687 188.653 230.097 190.029 230.835 192.506C231.573 194.983 233.118 198.415 236.181 201.682C239.006 205.022 243.027 207.996 248.076 209.155C252.885 210.386 258.4 209.6 263.176 206.337C267.714 203.147 270.555 197.772 271.638 192.636C272.639 187.224 271.881 182.05 270.091 177.793C268.539 173.462 266.119 170.599 264.505 168.69C262.891 166.781 261.605 165.973 261.605 165.973C261.605 165.973 262.809 166.506 265.059 167.92C267.07 169.407 269.97 172.124 272.561 176.436C274.913 180.822 276.717 186.877 276.126 193.665C275.535 200.453 272.145 207.497 266.096 211.75L266.178 212.026Z" fill="#2D2D2D"/>
<path d="M122.859 57.6553C127.431 55.0546 132.485 53.474 137.428 52.4867C142.372 51.4995 147.289 51.4641 151.587 51.9538C160.418 52.8779 167.135 56.3848 171.201 60.1443C175.267 63.9038 177.15 67.8047 177.769 70.4937C178.388 73.1827 178.759 74.7961 178.759 74.7961C178.759 74.7961 178.388 73.1827 177.11 70.8396C175.791 68.3173 173.524 64.886 169.348 61.7199C165.172 58.5537 158.661 55.9431 150.655 55.3902C142.881 54.7818 133.461 56.6452 125.593 60.9754C117.492 65.3612 112.069 71.7568 109.572 78.0235C107.075 84.2903 107.461 90.249 109.234 94.7432C111.007 99.2374 113.975 102.502 116.145 104.444C118.549 106.33 120.005 107.307 120.005 107.307C120.005 107.307 118.398 106.744 115.527 104.969C112.931 103.318 109.305 100.399 106.749 95.7128C104.234 91.2059 102.982 84.6968 105.273 77.5337C106.439 74.0418 108.539 70.3277 111.422 66.8055C114.346 63.4626 118.287 60.2559 122.859 57.6553Z" fill="#2D2D2D"/>
<path d="M190.581 68.7761C189.61 67.2712 187.839 65.7109 185.513 64.9208C183.187 64.1308 180.547 64.0378 178.076 65.3943C177.118 65.6874 176.324 66.5309 175.688 67.026C176.98 68.7328 178.033 70.513 178.765 72.0911C179.483 71.8713 179.798 71.1743 180.517 70.9545C183.226 69.5247 186.428 69.7464 188.918 71.0869C191.326 72.1522 192.7 74.1343 192.7 74.1343C192.7 74.1343 192.536 73.5838 192.29 72.7581C192.044 71.9324 191.552 70.281 190.342 68.8493L190.581 68.7761Z" fill="#2D2D2D"/>
<path d="M98.4378 83.1518C95.7905 82.1598 92.7462 81.5896 89.7084 81.9183C86.6706 82.2471 83.5573 83.1996 80.69 84.9779C75.0374 88.8096 71.7235 95.2293 71.208 101.394C70.8305 104.512 71.0139 107.76 71.8338 110.512C72.0733 110.439 72.3948 110.641 72.7163 110.843C73.8382 111.1 74.8026 111.706 75.767 112.312C75.1866 109.486 75.2426 106.166 75.7777 102.698C76.7031 97.9103 79.469 93.1599 83.8487 90.3183C87.989 87.5499 93.2641 86.8369 97.5943 88.215C100.399 88.8585 102.889 90.199 104.982 91.9613C105.051 90.4386 105.038 88.6406 105.107 87.1178C103.335 85.5575 101.085 84.1438 98.7593 83.3537L98.4378 83.1518Z" fill="#2D2D2D"/>
<path d="M57.1316 123.421C57.1316 123.421 57.0496 123.146 56.9676 122.87C56.9611 121.971 57.0366 121.348 57.2696 120.375C53.6579 118.778 48.4518 117.968 43.4226 119.507C38.3935 121.045 33.1443 125.354 30.5489 131.554C27.714 137.827 27.8479 145.294 29.8092 151.001C31.613 157.056 35.2442 161.351 38.6229 163.921C42.0017 166.491 45.2099 167.612 47.1323 167.925C49.3761 168.44 50.4161 168.422 50.4161 168.422C50.4161 168.422 49.2941 168.165 47.4473 167.228C45.6004 166.291 43.0286 164.676 40.2863 161.61C37.8656 158.747 35.3563 154.71 34.4414 149.884C33.287 145.132 33.7271 139.591 35.6925 134.785C37.6579 129.98 41.3127 126.459 45.4594 124.59C49.3667 122.793 53.5264 122.722 57.1316 123.421Z" fill="#2D2D2D"/>
<path d="M123.637 237.018C123.637 237.018 123.965 238.119 124.457 239.771C124.71 241.496 124.968 244.119 124.351 247.311C123.892 250.155 122.557 253.567 120.175 256.097C117.793 258.628 114.686 260.479 110.93 261.028C107.174 261.577 103.404 260.327 100.429 258.234C97.4537 256.141 95.3544 253.48 93.9736 250.599C93.4191 251.369 92.6251 252.213 91.7492 252.781C92.7331 256.084 94.7569 259.369 97.9781 262.288C101.521 265.408 106.576 267.466 111.933 267.028C116.969 266.388 121.588 263.473 124.039 259.42C126.572 255.642 127.34 251.202 127.314 247.606C127.288 244.01 126.228 241.331 125.415 239.478C124.602 237.624 124.116 236.872 124.116 236.872L123.637 237.018Z" fill="#2D2D2D"/>
<path d="M144.279 259.833C144.279 259.833 144.689 261.209 145.345 263.411C145.761 265.686 145.945 268.934 145.252 272.75C144.56 276.565 142.91 280.674 139.652 283.773C136.633 286.799 132.09 289.09 127.13 289.106C122.169 289.122 117.593 286.918 113.969 283.522C110.426 280.402 108.395 276.218 107.248 272.364C106.674 270.438 106.339 268.438 106.169 266.988C105.608 266.86 105.047 266.731 104.486 266.602C104.259 268.473 104.115 270.62 104.613 273.17C105.125 277.519 107.004 282.95 111.039 287.722C114.991 292.219 121.017 295.781 127.496 295.601C134.057 295.696 139.635 292.488 142.961 287.866C146.61 283.446 147.85 277.961 147.818 273.466C147.785 268.971 146.801 265.669 145.824 263.265C144.929 261.136 144.04 259.906 144.04 259.906L144.279 259.833Z" fill="#2D2D2D"/>
<path d="M178.462 240.366C179.925 243.522 181.072 247.375 181.18 251.246C181.377 256.292 179.972 261.226 177.124 265.702C174.277 270.177 170.464 274.046 166.721 276.393C162.978 278.739 158.907 279.985 155.547 280.112C151.949 280.312 149.144 279.668 146.982 279.429C144.978 278.841 143.774 278.308 143.774 278.308C143.774 278.308 144.82 279.189 146.667 280.126C148.596 281.337 151.565 282.531 155.409 283.157C159.254 283.783 164.132 283.491 168.915 281.127C173.699 278.763 177.99 274.747 181.632 269.428C183.453 266.769 184.63 263.705 185.487 260.44C186.104 257.248 186.399 253.854 185.819 251.028C185.478 248.13 184.501 245.726 183.605 243.597C181.758 242.66 179.912 241.724 178.462 240.366Z" fill="#2D2D2D"/>
<path d="M252.599 48.8995C254.131 50.533 255.423 52.2399 256.394 53.7448C257.352 53.4517 258.071 53.2319 259.029 52.9388C259.268 52.8655 259.747 52.719 260.226 52.5724C259.249 50.1686 257.71 47.636 256.014 45.4519C252.219 40.6066 246.748 36.2742 240.413 34.308C234.079 32.3419 227.681 32.7975 222.659 35.2352C217.554 37.3976 213.899 40.9184 211.606 44.6233C210.497 46.1639 209.628 47.6312 208.998 49.0252C208.998 49.0252 209.237 48.9519 209.559 49.1539C209.88 49.3559 210.441 49.4846 210.844 49.9618C211.556 48.843 212.508 47.6509 213.541 46.7341C216.163 44.1301 219.824 41.5083 224.374 40.1162C228.924 38.724 234.124 38.6348 239.337 40.3435C244.549 42.0523 249.132 45.1551 252.599 48.8995Z" fill="#2D2D2D"/>
<path d="M294.351 125.021C294.351 125.021 293.065 124.214 292.661 123.736C292.025 124.231 291.388 124.726 290.752 125.222C291.477 125.901 292.202 126.58 292.927 127.259C296.312 130.728 299.71 135.995 301.514 142.051C303.4 148.381 303.691 155.5 301.821 162.379C299.95 169.258 296.069 174.65 291.374 178.188C286.679 181.727 281.65 183.266 277.333 183.686C276.854 183.832 276.054 183.777 275.493 183.648C275.739 184.474 276.067 185.575 276.313 186.4C276.792 186.254 277.113 186.456 277.674 186.585C282.559 187.192 288.552 186.26 294.287 182.703C300.021 179.147 304.936 172.838 307.197 164.638C309.458 156.438 308.593 147.393 305.982 140.383C303.371 133.374 298.933 128.124 294.748 124.6L294.351 125.021Z" fill="#2D2D2D"/>
<path d="M236.223 207.076C235.203 209.791 233.06 212.249 230.35 213.678C226.525 215.75 222.119 214.995 219.226 213.178C219.636 214.554 219.807 216.003 219.82 217.801C220.866 218.682 222.152 219.49 223.835 219.876C226.482 220.868 229.841 220.741 232.791 219.238C235.74 217.735 237.8 215.003 239.06 212.215C239.375 211.518 239.451 210.894 239.526 210.27C238.158 209.187 237.03 208.031 236.141 206.801L236.223 207.076Z" fill="#2D2D2D"/>
<path d="M97.6843 243.757C95.6239 246.49 92.0511 250.286 87.1104 252.999C81.9303 255.785 75.2247 257.837 67.8567 256.787C60.2493 255.811 52.3009 251.936 45.7699 244.925C39.321 238.189 35.5753 229.124 34.395 220.775C33.2147 212.427 34.5177 204.52 36.7161 198.742C37.3461 197.348 37.9761 195.954 38.606 194.56C37.9631 194.156 37.0807 193.825 36.4377 193.421C35.7258 194.54 35.0138 195.659 34.3838 197.053C31.385 202.776 28.9665 211.324 29.9958 220.92C30.7857 230.589 34.9413 241.03 42.3611 249.271C49.781 257.513 59.5698 261.425 68.0532 261.833C76.5366 262.241 84.0361 259.345 88.8883 255.458C94.0619 251.773 96.9098 247.298 98.8062 244.015C100.463 240.805 101.169 238.787 101.169 238.787C101.169 238.787 100.142 240.603 98.0813 243.336L97.6843 243.757Z" fill="#2D2D2D"/>
<path d="M189.943 200.191C221.027 272.047 299.995 262.843 299.995 262.843C299.995 262.843 249.07 248.792 246.177 178.187C243.285 107.582 158.86 128.334 189.943 200.191Z" fill="white"/>
<path d="M288.06 259.754C291.335 259.538 294.814 259.259 298.036 258.863L297.637 263.503C295.683 262.922 293.986 262.459 292.236 261.816C290.486 261.173 288.941 260.467 287.341 259.582C284.195 257.99 281.458 256.274 278.667 254.378C273.289 250.524 268.877 246.177 265.335 241.761C257.994 232.811 253.67 223.527 251.053 215.489C248.435 207.45 247.321 200.72 246.646 196.212C246.175 191.642 245.833 188.997 245.833 188.997C245.833 188.997 246.122 191.462 247.258 196.025C248.395 200.588 250.068 206.951 253.243 214.622C256.419 222.293 261.248 231.03 268.579 239.197C272.271 243.371 276.779 247.295 281.793 250.672C284.326 252.451 287.01 253.987 289.898 255.46C291.444 256.166 292.732 256.754 294.278 257.459C295.77 257.985 297.52 258.628 298.959 258.973L310.211 261.62L298.56 263.613C294.78 264.377 291.301 264.656 287.769 264.754C271.49 265.413 256.287 262.208 244.231 256.861C231.97 251.576 222.653 244.213 216.309 237.118C209.762 230.086 205.834 223.627 203.366 219.079C200.898 214.53 199.89 211.892 199.89 211.892C199.89 211.892 201.306 214.405 204.129 218.649C206.951 222.892 211.641 228.922 218.436 235.289C225.231 241.656 234.538 248.237 246.38 252.864C258.222 257.491 272.598 260.164 288.007 259.574L288.06 259.754Z" fill="black"/>
<path d="M83.4705 157.069L84.032 157.94L80.4672 160.239L82.2505 163.004L85.1447 161.137L85.7062 162.008L82.812 163.875L85.1948 167.569L84.1241 168.259L78.835 160.059L83.4705 157.069ZM85.7718 156.585C85.5679 156.716 85.3498 156.757 85.1175 156.707C84.8853 156.657 84.7034 156.529 84.5719 156.326C84.4403 156.122 84.3996 155.904 84.4498 155.671C84.4999 155.439 84.6269 155.257 84.8308 155.126C85.0269 154.999 85.2371 154.964 85.4615 155.019C85.6938 155.069 85.8757 155.196 86.0072 155.4C86.1387 155.604 86.1794 155.822 86.1293 156.054C86.087 156.281 85.9679 156.458 85.7718 156.585ZM86.9648 157.298L91.1232 163.745L90.0526 164.436L85.8942 157.988L86.9648 157.298ZM90.4535 159.579C90.0286 158.92 89.7901 158.258 89.738 157.591C89.6809 156.917 89.7952 156.294 90.0809 155.721C90.3745 155.143 90.8075 154.669 91.3801 154.3C91.9448 153.936 92.5135 153.741 93.086 153.716C93.6585 153.691 94.1656 153.797 94.6073 154.034L93.8485 152.858L94.9309 152.16L99.0893 158.607L98.0069 159.305L97.2329 158.105C97.2639 158.618 97.1486 159.137 96.887 159.661C96.6281 160.172 96.2202 160.607 95.6634 160.967C95.0908 161.336 94.4821 161.529 93.8372 161.545C93.1923 161.561 92.5721 161.4 91.9766 161.062C91.3811 160.724 90.8734 160.23 90.4535 159.579ZM95.9201 156.07C95.6064 155.583 95.2352 155.223 94.8064 154.989C94.3776 154.754 93.9339 154.652 93.4752 154.681C93.0193 154.698 92.5914 154.835 92.1914 155.093C91.7913 155.351 91.4873 155.68 91.2793 156.081C91.0713 156.482 90.9856 156.926 91.0223 157.413C91.0589 157.9 91.234 158.387 91.5477 158.873C91.8664 159.367 92.2427 159.735 92.6765 159.978C93.1053 160.212 93.5477 160.321 94.0036 160.305C94.4544 160.28 94.8798 160.139 95.2798 159.881C95.6798 159.623 95.9838 159.294 96.1919 158.893C96.4026 158.479 96.4897 158.029 96.4531 157.542C96.4114 157.047 96.2338 156.556 95.9201 156.07ZM98.6152 151.033L101.066 154.833C101.269 155.147 101.479 155.327 101.699 155.375C101.913 155.414 102.185 155.328 102.514 155.115L103.303 154.607L103.887 155.513L102.922 156.135C102.326 156.519 101.79 156.67 101.315 156.588C100.84 156.506 100.4 156.151 99.9956 155.523L97.5445 151.723L96.7092 152.262L96.1401 151.38L96.9754 150.841L95.9282 149.217L96.9988 148.527L98.046 150.15L99.7284 149.065L100.298 149.948L98.6152 151.033ZM111.839 141.087C112.341 140.763 112.857 140.581 113.386 140.54C113.909 140.491 114.419 140.601 114.915 140.87C115.41 141.139 115.85 141.571 116.235 142.167L118.686 145.967L117.627 146.65L115.274 143.003C114.86 142.36 114.383 141.974 113.843 141.844C113.307 141.701 112.768 141.804 112.227 142.153C111.67 142.512 111.344 142.979 111.247 143.552C111.145 144.117 111.312 144.737 111.747 145.412L114.038 148.965L112.98 149.648L110.627 146.001C110.212 145.357 109.735 144.971 109.196 144.841C108.66 144.698 108.121 144.802 107.58 145.151C107.023 145.51 106.696 145.976 106.6 146.549C106.498 147.115 106.664 147.735 107.1 148.409L109.391 151.962L108.321 152.653L104.162 146.206L105.233 145.515L105.832 146.444C105.827 145.971 105.942 145.53 106.179 145.122C106.423 144.708 106.761 144.363 107.192 144.085C107.733 143.735 108.29 143.548 108.863 143.523C109.435 143.498 109.975 143.656 110.483 143.995C110.37 143.423 110.44 142.878 110.694 142.359C110.948 141.84 111.33 141.416 111.839 141.087ZM123.322 143.127C122.718 143.516 122.08 143.733 121.409 143.778C120.746 143.817 120.111 143.676 119.505 143.356C118.902 143.024 118.385 142.524 117.955 141.857C117.53 141.198 117.297 140.527 117.255 139.843C117.217 139.146 117.359 138.505 117.681 137.919C117.998 137.326 118.462 136.832 119.074 136.438C119.686 136.043 120.327 135.824 120.999 135.779C121.665 135.727 122.301 135.861 122.907 136.181C123.521 136.496 124.043 136.987 124.473 137.653C124.903 138.32 125.133 139.004 125.164 139.706C125.198 140.396 125.052 141.039 124.727 141.638C124.402 142.236 123.934 142.732 123.322 143.127ZM122.715 142.186C123.099 141.938 123.402 141.615 123.623 141.217C123.844 140.819 123.94 140.374 123.911 139.882C123.89 139.384 123.713 138.877 123.379 138.359C123.045 137.841 122.66 137.468 122.223 137.239C121.786 137.009 121.348 136.915 120.907 136.955C120.461 136.987 120.046 137.127 119.662 137.375C119.27 137.628 118.967 137.95 118.754 138.343C118.544 138.723 118.457 139.157 118.493 139.644C118.53 140.131 118.715 140.634 119.049 141.152C119.388 141.677 119.768 142.06 120.189 142.299C120.618 142.533 121.051 142.637 121.489 142.61C121.922 142.575 122.331 142.434 122.715 142.186ZM126.874 131.39C127.659 130.884 128.448 130.713 129.243 130.878C130.033 131.035 130.716 131.561 131.293 132.455L133.744 136.255L132.685 136.938L130.333 133.291C129.918 132.648 129.441 132.261 128.902 132.131C128.358 131.993 127.807 132.104 127.25 132.463C126.686 132.828 126.348 133.295 126.239 133.865C126.137 134.431 126.304 135.051 126.739 135.725L129.038 139.29L127.967 139.981L123.809 133.534L124.88 132.843L125.471 133.761C125.471 133.295 125.593 132.855 125.837 132.442C126.089 132.024 126.435 131.673 126.874 131.39ZM139.137 127.862C139.268 128.066 139.396 128.289 139.519 128.532L134.366 131.856C134.815 132.466 135.352 132.825 135.977 132.932C136.604 133.027 137.2 132.893 137.765 132.528C138.228 132.23 138.544 131.876 138.713 131.467C138.885 131.045 138.918 130.613 138.811 130.172L139.964 129.428C140.191 130.159 140.172 130.887 139.907 131.613C139.637 132.332 139.118 132.939 138.349 133.434C137.738 133.829 137.1 134.046 136.437 134.085C135.781 134.119 135.154 133.974 134.556 133.649C133.953 133.316 133.436 132.816 133.006 132.149C132.576 131.483 132.332 130.812 132.275 130.138C132.218 129.465 132.343 128.84 132.649 128.265C132.959 127.676 133.427 127.18 134.054 126.775C134.666 126.381 135.293 126.165 135.936 126.128C136.579 126.091 137.177 126.227 137.732 126.536C138.289 126.832 138.757 127.274 139.137 127.862ZM137.887 128.352C137.624 127.944 137.308 127.653 136.941 127.479C136.568 127.298 136.177 127.233 135.767 127.287C135.36 127.327 134.968 127.469 134.592 127.712C134.05 128.061 133.699 128.532 133.537 129.125C133.383 129.713 133.476 130.33 133.816 130.977L137.887 128.352ZM144.183 120.392L146.417 132.379L145.311 133.092L144.578 129.167L137.865 124.467L139.054 123.701L144.447 127.619L143.077 121.106L144.183 120.392ZM148.274 116.271C148.07 116.403 147.852 116.443 147.619 116.393C147.387 116.343 147.205 116.216 147.074 116.012C146.942 115.808 146.901 115.59 146.952 115.358C147.002 115.126 147.129 114.944 147.333 114.812C147.529 114.686 147.739 114.65 147.963 114.705C148.196 114.756 148.378 114.883 148.509 115.087C148.641 115.29 148.681 115.509 148.631 115.741C148.589 115.968 148.47 116.145 148.274 116.271ZM149.467 116.984L153.625 123.432L152.554 124.122L148.396 117.675L149.467 116.984ZM157.801 120.889C157.306 121.207 156.81 121.411 156.312 121.499C155.808 121.579 155.347 121.544 154.927 121.393C154.502 121.233 154.152 120.965 153.875 120.588L154.981 119.875C155.22 120.176 155.538 120.343 155.937 120.375C156.343 120.402 156.765 120.274 157.204 119.99C157.612 119.727 157.876 119.43 157.995 119.097C158.114 118.765 158.085 118.462 157.907 118.187C157.725 117.905 157.466 117.778 157.129 117.807C156.787 117.827 156.31 117.94 155.698 118.146C155.139 118.329 154.666 118.457 154.279 118.528C153.895 118.587 153.512 118.562 153.131 118.453C152.752 118.331 152.429 118.062 152.161 117.646C151.948 117.316 151.851 116.951 151.87 116.55C151.889 116.149 152.029 115.754 152.288 115.364C152.543 114.967 152.902 114.619 153.364 114.321C154.078 113.86 154.771 113.669 155.443 113.746C156.115 113.824 156.669 114.166 157.105 114.773L156.034 115.464C155.793 115.142 155.481 114.96 155.099 114.918C154.724 114.871 154.329 114.981 153.913 115.249C153.529 115.497 153.276 115.777 153.155 116.088C153.034 116.4 153.059 116.689 153.231 116.955C153.368 117.167 153.548 117.301 153.773 117.356C154 117.398 154.243 117.397 154.503 117.351C154.765 117.293 155.114 117.196 155.548 117.06C156.092 116.887 156.549 116.77 156.92 116.708C157.286 116.639 157.65 116.66 158.01 116.771C158.379 116.878 158.694 117.125 158.955 117.512C159.182 117.865 159.289 118.246 159.275 118.655C159.261 119.063 159.127 119.467 158.872 119.864C158.621 120.249 158.263 120.59 157.801 120.889ZM91.2287 173.437C91.7856 173.078 92.3503 172.886 92.9228 172.861C93.5032 172.831 94.0143 172.934 94.4559 173.171L93.6971 171.995L94.7795 171.297L99.029 177.885C99.4084 178.473 99.6193 179.076 99.6618 179.693C99.7092 180.317 99.5812 180.911 99.2775 181.473C98.9817 182.031 98.524 182.509 97.9043 182.909C97.0573 183.455 96.2224 183.71 95.3996 183.675C94.5769 183.639 93.892 183.309 93.3448 182.684L94.4037 182.001C94.7743 182.318 95.2198 182.474 95.7402 182.472C96.2656 182.477 96.7872 182.313 97.3049 181.979C97.8931 181.6 98.2527 181.107 98.3835 180.501C98.5223 179.889 98.3766 179.25 97.9466 178.583L97.0739 177.23C97.105 177.743 96.9936 178.259 96.7398 178.779C96.486 179.298 96.0806 179.737 95.5238 180.096C94.9512 180.465 94.3386 180.661 93.6858 180.682C93.0409 180.698 92.4208 180.537 91.8253 180.199C91.2297 179.861 90.7221 179.367 90.3022 178.716C89.8772 178.057 89.6387 177.395 89.5867 176.728C89.5296 176.055 89.6439 175.431 89.9296 174.858C90.2231 174.28 90.6562 173.806 91.2287 173.437ZM95.7687 175.207C95.4551 174.72 95.0839 174.36 94.6551 174.126C94.2263 173.891 93.7825 173.789 93.3239 173.818C92.868 173.835 92.44 173.972 92.04 174.23C91.64 174.488 91.336 174.817 91.128 175.218C90.92 175.619 90.8343 176.063 90.8709 176.55C90.9075 177.037 91.0827 177.524 91.3963 178.01C91.715 178.504 92.0913 178.873 92.5252 179.115C92.954 179.349 93.3963 179.458 93.8522 179.442C94.303 179.417 94.7285 179.276 95.1285 179.018C95.5285 178.76 95.8325 178.431 96.0405 178.03C96.2513 177.617 96.3384 177.166 96.3017 176.679C96.2601 176.184 96.0824 175.693 95.7687 175.207ZM103.627 174.869C103.023 175.259 102.386 175.476 101.715 175.52C101.051 175.559 100.417 175.419 99.8104 175.099C99.207 174.766 98.6904 174.266 98.2604 173.6C97.8354 172.941 97.6022 172.269 97.5608 171.585C97.5222 170.888 97.6639 170.247 97.9861 169.662C98.3031 169.068 98.7676 168.575 99.3794 168.18C99.9911 167.785 100.633 167.566 101.304 167.522C101.97 167.47 102.606 167.604 103.212 167.923C103.826 168.238 104.348 168.729 104.778 169.396C105.208 170.062 105.439 170.747 105.469 171.449C105.503 172.138 105.357 172.782 105.032 173.38C104.707 173.978 104.239 174.475 103.627 174.869ZM103.02 173.928C103.405 173.68 103.707 173.357 103.928 172.959C104.149 172.561 104.245 172.116 104.216 171.624C104.195 171.127 104.018 170.619 103.684 170.101C103.35 169.584 102.965 169.21 102.528 168.981C102.092 168.752 101.653 168.657 101.212 168.697C100.766 168.729 100.351 168.869 99.9671 169.117C99.5749 169.37 99.2723 169.693 99.0592 170.086C98.8489 170.466 98.7621 170.899 98.7987 171.387C98.8354 171.874 99.0206 172.376 99.3545 172.894C99.6935 173.419 100.073 173.802 100.494 174.041C100.923 174.276 101.357 174.379 101.794 174.352C102.227 174.317 102.636 174.176 103.02 173.928ZM110.035 169.187L108.514 162.438L109.656 161.702L111.285 169.781L110.037 170.585L103.35 165.769L104.502 165.025L110.035 169.187ZM118.511 160.205C118.643 160.409 118.77 160.632 118.894 160.874L113.74 164.198C114.189 164.808 114.726 165.167 115.351 165.275C115.979 165.37 116.575 165.235 117.14 164.871C117.603 164.573 117.919 164.219 118.088 163.81C118.26 163.388 118.292 162.956 118.185 162.514L119.338 161.77C119.565 162.501 119.547 163.23 119.282 163.956C119.012 164.674 118.493 165.281 117.724 165.777C117.112 166.172 116.475 166.388 115.811 166.428C115.156 166.462 114.529 166.316 113.931 165.991C113.327 165.659 112.811 165.159 112.381 164.492C111.951 163.825 111.707 163.155 111.65 162.481C111.593 161.807 111.718 161.183 112.024 160.607C112.333 160.019 112.802 159.523 113.429 159.118C114.041 158.723 114.668 158.508 115.311 158.471C115.953 158.434 116.552 158.57 117.106 158.879C117.664 159.174 118.132 159.616 118.511 160.205ZM117.261 160.694C116.998 160.287 116.683 159.996 116.315 159.822C115.943 159.64 115.552 159.576 115.142 159.629C114.735 159.67 114.343 159.811 113.966 160.054C113.425 160.403 113.074 160.874 112.912 161.467C112.758 162.055 112.851 162.673 113.191 163.32L117.261 160.694ZM119.751 156.673C119.701 156.183 119.783 155.725 119.997 155.298C120.218 154.867 120.58 154.489 121.082 154.165L121.795 155.271L121.513 155.453C120.313 156.227 120.133 157.265 120.973 158.567L123.234 162.073L122.163 162.764L118.005 156.317L119.075 155.626L119.751 156.673ZM125.459 151.342C126.243 150.836 127.033 150.666 127.828 150.83C128.618 150.987 129.301 151.513 129.878 152.407L132.329 156.207L131.27 156.89L128.918 153.243C128.503 152.6 128.026 152.213 127.487 152.083C126.942 151.946 126.392 152.056 125.835 152.416C125.27 152.78 124.933 153.247 124.824 153.818C124.722 154.383 124.888 155.003 125.324 155.678L127.623 159.242L126.552 159.933L122.394 153.486L123.464 152.795L124.056 153.713C124.056 153.247 124.177 152.807 124.422 152.394C124.674 151.976 125.02 151.625 125.459 151.342ZM137.597 143.513C138.099 143.19 138.614 143.007 139.143 142.966C139.666 142.917 140.176 143.027 140.672 143.296C141.167 143.565 141.607 143.998 141.992 144.594L144.443 148.394L143.384 149.077L141.031 145.43C140.617 144.786 140.14 144.4 139.601 144.27C139.064 144.127 138.525 144.23 137.984 144.579C137.427 144.939 137.101 145.405 137.004 145.978C136.902 146.544 137.069 147.164 137.504 147.838L139.795 151.391L138.737 152.074L136.384 148.427C135.969 147.784 135.492 147.397 134.953 147.267C134.417 147.125 133.878 147.228 133.337 147.577C132.78 147.936 132.453 148.402 132.357 148.976C132.255 149.541 132.422 150.161 132.857 150.836L135.148 154.389L134.078 155.079L129.919 148.632L130.99 147.941L131.589 148.871C131.584 148.397 131.699 147.956 131.936 147.548C132.18 147.135 132.518 146.789 132.949 146.511C133.491 146.162 134.047 145.975 134.62 145.95C135.192 145.925 135.732 146.082 136.24 146.421C136.127 145.85 136.197 145.304 136.451 144.785C136.705 144.266 137.087 143.842 137.597 143.513ZM149.843 139.996C149.974 140.2 150.102 140.423 150.225 140.666L145.072 143.99C145.521 144.6 146.058 144.959 146.683 145.066C147.31 145.161 147.906 145.027 148.471 144.663C148.934 144.364 149.25 144.01 149.419 143.601C149.591 143.179 149.624 142.747 149.517 142.306L150.67 141.562C150.897 142.293 150.878 143.021 150.613 143.747C150.343 144.466 149.824 145.073 149.056 145.568C148.444 145.963 147.806 146.18 147.143 146.219C146.487 146.253 145.86 146.108 145.262 145.783C144.659 145.45 144.142 144.95 143.712 144.284C143.282 143.617 143.039 142.947 142.981 142.273C142.924 141.599 143.049 140.974 143.355 140.399C143.665 139.811 144.133 139.314 144.76 138.909C145.372 138.515 145.999 138.299 146.642 138.262C147.285 138.225 147.883 138.361 148.438 138.67C148.995 138.966 149.463 139.408 149.843 139.996ZM148.593 140.486C148.33 140.078 148.014 139.787 147.647 139.613C147.274 139.432 146.883 139.367 146.473 139.421C146.066 139.461 145.674 139.603 145.298 139.846C144.757 140.195 144.405 140.666 144.243 141.259C144.089 141.847 144.182 142.464 144.522 143.111L148.593 140.486ZM152.402 133.964C153.186 133.458 153.976 133.288 154.77 133.453C155.56 133.61 156.243 134.135 156.82 135.029L159.271 138.829L158.212 139.512L155.86 135.865C155.445 135.222 154.968 134.836 154.429 134.706C153.885 134.568 153.334 134.679 152.778 135.038C152.213 135.402 151.876 135.87 151.766 136.44C151.664 137.005 151.831 137.625 152.266 138.3L154.565 141.865L153.495 142.555L149.336 136.108L150.407 135.418L150.999 136.335C150.998 135.869 151.12 135.43 151.364 135.017C151.617 134.598 151.962 134.248 152.402 133.964ZM158.737 131.294L161.188 135.094C161.39 135.408 161.601 135.589 161.82 135.636C162.035 135.675 162.306 135.589 162.636 135.376L163.424 134.868L164.008 135.774L163.044 136.396C162.448 136.781 161.912 136.932 161.437 136.85C160.962 136.767 160.522 136.412 160.117 135.785L157.666 131.985L156.831 132.524L156.262 131.641L157.097 131.102L156.05 129.479L157.12 128.788L158.168 130.412L159.85 129.327L160.419 130.209L158.737 131.294ZM166.703 127.289L167.287 128.195L162.593 131.223L162.009 130.317L166.703 127.289ZM167.505 122.907C167.301 123.038 167.083 123.079 166.851 123.029C166.618 122.979 166.436 122.852 166.305 122.648C166.173 122.444 166.133 122.226 166.183 121.994C166.233 121.761 166.36 121.579 166.564 121.448C166.76 121.321 166.97 121.286 167.195 121.341C167.427 121.391 167.609 121.518 167.74 121.722C167.872 121.926 167.912 122.144 167.862 122.376C167.82 122.603 167.701 122.78 167.505 122.907ZM168.698 123.62L172.856 130.067L171.786 130.758L167.627 124.311L168.698 123.62ZM177.032 127.524C176.537 127.843 176.041 128.046 175.543 128.134C175.039 128.215 174.578 128.179 174.158 128.028C173.733 127.869 173.383 127.601 173.106 127.224L174.212 126.51C174.451 126.812 174.769 126.978 175.168 127.01C175.574 127.037 175.996 126.909 176.436 126.626C176.843 126.363 177.107 126.065 177.226 125.733C177.345 125.401 177.316 125.097 177.139 124.823C176.956 124.54 176.697 124.414 176.36 124.442C176.018 124.463 175.541 124.576 174.93 124.782C174.37 124.965 173.897 125.092 173.51 125.164C173.126 125.223 172.743 125.198 172.362 125.088C171.983 124.966 171.66 124.697 171.392 124.281C171.179 123.952 171.082 123.587 171.101 123.186C171.121 122.785 171.26 122.39 171.519 122C171.774 121.603 172.133 121.255 172.595 120.956C173.309 120.496 174.002 120.304 174.674 120.382C175.346 120.459 175.9 120.802 176.336 121.409L175.265 122.099C175.024 121.777 174.713 121.595 174.33 121.553C173.955 121.506 173.56 121.617 173.144 121.885C172.76 122.133 172.507 122.412 172.386 122.724C172.265 123.035 172.29 123.324 172.462 123.591C172.599 123.803 172.779 123.936 173.004 123.991C173.231 124.034 173.474 124.032 173.734 123.987C173.996 123.929 174.345 123.832 174.779 123.696C175.323 123.523 175.78 123.406 176.151 123.344C176.517 123.274 176.881 123.295 177.242 123.407C177.61 123.514 177.925 123.76 178.186 124.147C178.413 124.5 178.52 124.881 178.506 125.29C178.492 125.699 178.358 126.102 178.103 126.5C177.852 126.884 177.494 127.226 177.032 127.524ZM183.178 123.559C182.684 123.878 182.188 124.082 181.69 124.17C181.186 124.25 180.725 124.215 180.305 124.063C179.88 123.904 179.529 123.636 179.253 123.259L180.359 122.546C180.598 122.847 180.916 123.014 181.314 123.046C181.72 123.073 182.143 122.944 182.582 122.661C182.99 122.398 183.254 122.1 183.373 121.768C183.491 121.436 183.462 121.133 183.285 120.858C183.103 120.576 182.844 120.449 182.507 120.478C182.165 120.498 181.688 120.611 181.076 120.817C180.517 121 180.044 121.128 179.657 121.199C179.273 121.258 178.89 121.233 178.509 121.124C178.13 121.001 177.807 120.732 177.538 120.317C177.326 119.987 177.229 119.622 177.248 119.221C177.267 118.82 177.407 118.425 177.666 118.035C177.921 117.638 178.279 117.29 178.742 116.991C179.456 116.531 180.149 116.34 180.821 116.417C181.493 116.495 182.047 116.837 182.483 117.444L181.412 118.135C181.171 117.813 180.859 117.631 180.477 117.589C180.102 117.541 179.707 117.652 179.291 117.92C178.907 118.168 178.654 118.448 178.533 118.759C178.412 119.071 178.437 119.36 178.609 119.626C178.746 119.838 178.926 119.971 179.151 120.027C179.378 120.069 179.621 120.067 179.881 120.022C180.143 119.964 180.491 119.867 180.926 119.731C181.47 119.558 181.927 119.441 182.298 119.379C182.664 119.31 183.028 119.331 183.388 119.442C183.757 119.549 184.072 119.796 184.332 120.183C184.56 120.536 184.667 120.917 184.653 121.326C184.639 121.734 184.505 122.138 184.25 122.535C183.998 122.919 183.641 123.261 183.178 123.559ZM188.534 110.826L192.692 117.273L191.622 117.964L191.007 117.011C191.016 117.472 190.896 117.915 190.649 118.341C190.405 118.754 190.063 119.102 189.623 119.386C189.122 119.709 188.605 119.898 188.073 119.952C187.537 119.999 187.017 119.89 186.513 119.626C186.018 119.357 185.578 118.924 185.193 118.328L182.757 114.552L183.816 113.869L186.161 117.504C186.571 118.139 187.048 118.526 187.592 118.664C188.131 118.794 188.679 118.679 189.236 118.32C189.808 117.95 190.146 117.483 190.247 116.918C190.349 116.352 190.182 115.732 189.747 115.058L187.463 111.516L188.534 110.826ZM198.144 108.842C198.275 109.046 198.403 109.269 198.526 109.512L193.373 112.836C193.822 113.446 194.359 113.805 194.984 113.913C195.611 114.008 196.208 113.873 196.772 113.509C197.235 113.21 197.551 112.856 197.72 112.447C197.892 112.025 197.925 111.594 197.818 111.152L198.971 110.408C199.198 111.139 199.179 111.868 198.914 112.594C198.644 113.312 198.125 113.919 197.357 114.415C196.745 114.809 196.107 115.026 195.444 115.065C194.788 115.099 194.161 114.954 193.563 114.629C192.96 114.296 192.443 113.796 192.013 113.13C191.583 112.463 191.34 111.793 191.282 111.119C191.225 110.445 191.35 109.82 191.657 109.245C191.966 108.657 192.434 108.16 193.062 107.756C193.673 107.361 194.301 107.145 194.943 107.108C195.586 107.072 196.184 107.207 196.739 107.516C197.296 107.812 197.765 108.254 198.144 108.842ZM196.894 109.332C196.631 108.924 196.315 108.633 195.948 108.459C195.575 108.278 195.184 108.214 194.774 108.267C194.367 108.307 193.975 108.449 193.599 108.692C193.058 109.041 192.706 109.512 192.544 110.105C192.391 110.693 192.483 111.31 192.823 111.958L196.894 109.332ZM199.301 108.412C198.876 107.753 198.638 107.091 198.586 106.425C198.529 105.751 198.643 105.127 198.929 104.554C199.222 103.976 199.659 103.5 200.24 103.126C200.742 102.802 201.284 102.619 201.867 102.576C202.445 102.525 202.97 102.614 203.44 102.844L201.239 99.4323L202.322 98.7342L207.937 107.44L206.855 108.138L206.073 106.927C206.109 107.448 206 107.968 205.747 108.487C205.488 108.998 205.08 109.433 204.523 109.792C203.95 110.162 203.338 110.357 202.685 110.378C202.04 110.394 201.42 110.233 200.824 109.896C200.229 109.558 199.721 109.063 199.301 108.412ZM204.768 104.903C204.454 104.417 204.083 104.056 203.654 103.822C203.225 103.588 202.782 103.485 202.323 103.515C201.867 103.531 201.439 103.668 201.039 103.926C200.639 104.184 200.335 104.514 200.127 104.914C199.919 105.315 199.833 105.759 199.87 106.246C199.907 106.734 200.082 107.22 200.395 107.707C200.714 108.201 201.09 108.569 201.524 108.811C201.953 109.045 202.395 109.154 202.851 109.138C203.302 109.114 203.728 108.973 204.128 108.715C204.528 108.457 204.832 108.127 205.04 107.727C205.25 107.313 205.337 106.862 205.301 106.375C205.259 105.88 205.082 105.389 204.768 104.903ZM98.9822 192.174C98.5522 191.507 98.3112 190.84 98.2591 190.174C98.202 189.5 98.3202 188.874 98.6138 188.296C98.9152 187.713 99.3717 187.224 99.9835 186.83C100.776 186.319 101.551 186.091 102.308 186.146C103.074 186.197 103.759 186.51 104.364 187.086L103.211 187.83C102.848 187.509 102.433 187.338 101.964 187.318C101.504 187.293 101.038 187.432 100.568 187.736C99.9561 188.13 99.5985 188.661 99.4952 189.327C99.3868 189.986 99.5806 190.699 100.076 191.468C100.577 192.244 101.152 192.723 101.802 192.904C102.452 193.084 103.082 192.977 103.694 192.583C104.165 192.279 104.486 191.916 104.658 191.495C104.83 191.073 104.844 190.62 104.698 190.136L105.851 189.392C106.104 190.162 106.1 190.914 105.84 191.648C105.576 192.374 105.055 192.988 104.279 193.489C103.667 193.883 103.033 194.098 102.378 194.132C101.73 194.161 101.111 194.01 100.52 193.68C99.93 193.35 99.4172 192.848 98.9822 192.174ZM110.175 180.406L114.333 186.854L113.263 187.544L112.648 186.591C112.656 187.052 112.537 187.496 112.29 187.922C112.045 188.335 111.704 188.683 111.264 188.966C110.762 189.29 110.246 189.479 109.714 189.533C109.177 189.579 108.657 189.47 108.154 189.206C107.658 188.937 107.218 188.505 106.834 187.909L104.398 184.132L105.457 183.449L107.802 187.085C108.212 187.72 108.689 188.106 109.233 188.244C109.772 188.374 110.32 188.259 110.877 187.9C111.449 187.531 111.786 187.064 111.888 186.498C111.99 185.933 111.823 185.313 111.388 184.638L109.104 181.097L110.175 180.406ZM113.728 179.597C113.679 179.107 113.761 178.649 113.974 178.222C114.196 177.791 114.558 177.413 115.06 177.089L115.773 178.195L115.491 178.377C114.29 179.151 114.11 180.189 114.95 181.491L117.211 184.997L116.141 185.688L111.982 179.24L113.053 178.55L113.728 179.597ZM118.117 176.766C118.068 176.276 118.15 175.818 118.363 175.391C118.585 174.96 118.947 174.582 119.448 174.258L120.162 175.364L119.879 175.546C118.679 176.32 118.499 177.358 119.339 178.66L121.6 182.166L120.53 182.857L116.371 176.41L117.442 175.719L118.117 176.766ZM128.563 172.761C128.694 172.965 128.822 173.188 128.945 173.431L123.792 176.755C124.241 177.365 124.778 177.724 125.402 177.831C126.03 177.926 126.626 177.792 127.191 177.428C127.654 177.129 127.97 176.775 128.139 176.366C128.311 175.944 128.344 175.512 128.236 175.071L129.389 174.327C129.616 175.058 129.598 175.786 129.333 176.512C129.063 177.231 128.544 177.838 127.775 178.333C127.164 178.728 126.526 178.945 125.863 178.984C125.207 179.018 124.58 178.873 123.982 178.548C123.379 178.215 122.862 177.715 122.432 177.049C122.002 176.382 121.758 175.712 121.701 175.038C121.644 174.364 121.769 173.739 122.075 173.164C122.384 172.576 122.853 172.079 123.48 171.674C124.092 171.28 124.719 171.064 125.362 171.027C126.004 170.99 126.603 171.126 127.158 171.435C127.715 171.731 128.183 172.173 128.563 172.761ZM127.313 173.251C127.049 172.843 126.734 172.552 126.367 172.378C125.994 172.197 125.603 172.132 125.193 172.186C124.786 172.226 124.394 172.368 124.018 172.611C123.476 172.96 123.125 173.431 122.963 174.024C122.809 174.612 122.902 175.229 123.242 175.876L127.313 173.251ZM131.121 166.729C131.906 166.223 132.695 166.053 133.49 166.218C134.28 166.375 134.963 166.9 135.54 167.794L137.991 171.594L136.932 172.277L134.58 168.63C134.165 167.987 133.688 167.601 133.149 167.471C132.605 167.333 132.054 167.444 131.497 167.803C130.933 168.167 130.595 168.635 130.486 169.205C130.384 169.77 130.551 170.39 130.986 171.065L133.285 174.63L132.214 175.32L128.056 168.873L129.127 168.183L129.718 169.1C129.718 168.634 129.84 168.195 130.084 167.782C130.336 167.363 130.682 167.013 131.121 166.729ZM137.253 167.489C136.823 166.822 136.582 166.156 136.53 165.49C136.473 164.816 136.591 164.19 136.885 163.612C137.186 163.029 137.643 162.54 138.254 162.145C139.047 161.634 139.822 161.407 140.579 161.462C141.345 161.512 142.03 161.826 142.635 162.402L141.482 163.146C141.119 162.824 140.704 162.654 140.235 162.633C139.775 162.608 139.309 162.748 138.839 163.051C138.227 163.446 137.869 163.976 137.766 164.643C137.658 165.301 137.851 166.015 138.347 166.783C138.848 167.56 139.423 168.038 140.073 168.219C140.723 168.4 141.353 168.293 141.965 167.898C142.436 167.595 142.757 167.232 142.929 166.81C143.101 166.388 143.115 165.935 142.969 165.451L144.122 164.708C144.375 165.478 144.371 166.23 144.111 166.964C143.847 167.69 143.326 168.303 142.549 168.804C141.938 169.199 141.304 169.413 140.649 169.447C140.001 169.476 139.382 169.326 138.791 168.996C138.201 168.666 137.688 168.164 137.253 167.489ZM148.281 155.828L150.515 167.815L149.409 168.528L148.676 164.603L141.963 159.903L143.151 159.137L148.544 163.055L147.175 156.541L148.281 155.828ZM160.817 159.971C159.588 159.719 158.395 159.161 157.238 158.297C156.089 157.428 155.089 156.335 154.24 155.017C153.369 153.668 152.777 152.267 152.463 150.815C152.151 149.35 152.161 147.972 152.494 146.68L153.612 145.959L153.68 146.065C153.333 147.455 153.31 148.875 153.612 150.324C153.916 151.76 154.47 153.102 155.275 154.349C156.059 155.565 157.016 156.592 158.145 157.429C159.281 158.262 160.522 158.834 161.866 159.144L161.934 159.25L160.817 159.971ZM165.84 150.45C166.082 150.827 166.221 151.248 166.255 151.715C166.285 152.174 166.188 152.635 165.966 153.101C165.752 153.561 165.4 153.971 164.911 154.331L165.526 155.284L164.89 155.694L164.276 154.741C163.521 155.139 162.794 155.286 162.094 155.182C161.389 155.07 160.835 154.711 160.433 154.104L161.574 153.368C161.818 153.677 162.124 153.885 162.493 153.992C162.869 154.093 163.274 154.049 163.706 153.859L161.809 150.917C161.198 151.123 160.686 151.259 160.273 151.325C159.861 151.391 159.444 151.349 159.025 151.198C158.605 151.046 158.233 150.72 157.909 150.218C157.5 149.582 157.38 148.915 157.551 148.216C157.73 147.512 158.173 146.899 158.88 146.376L158.25 145.4L158.886 144.99L159.516 145.966C160.218 145.591 160.894 145.46 161.545 145.574C162.19 145.679 162.737 146.01 163.184 146.566L162.043 147.302C161.827 147.052 161.546 146.884 161.2 146.796C160.849 146.7 160.483 146.725 160.1 146.872L161.951 149.743C162.555 149.542 163.063 149.409 163.476 149.343C163.891 149.264 164.305 149.302 164.717 149.459C165.136 149.61 165.511 149.941 165.84 150.45ZM158.966 149.453C159.214 149.837 159.517 150.058 159.876 150.115C160.235 150.173 160.677 150.126 161.202 149.976L159.449 147.258C159.067 147.561 158.827 147.904 158.731 148.288C158.629 148.665 158.708 149.053 158.966 149.453ZM164.349 153.461C164.743 153.14 164.973 152.775 165.042 152.364C165.118 151.949 165.04 151.561 164.807 151.2C164.559 150.815 164.252 150.597 163.885 150.545C163.513 150.485 163.071 150.531 162.559 150.684L164.349 153.461ZM169.463 149.196L170.187 153.211L169.469 153.674L168.287 149.955L169.463 149.196ZM178.641 144.109C179.229 143.73 179.652 143.274 179.908 142.742C180.173 142.205 180.264 141.624 180.183 140.999L181.454 140.179C181.662 141.156 181.571 142.075 181.183 142.936C180.789 143.79 180.15 144.502 179.263 145.074C178.338 145.671 177.358 145.942 176.323 145.888C175.288 145.833 174.362 145.465 173.544 144.782L172.402 145.518L171.917 144.765L172.893 144.135C172.738 143.946 172.595 143.75 172.463 143.546C172.337 143.35 172.225 143.15 172.127 142.947L171.15 143.576L170.672 142.835L171.802 142.107C171.605 141.423 171.556 140.744 171.654 140.07C171.755 139.383 171.992 138.752 172.366 138.178C172.743 137.59 173.241 137.097 173.86 136.697C174.747 136.126 175.662 135.841 176.607 135.842C177.552 135.843 178.429 136.144 179.238 136.744L177.967 137.563C177.426 137.224 176.861 137.061 176.27 137.076C175.68 137.09 175.086 137.289 174.49 137.674C173.831 138.099 173.364 138.639 173.087 139.295C172.818 139.946 172.77 140.638 172.943 141.371L175.719 139.58L176.198 140.321L173.233 142.233C173.331 142.437 173.443 142.636 173.569 142.833C173.716 143.06 173.863 143.254 174.011 143.414L176.964 141.509L177.45 142.262L174.685 144.046C175.287 144.479 175.937 144.704 176.636 144.72C177.337 144.723 178.006 144.519 178.641 144.109ZM184.468 139.518L185.192 143.533L184.474 143.995L183.292 140.277L184.468 139.518ZM194.732 133.764L195.309 134.658L190.061 138.043L189.479 137.552C189.57 136.971 189.586 136.462 189.525 136.023C189.472 135.58 189.286 135.111 188.968 134.617C188.836 134.413 188.644 134.192 188.391 133.955L187.062 134.813L186.576 134.06L187.647 133.369C187.368 133.161 187.122 132.952 186.911 132.745C186.694 132.529 186.489 132.272 186.297 131.974C185.973 131.472 185.799 130.969 185.773 130.463C185.749 129.945 185.864 129.46 186.117 129.009C186.378 128.552 186.759 128.161 187.261 127.838C188.061 127.322 188.826 127.156 189.556 127.34C190.285 127.525 190.894 127.96 191.38 128.646L190.392 129.283C190.078 128.83 189.697 128.549 189.248 128.439C188.807 128.323 188.339 128.425 187.845 128.744C187.39 129.037 187.104 129.411 186.985 129.864C186.875 130.313 186.997 130.812 187.351 131.361C187.518 131.62 187.705 131.849 187.912 132.049C188.113 132.241 188.37 132.459 188.682 132.702L190.965 131.23L191.45 131.983L189.403 133.303C189.656 133.54 189.848 133.76 189.979 133.964C190.46 134.709 190.617 135.563 190.449 136.526L194.732 133.764ZM201.29 133.866L201.222 133.76C201.493 132.407 201.48 131.044 201.183 129.67C200.893 128.291 200.356 126.994 199.572 125.778C198.767 124.531 197.77 123.475 196.579 122.61C195.391 121.733 194.092 121.166 192.683 120.909L192.614 120.803L193.732 120.082C195.046 120.311 196.303 120.873 197.501 121.766C198.701 122.646 199.737 123.761 200.607 125.11C201.457 126.428 202.037 127.792 202.347 129.202C202.665 130.608 202.685 131.922 202.408 133.145L201.29 133.866ZM206.415 119.581L208.866 123.381C209.069 123.695 209.28 123.876 209.499 123.923C209.713 123.962 209.985 123.876 210.315 123.664L211.103 123.155L211.687 124.061L210.722 124.683C210.126 125.068 209.591 125.219 209.116 125.137C208.64 125.054 208.201 124.699 207.796 124.072L205.345 120.272L204.509 120.811L203.94 119.928L204.776 119.389L203.728 117.766L204.799 117.075L205.846 118.699L207.529 117.614L208.098 118.496L206.415 119.581ZM211.95 114.595C212.436 114.282 212.944 114.104 213.473 114.063C213.996 114.014 214.502 114.127 214.99 114.401C215.485 114.67 215.925 115.102 216.31 115.698L218.761 119.498L217.702 120.181L215.35 116.534C214.935 115.891 214.458 115.505 213.919 115.375C213.375 115.237 212.824 115.348 212.267 115.707C211.702 116.071 211.365 116.539 211.256 117.109C211.154 117.674 211.321 118.294 211.756 118.969L214.055 122.534L212.984 123.224L207.369 114.518L208.439 113.828L210.488 117.004C210.488 116.538 210.613 116.096 210.866 115.678C211.126 115.255 211.487 114.894 211.95 114.595ZM218.015 115.381C217.59 114.722 217.352 114.06 217.3 113.394C217.243 112.72 217.357 112.096 217.643 111.523C217.936 110.945 218.369 110.472 218.942 110.102C219.507 109.738 220.075 109.543 220.648 109.519C221.22 109.494 221.727 109.6 222.169 109.837L221.41 108.66L222.493 107.962L226.651 114.409L225.569 115.107L224.795 113.907C224.826 114.42 224.71 114.939 224.449 115.463C224.19 115.975 223.782 116.41 223.225 116.769C222.653 117.138 222.044 117.331 221.399 117.347C220.754 117.363 220.134 117.202 219.538 116.865C218.943 116.527 218.435 116.032 218.015 115.381ZM223.482 111.872C223.168 111.386 222.797 111.025 222.368 110.791C221.939 110.557 221.496 110.454 221.037 110.484C220.581 110.5 220.153 110.637 219.753 110.895C219.353 111.153 219.049 111.483 218.841 111.883C218.633 112.284 218.547 112.728 218.584 113.215C218.621 113.703 218.796 114.189 219.11 114.676C219.428 115.17 219.805 115.538 220.238 115.78C220.667 116.014 221.11 116.123 221.565 116.107C222.016 116.083 222.442 115.942 222.842 115.684C223.242 115.426 223.546 115.096 223.754 114.695C223.964 114.282 224.052 113.831 224.015 113.344C223.973 112.849 223.796 112.358 223.482 111.872ZM226.177 106.835L228.628 110.635C228.83 110.949 229.041 111.13 229.261 111.177C229.475 111.216 229.747 111.13 230.076 110.917L230.864 110.409L231.449 111.315L230.484 111.937C229.888 112.322 229.352 112.473 228.877 112.39C228.402 112.308 227.962 111.953 227.557 111.326L225.106 107.526L224.271 108.064L223.702 107.182L224.537 106.643L223.49 105.02L224.561 104.329L225.608 105.953L227.29 104.868L227.859 105.75L226.177 106.835ZM109.107 199.968C109.593 199.654 110.101 199.477 110.63 199.435C111.153 199.386 111.659 199.499 112.147 199.773C112.643 200.042 113.083 200.475 113.467 201.071L115.918 204.871L114.859 205.554L112.507 201.907C112.092 201.263 111.615 200.877 111.076 200.747C110.532 200.609 109.981 200.72 109.424 201.079C108.86 201.444 108.522 201.911 108.413 202.481C108.311 203.047 108.478 203.667 108.913 204.341L111.212 207.906L110.141 208.597L104.526 199.891L105.597 199.2L107.646 202.377C107.645 201.911 107.771 201.468 108.023 201.05C108.283 200.627 108.644 200.266 109.107 199.968ZM120.547 202.035C119.943 202.425 119.306 202.641 118.634 202.686C117.971 202.725 117.336 202.584 116.73 202.265C116.127 201.932 115.61 201.432 115.18 200.765C114.755 200.107 114.522 199.435 114.481 198.751C114.442 198.054 114.584 197.413 114.906 196.827C115.223 196.234 115.687 195.74 116.299 195.346C116.911 194.951 117.552 194.732 118.224 194.687C118.89 194.635 119.526 194.769 120.132 195.089C120.746 195.404 121.268 195.895 121.698 196.561C122.128 197.228 122.358 197.912 122.389 198.615C122.423 199.304 122.277 199.947 121.952 200.546C121.627 201.144 121.159 201.64 120.547 202.035ZM119.94 201.094C120.324 200.846 120.627 200.523 120.848 200.125C121.069 199.727 121.165 199.282 121.136 198.79C121.115 198.292 120.938 197.785 120.604 197.267C120.27 196.749 119.885 196.376 119.448 196.147C119.011 195.917 118.573 195.823 118.132 195.863C117.686 195.895 117.271 196.035 116.887 196.283C116.495 196.536 116.192 196.859 115.979 197.251C115.769 197.631 115.682 198.065 115.718 198.552C115.755 199.04 115.94 199.542 116.274 200.06C116.613 200.585 116.993 200.968 117.414 201.207C117.843 201.441 118.276 201.545 118.714 201.518C119.147 201.483 119.556 201.342 119.94 201.094ZM120.648 189.492L126.263 198.198L125.192 198.889L119.577 190.183L120.648 189.492ZM125.593 194.032C125.168 193.373 124.93 192.711 124.878 192.045C124.821 191.371 124.935 190.747 125.221 190.174C125.514 189.596 125.951 189.12 126.532 188.746C127.034 188.422 127.576 188.239 128.159 188.196C128.737 188.145 129.262 188.234 129.732 188.464L127.531 185.052L128.614 184.354L134.229 193.06L133.147 193.758L132.365 192.547C132.401 193.068 132.292 193.588 132.039 194.107C131.78 194.618 131.372 195.053 130.815 195.412C130.242 195.782 129.63 195.977 128.977 195.998C128.332 196.014 127.712 195.853 127.116 195.516C126.521 195.178 126.013 194.683 125.593 194.032ZM131.06 190.523C130.746 190.037 130.375 189.676 129.946 189.442C129.517 189.208 129.074 189.105 128.615 189.135C128.159 189.151 127.731 189.288 127.331 189.546C126.931 189.804 126.627 190.134 126.419 190.534C126.211 190.935 126.125 191.379 126.162 191.866C126.199 192.353 126.374 192.84 126.687 193.327C127.006 193.821 127.382 194.189 127.816 194.431C128.245 194.665 128.687 194.774 129.143 194.758C129.594 194.734 130.02 194.593 130.42 194.335C130.82 194.077 131.124 193.747 131.332 193.346C131.542 192.933 131.63 192.482 131.593 191.995C131.551 191.5 131.374 191.009 131.06 190.523ZM138.389 190.527C137.895 190.846 137.399 191.049 136.9 191.138C136.397 191.218 135.935 191.182 135.516 191.031C135.091 190.872 134.74 190.604 134.464 190.227L135.57 189.514C135.808 189.815 136.127 189.981 136.525 190.013C136.931 190.04 137.354 189.912 137.793 189.629C138.201 189.366 138.464 189.068 138.583 188.736C138.702 188.404 138.673 188.1 138.496 187.826C138.314 187.544 138.054 187.417 137.717 187.445C137.375 187.466 136.899 187.579 136.287 187.785C135.728 187.968 135.255 188.095 134.868 188.167C134.484 188.226 134.101 188.201 133.719 188.091C133.341 187.969 133.017 187.7 132.749 187.284C132.537 186.955 132.44 186.59 132.459 186.189C132.478 185.788 132.617 185.393 132.877 185.003C133.131 184.606 133.49 184.258 133.953 183.959C134.667 183.499 135.359 183.307 136.031 183.385C136.703 183.462 137.257 183.805 137.693 184.412L136.623 185.102C136.382 184.78 136.07 184.598 135.687 184.556C135.313 184.509 134.918 184.62 134.502 184.888C134.118 185.136 133.865 185.415 133.744 185.727C133.622 186.038 133.648 186.327 133.82 186.594C133.956 186.806 134.137 186.939 134.361 186.994C134.588 187.037 134.832 187.035 135.091 186.99C135.354 186.932 135.702 186.835 136.136 186.699C136.68 186.526 137.138 186.409 137.509 186.347C137.875 186.277 138.238 186.298 138.599 186.41C138.968 186.517 139.282 186.763 139.543 187.151C139.771 187.503 139.878 187.884 139.864 188.293C139.85 188.702 139.715 189.105 139.461 189.503C139.209 189.887 138.852 190.229 138.389 190.527ZM147.084 183.369L145.563 176.62L146.705 175.884L148.334 183.963L147.086 184.767L140.399 179.952L141.552 179.208L147.084 183.369ZM149.422 178.663C148.997 178.004 148.759 177.342 148.707 176.675C148.65 176.001 148.764 175.378 149.05 174.805C149.343 174.227 149.776 173.753 150.349 173.384C150.913 173.02 151.482 172.825 152.055 172.8C152.627 172.775 153.134 172.881 153.576 173.118L152.817 171.942L153.899 171.244L158.058 177.691L156.976 178.389L156.202 177.189C156.233 177.702 156.117 178.221 155.856 178.745C155.597 179.256 155.189 179.691 154.632 180.051C154.059 180.42 153.451 180.613 152.806 180.629C152.161 180.645 151.541 180.484 150.945 180.146C150.35 179.808 149.842 179.314 149.422 178.663ZM154.889 175.154C154.575 174.667 154.204 174.307 153.775 174.073C153.346 173.838 152.903 173.736 152.444 173.765C151.988 173.782 151.56 173.919 151.16 174.177C150.76 174.435 150.456 174.764 150.248 175.165C150.04 175.566 149.954 176.01 149.991 176.497C150.028 176.984 150.203 177.471 150.516 177.957C150.835 178.451 151.211 178.819 151.645 179.062C152.074 179.296 152.516 179.405 152.972 179.388C153.423 179.364 153.848 179.223 154.248 178.965C154.648 178.707 154.952 178.378 155.16 177.977C155.371 177.563 155.458 177.113 155.422 176.626C155.38 176.131 155.202 175.64 154.889 175.154ZM155.322 167.127L160.938 175.833L159.867 176.524L154.252 167.818L155.322 167.127ZM164.322 164.521L168.48 170.969L167.41 171.659L166.795 170.706C166.804 171.167 166.684 171.611 166.437 172.037C166.193 172.45 165.851 172.798 165.412 173.081C164.91 173.405 164.393 173.594 163.861 173.648C163.325 173.694 162.805 173.585 162.301 173.321C161.806 173.052 161.366 172.62 160.981 172.024L158.545 168.247L159.604 167.564L161.949 171.2C162.359 171.835 162.836 172.221 163.38 172.359C163.919 172.489 164.467 172.374 165.024 172.015C165.596 171.646 165.934 171.178 166.035 170.613C166.137 170.048 165.97 169.428 165.535 168.753L163.251 165.212L164.322 164.521ZM173.932 162.538C174.063 162.742 174.191 162.965 174.314 163.208L169.161 166.531C169.61 167.141 170.147 167.5 170.772 167.608C171.399 167.703 171.996 167.568 172.56 167.204C173.023 166.906 173.339 166.552 173.508 166.143C173.68 165.721 173.713 165.289 173.606 164.847L174.759 164.104C174.986 164.834 174.967 165.563 174.702 166.289C174.432 167.007 173.913 167.614 173.145 168.11C172.533 168.505 171.895 168.721 171.232 168.761C170.576 168.795 169.949 168.649 169.351 168.324C168.748 167.992 168.231 167.492 167.801 166.825C167.371 166.159 167.128 165.488 167.071 164.814C167.013 164.14 167.138 163.516 167.445 162.94C167.754 162.352 168.222 161.856 168.85 161.451C169.461 161.056 170.089 160.841 170.731 160.804C171.374 160.767 171.972 160.903 172.527 161.212C173.084 161.507 173.553 161.949 173.932 162.538ZM172.682 163.027C172.419 162.62 172.103 162.329 171.736 162.155C171.363 161.973 170.972 161.909 170.562 161.962C170.155 162.003 169.763 162.144 169.387 162.387C168.846 162.736 168.494 163.207 168.332 163.8C168.179 164.388 168.271 165.006 168.611 165.653L172.682 163.027ZM178.406 157.136C178.378 156.61 178.497 156.089 178.764 155.573C179.031 155.056 179.435 154.624 179.976 154.275C180.556 153.9 181.167 153.701 181.806 153.677C182.446 153.653 183.061 153.806 183.652 154.136C184.237 154.458 184.742 154.949 185.167 155.608C185.587 156.259 185.828 156.925 185.89 157.607C185.952 158.289 185.839 158.922 185.551 159.508C185.27 160.089 184.844 160.564 184.271 160.934C183.714 161.293 183.146 161.487 182.565 161.517C181.993 161.542 181.479 161.435 181.024 161.195L181.791 162.383L180.72 163.074L175.105 154.368L176.175 153.677L178.406 157.136ZM184.073 156.313C183.759 155.827 183.388 155.467 182.959 155.232C182.531 154.998 182.087 154.895 181.628 154.925C181.177 154.949 180.752 155.09 180.352 155.348C179.96 155.601 179.658 155.934 179.448 156.348C179.24 156.749 179.152 157.199 179.186 157.699C179.223 158.187 179.395 158.669 179.704 159.148C180.018 159.634 180.391 159.998 180.825 160.241C181.262 160.47 181.708 160.576 182.164 160.56C182.623 160.531 183.048 160.389 183.44 160.137C183.84 159.879 184.144 159.549 184.352 159.148C184.563 158.735 184.65 158.284 184.614 157.797C184.572 157.302 184.392 156.807 184.073 156.313ZM192.315 150.681C192.446 150.885 192.574 151.108 192.697 151.351L187.544 154.674C187.993 155.284 188.53 155.643 189.155 155.751C189.782 155.846 190.378 155.712 190.943 155.347C191.406 155.049 191.722 154.695 191.891 154.286C192.063 153.864 192.096 153.432 191.989 152.99L193.142 152.247C193.369 152.978 193.35 153.706 193.085 154.432C192.815 155.15 192.296 155.757 191.527 156.253C190.916 156.648 190.278 156.865 189.615 156.904C188.959 156.938 188.332 156.792 187.734 156.468C187.131 156.135 186.614 155.635 186.184 154.968C185.754 154.302 185.511 153.631 185.453 152.957C185.396 152.283 185.521 151.659 185.827 151.083C186.137 150.495 186.605 149.999 187.232 149.594C187.844 149.2 188.471 148.984 189.114 148.947C189.757 148.91 190.355 149.046 190.91 149.355C191.467 149.651 191.935 150.093 192.315 150.681ZM191.065 151.171C190.802 150.763 190.486 150.472 190.119 150.298C189.746 150.116 189.355 150.052 188.945 150.106C188.538 150.146 188.146 150.288 187.77 150.53C187.229 150.879 186.877 151.351 186.715 151.944C186.561 152.531 186.654 153.149 186.994 153.796L191.065 151.171ZM193.48 150.263C193.05 149.596 192.809 148.93 192.757 148.263C192.7 147.589 192.818 146.963 193.111 146.385C193.413 145.802 193.869 145.313 194.481 144.919C195.273 144.408 196.048 144.18 196.806 144.236C197.572 144.286 198.257 144.599 198.862 145.175L197.709 145.919C197.346 145.598 196.93 145.427 196.462 145.407C196.002 145.382 195.536 145.521 195.065 145.825C194.454 146.219 194.096 146.75 193.993 147.416C193.884 148.075 194.078 148.788 194.574 149.557C195.075 150.333 195.65 150.812 196.3 150.993C196.949 151.173 197.58 151.067 198.192 150.672C198.662 150.368 198.984 150.006 199.156 149.584C199.328 149.162 199.341 148.709 199.196 148.225L200.349 147.481C200.601 148.252 200.598 149.004 200.338 149.738C200.073 150.464 199.553 151.077 198.776 151.578C198.164 151.972 197.531 152.187 196.875 152.221C196.228 152.25 195.608 152.099 195.018 151.769C194.428 151.439 193.915 150.937 193.48 150.263ZM200.619 145.642C200.194 144.983 199.955 144.32 199.903 143.654C199.846 142.98 199.96 142.357 200.246 141.784C200.54 141.206 200.973 140.732 201.545 140.363C202.11 139.998 202.678 139.804 203.251 139.779C203.824 139.754 204.331 139.86 204.772 140.097L204.013 138.92L205.096 138.222L209.254 144.67L208.172 145.368L207.398 144.168C207.429 144.681 207.314 145.199 207.052 145.724C206.793 146.235 206.385 146.67 205.828 147.029C205.256 147.399 204.647 147.591 204.002 147.607C203.357 147.623 202.737 147.463 202.142 147.125C201.546 146.787 201.038 146.293 200.619 145.642ZM206.085 142.132C205.771 141.646 205.4 141.286 204.971 141.051C204.543 140.817 204.099 140.715 203.64 140.744C203.184 140.76 202.756 140.897 202.356 141.155C201.956 141.413 201.652 141.743 201.444 142.144C201.236 142.544 201.151 142.988 201.187 143.475C201.224 143.963 201.399 144.45 201.713 144.936C202.031 145.43 202.408 145.798 202.842 146.04C203.27 146.275 203.713 146.384 204.169 146.367C204.619 146.343 205.045 146.202 205.445 145.944C205.845 145.686 206.149 145.356 206.357 144.956C206.568 144.542 206.655 144.092 206.618 143.604C206.576 143.109 206.399 142.619 206.085 142.132ZM212.623 133.367L216.781 139.815L215.711 140.505L215.096 139.552C215.105 140.013 214.985 140.457 214.738 140.883C214.494 141.296 214.152 141.644 213.713 141.927C213.211 142.251 212.694 142.44 212.162 142.494C211.626 142.54 211.106 142.431 210.602 142.168C210.107 141.899 209.667 141.466 209.282 140.87L206.846 137.093L207.905 136.41L210.25 140.046C210.66 140.681 211.137 141.068 211.681 141.205C212.22 141.335 212.768 141.22 213.325 140.861C213.897 140.492 214.235 140.025 214.336 139.459C214.438 138.894 214.271 138.274 213.836 137.599L211.552 134.058L212.623 133.367ZM220.94 137.282C220.446 137.601 219.949 137.805 219.451 137.893C218.947 137.973 218.486 137.938 218.066 137.786C217.641 137.627 217.291 137.359 217.014 136.982L218.12 136.269C218.359 136.57 218.678 136.737 219.076 136.769C219.482 136.796 219.904 136.667 220.344 136.384C220.752 136.121 221.015 135.823 221.134 135.491C221.253 135.159 221.224 134.856 221.047 134.581C220.865 134.299 220.605 134.172 220.268 134.201C219.926 134.221 219.449 134.334 218.838 134.54C218.278 134.723 217.805 134.851 217.418 134.922C217.034 134.981 216.652 134.956 216.27 134.847C215.891 134.724 215.568 134.456 215.3 134.04C215.087 133.71 214.991 133.345 215.01 132.944C215.029 132.543 215.168 132.148 215.428 131.758C215.682 131.361 216.041 131.013 216.504 130.715C217.217 130.254 217.91 130.063 218.582 130.14C219.254 130.218 219.808 130.56 220.244 131.167L219.174 131.858C218.932 131.536 218.621 131.354 218.238 131.312C217.863 131.265 217.468 131.375 217.053 131.643C216.668 131.891 216.415 132.171 216.294 132.482C216.173 132.794 216.198 133.083 216.37 133.349C216.507 133.561 216.688 133.695 216.912 133.75C217.139 133.792 217.382 133.79 217.642 133.745C217.904 133.687 218.253 133.59 218.687 133.454C219.231 133.281 219.688 133.164 220.059 133.102C220.426 133.033 220.789 133.054 221.15 133.165C221.518 133.272 221.833 133.519 222.094 133.906C222.321 134.259 222.428 134.64 222.414 135.049C222.4 135.457 222.266 135.861 222.012 136.258C221.76 136.642 221.403 136.984 220.94 137.282ZM228.38 127.419C228.511 127.623 228.639 127.846 228.762 128.089L223.609 131.413C224.058 132.023 224.595 132.382 225.22 132.49C225.847 132.585 226.443 132.45 227.008 132.086C227.471 131.787 227.787 131.433 227.956 131.024C228.128 130.602 228.161 130.17 228.054 129.729L229.207 128.985C229.434 129.716 229.415 130.444 229.15 131.171C228.88 131.889 228.361 132.496 227.592 132.992C226.981 133.386 226.343 133.603 225.68 133.642C225.024 133.676 224.397 133.531 223.799 133.206C223.196 132.873 222.679 132.373 222.249 131.707C221.819 131.04 221.575 130.37 221.518 129.696C221.461 129.022 221.586 128.397 221.892 127.822C222.202 127.234 222.67 126.737 223.297 126.333C223.909 125.938 224.536 125.722 225.179 125.685C225.822 125.648 226.42 125.784 226.975 126.093C227.532 126.389 228 126.831 228.38 127.419ZM227.13 127.909C226.867 127.501 226.551 127.21 226.184 127.036C225.811 126.855 225.42 126.791 225.01 126.844C224.603 126.884 224.211 127.026 223.835 127.269C223.293 127.618 222.942 128.089 222.78 128.682C222.626 129.27 222.719 129.887 223.059 130.535L227.13 127.909ZM232.885 121.548L235.336 125.348C235.538 125.662 235.749 125.843 235.968 125.89C236.183 125.929 236.454 125.843 236.784 125.63L237.572 125.122L238.156 126.028L237.192 126.65C236.596 127.035 236.06 127.186 235.585 127.103C235.11 127.021 234.67 126.666 234.265 126.039L231.814 122.239L230.979 122.777L230.41 121.895L231.245 121.356L230.198 119.733L231.268 119.042L232.316 120.666L233.998 119.581L234.567 120.463L232.885 121.548ZM238.419 116.562C238.906 116.249 239.413 116.071 239.942 116.03C240.466 115.981 240.971 116.094 241.459 116.368C241.955 116.637 242.395 117.069 242.779 117.665L245.23 121.465L244.171 122.148L241.819 118.501C241.404 117.858 240.927 117.471 240.388 117.342C239.844 117.204 239.293 117.315 238.737 117.674C238.172 118.038 237.835 118.505 237.725 119.076C237.623 119.641 237.79 120.261 238.225 120.936L240.524 124.501L239.454 125.191L233.838 116.485L234.909 115.795L236.958 118.971C236.957 118.505 237.083 118.063 237.335 117.645C237.595 117.222 237.957 116.861 238.419 116.562ZM250.623 113.072C250.755 113.276 250.882 113.5 251.005 113.742L245.852 117.066C246.301 117.676 246.838 118.035 247.463 118.143C248.091 118.238 248.687 118.103 249.251 117.739C249.714 117.44 250.03 117.087 250.2 116.678C250.372 116.256 250.404 115.824 250.297 115.382L251.45 114.638C251.677 115.369 251.658 116.098 251.393 116.824C251.124 117.542 250.604 118.149 249.836 118.645C249.224 119.039 248.586 119.256 247.923 119.295C247.268 119.329 246.641 119.184 246.042 118.859C245.439 118.526 244.922 118.027 244.492 117.36C244.062 116.693 243.819 116.023 243.762 115.349C243.705 114.675 243.829 114.05 244.136 113.475C244.445 112.887 244.913 112.39 245.541 111.986C246.153 111.591 246.78 111.375 247.422 111.339C248.065 111.302 248.663 111.438 249.218 111.746C249.775 112.042 250.244 112.484 250.623 113.072ZM249.373 113.562C249.11 113.154 248.795 112.864 248.427 112.69C248.054 112.508 247.663 112.444 247.253 112.497C246.846 112.538 246.454 112.679 246.078 112.922C245.537 113.271 245.185 113.742 245.024 114.335C244.87 114.923 244.963 115.541 245.302 116.188L249.373 113.562ZM117.246 213.774C117.803 213.415 118.368 213.223 118.94 213.198C119.521 213.168 120.032 213.272 120.473 213.509L119.714 212.332L120.797 211.634L125.046 218.222C125.426 218.811 125.637 219.413 125.679 220.03C125.727 220.655 125.598 221.248 125.295 221.811C124.999 222.368 124.541 222.846 123.922 223.246C123.075 223.792 122.24 224.048 121.417 224.012C120.594 223.976 119.909 223.646 119.362 223.022L120.421 222.339C120.792 222.655 121.237 222.812 121.757 222.809C122.283 222.815 122.804 222.65 123.322 222.317C123.91 221.937 124.27 221.444 124.401 220.838C124.54 220.226 124.394 219.587 123.964 218.921L123.091 217.568C123.122 218.081 123.011 218.597 122.757 219.116C122.503 219.635 122.098 220.074 121.541 220.433C120.968 220.803 120.356 220.998 119.703 221.019C119.058 221.035 118.438 220.874 117.843 220.537C117.247 220.199 116.739 219.704 116.319 219.053C115.895 218.394 115.656 217.732 115.604 217.066C115.547 216.392 115.661 215.768 115.947 215.195C116.24 214.617 116.673 214.144 117.246 213.774ZM121.786 215.544C121.472 215.058 121.101 214.697 120.672 214.463C120.244 214.229 119.8 214.126 119.341 214.156C118.885 214.172 118.457 214.309 118.057 214.567C117.657 214.825 117.353 215.155 117.145 215.555C116.937 215.956 116.852 216.4 116.888 216.887C116.925 217.375 117.1 217.861 117.414 218.348C117.732 218.842 118.109 219.21 118.542 219.452C118.971 219.686 119.414 219.795 119.869 219.779C120.32 219.755 120.746 219.614 121.146 219.356C121.546 219.098 121.85 218.768 122.058 218.367C122.269 217.954 122.356 217.503 122.319 217.016C122.277 216.521 122.1 216.03 121.786 215.544ZM129.645 215.207C129.041 215.596 128.403 215.813 127.732 215.857C127.069 215.896 126.434 215.756 125.828 215.436C125.224 215.103 124.708 214.604 124.278 213.937C123.853 213.278 123.62 212.607 123.578 211.923C123.539 211.226 123.681 210.584 124.003 209.999C124.32 209.406 124.785 208.912 125.397 208.517C126.008 208.123 126.65 207.903 127.321 207.859C127.987 207.807 128.623 207.941 129.23 208.261C129.843 208.576 130.365 209.066 130.795 209.733C131.225 210.4 131.456 211.084 131.487 211.786C131.52 212.475 131.375 213.119 131.05 213.717C130.725 214.316 130.256 214.812 129.645 215.207ZM129.038 214.265C129.422 214.018 129.724 213.695 129.945 213.297C130.166 212.899 130.262 212.454 130.234 211.961C130.213 211.464 130.035 210.956 129.701 210.439C129.367 209.921 128.982 209.548 128.546 209.318C128.109 209.089 127.67 208.994 127.23 209.034C126.784 209.066 126.369 209.206 125.984 209.454C125.592 209.707 125.29 210.03 125.077 210.423C124.866 210.803 124.779 211.237 124.816 211.724C124.853 212.211 125.038 212.714 125.372 213.231C125.711 213.757 126.091 214.139 126.512 214.379C126.94 214.613 127.374 214.717 127.812 214.69C128.245 214.655 128.653 214.513 129.038 214.265ZM136.053 209.524L134.532 202.775L135.673 202.039L137.302 210.118L136.055 210.922L129.367 206.106L130.52 205.363L136.053 209.524ZM144.529 200.542C144.66 200.746 144.788 200.969 144.911 201.212L139.758 204.536C140.207 205.146 140.744 205.504 141.369 205.612C141.996 205.707 142.592 205.573 143.157 205.208C143.62 204.91 143.936 204.556 144.105 204.147C144.277 203.725 144.31 203.293 144.203 202.851L145.356 202.108C145.583 202.839 145.564 203.567 145.299 204.293C145.029 205.012 144.51 205.618 143.741 206.114C143.13 206.509 142.492 206.726 141.829 206.765C141.173 206.799 140.546 206.654 139.948 206.329C139.345 205.996 138.828 205.496 138.398 204.829C137.968 204.163 137.724 203.492 137.667 202.818C137.61 202.144 137.735 201.52 138.041 200.945C138.351 200.356 138.819 199.86 139.446 199.455C140.058 199.061 140.685 198.845 141.328 198.808C141.971 198.771 142.569 198.907 143.124 199.216C143.681 199.512 144.149 199.954 144.529 200.542ZM143.279 201.032C143.016 200.624 142.7 200.333 142.333 200.159C141.96 199.977 141.569 199.913 141.159 199.967C140.752 200.007 140.36 200.149 139.984 200.392C139.442 200.741 139.091 201.212 138.929 201.805C138.775 202.393 138.868 203.01 139.208 203.657L143.279 201.032ZM145.768 197.01C145.719 196.52 145.801 196.062 146.014 195.636C146.236 195.204 146.597 194.826 147.099 194.503L147.813 195.608L147.53 195.791C146.33 196.565 146.15 197.603 146.99 198.905L149.251 202.411L148.181 203.101L144.022 196.654L145.093 195.963L145.768 197.01ZM151.476 191.679C152.261 191.173 153.05 191.003 153.845 191.168C154.635 191.325 155.318 191.85 155.895 192.744L158.346 196.544L157.287 197.227L154.935 193.58C154.52 192.937 154.043 192.551 153.504 192.421C152.96 192.283 152.409 192.394 151.852 192.753C151.288 193.117 150.95 193.585 150.841 194.155C150.739 194.72 150.906 195.34 151.341 196.015L153.64 199.58L152.569 200.27L148.411 193.823L149.482 193.133L150.074 194.05C150.073 193.584 150.195 193.145 150.439 192.732C150.691 192.313 151.037 191.963 151.476 191.679ZM163.614 183.851C164.116 183.527 164.631 183.345 165.16 183.303C165.684 183.254 166.193 183.364 166.689 183.633C167.184 183.902 167.624 184.335 168.009 184.931L170.46 188.731L169.401 189.414L167.049 185.767C166.634 185.124 166.157 184.737 165.618 184.607C165.081 184.465 164.543 184.568 164.002 184.917C163.445 185.276 163.118 185.742 163.021 186.315C162.919 186.881 163.086 187.501 163.521 188.175L165.813 191.728L164.754 192.411L162.402 188.764C161.987 188.121 161.51 187.735 160.971 187.605C160.434 187.462 159.896 187.565 159.354 187.914C158.797 188.273 158.471 188.74 158.374 189.313C158.272 189.878 158.439 190.498 158.874 191.173L161.166 194.726L160.095 195.416L155.937 188.969L157.007 188.279L157.607 189.208C157.601 188.734 157.716 188.293 157.953 187.885C158.197 187.472 158.535 187.126 158.967 186.848C159.508 186.499 160.065 186.312 160.637 186.287C161.21 186.262 161.75 186.419 162.257 186.758C162.144 186.187 162.215 185.642 162.468 185.123C162.722 184.604 163.104 184.18 163.614 183.851ZM175.86 180.333C175.992 180.537 176.119 180.761 176.242 181.003L171.089 184.327C171.538 184.937 172.075 185.296 172.7 185.404C173.328 185.499 173.924 185.364 174.488 185C174.951 184.701 175.267 184.348 175.437 183.939C175.609 183.517 175.641 183.085 175.534 182.643L176.687 181.899C176.914 182.63 176.895 183.359 176.63 184.085C176.361 184.803 175.841 185.41 175.073 185.906C174.461 186.3 173.823 186.517 173.16 186.556C172.505 186.59 171.878 186.445 171.279 186.12C170.676 185.787 170.159 185.288 169.729 184.621C169.299 183.954 169.056 183.284 168.999 182.61C168.942 181.936 169.066 181.311 169.373 180.736C169.682 180.148 170.15 179.651 170.778 179.247C171.39 178.852 172.017 178.636 172.659 178.6C173.302 178.563 173.901 178.699 174.455 179.007C175.012 179.303 175.481 179.745 175.86 180.333ZM174.61 180.823C174.347 180.415 174.032 180.125 173.664 179.951C173.291 179.769 172.9 179.705 172.49 179.758C172.083 179.799 171.692 179.94 171.315 180.183C170.774 180.532 170.422 181.003 170.261 181.596C170.107 182.184 170.2 182.802 170.539 183.449L174.61 180.823ZM178.419 174.302C179.203 173.796 179.993 173.625 180.788 173.79C181.578 173.947 182.261 174.472 182.837 175.367L185.289 179.167L184.23 179.85L181.877 176.203C181.462 175.559 180.985 175.173 180.446 175.043C179.902 174.905 179.352 175.016 178.795 175.375C178.23 175.74 177.893 176.207 177.783 176.777C177.682 177.343 177.848 177.963 178.283 178.637L180.583 182.202L179.512 182.893L175.353 176.445L176.424 175.755L177.016 176.673C177.015 176.207 177.137 175.767 177.382 175.354C177.634 174.936 177.98 174.585 178.419 174.302ZM184.754 171.632L187.205 175.432C187.407 175.745 187.618 175.926 187.838 175.973C188.052 176.013 188.324 175.926 188.653 175.714L189.441 175.205L190.026 176.111L189.061 176.734C188.465 177.118 187.929 177.269 187.454 177.187C186.979 177.105 186.539 176.75 186.134 176.122L183.683 172.322L182.848 172.861L182.279 171.979L183.114 171.44L182.067 169.816L183.138 169.126L184.185 170.749L185.867 169.664L186.436 170.546L184.754 171.632ZM197.978 161.686C198.48 161.362 198.996 161.18 199.524 161.138C200.048 161.089 200.558 161.199 201.053 161.468C201.549 161.737 201.989 162.17 202.373 162.766L204.825 166.566L203.766 167.249L201.413 163.602C200.998 162.959 200.521 162.572 199.982 162.442C199.446 162.3 198.907 162.403 198.366 162.752C197.809 163.111 197.482 163.577 197.386 164.151C197.284 164.716 197.451 165.336 197.886 166.011L200.177 169.564L199.118 170.247L196.766 166.599C196.351 165.956 195.874 165.57 195.335 165.44C194.799 165.297 194.26 165.4 193.719 165.749C193.162 166.109 192.835 166.575 192.738 167.148C192.637 167.713 192.803 168.333 193.238 169.008L195.53 172.561L194.459 173.252L190.301 166.804L191.372 166.114L191.971 167.043C191.965 166.569 192.081 166.128 192.317 165.72C192.562 165.307 192.9 164.962 193.331 164.683C193.872 164.334 194.429 164.147 195.002 164.122C195.574 164.097 196.114 164.254 196.622 164.593C196.509 164.022 196.579 163.477 196.833 162.958C197.087 162.439 197.469 162.015 197.978 161.686ZM204.086 162.444C203.661 161.785 203.423 161.123 203.371 160.457C203.314 159.783 203.428 159.159 203.714 158.586C204.007 158.008 204.44 157.535 205.013 157.165C205.578 156.801 206.146 156.606 206.719 156.582C207.291 156.557 207.798 156.663 208.24 156.9L207.481 155.723L208.564 155.025L212.722 161.472L211.64 162.17L210.866 160.97C210.897 161.483 210.781 162.002 210.52 162.526C210.261 163.038 209.853 163.473 209.296 163.832C208.724 164.201 208.115 164.394 207.47 164.41C206.825 164.426 206.205 164.265 205.609 163.928C205.014 163.59 204.506 163.095 204.086 162.444ZM209.553 158.935C209.239 158.449 208.868 158.088 208.439 157.854C208.01 157.62 207.567 157.517 207.108 157.547C206.652 157.563 206.224 157.7 205.824 157.958C205.424 158.216 205.12 158.546 204.912 158.946C204.704 159.347 204.618 159.791 204.655 160.278C204.692 160.766 204.867 161.252 205.18 161.739C205.499 162.233 205.875 162.601 206.309 162.843C206.738 163.077 207.18 163.186 207.636 163.17C208.087 163.146 208.513 163.005 208.913 162.747C209.313 162.489 209.617 162.159 209.825 161.758C210.035 161.345 210.123 160.894 210.086 160.407C210.044 159.912 209.867 159.421 209.553 158.935ZM210.25 152.454C210.047 152.586 209.828 152.627 209.596 152.576C209.364 152.526 209.182 152.399 209.051 152.195C208.919 151.991 208.878 151.773 208.928 151.541C208.979 151.309 209.106 151.127 209.31 150.996C209.506 150.869 209.716 150.833 209.94 150.889C210.172 150.939 210.354 151.066 210.486 151.27C210.617 151.474 210.658 151.692 210.608 151.924C210.566 152.151 210.447 152.328 210.25 152.454ZM211.444 153.168L215.602 159.615L214.531 160.305L210.373 153.858L211.444 153.168ZM216.334 149.847C217.118 149.341 217.908 149.17 218.702 149.335C219.492 149.492 220.176 150.018 220.752 150.912L223.203 154.712L222.144 155.395L219.792 151.748C219.377 151.105 218.9 150.718 218.361 150.588C217.817 150.451 217.266 150.561 216.71 150.921C216.145 151.285 215.808 151.752 215.698 152.323C215.596 152.888 215.763 153.508 216.198 154.183L218.497 157.747L217.427 158.438L213.268 151.991L214.339 151.3L214.931 152.218C214.93 151.752 215.052 151.312 215.296 150.899C215.549 150.481 215.894 150.13 216.334 149.847ZM222.669 147.177L225.12 150.977C225.322 151.291 225.533 151.471 225.752 151.519C225.967 151.558 226.238 151.472 226.568 151.259L227.356 150.751L227.94 151.657L226.976 152.279C226.38 152.663 225.844 152.814 225.369 152.732C224.894 152.65 224.454 152.295 224.049 151.667L221.598 147.867L220.763 148.406L220.194 147.524L221.029 146.985L219.982 145.361L221.052 144.671L222.1 146.294L223.782 145.209L224.351 146.092L222.669 147.177ZM226.743 147.831C226.318 147.172 226.08 146.509 226.028 145.843C225.971 145.169 226.085 144.546 226.371 143.973C226.664 143.395 227.097 142.921 227.67 142.552C228.235 142.188 228.803 141.993 229.376 141.968C229.948 141.943 230.455 142.049 230.897 142.286L230.138 141.11L231.221 140.412L235.379 146.859L234.297 147.557L233.523 146.357C233.554 146.87 233.438 147.389 233.177 147.913C232.918 148.424 232.51 148.859 231.953 149.218C231.381 149.588 230.772 149.78 230.127 149.797C229.482 149.813 228.862 149.652 228.266 149.314C227.671 148.976 227.163 148.482 226.743 147.831ZM232.21 144.322C231.896 143.835 231.525 143.475 231.096 143.241C230.667 143.006 230.224 142.904 229.765 142.933C229.309 142.949 228.881 143.087 228.481 143.345C228.081 143.603 227.777 143.932 227.569 144.333C227.361 144.733 227.275 145.177 227.312 145.665C227.349 146.152 227.524 146.639 227.837 147.125C228.156 147.619 228.532 147.987 228.966 148.229C229.395 148.464 229.837 148.573 230.293 148.556C230.744 148.532 231.17 148.391 231.57 148.133C231.97 147.875 232.274 147.546 232.482 147.145C232.692 146.731 232.779 146.281 232.743 145.794C232.701 145.298 232.523 144.808 232.21 144.322ZM232.907 137.841C232.703 137.972 232.485 138.013 232.253 137.963C232.021 137.913 231.839 137.786 231.707 137.582C231.576 137.378 231.535 137.16 231.585 136.928C231.636 136.695 231.763 136.513 231.966 136.382C232.163 136.255 232.373 136.22 232.597 136.275C232.829 136.325 233.011 136.452 233.143 136.656C233.274 136.86 233.315 137.078 233.265 137.31C233.223 137.538 233.103 137.714 232.907 137.841ZM234.1 138.554L238.259 145.001L237.188 145.692L233.03 139.245L234.1 138.554ZM238.991 135.233C239.775 134.727 240.564 134.557 241.359 134.722C242.149 134.879 242.832 135.404 243.409 136.298L245.86 140.098L244.801 140.781L242.449 137.134C242.034 136.491 241.557 136.105 241.018 135.975C240.474 135.837 239.923 135.948 239.366 136.307C238.802 136.671 238.465 137.139 238.355 137.709C238.253 138.274 238.42 138.894 238.855 139.569L241.154 143.134L240.084 143.824L235.925 137.377L236.996 136.687L237.588 137.604C237.587 137.138 237.709 136.699 237.953 136.286C238.206 135.867 238.551 135.517 238.991 135.233ZM249.96 137.604C249.466 137.923 248.969 138.126 248.471 138.215C247.968 138.295 247.506 138.26 247.086 138.108C246.661 137.949 246.311 137.681 246.034 137.304L247.14 136.591C247.379 136.892 247.698 137.059 248.096 137.091C248.502 137.117 248.924 136.989 249.364 136.706C249.772 136.443 250.035 136.145 250.154 135.813C250.273 135.481 250.244 135.178 250.067 134.903C249.885 134.621 249.625 134.494 249.288 134.522C248.946 134.543 248.469 134.656 247.858 134.862C247.298 135.045 246.825 135.172 246.438 135.244C246.054 135.303 245.672 135.278 245.29 135.168C244.911 135.046 244.588 134.777 244.32 134.362C244.107 134.032 244.011 133.667 244.03 133.266C244.049 132.865 244.188 132.47 244.448 132.08C244.702 131.683 245.061 131.335 245.524 131.036C246.237 130.576 246.93 130.384 247.602 130.462C248.274 130.539 248.828 130.882 249.264 131.489L248.194 132.18C247.952 131.857 247.641 131.675 247.258 131.633C246.883 131.586 246.488 131.697 246.073 131.965C245.688 132.213 245.435 132.492 245.314 132.804C245.193 133.115 245.218 133.404 245.39 133.671C245.527 133.883 245.708 134.016 245.932 134.071C246.159 134.114 246.402 134.112 246.662 134.067C246.924 134.009 247.273 133.912 247.707 133.776C248.251 133.603 248.708 133.486 249.079 133.424C249.446 133.355 249.809 133.376 250.17 133.487C250.538 133.594 250.853 133.841 251.114 134.228C251.341 134.581 251.448 134.961 251.434 135.37C251.42 135.779 251.286 136.182 251.032 136.58C250.78 136.964 250.423 137.306 249.96 137.604ZM252.612 125.132C252.408 125.263 252.19 125.304 251.957 125.254C251.725 125.204 251.543 125.077 251.412 124.873C251.28 124.669 251.239 124.451 251.29 124.219C251.34 123.986 251.467 123.804 251.671 123.673C251.867 123.546 252.077 123.511 252.301 123.566C252.534 123.616 252.715 123.743 252.847 123.947C252.979 124.151 253.019 124.369 252.969 124.601C252.927 124.828 252.808 125.005 252.612 125.132ZM253.805 125.845L257.963 132.292L256.892 132.983L252.734 126.536L253.805 125.845ZM257.504 124.708L259.955 128.508C260.158 128.822 260.369 129.003 260.588 129.05C260.802 129.089 261.074 129.003 261.403 128.79L262.192 128.282L262.776 129.188L261.811 129.81C261.215 130.195 260.68 130.346 260.205 130.263C259.729 130.181 259.289 129.826 258.885 129.199L256.434 125.399L255.598 125.937L255.029 125.055L255.865 124.516L254.817 122.893L255.888 122.202L256.935 123.826L258.618 122.741L259.187 123.623L257.504 124.708ZM264.46 128.202C264.256 128.333 264.038 128.374 263.806 128.324C263.573 128.274 263.392 128.147 263.26 127.943C263.129 127.739 263.088 127.521 263.138 127.289C263.188 127.056 263.315 126.874 263.519 126.743C263.715 126.616 263.925 126.581 264.15 126.636C264.382 126.686 264.564 126.813 264.695 127.017C264.827 127.221 264.868 127.439 264.818 127.671C264.775 127.898 264.656 128.075 264.46 128.202Z" fill="#2B3544"/>
</g>
<defs>
<clipPath id="clip0_1043_50843">
<rect width="303.035" height="254.451" fill="white" transform="matrix(0.956245 -0.292567 0.285493 0.958381 -9.65625 93.0986)"/>
</clipPath>
</defs>
</svg>
