<svg width="194" height="173" viewBox="0 0 194 173" fill="none" xmlns="http://www.w3.org/2000/svg">
<g opacity="0.46">
<g clip-path="url(#clip0_1043_50791)">
<path d="M30.5578 38.7287C34.3812 30.1315 43.0872 25.7084 51.0931 27.6748C54.9592 19.8407 63.625 16.4555 70.7991 19.8211C73.6356 21.2773 75.9313 23.6204 77.3105 26.2869C79.1852 25.5026 81.2692 25.3816 83.1464 26.3982C86.4832 28.0054 88.0308 31.923 86.9103 35.6352C88.4506 34.1499 90.6591 33.6164 92.7029 34.5333C93.3284 34.7221 93.7458 35.1481 94.1632 35.5741C99.821 27.2306 110.404 23.8242 119.205 28.1308C126.213 31.5961 130.308 38.8327 130.36 46.7995C133.524 43.5539 138.232 42.4248 142.153 44.3584C147.033 46.7315 149.209 52.6387 147.382 58.2381C148.799 57.6155 150.466 57.5187 152.009 58.2846C153.678 59.0882 154.805 60.7787 155.225 62.5555C158.058 61.3102 161.225 61.2163 164.103 62.535C169.568 65.2344 171.828 72.2174 169.043 78.2777C167.838 80.9143 165.84 83.0115 163.59 84.1328C164.591 83.9846 165.633 84.1492 166.676 84.764C169.888 86.3335 171.227 90.4883 169.606 94.0495C168.899 95.4864 167.859 96.6725 166.693 97.3707C170.827 103.119 171.63 111.312 168.347 118.572C163.692 129.019 152.319 133.687 142.892 129.192C141.349 128.426 140.097 127.598 138.804 126.457C138.721 126.732 138.638 127.007 138.555 127.282C137.266 130.194 134.726 132.278 131.934 132.935C132.313 135.299 131.983 137.75 130.985 140.149C128.409 145.973 121.868 148.649 116.612 146.163C114.235 144.995 112.398 142.94 111.519 140.425C109.436 141.446 102.229 144.071 95.2578 136.867C87.1598 128.422 93.5255 119.542 93.5255 119.542C93.5255 119.542 86.4483 126.257 77.3928 118.723C73.4701 115.439 72.8391 111.198 73.3341 107.297C71.3776 109.256 68.5856 109.914 66.083 108.708C64.1643 107.829 62.8279 105.926 62.5332 103.737C59.1193 106.907 54.327 107.86 50.1559 105.851C45.5259 103.554 43.0593 98.1587 43.9693 92.8827C41.2603 93.2652 38.5087 92.8847 35.8809 91.6416C28.1228 87.9497 25.0246 77.8635 28.9316 69.4416C30.428 66.2928 32.592 63.6456 35.1741 61.8746C28.9562 56.6975 26.8174 47.0508 30.5578 38.7287Z" fill="white"/>
<path d="M45.3178 39.1322C42.7358 40.9032 40.4882 43.3751 39.0754 46.6992C35.252 55.2963 38.3916 65.245 45.9832 69.0366C48.6109 70.2798 51.3626 70.6603 54.0715 70.2778C53.1616 75.5538 55.6281 80.9488 60.2581 83.2464C64.4292 85.2555 69.2216 84.3017 72.6354 81.1316C72.9717 83.1833 74.1415 85.1866 76.1852 86.1035C78.6879 87.3089 81.4798 86.6514 83.4363 84.6917C82.8578 88.4175 83.5723 92.8337 87.495 96.1179C96.5505 103.652 103.628 96.9368 103.628 96.9368C103.628 96.9368 97.3036 105.679 105.36 114.262C112.206 121.429 119.539 118.841 121.622 117.82C122.5 120.335 124.337 122.39 126.715 123.558C131.97 126.044 138.469 123.505 141.088 117.545C142.21 115.183 142.54 112.732 142.037 110.33C144.829 109.673 147.202 107.689 148.657 104.677C148.74 104.402 148.823 104.127 148.906 103.852C150.074 104.955 151.451 105.821 152.994 106.587C158.459 109.286 164.752 108.785 169.917 105.694C170.673 109.972 170.137 114.461 168.184 118.672C163.529 129.119 152.156 133.787 142.729 129.291C141.186 128.525 139.934 127.698 138.64 126.557C138.557 126.832 138.474 127.107 138.391 127.382C137.103 130.294 134.563 132.377 131.771 133.035C132.149 135.399 131.819 137.85 130.822 140.249C128.246 146.072 121.705 148.749 116.449 146.262C114.072 145.095 112.235 143.04 111.356 140.524C109.273 141.546 102.065 144.171 95.0946 136.966C86.9966 128.521 93.3623 119.641 93.3623 119.641C93.3623 119.641 86.285 126.356 77.2295 118.823C73.3068 115.538 72.6759 111.297 73.1709 107.396C71.2143 109.356 68.4224 110.014 65.9198 108.808C64.0011 107.929 62.6647 106.025 62.37 103.836C58.9561 107.006 54.1638 107.96 49.9927 105.951C45.3627 103.653 42.8961 98.2584 43.8061 92.9824C41.0971 93.3649 38.3455 92.9844 35.7177 91.7412C27.9596 88.0494 24.8614 77.9632 28.7684 69.5413C30.2648 66.3925 32.4288 63.7453 35.0108 61.9743C28.793 56.7972 26.6542 47.1506 30.3946 38.8284C32.3896 34.4799 35.5532 31.2343 39.2605 29.353C40.1411 33.2192 42.1884 36.8375 45.2763 39.2697L45.3178 39.1322Z" fill="white"/>
<path d="M171.685 90.7771C171.598 88.3506 170.47 86.2099 169.093 84.894C167.549 83.6779 165.881 83.3245 164.464 83.4969C163.088 83.5318 162.089 84.1302 161.422 84.5291C160.756 84.928 160.506 85.3027 160.506 85.3027C160.506 85.3027 160.839 85.1033 161.548 85.0171C162.256 84.9309 163.132 84.745 164.258 85.0848C165.258 85.3869 166.468 85.902 167.345 87.0668C168.263 88.0941 168.765 89.5958 168.726 91.084C168.811 92.61 168.188 94.2222 167.439 95.3463C166.565 96.4327 165.483 97.3061 164.4 97.7292C163.316 98.1524 162.358 98.163 161.691 98.1117C161.024 98.0604 160.648 97.9471 160.648 97.9471C160.648 97.9471 160.982 98.1979 161.566 98.5242C162.192 98.713 163.276 99.1903 164.526 99.1177C165.902 99.0828 167.61 98.3982 168.984 97.0126C170.358 95.6271 171.48 93.2655 171.518 90.8768L171.685 90.7771Z" fill="#2D2D2D"/>
<path d="M153.761 57.4627C152.092 56.2088 150.091 56.0549 148.466 56.4645C146.799 57.0116 145.508 58.1222 144.801 59.1088C144.052 60.233 143.762 61.1954 143.679 61.9206C143.472 62.6081 143.639 62.9586 143.639 62.9586C143.639 62.9586 143.763 62.5461 144.18 62.0717C144.471 61.5595 145.095 60.8478 145.844 60.1739C146.594 59.5 147.677 59.0768 148.802 58.9664C149.928 58.856 151.179 59.2336 152.18 59.9859C153.182 60.7383 153.808 61.8275 154.143 62.9788C154.478 64.13 154.397 65.3055 154.065 66.4054C153.442 68.4678 152.318 69.4787 152.318 69.4787C152.318 69.4787 152.61 69.4167 153.276 69.0178C153.776 68.7186 154.65 68.0824 155.399 66.9583C156.148 65.8341 156.646 64.1842 156.518 62.3455C156.391 60.5068 155.471 58.579 153.802 57.3252L153.761 57.4627Z" fill="#2D2D2D"/>
<path d="M83.8132 25.099C81.5608 23.9691 78.8933 24.2141 76.8105 25.2356C74.8528 26.2949 73.5212 27.9933 72.773 29.5677C72.1499 31.1798 71.9015 32.455 72.0278 33.3932C72.029 34.2937 72.1547 34.7817 72.1547 34.7817C72.1547 34.7817 72.2792 34.3692 72.4031 33.5065C72.6521 32.6816 72.9841 31.5816 73.858 30.4952C74.7319 29.4088 75.8975 28.2605 77.3975 27.8131C78.9391 27.2283 80.6899 27.3067 82.2332 28.0725C83.7766 28.8384 84.9873 30.254 85.4895 31.7557C86.1168 33.2952 86.0356 34.9209 85.7457 36.3336C85.3308 37.7085 84.8737 38.7707 84.3744 39.5201C83.8752 40.2696 83.5005 40.6065 83.5005 40.6065C83.5005 40.6065 83.9589 40.4448 84.6668 39.9084C85.3747 39.372 86.3322 38.4608 87.0804 36.8865C87.8286 35.3121 88.2009 33.1742 87.781 30.9472C87.3612 28.7202 85.7325 26.4284 83.48 25.2985L83.8132 25.099Z" fill="#2D2D2D"/>
<path d="M28.6017 39.7881C27.6051 42.6377 27.1504 45.5008 27.2792 48.24C27.4079 50.9791 27.9949 53.5566 29.1233 55.6974C31.0467 60.1784 34.4269 62.9989 37.5551 64.3931C40.6832 65.7873 43.4764 66.0303 45.3102 65.8338C47.144 65.6372 48.1857 65.3515 48.1857 65.3515C48.1857 65.3515 47.1855 65.4997 45.3511 65.246C43.6418 65.0301 40.9316 64.5122 38.3033 62.8187C35.6749 61.1253 32.9617 58.3561 31.4557 54.3011C29.9081 50.3836 29.6513 45.3555 31.354 40.6188C33.0567 35.8821 36.3863 32.0865 40.0936 30.2051C43.8425 28.1863 47.6767 27.6934 50.7622 28.3246C53.8891 28.8184 56.2252 30.1236 57.6855 31.1644C59.1459 32.2053 59.8556 33.0195 59.8556 33.0195C59.8556 33.0195 59.3125 32.1055 57.9351 30.7897C56.5578 29.4739 54.3462 27.7562 51.0936 26.7745C47.8409 25.7927 43.4641 25.8218 39.1734 27.8271C36.9655 28.8109 34.8417 30.4202 33.0103 32.4177C31.1789 34.4152 29.5983 36.9385 28.6432 39.6506L28.6017 39.7881Z" fill="#2D2D2D"/>
<path d="M79.313 118.251C78.1029 117.286 77.143 116.396 76.266 115.231C75.5142 114.104 74.929 112.878 74.6355 111.589C74.0485 109.011 74.295 106.385 74.6673 104.248C75.1647 102.147 75.8293 100.398 76.2028 99.1603C76.5763 97.9229 77.034 97.311 77.034 97.311C77.034 97.311 76.6178 97.7854 75.869 98.9096C75.1202 100.034 74.1218 101.533 73.2912 103.832C72.5021 105.994 71.7557 108.919 72.2603 112.222C72.4709 113.786 73.0567 115.463 73.9757 116.94C74.8947 118.418 76.147 119.696 77.4822 120.699C78.8174 121.702 80.3608 122.468 81.9871 122.959C83.4883 123.412 85.1977 123.628 86.6147 123.456C89.6989 123.186 92.1565 121.828 94.0306 120.593C95.9462 119.221 97.1533 117.935 98.0272 116.849C98.8596 115.9 99.1922 115.25 99.1922 115.25C99.1922 115.25 98.6509 115.687 97.7349 116.461C96.8189 117.234 95.278 118.269 93.4869 119.229C91.5706 120.151 89.2791 120.959 86.8198 120.967C84.3604 120.975 81.6497 120.007 79.3545 118.114L79.313 118.251Z" fill="#2D2D2D"/>
<path d="M47.9461 106.385C49.5316 107.463 51.283 107.992 52.9923 108.208C54.7017 108.424 56.4104 108.19 57.9519 107.605C60.9935 106.573 63.2832 104.413 64.7393 102.302C66.0703 100.154 66.5262 98.1913 66.7746 96.9161C66.8979 95.6031 66.8552 94.8402 66.8552 94.8402C66.8552 94.8402 66.6477 95.5276 66.2742 96.765C65.9007 98.0025 65.111 99.7143 63.5292 101.337C62.0724 102.998 59.9902 104.47 57.3649 105.027C54.8646 105.623 51.9879 105.205 49.4846 103.549C47.1065 101.931 45.6022 99.2266 45.0152 96.6492C44.4697 93.9342 44.8414 91.3461 45.7556 89.2217C46.5447 87.0596 47.7933 85.6363 48.6257 84.6874C49.4581 83.7385 50.1245 83.3395 50.1245 83.3395C50.1245 83.3395 49.4996 83.601 48.3334 84.2991C47.2922 85.035 45.7934 86.3828 44.4624 88.5314C43.2565 90.7177 42.3435 93.7425 42.6816 97.145C43.0196 100.547 44.8168 104.09 47.9876 106.247L47.9461 106.385Z" fill="#2D2D2D"/>
<path d="M123.542 29.14C121.247 27.2471 118.578 26.1414 115.909 25.486C113.24 24.8305 110.489 24.9003 108.031 25.3583C102.988 26.2366 98.8651 29.0426 96.2013 31.989C93.5375 34.9355 92.0826 37.9467 91.4601 40.0091C90.8376 42.0715 90.4641 43.3089 90.4641 43.3089C90.4641 43.3089 90.8376 42.0715 91.7939 40.2599C92.7917 38.3108 94.4138 35.65 97.0782 33.1538C99.7427 30.6576 103.658 28.539 108.201 27.96C112.619 27.3431 117.706 28.5785 121.67 31.7253C125.759 34.9098 128.141 39.6794 128.898 44.4083C129.655 49.1372 128.827 53.688 127.373 57.1495C125.919 60.611 123.921 63.1585 122.506 64.6816C120.966 66.1669 120.05 66.9406 120.05 66.9406C120.05 66.9406 121.008 66.4797 122.798 65.0699C124.422 63.7598 126.753 61.4631 128.666 57.8399C130.537 54.3541 131.906 49.3667 131.357 43.9503C131.062 41.3108 130.266 38.5203 129.012 35.8916C127.716 33.4003 125.837 31.0329 123.542 29.14Z" fill="#2D2D2D"/>
<path d="M86.7068 34.9722C87.206 34.2228 88.122 33.4492 89.3303 33.0638C90.5386 32.6784 91.9141 32.6435 93.2072 33.3339C93.7077 33.4849 94.1251 33.9109 94.4589 34.1617C93.7931 35.0109 93.2524 35.8978 92.8783 36.685C92.503 36.5717 92.3358 36.2212 91.9604 36.1079C90.5422 35.3798 88.875 35.4767 87.5837 36.137C86.3339 36.6599 85.6266 37.6466 85.6266 37.6466C85.6266 37.6466 85.7096 37.3716 85.8341 36.9591C85.9586 36.5466 86.2076 35.7217 86.8319 35.01L86.7068 34.9722Z" fill="#2D2D2D"/>
<path d="M134.772 42.581C136.147 42.0959 137.73 41.8238 139.315 42.0019C140.899 42.1801 142.525 42.6709 144.027 43.5743C146.989 45.5185 148.744 48.7485 149.04 51.8382C149.251 53.402 149.169 55.0276 148.755 56.4026C148.629 56.3648 148.463 56.4645 148.296 56.5643C147.713 56.6882 147.213 56.9874 146.713 57.2866C147.003 55.8739 146.959 54.2105 146.665 52.4715C146.162 50.0693 144.699 47.6777 142.405 46.2351C140.235 44.8302 137.484 44.4497 135.234 45.1207C133.775 45.4306 132.484 46.0909 131.401 46.9643C131.359 46.2013 131.357 45.3009 131.315 44.5379C132.231 43.7642 133.397 43.0661 134.605 42.6807L134.772 42.581Z" fill="#2D2D2D"/>
<path d="M156.48 62.9332C156.48 62.9332 156.522 62.7957 156.563 62.6582C156.563 62.208 156.52 61.8952 156.395 61.4072C158.269 60.6229 160.978 60.2404 163.606 61.0334C166.233 61.8263 168.987 64.0077 170.367 67.1245C171.871 70.2791 171.835 74.0184 170.838 76.868C169.925 79.8928 168.052 82.0279 166.303 83.3002C164.554 84.5725 162.888 85.1196 161.887 85.2677C160.721 85.5156 160.179 85.5021 160.179 85.5021C160.179 85.5021 160.762 85.3781 161.72 84.9172C162.678 84.4563 164.011 83.6585 165.426 82.1354C166.675 80.712 167.964 78.701 168.42 76.2881C169 73.9129 168.746 71.136 167.701 68.7202C166.656 66.3045 164.736 64.5249 162.567 63.5702C160.523 62.6533 158.356 62.5991 156.48 62.9332Z" fill="#2D2D2D"/>
<path d="M122.329 119.535C122.329 119.535 122.163 120.085 121.914 120.91C121.791 121.773 121.667 123.085 122.003 124.687C122.255 126.113 122.966 127.828 124.218 129.106C125.47 130.384 127.097 131.325 129.057 131.617C131.016 131.908 132.975 131.299 134.516 130.264C136.056 129.229 137.138 127.905 137.845 126.468C138.137 126.857 138.555 127.283 139.014 127.571C138.516 129.221 137.476 130.857 135.81 132.305C133.978 133.852 131.354 134.86 128.561 134.617C125.934 134.275 123.514 132.794 122.219 130.753C120.883 128.849 120.463 126.623 120.461 124.822C120.458 123.021 120.998 121.683 121.414 120.759C121.83 119.834 122.079 119.459 122.079 119.459L122.329 119.535Z" fill="#2D2D2D"/>
<path d="M111.675 130.87C111.675 130.87 111.467 131.558 111.135 132.657C110.928 133.795 110.847 135.421 111.225 137.335C111.603 139.249 112.481 141.315 114.192 142.881C115.778 144.41 118.155 145.578 120.74 145.608C123.324 145.638 125.699 144.554 127.572 142.869C129.404 141.322 130.444 139.235 131.025 137.311C131.315 136.348 131.481 135.348 131.563 134.623C131.855 134.561 132.146 134.499 132.438 134.437C132.564 135.375 132.649 136.451 132.401 137.726C132.154 139.902 131.199 142.614 129.118 144.986C127.078 147.221 123.954 148.978 120.578 148.859C117.159 148.878 114.239 147.246 112.486 144.916C110.565 142.687 109.894 139.934 109.891 137.683C109.888 135.432 110.386 133.782 110.885 132.582C111.342 131.52 111.8 130.908 111.8 130.908L111.675 130.87Z" fill="#2D2D2D"/>
<path d="M93.7789 120.968C93.0307 122.542 92.4497 124.467 92.4106 126.406C92.3306 128.932 93.0842 131.41 94.5879 133.664C96.0915 135.918 98.095 137.873 100.056 139.065C102.016 140.256 104.143 140.898 105.894 140.977C107.77 141.093 109.228 140.783 110.354 140.673C111.396 140.387 112.02 140.126 112.02 140.126C112.02 140.126 111.479 140.562 110.521 141.023C109.521 141.622 107.98 142.206 105.979 142.503C103.979 142.799 101.436 142.632 98.9334 141.426C96.4308 140.221 94.1771 138.19 92.2561 135.51C91.2955 134.17 90.6682 132.631 90.2075 130.991C89.8719 129.39 89.7028 127.689 89.9927 126.276C90.1575 124.826 90.6561 123.626 91.1132 122.564C92.0713 122.103 93.0294 121.642 93.7789 120.968Z" fill="#2D2D2D"/>
<path d="M54.3017 24.7419C53.5108 25.5533 52.845 26.4025 52.3458 27.1519C51.8454 27.0009 51.4701 26.8876 50.9697 26.7366C50.8446 26.6988 50.5944 26.6233 50.3442 26.5478C50.8428 25.3481 51.6331 24.0865 52.507 23.0001C54.4629 20.5901 57.2945 18.4444 60.5863 17.4877C63.878 16.531 67.2131 16.7876 69.8408 18.0308C72.5101 19.1365 74.4299 20.9161 75.6413 22.7819C76.2259 23.5584 76.6854 24.2972 77.0198 24.9982C77.0198 24.9982 76.8947 24.9604 76.7281 25.0602C76.5615 25.1599 76.2698 25.2219 76.0617 25.4591C75.6858 24.8956 75.1848 24.2943 74.6423 23.8305C73.2649 22.5147 71.3457 21.1853 68.9687 20.4679C66.5918 19.7504 63.8822 19.6827 61.1739 20.5154C58.4656 21.3482 56.0916 22.8819 54.3017 24.7419Z" fill="#2D2D2D"/>
<path d="M32.8852 62.6833C32.8852 62.6833 33.5516 62.2843 33.7597 62.0471C34.0935 62.2979 34.4273 62.5487 34.7611 62.7994C34.3864 63.1364 34.0117 63.4733 33.637 63.8103C31.8886 65.5328 30.1414 68.1559 29.2284 71.1807C28.2739 74.343 28.1537 77.9071 29.1587 81.3609C30.1638 84.8146 32.2099 87.5324 34.6717 89.3256C37.1334 91.1188 39.7606 91.9117 42.0118 92.1412C42.262 92.2167 42.6788 92.1925 42.9705 92.1305C42.846 92.543 42.68 93.093 42.5555 93.5054C42.3053 93.4299 42.1387 93.5296 41.847 93.5916C39.3047 93.8744 36.1777 93.3806 33.1741 91.5739C30.1704 89.7672 27.5817 86.5856 26.3674 82.4686C25.153 78.3516 25.5638 73.825 26.893 70.3258C28.2222 66.8265 30.5113 64.217 32.6765 62.4703L32.8852 62.6833Z" fill="#2D2D2D"/>
<path d="M63.5368 104.039C64.0805 105.403 65.2076 106.643 66.6258 107.372C68.6281 108.426 70.9202 108.068 72.4196 107.17C72.2121 107.858 72.1297 108.583 72.1309 109.483C71.5896 109.92 70.9232 110.319 70.0481 110.505C68.6732 110.99 66.9224 110.911 65.379 110.146C63.8357 109.38 62.7501 108.002 62.0813 106.6C61.9141 106.249 61.872 105.937 61.8298 105.624C62.5378 105.088 63.1206 104.513 63.5783 103.901L63.5368 104.039Z" fill="#2D2D2D"/>
<path d="M135.881 123.025C136.967 124.403 138.845 126.32 141.432 127.701C144.143 129.119 147.646 130.177 151.48 129.684C155.44 129.229 159.564 127.323 162.935 123.84C166.266 120.495 168.177 115.971 168.755 111.795C169.333 107.619 168.619 103.653 167.448 100.749C167.114 100.048 166.779 99.3472 166.445 98.6462C166.778 98.4467 167.236 98.285 167.569 98.0855C167.945 98.649 168.321 99.2126 168.656 99.9136C170.244 102.793 171.541 107.085 171.048 111.887C170.679 116.726 168.56 121.937 164.731 126.032C160.901 130.127 155.818 132.043 151.4 132.21C146.982 132.376 143.062 130.893 140.516 128.925C137.804 127.056 136.301 124.802 135.298 123.149C134.421 121.534 134.044 120.52 134.044 120.52C134.044 120.52 134.587 121.434 135.673 122.812L135.881 123.025Z" fill="#2D2D2D"/>
<path d="M96.6963 88.6943C73.8762 136.713 32.7253 130.143 32.7253 130.143C32.7253 130.143 61.0164 120.98 68.7479 73.6578C76.4793 26.3354 119.516 40.6756 96.6963 88.6943Z" fill="white"/>
<path d="M39.1856 128.642C37.1431 128.626 34.9755 128.572 32.9744 128.418L33.0208 131.882C34.2706 131.359 35.3538 130.936 36.4785 130.376C37.6032 129.815 38.6028 129.216 39.644 128.481C41.6847 127.146 43.4752 125.737 45.3072 124.189C48.8461 121.057 51.8011 117.598 54.2141 114.126C59.2067 107.082 62.3234 99.9217 64.316 93.7723C66.3086 87.6229 67.3021 82.5222 67.9228 79.1091C68.4184 75.6583 68.7492 73.6578 68.7492 73.6578C68.7492 73.6578 68.4599 75.5208 67.5475 78.9958C66.6351 82.4709 65.3077 87.3209 62.9813 93.2195C60.6549 99.1181 57.246 105.89 52.2942 112.346C49.7976 115.643 46.8006 118.789 43.5113 121.547C41.8459 122.994 40.0968 124.267 38.2227 125.501C37.2231 126.1 36.3901 126.598 35.3905 127.197C34.4324 127.658 33.3076 128.218 32.391 128.542L25.2247 131.029L32.4374 132.006C34.7722 132.411 36.9398 132.465 39.149 132.382C49.3195 132.151 58.9861 129.068 66.7749 124.518C74.6888 120.006 80.85 114.065 85.1359 108.457C89.547 102.888 92.2914 97.8657 94.0374 94.3422C95.7834 90.8187 96.531 88.7941 96.531 88.7941C96.531 88.7941 95.5332 90.7432 93.5785 94.0537C91.6238 97.3641 88.4204 102.098 83.8837 107.179C79.347 112.261 73.2266 117.614 65.6038 121.614C57.981 125.614 48.8558 128.261 39.2271 128.505L39.1856 128.642Z" fill="black"/>
</g>
</g>
<defs>
<clipPath id="clip0_1043_50791">
<rect width="158.119" height="127.246" fill="white" transform="matrix(-0.957342 -0.288956 -0.288956 0.957342 191.141 48.042)"/>
</clipPath>
</defs>
</svg>
