<svg width="141" height="136" viewBox="0 0 141 136" fill="none" xmlns="http://www.w3.org/2000/svg">
<path d="M58.4869 135.632C58.4002 135.632 58.3136 135.625 58.2269 135.611C56.0601 135.247 55.6409 130.861 55.1386 123.732C54.9582 121.177 54.7725 118.536 54.4453 116.545C53.9854 113.734 53.4317 113.405 53.3256 113.368C53.2142 113.329 52.5473 113.233 50.3841 115.185C48.8594 116.562 47.0447 118.537 45.2883 120.447C41.1387 124.962 38.3157 127.915 36.416 127.917C36.1348 127.917 35.873 127.851 35.6307 127.717C33.7239 126.66 34.794 122.406 36.6955 115.555C37.3835 113.078 38.0946 110.514 38.4554 108.518C38.9648 105.693 38.5456 105.19 38.4554 105.12C38.3652 105.045 37.7744 104.738 35.0983 105.841C33.2092 106.621 30.8426 107.866 28.5555 109.068C22.2923 112.36 18.3815 114.296 16.9576 112.671C15.5284 111.041 17.9729 107.42 22.0783 101.646C23.5729 99.5434 25.1188 97.3705 26.1412 95.606C27.5898 93.1078 27.3634 92.4836 27.3032 92.3846C27.2431 92.2856 26.8009 91.7994 23.9302 91.9125C21.9014 91.9921 19.2641 92.3387 16.7153 92.6763C9.66141 93.6063 5.29783 94.0731 4.5231 92.0345C3.76075 90.026 7.29831 87.5119 13.1353 83.5763C15.2844 82.1265 17.5077 80.6272 19.0979 79.3242C21.3548 77.4748 21.3619 76.7959 21.3407 76.6792C21.3212 76.5696 21.0842 75.9755 18.3939 75.0756C16.4889 74.4391 13.9206 73.8344 11.4372 73.2492C4.45232 71.6049 0.171875 70.4858 0.171875 68.2722C0.171875 66.0586 4.45232 64.9395 11.4372 63.297C13.9206 62.7118 16.4889 62.1088 18.3939 61.4706C21.0842 60.5707 21.3212 59.9784 21.3407 59.867C21.3619 59.7503 21.3548 59.0714 19.0979 57.222C17.5077 55.919 15.2844 54.4197 13.1353 52.9699C7.29831 49.0325 3.76075 46.5184 4.5231 44.5116C5.29783 42.4713 9.66141 42.9381 16.7153 43.8698C19.2641 44.2057 21.9014 44.5541 23.9302 44.6336C26.8027 44.7432 27.2449 44.2605 27.3032 44.1615C27.3634 44.0625 27.5898 43.4384 26.1412 40.9402C25.1188 39.1757 23.5729 37.0028 22.0783 34.9006C17.9729 29.128 15.5284 25.507 16.9576 23.8751C18.3815 22.2503 22.2923 24.1846 28.5538 27.4784C30.8408 28.6807 33.2074 29.9254 35.0965 30.7051C37.7744 31.8101 38.3634 31.5007 38.4537 31.4264C38.5421 31.3539 38.9613 30.8536 38.4537 28.0282C38.0928 26.0304 37.3818 23.4685 36.6937 20.9915C34.7905 14.1404 33.7222 9.8865 35.6289 8.82922C37.5038 7.78961 40.5214 10.9137 45.2865 16.0993C47.0411 18.0106 48.8576 19.9855 50.3823 21.3628C52.5438 23.3147 53.2124 23.2192 53.3238 23.1803C53.43 23.1432 53.9836 22.8161 54.4435 20.0032C54.7689 18.0124 54.9564 15.3709 55.1368 12.8161C55.6392 5.68743 56.0566 1.30091 58.2251 0.936697C60.3141 0.581323 62.1165 4.50813 64.8722 10.9367C65.8999 13.3359 66.9629 15.8147 67.9534 17.634C69.3614 20.2171 70.0353 20.3479 70.1556 20.3479C70.2758 20.3479 70.9498 20.2171 72.3577 17.634C73.3483 15.8165 74.4113 13.3359 75.4389 10.9367C78.1947 4.50636 79.9936 0.583089 82.086 0.934928C84.2528 1.29914 84.672 5.68566 85.1743 12.8144C85.3548 15.3692 85.5405 18.0106 85.8677 20.0014C86.3293 22.8126 86.8812 23.1414 86.9873 23.1785C87.0988 23.2174 87.7673 23.3129 89.9288 21.361C91.4535 19.9837 93.2683 18.0088 95.0247 16.0993C99.7898 10.9137 102.806 7.78784 104.682 8.82922C106.589 9.8865 105.519 14.1404 103.617 20.9915C102.929 23.4685 102.218 26.0321 101.857 28.0282C101.348 30.8536 101.767 31.3557 101.857 31.4264C101.948 31.5007 102.538 31.8083 105.215 30.7051C107.104 29.9254 109.47 28.6807 111.757 27.4784C118.019 24.1846 121.93 22.2503 123.354 23.8751C124.783 25.5053 122.338 29.1262 118.233 34.9006C116.738 37.0028 115.192 39.1757 114.17 40.9402C112.721 43.4384 112.948 44.0625 113.008 44.1615C113.068 44.2605 113.508 44.745 116.381 44.6336C118.41 44.5541 121.047 44.2075 123.596 43.8698C130.65 42.9398 135.013 42.4713 135.788 44.5116C136.55 46.5201 133.013 49.0342 127.176 52.9699C125.025 54.4197 122.803 55.919 121.213 57.222C118.956 59.0714 118.949 59.7503 118.97 59.867C118.99 59.9766 119.227 60.5707 121.917 61.4706C123.822 62.1071 126.391 62.7118 128.874 63.297C135.859 64.9412 140.139 66.0604 140.139 68.2722C140.139 70.484 135.859 71.6049 128.874 73.2492C126.391 73.8326 123.824 74.4373 121.917 75.0738C119.227 75.9737 118.99 76.566 118.97 76.6774C118.949 76.7941 118.956 77.473 121.213 79.3224C122.803 80.6254 125.027 82.1247 127.176 83.5745C133.013 87.5119 136.55 90.026 135.788 92.0328C135.013 94.0731 130.65 93.6063 123.596 92.6746C121.047 92.3387 118.41 91.9903 116.381 91.9108C113.508 91.7976 113.066 92.2838 113.008 92.3828C112.948 92.4818 112.721 93.106 114.17 95.6042C115.192 97.3687 116.738 99.5416 118.233 101.644C122.338 107.416 124.783 111.037 123.354 112.669C121.93 114.296 118.019 112.36 111.756 109.066C109.469 107.864 107.102 106.619 105.213 105.839C102.535 104.734 101.946 105.044 101.856 105.118C101.767 105.19 101.348 105.691 101.856 108.516C102.217 110.514 102.928 113.076 103.616 115.553C105.519 122.404 106.587 126.658 104.68 127.715C102.804 128.757 99.788 125.631 95.0229 120.445C93.2683 118.536 91.4517 116.559 89.927 115.183C87.7656 113.231 87.097 113.327 86.9856 113.366C86.8794 113.403 86.3258 113.73 85.8659 116.543C85.5405 118.534 85.353 121.175 85.1726 123.73C84.6702 130.859 84.2528 135.245 82.0843 135.609C81.9976 135.624 81.9109 135.631 81.8242 135.631C79.8379 135.631 78.078 131.771 75.4372 125.608C74.4095 123.208 73.3465 120.73 72.356 118.91C70.9498 116.327 70.2758 116.196 70.1538 116.196C70.0317 116.196 69.3596 116.327 67.9517 118.91C66.9612 120.728 65.8981 123.208 64.8705 125.608C62.2297 131.771 60.4697 135.631 58.4834 135.631L58.4869 135.632ZM70.1573 114.786C72.2357 114.786 74.0133 118.688 76.7407 125.053C77.7755 127.466 78.8456 129.961 79.8255 131.741C81.2282 134.287 81.8278 134.218 81.8526 134.214C81.9198 134.204 82.5247 134.02 83.0252 131.112C83.3808 129.057 83.5754 126.299 83.7628 123.631C84.2404 116.87 84.6278 112.692 86.5204 112.031C88.4607 111.354 91.411 114.425 96.0665 119.49C97.853 121.435 99.7014 123.445 101.23 124.809C103.419 126.762 103.973 126.492 103.996 126.479C104.054 126.448 104.553 126.08 104.054 123.194C103.702 121.152 102.965 118.498 102.254 115.933C100.432 109.37 99.3954 105.284 100.968 104.016C102.556 102.738 106.352 104.626 112.415 107.814C114.763 109.048 117.189 110.325 119.098 111.097C121.836 112.206 122.271 111.757 122.289 111.738C122.306 111.718 122.696 111.225 121.229 108.656C120.207 106.865 118.617 104.628 117.08 102.464C113.119 96.8949 110.746 93.3924 111.795 91.6526C112.838 89.9235 117.028 90.3815 123.78 91.2725C126.421 91.6208 129.153 91.9815 131.225 92.0452C134.198 92.1353 134.454 91.5554 134.465 91.5307C134.474 91.5077 134.661 90.9242 132.41 89.0554C130.835 87.7488 128.573 86.223 126.385 84.7467C120.684 80.9012 117.209 78.4419 117.578 76.4228C117.936 74.4639 121.981 73.4172 128.548 71.8719C131.161 71.2567 133.862 70.6219 135.841 69.9394C138.643 68.9741 138.723 68.3412 138.723 68.2722C138.723 68.2032 138.641 67.5721 135.841 66.6067C133.862 65.9243 131.161 65.2878 128.548 64.6742C121.979 63.129 117.936 62.0823 117.578 60.1233C117.209 58.1025 120.684 55.6449 126.385 51.7995C128.573 50.3232 130.835 48.7973 132.41 47.4907C134.661 45.6219 134.474 45.0385 134.465 45.0155C134.456 44.9908 134.198 44.4091 131.225 44.501C129.153 44.5647 126.422 44.9253 123.78 45.2736C117.028 46.1647 112.838 46.6227 111.795 44.8935C110.744 43.1538 113.119 39.6513 117.08 34.082C118.618 31.9197 120.209 29.6832 121.229 27.8904C122.696 25.3214 122.305 24.8281 122.289 24.8087C122.271 24.7892 121.836 24.3402 119.098 25.4487C117.189 26.2213 114.763 27.4979 112.415 28.732C106.354 31.9197 102.556 33.8097 100.968 32.5315C99.3936 31.2638 100.432 27.1778 102.254 20.6149C102.966 18.0495 103.702 15.3957 104.054 13.3536C104.551 10.4682 104.054 10.1004 103.996 10.0686C103.973 10.0562 103.419 9.78571 101.23 11.7394C99.7014 13.1025 97.853 15.1146 96.0665 17.0576C91.8409 21.6563 89.0196 24.6089 87.0846 24.6107C86.8883 24.6107 86.7008 24.5806 86.5204 24.517C84.6278 23.8557 84.2387 19.6796 83.7628 12.9187C83.5754 10.2507 83.3808 7.49259 83.0252 5.43637C82.5229 2.52796 81.9198 2.34584 81.8526 2.33347C81.8278 2.3317 81.2282 2.26275 79.8255 4.80694C78.8439 6.58735 77.7755 9.08378 76.7407 11.4954C74.0115 17.8603 72.2339 21.7624 70.1573 21.7624C68.0808 21.7624 66.3014 17.8603 63.5722 11.4954C62.5374 9.08202 61.4691 6.58735 60.4874 4.80694C59.0848 2.26098 58.4887 2.3317 58.4604 2.33347C58.3932 2.34408 57.7882 2.52796 57.2877 5.43637C56.9321 7.49083 56.7394 10.2507 56.5501 12.9187C56.0725 19.6796 55.6851 23.8575 53.7925 24.517C51.854 25.1941 48.9019 22.1231 44.2464 17.0576C42.4599 15.1128 40.6116 13.1025 39.0834 11.7394C36.8936 9.78571 36.34 10.0562 36.317 10.0686C36.2586 10.1004 35.7598 10.4682 36.2568 13.3536C36.6088 15.3957 37.3464 18.0495 38.0574 20.6149C39.8793 27.1778 40.9158 31.2638 39.3434 32.5315C37.7568 33.8097 33.9592 31.9214 27.8958 28.7337C25.5486 27.4996 23.1218 26.2231 21.2133 25.4505C18.4752 24.3419 18.0401 24.791 18.0224 24.8104C18.0047 24.8299 17.6156 25.3232 19.0819 27.8921C20.1043 29.6832 21.6944 31.9197 23.2315 34.0838C27.1918 39.6531 29.5655 43.1555 28.5166 44.8953C27.4731 46.6244 23.2828 46.1665 16.5314 45.2754C13.8906 44.9271 11.1578 44.5664 9.08653 44.5028C6.1132 44.4091 5.85676 44.9925 5.84792 45.0173C5.83907 45.0403 5.65156 45.6237 7.90322 47.4925C9.47744 48.7991 11.7397 50.3249 13.9277 51.8012C19.6285 55.6467 23.1042 58.106 22.7345 60.1251C22.3772 62.0841 18.332 63.1307 11.7645 64.676C9.152 65.2913 6.45107 65.926 4.4718 66.6085C1.67005 67.5738 1.59044 68.2068 1.59044 68.274C1.59044 68.3412 1.67181 68.9741 4.4718 69.9412C6.45107 70.6237 9.152 71.2602 11.7645 71.8737C18.3338 73.4189 22.3772 74.4656 22.7345 76.4246C23.1042 78.4455 19.6285 80.903 13.9277 84.7485C11.7397 86.2248 9.47744 87.7506 7.90322 89.0572C5.65156 90.926 5.83907 91.5095 5.84792 91.5324C5.85676 91.5572 6.1132 92.1406 9.0883 92.0469C11.1595 91.9833 13.8906 91.6226 16.5331 91.2743C23.2846 90.3832 27.4748 89.9253 28.5184 91.6544C29.5691 93.3942 27.1936 96.8966 23.2333 102.466C21.6944 104.628 20.1043 106.865 19.0837 108.658C17.6174 111.227 18.0083 111.72 18.0242 111.739C18.0419 111.759 18.477 112.208 21.2151 111.099C23.1236 110.327 25.5504 109.05 27.8976 107.816C33.9592 104.628 37.7568 102.74 39.3451 104.018C40.9193 105.286 39.8811 109.372 38.0592 115.935C37.3464 118.5 36.6106 121.154 36.2586 123.196C35.7616 126.082 36.2586 126.449 36.317 126.481C36.34 126.493 36.8936 126.764 39.0834 124.81C40.6116 123.447 42.4599 121.435 44.2464 119.492C48.9019 114.427 51.8522 111.356 53.7925 112.033C55.6851 112.694 56.0743 116.87 56.5501 123.631C56.7376 126.299 56.9321 129.057 57.2877 131.113C57.79 134.022 58.3932 134.204 58.4604 134.216C58.4851 134.22 59.0848 134.287 60.4874 131.743C61.4691 129.962 62.5374 127.466 63.5722 125.054C66.3014 118.688 68.079 114.787 70.1573 114.787V114.786Z" fill="white"/>
</svg>
