<svg width="151" height="40" viewBox="0 0 151 40" fill="none" xmlns="http://www.w3.org/2000/svg">
<path d="M136.039 39.7366C133.291 39.7366 130.822 39.1642 128.631 38.0195C126.472 36.8748 124.771 35.2395 123.528 33.1136C122.285 30.9876 121.664 28.4856 121.664 25.6074C121.664 22.762 122.285 20.2763 123.528 18.1504C124.804 16.0245 126.521 14.3892 128.68 13.2444C130.871 12.0997 133.34 11.5273 136.088 11.5273C138.835 11.5273 141.288 12.0997 143.447 13.2444C145.638 14.3892 147.355 16.0245 148.598 18.1504C149.873 20.2763 150.511 22.762 150.511 25.6074C150.511 28.4529 149.873 30.9549 148.598 33.1136C147.355 35.2395 145.638 36.8748 143.447 38.0195C141.255 39.1642 138.786 39.7366 136.039 39.7366ZM136.039 31.3965C137.379 31.3965 138.491 30.9059 139.375 29.9247C140.29 28.9108 140.748 27.4717 140.748 25.6074C140.748 23.7432 140.29 22.3204 139.375 21.3393C138.491 20.3581 137.396 19.8675 136.088 19.8675C134.779 19.8675 133.684 20.3581 132.801 21.3393C131.918 22.3204 131.476 23.7432 131.476 25.6074C131.476 27.5044 131.901 28.9435 132.752 29.9247C133.602 30.9059 134.698 31.3965 136.039 31.3965Z" fill="#040404"/>
<path d="M81.6309 19.8678H77.3136V39.3935H67.6489V19.8678H64.6562V11.8711H67.6489V11.6258C67.6489 8.09354 68.6791 5.39527 70.7396 3.531C72.8328 1.63403 75.8255 0.685547 79.7175 0.685547C80.5025 0.685547 81.1076 0.7019 81.5327 0.734606V8.92755C81.2711 8.89485 80.9113 8.87849 80.4534 8.87849C79.4068 8.87849 78.6382 9.12379 78.1476 9.61439C77.657 10.0723 77.379 10.8245 77.3136 11.8711H81.6309V19.8678Z" fill="#040404"/>
<path d="M62.5143 25.3131C62.5143 26.0653 62.4652 26.8176 62.3671 27.5698H44.166C44.2641 29.0743 44.6729 30.2027 45.3925 30.9549C46.1447 31.6745 47.0932 32.0342 48.2379 32.0342C49.8406 32.0342 50.9853 31.3147 51.6721 29.8756H61.9256C61.5004 31.7726 60.6664 33.4733 59.4235 34.9778C58.2134 36.4496 56.6762 37.6107 54.8119 38.461C52.9477 39.3114 50.8872 39.7366 48.6304 39.7366C45.9158 39.7366 43.4955 39.1642 41.3696 38.0195C39.2764 36.8748 37.6247 35.2395 36.4146 33.1136C35.2372 30.9876 34.6484 28.4856 34.6484 25.6074C34.6484 22.7293 35.2372 20.2436 36.4146 18.1504C37.592 16.0245 39.2273 14.3892 41.3205 13.2444C43.4465 12.0997 45.8831 11.5273 48.6304 11.5273C51.345 11.5273 53.749 12.0834 55.8422 13.1954C57.9354 14.3074 59.5707 15.91 60.7481 18.0032C61.9256 20.0637 62.5143 22.5003 62.5143 25.3131ZM52.7024 22.9092C52.7024 21.7317 52.3099 20.816 51.5249 20.1618C50.74 19.475 49.7588 19.1316 48.5814 19.1316C47.4039 19.1316 46.4391 19.4586 45.6868 20.1128C44.9346 20.7342 44.444 21.6663 44.2151 22.9092H52.7024Z" fill="#040404"/>
<path d="M14.4532 4.80664C18.0837 4.80664 21.2562 5.54253 23.9708 7.01432C26.7181 8.4534 28.8277 10.4812 30.2995 13.0977C31.7713 15.7142 32.5072 18.7069 32.5072 22.0756C32.5072 25.4117 31.7549 28.3879 30.2504 31.0045C28.7786 33.621 26.6691 35.6815 23.9217 37.186C21.2071 38.6577 18.0509 39.3936 14.4532 39.3936H0.765625V4.80664H14.4532ZM13.7174 30.9063C16.5301 30.9063 18.7378 30.1377 20.3404 28.6005C21.943 27.0633 22.7443 24.8884 22.7443 22.0756C22.7443 19.2302 21.943 17.0388 20.3404 15.5016C18.7378 13.9317 16.5301 13.1468 13.7174 13.1468H10.3813V30.9063H13.7174Z" fill="#040404"/>
<path fill-rule="evenodd" clip-rule="evenodd" d="M98.0938 19.8678H98.0636V39.3935H88.3989V19.8678H85.4062V11.8711H88.3989V11.6258C88.3989 8.09354 89.4291 5.39527 91.4896 3.531C93.5828 1.63403 96.5755 0.685547 100.468 0.685547C101.252 0.685547 101.858 0.7019 102.283 0.734606V8.92755C102.021 8.89485 101.661 8.87849 101.203 8.87849C100.157 8.87849 99.3882 9.12379 98.8976 9.61439C98.407 10.0723 98.129 10.8245 98.0636 11.8711H98.0938V11.8164H117.851V11.8711H117.889V39.3935H108.273V19.9176H98.0938V19.8678Z" fill="#040404"/>
<circle cx="113.081" cy="5.07149" r="4.80782" fill="#040404"/>
</svg>
